<svg xmlns="http://www.w3.org/2000/svg" width="167.211" height="124.608" viewBox="0 0 167.211 124.608"><g transform="translate(0 -54.953)"><g transform="translate(0 54.953)"><g transform="translate(0 0)"><rect width="167.211" height="0.084" transform="translate(0 109.505)" fill="#ebebeb"/><rect width="11.077" height="0.084" transform="translate(139.38 114.888)" fill="#ebebeb"/><rect width="2.907" height="0.084" transform="translate(107.86 115.795)" fill="#ebebeb"/><rect width="6.418" height="0.084" transform="translate(132.627 111.782)" fill="#ebebeb"/><rect width="14.445" height="0.084" transform="translate(17.543 112.344)" fill="#ebebeb"/><rect width="2.118" height="0.084" transform="translate(34.966 112.344)" fill="#ebebeb"/><rect width="31.327" height="0.084" transform="translate(43.967 113.756)" fill="#ebebeb"/><path d="M104.692,149.543H40.116a1.911,1.911,0,0,1-1.909-1.909V56.862a1.911,1.911,0,0,1,1.909-1.909h64.576a1.911,1.911,0,0,1,1.909,1.909v90.773A1.911,1.911,0,0,1,104.692,149.543ZM40.116,55.037a1.827,1.827,0,0,0-1.825,1.825v90.773a1.827,1.827,0,0,0,1.825,1.825h64.576a1.827,1.827,0,0,0,1.825-1.825V56.862a1.827,1.827,0,0,0-1.825-1.825Z" transform="translate(-25.43 -54.953)" fill="#ebebeb"/><path d="M320.99,149.543H256.414a1.911,1.911,0,0,1-1.909-1.909V56.862a1.911,1.911,0,0,1,1.909-1.909H320.99a1.911,1.911,0,0,1,1.909,1.909v90.773A1.911,1.911,0,0,1,320.99,149.543ZM256.414,55.037a1.827,1.827,0,0,0-1.825,1.825v90.773a1.827,1.827,0,0,0,1.825,1.825H320.99a1.827,1.827,0,0,0,1.826-1.825V56.862a1.827,1.827,0,0,0-1.826-1.825Z" transform="translate(-169.393 -54.953)" fill="#ebebeb"/></g><g transform="translate(23.242 16.534)"><g transform="translate(69.795 18.999)"><rect width="50.233" height="73.649" transform="translate(50.233 73.649) rotate(180)" fill="#f0f0f0"/><g transform="translate(1.776 2.318)"><rect width="46.682" height="13.602" transform="translate(46.682 13.602) rotate(180)" fill="#e0e0e0"/><rect width="2.652" height="11.4" transform="translate(46.682 13.602) rotate(180)" fill="#ebebeb"/><rect width="2.652" height="11.4" transform="translate(33.859 13.602) rotate(180)" fill="#ebebeb"/><rect width="2.652" height="11.4" transform="translate(17.328 13.602) rotate(-170.221)" fill="#ebebeb"/><rect width="2.652" height="9.898" transform="translate(43.396 13.602) rotate(180)" fill="#ebebeb"/><rect width="2.652" height="9.898" transform="translate(37.301 13.602) rotate(180)" fill="#ebebeb"/><rect width="2.652" height="9.898" transform="translate(21.916 13.602) rotate(180)" fill="#ebebeb"/><rect width="2.652" height="9.898" transform="translate(28.166 13.602) rotate(-167.473)" fill="#ebebeb"/><rect width="1.326" height="11.966" transform="translate(39.777 13.602) rotate(180)" fill="#ebebeb"/><rect width="1.326" height="11.966" transform="translate(24.004 13.602) rotate(180)" fill="#ebebeb"/></g><g transform="translate(1.776 18.074)"><rect width="46.682" height="13.602" fill="#e0e0e0"/><rect width="2.652" height="11.4" transform="translate(0 2.202)" fill="#ebebeb"/><rect width="2.652" height="11.4" transform="translate(12.823 2.202)" fill="#ebebeb"/><rect width="2.652" height="11.4" transform="matrix(0.985, -0.17, 0.17, 0.985, 27.418, 2.368)" fill="#ebebeb"/><rect width="2.652" height="9.898" transform="translate(3.286 3.704)" fill="#ebebeb"/><rect width="2.652" height="9.898" transform="translate(9.381 3.704)" fill="#ebebeb"/><rect width="2.652" height="9.898" transform="translate(24.766 3.704)" fill="#ebebeb"/><rect width="2.652" height="9.898" transform="translate(16.369 3.94) rotate(-12.527)" fill="#ebebeb"/><rect width="1.326" height="11.966" transform="translate(6.905 1.636)" fill="#ebebeb"/><rect width="1.326" height="11.966" transform="translate(22.678 1.636)" fill="#ebebeb"/><rect width="2.652" height="11.4" transform="translate(46.682 13.602) rotate(180)" fill="#ebebeb"/><rect width="2.652" height="9.898" transform="translate(43.396 13.602) rotate(180)" fill="#ebebeb"/><rect width="2.652" height="9.898" transform="translate(37.301 13.602) rotate(180)" fill="#ebebeb"/><rect width="1.326" height="11.966" transform="translate(39.777 13.602) rotate(180)" fill="#ebebeb"/></g><g transform="translate(1.776 33.83)"><rect width="46.682" height="13.602" transform="translate(46.682 13.602) rotate(180)" fill="#e0e0e0"/><g transform="translate(0.743 1.636)"><rect width="2.652" height="11.4" transform="translate(19.145 11.966) rotate(180)" fill="#ebebeb"/><rect width="2.652" height="11.4" transform="translate(2.613 11.966) rotate(-170.221)" fill="#ebebeb"/><rect width="2.652" height="9.898" transform="translate(28.682 11.966) rotate(180)" fill="#ebebeb"/><rect width="2.652" height="9.898" transform="translate(22.586 11.966) rotate(180)" fill="#ebebeb"/><rect width="2.652" height="9.898" transform="translate(7.201 11.966) rotate(180)" fill="#ebebeb"/><rect width="2.652" height="9.898" transform="translate(13.452 11.966) rotate(-167.472)" fill="#ebebeb"/><rect width="1.326" height="11.966" transform="translate(25.063 11.966) rotate(180)" fill="#ebebeb"/><rect width="1.326" height="11.966" transform="translate(9.29 11.966) rotate(180)" fill="#ebebeb"/><rect width="2.652" height="11.4" transform="translate(33.122 11.966) rotate(-170.221)" fill="#ebebeb"/><rect width="2.652" height="9.898" transform="translate(37.71 11.966) rotate(180)" fill="#ebebeb"/><rect width="2.652" height="9.898" transform="translate(43.96 11.966) rotate(-167.472)" fill="#ebebeb"/><rect width="1.326" height="11.966" transform="translate(39.798 11.966) rotate(180)" fill="#ebebeb"/></g></g><rect width="8.666" height="73.842" transform="translate(50.233)" fill="#e0e0e0"/></g><g transform="translate(0 0)"><g transform="translate(26.777 2.842)"><rect width="10.369" height="14.672" transform="translate(14.672) rotate(90)" fill="#e0e0e0"/><rect width="9.017" height="13.292" transform="translate(13.982 0.676) rotate(90)" fill="#ebebeb"/></g><g transform="translate(21.689 15.868)"><rect width="10.369" height="14.672" transform="translate(14.672) rotate(90)" fill="#e0e0e0"/><rect width="9.017" height="13.292" transform="translate(13.982 0.676) rotate(90)" fill="#ebebeb"/></g><g transform="translate(14.658)"><rect width="9.336" height="13.211" transform="translate(9.336 13.211) rotate(180)" fill="#e0e0e0"/><rect width="8.119" height="11.968" transform="translate(8.727 12.589) rotate(180)" fill="#ebebeb"/></g><g transform="translate(9.347 15.868)"><rect width="10.369" height="14.672" transform="translate(10.369 14.672) rotate(180)" fill="#e0e0e0"/><rect width="9.017" height="13.292" transform="translate(9.693 13.982) rotate(180)" fill="#ebebeb"/></g><g transform="translate(0 5.092)"><rect width="8.119" height="11.488" transform="translate(0 8.119) rotate(-90)" fill="#e0e0e0"/><rect width="7.06" height="10.408" transform="translate(0.54 7.589) rotate(-90)" fill="#ebebeb"/></g></g></g></g><g transform="translate(18.765 171.988)"><ellipse cx="64.841" cy="3.787" rx="64.841" ry="3.787" transform="translate(0 0)" fill="#f5f5f5"/></g><g transform="translate(91.17 58.313)"><g transform="translate(3.771 0)"><path d="M334.427,66.338V79.487a1.25,1.25,0,0,1-1.338,1.231H288.682s-5.133-2.394-4.769-5.739c.291-2.669.592-4.846.839-6.5A4.089,4.089,0,0,1,288.819,65H333.09A1.337,1.337,0,0,1,334.427,66.338Z" transform="translate(-283.895 -65)" fill="#c28a8a"/><path d="M334.427,66.338V79.487a1.25,1.25,0,0,1-1.338,1.231H288.682s-5.133-2.394-4.769-5.739c.291-2.669.592-4.846.839-6.5A4.089,4.089,0,0,1,288.819,65H333.09A1.337,1.337,0,0,1,334.427,66.338Z" transform="translate(-283.895 -65)" fill="#fff" opacity="0.2" style="isolation:isolate"/><path d="M415.015,66.338V79.487a1.25,1.25,0,0,1-1.338,1.231h-3.916s-5.137-2.394-4.769-5.739c.291-2.669.592-4.846.839-6.5A4.086,4.086,0,0,1,409.9,65h3.779A1.337,1.337,0,0,1,415.015,66.338Z" transform="translate(-364.482 -65)" opacity="0.2" style="isolation:isolate"/><path d="M287,98h38.793a9.659,9.659,0,0,0,3.456,4.013h-37.9S287.334,100.174,287,98Z" transform="translate(-285.961 -86.964)" fill="#c28a8a"/><path d="M287,98h38.793a9.659,9.659,0,0,0,3.456,4.013h-37.9S287.334,100.174,287,98Z" transform="translate(-285.961 -86.964)" opacity="0.2" style="isolation:isolate"/><path d="M295,106h37.455l-.557,1.338H295Z" transform="translate(-291.286 -92.289)" fill="#c28a8a"/><path d="M291,101h37.455l-.557,1.338H291Z" transform="translate(-288.624 -88.961)" fill="#c28a8a"/><rect width="0.948" height="0.39" transform="translate(37.546 10.033)" fill="#c28a8a"/><rect width="0.948" height="0.39" transform="translate(36.208 10.033)" fill="#c28a8a"/></g><g transform="translate(0 6.125)"><path d="M277.214,87.79a1.014,1.014,0,0,1,0-1.434" transform="translate(-275.48 -85.339)" fill="none" stroke="#c28a8a" stroke-linecap="round" stroke-linejoin="round" stroke-width="1"/><path d="M275.2,87.268a1.76,1.76,0,0,1,0-2.488" transform="translate(-273.996 -84.29)" fill="none" stroke="#c28a8a" stroke-linecap="round" stroke-linejoin="round" stroke-width="1.057"/><path d="M273.337,86.783a2.452,2.452,0,0,1,0-3.467" transform="translate(-272.619 -83.316)" fill="none" stroke="#c28a8a" stroke-linecap="round" stroke-linejoin="round" stroke-width="1"/><circle cx="0.286" cy="0.286" r="0.286" transform="translate(2.132 1.448)" fill="#c28a8a"/></g></g><g transform="translate(16.721 118.406)"><g transform="translate(0 23.513)"><path d="M50,315v34.111h2.341V320.016H91.468v29.095h3.01V315Z" transform="translate(-50 -315)" fill="#263238"/><path d="M50,315v34.111h2.341V320.016H91.468v29.095h3.01V315Z" transform="translate(-50 -315)" opacity="0.3" style="isolation:isolate"/><path d="M50,315v34.111h2.341V320.016H91.468v29.095h3.01V315Z" transform="translate(-50 -315)" fill="#fff" opacity="0.4" style="isolation:isolate"/><path d="M118,315v34.111h2.341V320.016h39.127v29.095h3.01V315Z" transform="translate(-95.259 -315)" fill="#263238"/><path d="M118,315v34.111h2.341V320.016h39.127v29.095h3.01V315Z" transform="translate(-95.259 -315)" fill="#fff" opacity="0.5" style="isolation:isolate"/></g><g transform="translate(4.459)"><g transform="translate(44.144)"><rect width="15.904" height="23.513" rx="4.488" fill="#263238"/><rect width="15.904" height="23.513" rx="4.488" fill="#fff" opacity="0.1"/><rect width="7.097" height="23.513" rx="3.549" transform="translate(8.806)" fill="#fff" opacity="0.1"/><g transform="translate(10.2 2.5)"><path d="M228.216,256.932a2.383,2.383,0,1,1,2.382-2.383A2.386,2.386,0,0,1,228.216,256.932Z" transform="translate(-225.833 -252.167)" opacity="0.3" style="isolation:isolate"/><path d="M230.9,255.145a2.083,2.083,0,1,1-2.083-2.083A2.083,2.083,0,0,1,230.9,255.145Z" transform="translate(-226.429 -252.763)" fill="#fff" opacity="0.2"/><path d="M231.317,257.219a1.042,1.042,0,1,1-1.042-1.042A1.042,1.042,0,0,1,231.317,257.219Z" transform="translate(-228.097 -254.836)" opacity="0.3" style="isolation:isolate"/><path d="M231.5,257.593a.853.853,0,1,1-.853-.854A.854.854,0,0,1,231.5,257.593Z" transform="translate(-228.471 -255.21)" fill="#fff" opacity="0.2"/></g><g transform="translate(9.921 9.3)"><path d="M227.662,277.823a2.661,2.661,0,1,1,2.661-2.662A2.665,2.665,0,0,1,227.662,277.823Z" transform="translate(-225 -272.5)" opacity="0.3" style="isolation:isolate"/><path d="M230.654,275.827a2.327,2.327,0,1,1-2.327-2.327A2.327,2.327,0,0,1,230.654,275.827Z" transform="translate(-225.666 -273.166)" fill="#fff" opacity="0.2"/><path d="M231.125,278.142a1.164,1.164,0,1,1-1.163-1.163A1.164,1.164,0,0,1,231.125,278.142Z" transform="translate(-227.528 -275.481)" opacity="0.3" style="isolation:isolate"/><path d="M231.334,278.561a.953.953,0,1,1-.953-.953A.953.953,0,0,1,231.334,278.561Z" transform="translate(-227.947 -275.9)" fill="#fff" opacity="0.2"/></g></g><g transform="translate(18.282 9.399)"><rect width="21.927" height="8.321" transform="translate(0.948 5.792)" fill="#263238"/><rect width="24.142" height="6.696" rx="1.771" fill="#263238"/><rect width="14.556" height="6.696" rx="1.771" transform="translate(9.587)" fill="#fff" opacity="0.2" style="isolation:isolate"/><rect width="24.142" height="6.696" rx="1.771" transform="translate(0 7.027)" fill="#263238"/><rect width="14.556" height="6.696" rx="1.771" transform="translate(9.587 7.027)" fill="#fff" opacity="0.2" style="isolation:isolate"/><rect width="24.142" height="6.696" rx="1.771" fill="#fff" opacity="0.1"/><rect width="24.142" height="6.696" rx="1.771" transform="translate(0 7.027)" fill="#fff" opacity="0.1"/><rect width="5.033" height="2.391" transform="translate(14.77 2.411)" fill="#c28a8a" style="isolation:isolate"/><rect width="5.91" height="2.766" transform="translate(14.324 2.215)" opacity="0.3" style="isolation:isolate"/><g transform="translate(11.287 8.932)"><path d="M154.816,301.038a1.533,1.533,0,1,1-1.533-1.533A1.533,1.533,0,0,1,154.816,301.038Z" transform="translate(-151.75 -299.505)" fill="#263238"/><path d="M156.817,301.038a1.533,1.533,0,1,1-1.533-1.533A1.533,1.533,0,0,1,156.817,301.038Z" transform="translate(-153.082 -299.505)" fill="#263238"/><path d="M156.817,301.038a1.533,1.533,0,1,1-1.533-1.533A1.533,1.533,0,0,1,156.817,301.038Z" transform="translate(-153.082 -299.505)" fill="#fff" opacity="0.5"/></g><g transform="translate(19.987 8.932)"><path d="M180.832,301.038A1.533,1.533,0,1,1,179.3,299.5,1.533,1.533,0,0,1,180.832,301.038Z" transform="translate(-177.766 -299.505)" fill="#263238"/><path d="M182.833,301.038A1.533,1.533,0,1,1,181.3,299.5,1.533,1.533,0,0,1,182.833,301.038Z" transform="translate(-179.098 -299.505)" fill="#263238"/><path d="M182.833,301.038A1.533,1.533,0,1,1,181.3,299.5,1.533,1.533,0,0,1,182.833,301.038Z" transform="translate(-179.098 -299.505)" fill="#fff" opacity="0.5"/></g><rect width="0.683" height="0.683" transform="translate(15.578 10.158)" fill="#fff" opacity="0.5"/><rect width="0.683" height="0.683" transform="translate(16.523 10.158)" fill="#fff" opacity="0.5"/><rect width="0.683" height="0.683" transform="translate(17.468 10.158)" fill="#fff" opacity="0.5"/><rect width="0.683" height="0.683" transform="translate(18.413 10.158)" fill="#fff" opacity="0.5"/></g><rect width="15.904" height="23.513" rx="4.488" fill="#263238"/><rect width="15.904" height="23.513" rx="4.488" fill="#fff" opacity="0.1"/><rect width="7.097" height="23.513" rx="3.549" transform="translate(8.806)" fill="#fff" opacity="0.1"/><g transform="translate(10.2 2.5)"><path d="M96.216,256.932a2.383,2.383,0,1,1,2.382-2.383A2.386,2.386,0,0,1,96.216,256.932Z" transform="translate(-93.833 -252.167)" opacity="0.3" style="isolation:isolate"/><path d="M98.9,255.145a2.083,2.083,0,1,1-2.083-2.083A2.083,2.083,0,0,1,98.9,255.145Z" transform="translate(-94.429 -252.763)" fill="#fff" opacity="0.2"/><path d="M99.317,257.219a1.042,1.042,0,1,1-1.042-1.042A1.042,1.042,0,0,1,99.317,257.219Z" transform="translate(-96.097 -254.836)" opacity="0.3" style="isolation:isolate"/><path d="M99.5,257.593a.853.853,0,1,1-.853-.854A.854.854,0,0,1,99.5,257.593Z" transform="translate(-96.471 -255.21)" fill="#fff" opacity="0.2"/></g><g transform="translate(9.921 9.3)"><path d="M95.662,277.823a2.661,2.661,0,1,1,2.661-2.662A2.665,2.665,0,0,1,95.662,277.823Z" transform="translate(-93 -272.5)" opacity="0.3" style="isolation:isolate"/><path d="M98.654,275.827a2.327,2.327,0,1,1-2.327-2.327A2.327,2.327,0,0,1,98.654,275.827Z" transform="translate(-93.666 -273.166)" fill="#fff" opacity="0.2"/><path d="M99.125,278.142a1.164,1.164,0,1,1-1.163-1.163A1.164,1.164,0,0,1,99.125,278.142Z" transform="translate(-95.528 -275.481)" opacity="0.3" style="isolation:isolate"/><path d="M99.334,278.561a.953.953,0,1,1-.953-.953A.953.953,0,0,1,99.334,278.561Z" transform="translate(-95.947 -275.9)" fill="#fff" opacity="0.2"/></g></g><g transform="translate(34.43 4.572)"><path d="M155.994,262.959a1.014,1.014,0,0,1,1.434,0" transform="translate(-154.978 -261.225)" fill="none" stroke="#c28a8a" stroke-linecap="round" stroke-linejoin="round" stroke-width="1"/><path d="M154.418,260.949a1.759,1.759,0,0,1,2.488,0" transform="translate(-153.929 -259.741)" fill="none" stroke="#c28a8a" stroke-linecap="round" stroke-linejoin="round" stroke-width="1.057"/><path d="M152.955,259.082a2.451,2.451,0,0,1,3.467,0" transform="translate(-152.955 -258.364)" fill="none" stroke="#c28a8a" stroke-linecap="round" stroke-linejoin="round" stroke-width="1"/><path d="M157.855,265.026a.286.286,0,1,1-.286-.286A.286.286,0,0,1,157.855,265.026Z" transform="translate(-155.836 -262.608)" fill="#c28a8a"/></g></g><g transform="translate(28.426 114.828)"><g transform="translate(49.386 31.352)"><rect width="27.92" height="23.614" rx="11.626" transform="translate(0)" fill="#c70000"/><rect width="27.92" height="23.614" rx="11.626" transform="translate(0)" fill="#fff" opacity="0.1" style="isolation:isolate"/><path d="M236.564,351.358h0a3.888,3.888,0,0,1-3.888-3.888V331.633a3.888,3.888,0,0,1,3.888-3.888h0a3.888,3.888,0,0,1,3.888,3.888V347.47A3.888,3.888,0,0,1,236.564,351.358Z" transform="translate(-232.676 -327.745)" fill="#fff" opacity="0.2" style="isolation:isolate"/></g><path d="M97.67,395.571l-1.17,7.166h2.508l2.3-6.836Z" transform="translate(-92.654 -341.536)" fill="#263238"/><path d="M195.141,395.571l1.17,7.166H193.8l-2.3-6.836Z" transform="translate(-155.884 -341.536)" fill="#263238"/><path d="M97.67,395.571l-1.17,7.166h2.508l2.3-6.836Z" transform="translate(-92.654 -341.536)" fill="#fff" opacity="0.1" style="isolation:isolate"/><path d="M195.141,395.571l1.17,7.166H193.8l-2.3-6.836Z" transform="translate(-155.884 -341.536)" fill="#fff" opacity="0.1" style="isolation:isolate"/><path d="M306.67,395.571l-1.17,7.166h2.508l2.3-6.836Z" transform="translate(-231.76 -341.536)" fill="#263238"/><path d="M404.141,395.571l1.17,7.166H402.8l-2.3-6.836Z" transform="translate(-294.99 -341.536)" fill="#263238"/><g transform="translate(0 38.795)"><rect width="114.038" height="17.055" rx="8.528" fill="#c70000"/><rect width="114.038" height="17.055" rx="8.528" fill="#fff" opacity="0.1" style="isolation:isolate"/><rect width="43.14" height="17.055" rx="8.528" fill="#fff" opacity="0.2" style="isolation:isolate"/></g><g transform="translate(71.215)"><g transform="translate(0.002)"><path d="M297.956,273.184h41.128l6.268-32.367a5.734,5.734,0,0,0-5.63-6.824H310.275a5.734,5.734,0,0,0-5.63,4.644Z" transform="translate(-297.956 -233.993)" fill="#c70000"/></g><g transform="translate(0.002)" opacity="0.1" style="isolation:isolate"><path d="M297.956,273.184h41.128l6.268-32.367a5.734,5.734,0,0,0-5.63-6.824H310.275a5.734,5.734,0,0,0-5.63,4.644Z" transform="translate(-297.956 -233.993)" fill="#fff"/></g><path d="M297.951,273.127H327.4l6.688-34.516A5.71,5.71,0,0,1,339.72,234H310.271a5.707,5.707,0,0,0-5.628,4.613Z" transform="translate(-297.951 -233.998)" fill="#fff" opacity="0.2" style="isolation:isolate"/></g><g transform="translate(92.888 31.352)"><rect width="27.92" height="23.614" rx="11.626" transform="translate(0)" fill="#c70000"/><rect width="27.92" height="23.614" rx="11.626" transform="translate(0)" fill="#fff" opacity="0.1" style="isolation:isolate"/><path d="M366.646,351.358h0a3.888,3.888,0,0,1-3.888-3.888V331.633a3.888,3.888,0,0,1,3.888-3.888h0a3.888,3.888,0,0,1,3.888,3.888V347.47A3.888,3.888,0,0,1,366.646,351.358Z" transform="translate(-362.758 -327.745)" fill="#fff" opacity="0.2" style="isolation:isolate"/></g></g><g transform="translate(47.471 105.076)"><g transform="translate(8.378 26.603)"><path d="M219.542,303.2s-3.159,4.47-8.038,4.136c-9.12-.625-20.2-13.377-21.541-13.488-2.116-.177-19.731,9.352-19.731,9.352L167,299.583s18.945-14.952,23.075-15.194S219.542,303.2,219.542,303.2Z" transform="translate(-167 -284.386)" fill="#c28a8a"/><path d="M219.6,303.193a.234.234,0,0,0-.085.177v0a11.406,11.406,0,0,1-3.413,2.876,8.18,8.18,0,0,1-4.562,1.08c-9.12-.625-20.215-13.377-21.552-13.487-2.117-.177-19.737,9.35-19.737,9.35l-3.237-3.612s7.343-5.8,13.884-10.23c3.963-2.685,7.63-4.873,9.189-4.966,3.832-.224,25.945,16.159,29.112,18.524C219.441,303.093,219.6,303.193,219.6,303.193Z" transform="translate(-167.006 -284.383)" fill="#fff" opacity="0.6" style="isolation:isolate"/></g><g transform="translate(53.852 10.539)"><path d="M304.965,236.348s-1.791-.032-1.854.284a12.5,12.5,0,0,0,.293,3.3,5.573,5.573,0,0,0,.892.9l-1.318,3.9,2.21,1.12.971-4.256a2.815,2.815,0,0,0,.776-2.432A7.177,7.177,0,0,0,304.965,236.348Z" transform="translate(-302.979 -236.347)" fill="#eec1bb"/><path d="M304.965,236.348s-1.791-.032-1.854.284a12.5,12.5,0,0,0,.293,3.3,5.573,5.573,0,0,0,.892.9l-1.318,3.9,2.21,1.12.971-4.256a2.815,2.815,0,0,0,.776-2.432A7.177,7.177,0,0,0,304.965,236.348Z" transform="translate(-302.979 -236.347)" opacity="0.2" style="isolation:isolate"/></g><path d="M302,259.3l.543-1.15,2.7,1.15-.179,1.39Z" transform="translate(-248.476 -240.323)" fill="#263238"/><g transform="translate(50.548 15.606)"><path d="M305.942,251.5c-2.675.056-7.246,10.757-7.246,10.757s1.031-5.239.794-5.852-2.522-2.118-3.748-1.784-3.846,8.948-2.006,11.971,5.239,3.747,9.977.57S305.942,251.5,305.942,251.5Z" transform="translate(-293.101 -251.499)" fill="#263238"/><path d="M304.1,266.865a4.579,4.579,0,0,1-.388.283c-2.716,1.819-4.99,2.242-6.785,1.908h0a5.177,5.177,0,0,1-3.187-2.476c-1.839-3.023.779-11.632,2.006-11.966s3.511,1.173,3.749,1.789c.231.6-.749,5.623-.793,5.847.14-.324,4.608-10.694,7.244-10.751C305.942,251.5,308.31,263.28,304.1,266.865Z" transform="translate(-293.101 -251.498)" opacity="0.3" style="isolation:isolate"/></g><path d="M311.713,288.757a4.713,4.713,0,0,1-.388.294c-2.715,1.819-4.99,2.361-6.785,1.919,3.776-1.813,6.6-6.581,6.6-6.581Z" transform="translate(-250.166 -257.784)" opacity="0.2" style="isolation:isolate"/><g transform="translate(67.769 13.654)"><path d="M344.638,247.335s1.312-2.4,6.388-1.452,4.093,2.941,2.459,3.643-7.5,0-7.5,0S344.311,248.225,344.638,247.335Z" transform="translate(-344.596 -245.661)" fill="#263238"/><path d="M344.638,247.335s1.312-2.4,6.388-1.452,4.093,2.941,2.459,3.643-7.5,0-7.5,0S344.311,248.225,344.638,247.335Z" transform="translate(-344.596 -245.661)" opacity="0.2" style="isolation:isolate"/></g><path d="M302,272.649s5.1-3.466,6.688-8.692,3.177-13.754,3.177-13.754a28.027,28.027,0,0,1,14.965.836c7.357,2.759-.9,26.822-7.663,29.366Z" transform="translate(-248.476 -234.596)" fill="#263238"/><path d="M352.739,231.612c-.666,2.01-1.548,5.736-.281,7.295a6.664,6.664,0,0,1-4.946,1.415c-2.652-.276-1.463-2.226-1.463-2.226,2.37-.257,2.527-1.972,2.33-3.625Z" transform="translate(-277.616 -222.656)" fill="#eec1bb"/><path d="M356.133,235.1l-2.58,1.693a6.859,6.859,0,0,1,.054,1.162,2.858,2.858,0,0,0,2.432-1.734A3.053,3.053,0,0,0,356.133,235.1Z" transform="translate(-282.788 -224.977)" opacity="0.2" style="isolation:isolate"/><g transform="translate(67.171)"><path d="M347.825,211.265c1.026.943.311,2.178-2.574,3.847-.845-1.515-.627-4.18.3-4.719S346.93,210.448,347.825,211.265Z" transform="translate(-344.081 -208.396)" fill="#263238"/><path d="M351.138,212.746c-.395,2.037-.6,3.468-1.308,4.578a4.409,4.409,0,0,1-1,1.087,3.749,3.749,0,0,1-5.983-2.729c-.01-.09-.017-.184-.02-.278-.181-2.592.776-6.431,3.555-7.153a3.847,3.847,0,0,1,4.755,4.495Z" transform="translate(-342.807 -207.022)" fill="#eec1bb"/><path d="M349.873,227.713a4.409,4.409,0,0,1-1,1.087,3.749,3.749,0,0,1-5.983-2.729c-.01-.09-.017-.184-.02-.278a3.659,3.659,0,0,0,1.8.572,11.752,11.752,0,0,0,2.652-.946,2.9,2.9,0,0,1,1.254-.033,3.343,3.343,0,0,0,1.341-1.655l.268.582A7.672,7.672,0,0,1,349.873,227.713Z" transform="translate(-342.849 -217.41)" opacity="0.3" style="isolation:isolate"/><path d="M353.879,221.708c-.03.227-.176.4-.324.375s-.242-.217-.213-.444.172-.4.32-.378S353.893,221.482,353.879,221.708Z" transform="translate(-349.816 -215.766)" fill="#263238"/><path d="M346.148,220.7c-.03.227-.175.4-.323.375s-.246-.217-.216-.447.176-.4.324-.375S346.178,220.477,346.148,220.7Z" transform="translate(-344.668 -215.097)" fill="#263238"/><path d="M347.041,222.249a8.183,8.183,0,0,1-1.341,1.8,1.323,1.323,0,0,0,1.061.345Z" transform="translate(-344.732 -216.425)" fill="#d58745"/><path d="M355.363,218.681a.131.131,0,0,0,.087-.007.136.136,0,0,0,.053-.183,1.33,1.33,0,0,0-1.015-.694.13.13,0,0,0-.142.116v.009a.14.14,0,0,0,.126.143h0a1.061,1.061,0,0,1,.795.556A.139.139,0,0,0,355.363,218.681Z" transform="translate(-350.488 -213.461)" fill="#263238"/><path d="M343.831,216.87a.139.139,0,0,0,.131-.06,1.072,1.072,0,0,1,.831-.505.135.135,0,0,0,0-.271,1.344,1.344,0,0,0-1.058.628.133.133,0,0,0,.036.185h0A.161.161,0,0,0,343.831,216.87Z" transform="translate(-343.412 -212.288)" fill="#263238"/><path d="M363.368,213.653c-1.364.276-1.388,1.7.221,4.62,1.507-.861,2.7-3.258,2.174-4.2S364.559,213.414,363.368,213.653Z" transform="translate(-355.822 -210.549)" fill="#263238"/><path d="M365.372,225.665a2.682,2.682,0,0,1-1.474,1.424c-.877.337-1.4-.427-1.234-1.3.152-.788.795-1.912,1.71-1.874A1.2,1.2,0,0,1,365.372,225.665Z" transform="translate(-356.002 -217.533)" fill="#eec1bb"/><path d="M351.012,230.976a1.974,1.974,0,0,1-1.962.6" transform="translate(-346.962 -222.233)" fill="none" stroke="#263238" stroke-linecap="round" stroke-linejoin="round" stroke-width="0.526"/><path d="M347.105,205.933c-.052.315.042.823,1.742,1.074s3.261-.474,3.79,0A6.87,6.87,0,0,1,353.72,209l1.871-.418a3.106,3.106,0,0,0-.585-2.646c-1-1.406-6.6-.319-7.036-1.1A1.836,1.836,0,0,0,347.105,205.933Z" transform="translate(-345.661 -204.833)" fill="#263238"/></g><path d="M157.805,337.173l-1.3-2.355,4.858-4.079,1.293,2.354Z" transform="translate(-151.639 -288.634)" fill="#eec1bb"/><path d="M166.8,333.1l-1.3-2.352-2.776,2.332,1.4,2.27Z" transform="translate(-155.776 -288.637)" opacity="0.2" style="isolation:isolate"/><g transform="translate(7.174 40.249)"><path d="M167.233,331.6l-3.831-4.5,1.724-1.912,4.108,5.017Z" transform="translate(-163.402 -325.186)" fill="#c28a8a"/><path d="M167.233,331.6l-3.831-4.5,1.724-1.912,4.108,5.017Z" transform="translate(-163.402 -325.186)" fill="#fff" opacity="0.2"/></g><g transform="translate(3.434 45.067)"><path d="M153.817,340.915h0l-.141.005a2.234,2.234,0,0,0,.152-1.078.522.522,0,0,0-.276-.221.3.3,0,0,0-.329.052.944.944,0,0,0-.106.66c-.164-.236-.384-.482-.573-.5a.244.244,0,0,0-.215.089.334.334,0,0,0-.1.344.714.714,0,0,0,.384.351,3.291,3.291,0,0,0,.67.244.035.035,0,0,0,.018.013c.008,0,.012-.007.019-.01a1.114,1.114,0,0,0,.114.03s.235.035.236.033Zm-.54-1.164c.022-.03.063-.058.147-.025l.028.012a.179.179,0,0,1,.092.112,1.356,1.356,0,0,1-.232.82l-.031-.055A1.268,1.268,0,0,1,153.277,339.751Zm-.928.474a.23.23,0,0,1,.064-.218.114.114,0,0,1,.1-.045c.188.021.479.427.663.748C152.709,340.571,152.4,340.394,152.348,340.225Z" transform="translate(-152.218 -339.594)" fill="#c28a8a"/></g><path d="M146.837,341.8l2.671,1.4a.191.191,0,0,1,.092.253v0l-.978,2.184a.475.475,0,0,1-.636.2c-.924-.5-1.34-.79-2.511-1.415a24.944,24.944,0,0,1-3.083-1.737c-.9-.674-.212-1.549.229-1.343a7.4,7.4,0,0,0,3.736.375A.752.752,0,0,1,146.837,341.8Z" transform="translate(-141.949 -295.671)" fill="#263238"/><g transform="translate(66.696 14.042)"><path d="M350.952,251.232s.226-1.412,3.466-2.71,5.97.145,5.58,1.1c0,0,2.1.217,1.023,1.615S350.952,251.232,350.952,251.232Z" transform="translate(-347.753 -247.609)" fill="#263238"/><path d="M343.853,250.3a2.927,2.927,0,0,1,.421-3.082s-.487-.89-1.446,0C342.829,247.216,338.981,248.2,343.853,250.3Z" transform="translate(-341.386 -246.821)" fill="#263238"/><path d="M350.952,251.232s.226-1.412,3.466-2.71,5.97.145,5.58,1.1c0,0,2.1.217,1.023,1.615S350.952,251.232,350.952,251.232Z" transform="translate(-347.753 -247.609)" opacity="0.2" style="isolation:isolate"/><path d="M343.853,250.3a2.927,2.927,0,0,1,.421-3.082s-.487-.89-1.446,0C342.829,247.216,338.981,248.2,343.853,250.3Z" transform="translate(-341.386 -246.821)" opacity="0.2" style="isolation:isolate"/></g><path d="M337.477,255.694s-1.885.7-2.053,5.335S333,265.642,333,265.642" transform="translate(-269.109 -238.685)" fill="none" stroke="#fff" stroke-linecap="round" stroke-linejoin="round" stroke-width="1"/><path d="M349.006,256.625a6.1,6.1,0,0,0-.34,4.306c.591,2.843.256,6.061-1.667,7.107" transform="translate(-278.427 -239.305)" fill="none" stroke="#fff" stroke-linecap="round" stroke-linejoin="round" stroke-width="1"/><g transform="translate(54.996 6.151)"><path d="M310.286,229.9a.27.27,0,0,1-.3.285l-3.047-.236a.356.356,0,0,1-.321-.333l-.214-6.067a.306.306,0,0,1,.3-.326l3.047.236a.4.4,0,0,1,.318.375Z" transform="translate(-306.403 -223.225)" fill="#263238"/><path d="M309.735,223.8l.218,6.126a.231.231,0,0,1-.262.269l-2.584-.2c-.174-.013-.484-.133-.49-.306l-.216-6.147c-.006-.173.3-.287.474-.274l2.584.2A.315.315,0,0,1,309.735,223.8Z" transform="translate(-306.401 -223.25)" fill="#fff" opacity="0.5"/></g><path d="M316.561,243.065l-1.159-2.7s-.377-3.626-.56-4.015-3.133-.243-3.451-.268-.26,3.6.048,3.975a4.1,4.1,0,0,0,1.513.687l1.478,3.866Z" transform="translate(-254.584 -225.627)" fill="#eec1bb"/><path d="M318.418,255.222l-.406-1.662,3.1-1.54.466,1.6Z" transform="translate(-259.133 -236.24)" fill="#263238"/><g transform="translate(58.633 16.929)"><path d="M317.522,257.509c.356-.954,1.947-2.409,3.563-1.973s5.3,12.086,6.245,12.643,7.489-9.475,9.289-10.2,3.179.045,3.242,4.175-6.655,15.54-12.409,14.6S316.013,261.553,317.522,257.509Z" transform="translate(-317.275 -255.456)" fill="#263238"/><path d="M317.522,257.509c.356-.954,1.947-2.409,3.563-1.973s5.3,12.086,6.245,12.643,7.489-9.475,9.289-10.2,3.179.045,3.242,4.175-6.655,15.54-12.409,14.6S316.013,261.553,317.522,257.509Z" transform="translate(-317.275 -255.456)" opacity="0.2" style="isolation:isolate"/></g><path d="M245.614,306.34a9.661,9.661,0,0,1-1.9-.09c-9.678-1.354-23.074-15.935-23.726-16.721-.462-.559-7.082-.368-11.45-.177,3.963-2.685,7.629-4.873,9.187-4.966,3.832-.224,25.968,16.159,29.135,18.524.09.157-.043.311.291.461v0C247.82,305.089,247.654,306.223,245.614,306.34Z" transform="translate(-186.269 -257.78)" opacity="0.3" style="isolation:isolate"/><g transform="translate(13.687 20.815)"><path d="M242.9,289.714s-3.632,7.631-15,5.929c-9.041-1.354-20.914-19.138-22.044-19.863-1.787-1.146-21.813-.976-21.813-.976l-1.164-4.707s23.741-4.339,27.5-2.619c2.064.943,21.113,17.38,21.113,17.38Z" transform="translate(-182.875 -267.074)" fill="#c28a8a"/><path d="M242.9,289.714s-3.632,7.631-15,5.929c-9.041-1.354-20.914-19.138-22.044-19.863-1.787-1.146-21.813-.976-21.813-.976l-1.164-4.707s23.741-4.339,27.5-2.619c2.064.943,21.113,17.38,21.113,17.38Z" transform="translate(-182.875 -267.074)" fill="#fff" opacity="0.6" style="isolation:isolate"/></g><path d="M167.509,282.824l-.044-2.689,6.2-1.329.041,2.685Z" transform="translate(-158.932 -254.069)" fill="#eec1bb"/><path d="M178.99,281.492l-.044-2.685-3.545.76.174,2.662Z" transform="translate(-164.214 -254.069)" opacity="0.2" style="isolation:isolate"/><g transform="translate(12.455 22.71)"><path d="M180.47,279.391l-1.278-5.769,2.419-.882,1.281,6.357Z" transform="translate(-179.191 -272.74)" fill="#c28a8a"/><path d="M180.47,279.391l-1.278-5.769,2.419-.882,1.281,6.357Z" transform="translate(-179.191 -272.74)" fill="#fff" opacity="0.2"/></g><g transform="translate(7.488 24.728)"><path d="M165.564,280.363h0l-.191-.057a2.232,2.232,0,0,0,.607-.879.543.543,0,0,0-.156-.324.311.311,0,0,0-.323-.107.953.953,0,0,0-.407.534,1.113,1.113,0,0,0-.272-.713.246.246,0,0,0-.233-.022.335.335,0,0,0-.247.259.716.716,0,0,0,.175.49,3.277,3.277,0,0,0,.478.53.035.035,0,0,0,.01.02c.007,0,.014,0,.022,0s.077.083.087.08.255.137.257.135Zm-.061-1.273c.033-.016.083-.022.142.046l.019.024a.179.179,0,0,1,.028.142c-.036.218-.376.477-.589.616,0-.02,0-.04,0-.063A1.268,1.268,0,0,1,165.5,279.09Zm-1.042-.016a.231.231,0,0,1,.159-.163.114.114,0,0,1,.112.009c.156.106.223.6.236.971C164.618,279.548,164.43,279.248,164.461,279.074Z" transform="translate(-164.34 -278.774)" fill="#c28a8a"/></g><path d="M158.7,277.647l1.7,2.487a.191.191,0,0,1-.037.267l0,0-1.887,1.471a.475.475,0,0,1-.657-.119c-.581-.878-.814-1.325-1.556-2.426a24.949,24.949,0,0,1-1.911-2.978c-.482-1.019.537-1.468.831-1.079a7.4,7.4,0,0,0,3.125,2.08A.754.754,0,0,1,158.7,277.647Z" transform="translate(-150.119 -251.624)" fill="#263238"/><g transform="translate(55.205 2.812)"><path d="M310.064,217.838a1.015,1.015,0,0,1,1.434,0" transform="translate(-309.047 -216.104)" fill="none" stroke="#c28a8a" stroke-linecap="round" stroke-linejoin="round" stroke-width="1"/><path d="M308.488,215.828a1.76,1.76,0,0,1,2.488,0" transform="translate(-307.998 -214.62)" fill="none" stroke="#c28a8a" stroke-linecap="round" stroke-linejoin="round" stroke-width="1.057"/><path d="M307.024,213.961a2.452,2.452,0,0,1,3.467,0" transform="translate(-307.024 -213.243)" fill="none" stroke="#c28a8a" stroke-linecap="round" stroke-linejoin="round" stroke-width="1"/><path d="M311.925,219.9a.286.286,0,1,1-.286-.286A.285.285,0,0,1,311.925,219.9Z" transform="translate(-309.906 -217.487)" fill="#c28a8a"/></g></g><g transform="translate(55.371 80.691)"><rect width="40.476" height="24.94" rx="6.184" fill="#c28a8a"/><g transform="translate(0.34 0.339)"><rect width="39.797" height="24.262" rx="5.437" fill="#c28a8a"/><rect width="39.797" height="24.262" rx="5.437" fill="#fff" opacity="0.6" style="isolation:isolate"/><rect width="39.797" height="22.924" rx="5.437" fill="#fff" opacity="0.2" style="isolation:isolate"/><g transform="translate(2.639 2.016)"><g transform="translate(0 0)"><rect width="31.841" height="3.811" rx="1.666" fill="#fff"/><text transform="translate(0.984 1.132)" fill="#c28a8a" font-size="1" font-family="Bebas"><tspan x="0" y="0">LAMP</tspan></text><rect width="31.841" height="3.811" rx="1.666" fill="#fff" opacity="0.3"/></g><g transform="translate(0 4.985)"><rect width="31.841" height="3.811" rx="1.666" fill="#fff"/><text transform="translate(0.984 2.132)" fill="#c28a8a" font-size="2" font-family="Bebas"><tspan x="0" y="0">MUSIC</tspan></text><rect width="31.841" height="3.811" rx="1.666" fill="#fff" opacity="0.3"/></g><g transform="translate(0 9.789)"><rect width="31.841" height="3.811" rx="1.666" fill="#fff"/><text transform="translate(0.984 2.132)" fill="#c28a8a" font-size="2" font-family="Bebas"><tspan x="0" y="0">TV</tspan></text><rect width="31.841" height="3.811" rx="1.666" fill="#fff" opacity="0.3"/></g><g transform="translate(25.153 0.579)"><rect width="5.908" height="2.654" rx="1.327" fill="#263238"/><rect width="2.562" height="2.654" rx="1.281" fill="#fff" opacity="0.5"/><rect width="5.908" height="2.654" rx="1.327" fill="#fff" opacity="0.5"/></g><g transform="translate(25.153 10.345)"><rect width="5.908" height="2.654" rx="1.327" fill="#263238"/><rect width="2.562" height="2.654" rx="1.281" fill="#fff" opacity="0.5"/><rect width="5.908" height="2.654" rx="1.327" fill="#fff" opacity="0.5"/></g><g transform="translate(25.153 5.549)"><rect width="5.908" height="2.653" rx="1.327" fill="#c28a8a"/><rect width="2.562" height="2.653" rx="1.281" transform="translate(3.346)" fill="#fff" opacity="0.5"/></g><g transform="translate(0 14.473)"><path d="M206.321,185.31v-2.516a.557.557,0,0,0-.557-.557H175.036a.558.558,0,0,0-.557.557v2.516Z" transform="translate(-174.479 -182.237)" fill="#fff"/></g><g transform="translate(25.153 15.03)"><path d="M249.869,186.418h5.556a.526.526,0,0,0,.176-.391v-1.6a.528.528,0,0,0-.528-.528h-4.852a.528.528,0,0,0-.528.528v1.6A.526.526,0,0,0,249.869,186.418Z" transform="translate(-249.693 -183.902)" fill="#263238"/><path d="M249.869,186.418h2.21a.525.525,0,0,0,.176-.391v-1.6a.528.528,0,0,0-.528-.528h-1.506a.528.528,0,0,0-.528.528v1.6A.526.526,0,0,0,249.869,186.418Z" transform="translate(-249.693 -183.902)" fill="#fff" opacity="0.5"/><path d="M249.869,186.418h5.556a.526.526,0,0,0,.176-.391v-1.6a.528.528,0,0,0-.528-.528h-4.852a.528.528,0,0,0-.528.528v1.6A.526.526,0,0,0,249.869,186.418Z" transform="translate(-249.693 -183.902)" fill="#fff" opacity="0.5"/></g><path d="M275.211,159.96h0a.71.71,0,0,1-.711-.711V139.669a.711.711,0,0,1,.711-.711h0a.711.711,0,0,1,.711.711v19.581A.71.71,0,0,1,275.211,159.96Z" transform="translate(-241.051 -138.958)" opacity="0.2"/><path d="M275.211,146.575h0a.711.711,0,0,1-.711-.711v-6.2a.711.711,0,0,1,.711-.711h0a.711.711,0,0,1,.711.711v6.2A.711.711,0,0,1,275.211,146.575Z" transform="translate(-241.051 -138.958)" fill="#fff"/></g></g><path d="M224.5,206v7.524h25.918" transform="translate(-204.793 -181.225)" fill="none" stroke="#c28a8a" stroke-linecap="round" stroke-linejoin="round" stroke-width="1" stroke-dasharray="5 2"/><circle cx="0.383" cy="0.383" r="0.383" transform="translate(45.737 31.916)" fill="#c28a8a"/></g></g></svg>