<?xml version="1.0" encoding="utf-8"?>
<!-- Generator: Adobe Illustrator 23.0.1, SVG Export Plug-In . SVG Version: 6.00 Build 0)  -->
<svg version="1.1" id="Layer_1" xmlns="http://www.w3.org/2000/svg" xmlns:xlink="http://www.w3.org/1999/xlink" x="0px" y="0px"
	 viewBox="0 0 90 90" style="enable-background:new 0 0 90 90;" xml:space="preserve">
<style type="text/css">
	.st0{fill:#E6E6E6;}
	.st1{fill:#3F3D56;}
	.st2{fill:#A0616A;}
	.st3{fill:#2F2E41;}
	.st4{fill:#CCCCCC;}
	.st5{fill:#D8B4A0;}
</style>
<g transform="translate(0 -0.047)">
	<path class="st0" d="M82.1,74l-2.6-7.8c0,0,2.8,2.8,2.8,5.1l-0.5-5.4c0.9,1.5,1.4,3.2,1.3,4.9C83,74,82.1,74,82.1,74z"/>
	<path class="st0" d="M26.9,67l-2.5-7.6c0,0,2.8,2.8,2.8,5l-0.5-5.2c0.9,1.4,1.4,3.1,1.3,4.8C27.8,66.9,26.9,67,26.9,67z"/>
	<path class="st0" d="M66,70.5c0,5-9.9,3.4-22,3.5s-21.8,1.6-21.8-3.4s9.9-6.1,22-6.1S66,65.5,66,70.5z"/>
	<rect y="73.9" class="st1" width="90" height="0.2"/>
	<path class="st2" d="M57.6,63.8H56l-0.8-6.1h2.3V63.8z"/>
	<path class="st3" d="M54.7,63.3h3.2v1.9h-5V65C52.9,64.1,53.7,63.3,54.7,63.3L54.7,63.3z"/>
	<path class="st2" d="M69.2,72.8h-1.6l-0.8-6.1h2.3V72.8z"/>
	<path class="st3" d="M66.3,72.3h3.2v1.9h-5V74C64.6,73.1,65.3,72.3,66.3,72.3L66.3,72.3L66.3,72.3z"/>
	<path class="st2" d="M76.5,54.6c0.4-0.5,0.3-1.2-0.2-1.7c-0.1,0-0.1-0.1-0.2-0.1l-3.7-15l-2.3,1l4.4,14.5c-0.3,0.6,0,1.3,0.6,1.6
		C75.6,55.2,76.1,55.1,76.5,54.6L76.5,54.6z"/>
	<path class="st2" d="M73.6,24.4c-0.5-0.5-1.3-0.5-1.8,0c-0.1,0.1-0.1,0.1-0.1,0.2L66,25.2l0.9,2.2l5.2-1c0.6,0.4,1.4,0.2,1.8-0.4
		C74.1,25.5,74.1,24.8,73.6,24.4L73.6,24.4z"/>
	<path class="st3" d="M64.3,53.1l2.5,18.6l3.1-0.6c0,0-0.5-13.6,1.1-15.2s-2-4.5-2-4.5L64.3,53.1z"/>
	<path class="st3" d="M65.3,48l-1.1,1.7c0,0-8.8-3.6-8.8,2.2s-0.5,9.8-0.7,10s2.1,1,3.2,0.8c0,0,1.3-9.4,1.3-9.9
		c0,0,8.6,4.2,10.2,3.9c1.2-0.3,2-1.2,2.3-2.4c0.3-0.7-0.1-6.5-0.1-6.5l-5.4-1.7L65.3,48z"/>
	<path class="st4" d="M65.4,37.7l-0.3-0.4c0,0-3.6-8.2-2.2-10.4s7.7-2.5,7.9-2.4s-0.5,1.8,0,2.6c0,0-4.8,1-5.2,1.2s2.5,4.9,2.5,4.9
		l-0.3,2.9L65.4,37.7z"/>
	<path class="st4" d="M71.8,33.7c0,0-3.4,0.4-3.5,0.4s-0.2-0.8-0.2-0.8l-3,4.1c0,0-1.5,11.9-1.1,11.7s7.6,0.9,7.6,0.4
		c0-1.1,0-2.2,0.1-3.2C72,46,75.2,38,75.2,38c-0.2-0.9-0.7-1.7-1.4-2.3C73,35.2,72.3,34.5,71.8,33.7z"/>
	<path class="st4" d="M74.1,36.9l1,1.1c0,0,1.5,12.7,0.7,13.1c-0.8,0.3-1.7,0.4-2.5,0.3l-1.6-6L74.1,36.9z"/>
	<circle class="st2" cx="68.6" cy="29.9" r="3"/>
	<path class="st3" d="M67.8,30.3c0-0.6-0.8-0.6-1.4-0.6s-1.4,0-1.7-0.5c-0.2-0.4-0.2-0.8,0-1.2c0.2-0.4,0.5-0.7,0.8-0.9
		c0.8-0.7,1.6-1.3,2.6-1.8c1-0.5,2.1-0.6,3.1-0.3c1.5,0.9,2.6,2.3,3,4c0.1,1.3-0.3,2.6-1.2,3.6c-0.9,1-2.9,0.6-4.1,0.9
		c0.7-1.2,0.3-2.8-0.9-3.5c0,0,0,0-0.1,0L67.8,30.3z"/>
	<circle class="st5" cx="41.2" cy="61.8" r="7.2"/>
	<path class="st5" d="M36.4,54.2c-2,0-3.9-1.2-4.7-3.1L20.3,25.5c-1.5-3.4,0-7.5,3.5-9c3.4-1.5,7.5,0,9,3.5c0.1,0.2,0.2,0.5,0.3,0.8
		l8.2,26.8c0.8,2.7-0.7,5.6-3.4,6.4C37.4,54.1,36.9,54.2,36.4,54.2L36.4,54.2z"/>
</g>
</svg>
