<svg xmlns="http://www.w3.org/2000/svg" xmlns:xlink="http://www.w3.org/1999/xlink" width="139.649" height="109.971" viewBox="0 0 139.649 109.971"><defs><linearGradient id="a" x1="0.501" y1="1.001" x2="0.501" gradientUnits="objectBoundingBox"><stop offset="0" stop-color="gray" stop-opacity="0.251"/><stop offset="0.54" stop-color="gray" stop-opacity="0.122"/><stop offset="1" stop-color="gray" stop-opacity="0.102"/></linearGradient><linearGradient id="b" x1="0.5" y1="1" x2="0.5" y2="0" xlink:href="#a"/></defs><g transform="translate(0 0.112)"><g transform="translate(91.776 0.035)" opacity="0.5"><path d="M760.7,67.944a1.748,1.748,0,0,0-1.661.9c-.828,1.489.5,2.953-.183,4.54a2.642,2.642,0,0,1-.891,1.075,9.122,9.122,0,0,1-2.012.907,3.688,3.688,0,0,0-1.884,1.681,4.4,4.4,0,0,0-.4,2.669,10.577,10.577,0,0,0,.7,2.1,13.178,13.178,0,0,1,.674,2.6,4.792,4.792,0,0,1,.066,1.253,7.894,7.894,0,0,1-.387,1.565l-1.477,4.626a10.8,10.8,0,0,0-.474,1.854,7.793,7.793,0,0,0,.057,1.976,7.89,7.89,0,0,0,.982,3.609c.641.846,1.9.9,2.818-.3.875-1.15,1.1-2.889,1.9-4.139,1.263-1.972,3.284-1.8,4.638-3.648,1.293-1.771,1.273-4.326,2.085-6.5.575-1.561,1.581-2.874,2.259-4.391a11.714,11.714,0,0,0,.862-6.578,9.763,9.763,0,0,0-2.177-4.612,3.19,3.19,0,0,0-1.459-1.15c-.619-.184-1.237.287-1.875.331C762.133,68.345,761.444,67.956,760.7,67.944Z" transform="translate(-752.739 -67.935)" fill="#e43f6f"/><path d="M775.785,68.1s-3.564,20.645-9.485,31.917" transform="translate(-764.351 -68.076)" fill="none" stroke="#535461" stroke-miterlimit="10" stroke-width="2"/><path d="M796.3,74.93a11.7,11.7,0,0,1,2.685,10.612" transform="translate(-790.039 -73.925)" fill="none" stroke="#535461" stroke-miterlimit="10" stroke-width="2"/><path d="M760.63,134.52s7.653,3.05,6.641,6.516" transform="translate(-759.496 -124.951)" fill="none" stroke="#535461" stroke-miterlimit="10" stroke-width="2"/><path d="M820.347,108s-3.412,1.39-6.947,6.77" transform="translate(-804.682 -102.242)" fill="none" stroke="#535461" stroke-miterlimit="10" stroke-width="2"/><path d="M804.209,205.218s-2.31.8-3.49-4.168" transform="translate(-793.824 -181.919)" fill="none" stroke="#535461" stroke-miterlimit="10" stroke-width="2"/><path d="M758.15,224.777s4.444.592,5.1-1.437" transform="translate(-757.372 -201.006)" fill="none" stroke="#535461" stroke-miterlimit="10" stroke-width="2"/></g><g transform="translate(14.181 21.562)" opacity="0.5"><path d="M213.189,221.758a1.745,1.745,0,0,0-.158,1.883c.79,1.509,2.745,1.2,3.695,2.643a2.641,2.641,0,0,1,.41,1.335,9.065,9.065,0,0,1-.348,2.182,3.688,3.688,0,0,0,.372,2.493,4.4,4.4,0,0,0,2.012,1.8,10.7,10.7,0,0,0,2.141.566,13.181,13.181,0,0,1,2.539.862,4.8,4.8,0,0,1,1.084.632,7.893,7.893,0,0,1,1.1,1.181l3.057,3.774a10.8,10.8,0,0,0,1.293,1.414,7.79,7.79,0,0,0,1.684,1.036,7.907,7.907,0,0,0,3.556,1.16c1.059-.07,1.8-1.092,1.293-2.521-.474-1.36-1.811-2.5-2.417-3.862-.956-2.139.3-3.737-.5-5.878-.767-2.058-2.919-3.438-4.293-5.318-.986-1.342-1.535-2.9-2.43-4.3a11.758,11.758,0,0,0-5.03-4.33,9.763,9.763,0,0,0-5.052-.71,3.237,3.237,0,0,0-1.766.586c-.494.417-.431,1.2-.753,1.749C214.312,220.78,213.607,221.143,213.189,221.758Z" transform="translate(-212.823 -217.722)" fill="#e43f6f"/><path d="M228.72,225.66s15.3,14.307,21.474,25.446" transform="translate(-226.435 -224.519)" fill="none" stroke="#535461" stroke-miterlimit="10" stroke-width="2"/><path d="M214.68,258.716a11.717,11.717,0,0,1,10.348,3.579" transform="translate(-214.413 -252.712)" fill="none" stroke="#535461" stroke-miterlimit="10" stroke-width="2"/><path d="M244.92,305.108s6.755-4.724,9.092-1.976" transform="translate(-240.307 -290.122)" fill="none" stroke="#535461" stroke-miterlimit="10" stroke-width="2"/><path d="M277.7,223s-.711,3.616,1.848,9.523" transform="translate(-268.297 -222.242)" fill="none" stroke="#535461" stroke-miterlimit="10" stroke-width="2"/><path d="M327.914,320.61s-.6,2.371-5.4.628" transform="translate(-306.746 -305.823)" fill="none" stroke="#535461" stroke-miterlimit="10" stroke-width="2"/><path d="M326.17,348.2s2.933-3.39,1.6-5.055" transform="translate(-309.88 -325.124)" fill="none" stroke="#535461" stroke-miterlimit="10" stroke-width="2"/></g><path d="M189.094,79.223a3.064,3.064,0,0,0-.862,3.185c1.026,2.272,4.79,1.164,6.134,3.282a3.13,3.13,0,0,1,.364,2.1,17.239,17.239,0,0,1-1.314,3.737,5.074,5.074,0,0,0-.05,4.036A4.889,4.889,0,0,0,196.6,97.94a18.088,18.088,0,0,0,3.847.287,21.3,21.3,0,0,1,4.506.664,6.224,6.224,0,0,1,1.842.719,8.168,8.168,0,0,1,1.7,1.635l4.6,5.359a10.96,10.96,0,0,0,1.992,1.965,9.836,9.836,0,0,0,2.847,1.214c2.105.644,4.311,1.293,6.324.852a3.961,3.961,0,0,0,3.2-4.59c-.479-2.12-2.637-3.623-3.364-5.7-1.15-3.272,1.689-6.308.836-9.638-.816-3.193-4.435-4.84-6.447-7.544-1.437-1.937-2-4.36-3.259-6.421a13.124,13.124,0,0,0-8.12-5.687,19.457,19.457,0,0,0-9.278.358,9.051,9.051,0,0,0-3.492,1.512c-1.053.844-1.176,2.123-1.943,3.142C191.5,77.255,190.062,78.071,189.094,79.223Z" transform="translate(-177.422 -70.221)" fill="#e43f6f"/><path d="M226.51,92.73S250.894,111.916,259.1,128.6" transform="translate(-210.362 -89.132)" fill="none" stroke="#535461" stroke-miterlimit="10" stroke-width="2"/><path d="M189.9,146.813s11.838-3.834,18.331,2.823" transform="translate(-179.013 -134.501)" fill="none" stroke="#535461" stroke-miterlimit="10" stroke-width="2"/><path d="M227.7,206.926s14.1-9.916,17.664-6.049" transform="translate(-211.381 -180.969)" fill="none" stroke="#535461" stroke-miterlimit="10" stroke-width="2"/><path d="M314.761,73.21s-2.43,6.236.575,15.3" transform="translate(-285.135 -72.417)" fill="none" stroke="#535461" stroke-miterlimit="10" stroke-width="2"/><path d="M382.773,211s-1.841,4.129-10.333,2.685" transform="translate(-335.319 -190.404)" fill="none" stroke="#535461" stroke-miterlimit="10" stroke-width="2"/><path d="M363.13,264.34s6.535-6.536,4.537-8.91" transform="translate(-327.347 -228.449)" fill="none" stroke="#535461" stroke-miterlimit="10" stroke-width="2"/><ellipse cx="69.825" cy="5.904" rx="69.825" ry="5.904" transform="translate(0 98.052)" fill="#e43f6f" opacity="0.1"/><path d="M839.085,392.939a6.679,6.679,0,0,0-1.066-2.235.318.318,0,0,0-.068-.042h-.042v-1.076l-.8.128a7.674,7.674,0,0,1-.287-1.191.553.553,0,0,0,.6.121c-.013-.022-.024-.044-.036-.068l.036-.016a1.49,1.49,0,0,1-.194-.73,2.659,2.659,0,0,1,.111-.69c.144-.5.387-.959.522-1.457a3.542,3.542,0,0,0,.121-.984,3.592,3.592,0,0,0-.374-1.624.947.947,0,0,0-.287-.371,3.674,3.674,0,0,0-.348-.17,1.878,1.878,0,0,1-.506-.5,4.535,4.535,0,0,0-2.192-1.463,1.283,1.283,0,0,0-.7-.056c-.539.144-.734.812-1.171,1.163a3.219,3.219,0,0,1-1.4.444,2.377,2.377,0,0,0-1.3.683,1.412,1.412,0,0,0-.349.941.947.947,0,0,0,.385.842,1.21,1.21,0,0,0,1.022.144,3.475,3.475,0,0,0,2.631,4.369l.093.168h0a7.2,7.2,0,0,1,.652,1.7,6.292,6.292,0,0,1-2.032.848,3.42,3.42,0,0,1-.106.563,3.108,3.108,0,0,1-.64,1.258c-.663.744-3.642,6.372-3.642,6.372s-.093.224-.247.607a32.93,32.93,0,0,1-5.711.387l-3.305-3.145a2.434,2.434,0,0,0-.976,1.808l-.588-.566s-3.145,2.4,1.821,3.972l7.555.877c-.719,2.172-1.391,4.7-1.183,6.075h.062a2.863,2.863,0,0,0,.431-.033l-.013.244-.732,13.034a3.734,3.734,0,0,0,2.07,3.475s2.731,8.027,1.656,8.938c0,0,.128.068.344.161l-2.246,1.99a10.506,10.506,0,0,1-2.565.331.657.657,0,0,0-.726.489.11.11,0,0,1-.009.052v.16a.124.124,0,0,0,.01.053v.02a.441.441,0,0,0,.019.057l.007.017a.468.468,0,0,0,.026.056v.013c.01.019.022.036.033.055l.01.016q.02.029.044.057l.013.014c.017.02.036.039.055.057l.009.007.062.053.013.01c.023.019.049.036.075.053l.017.012c.027.017.056.034.086.05h.013l.093.046h.013l.109.043.023.009.119.039h.02l.131.034h.01l.144.029h.029l.155.023h.03l.175.017c.341.026.8.036,1.329.033h0v.085a.1.1,0,0,0,.01.053v.02a.447.447,0,0,0,.019.057l.007.017a.489.489,0,0,0,.026.056v.013c.01.019.022.036.033.055l.01.016c.013.019.028.038.045.057l.013.014c.017.02.036.039.055.057l.009.007.062.053.013.01c.023.019.049.036.075.053l.019.011c.027.017.056.034.086.05h.013l.093.046h.013l.109.043.023.009.119.039h.02l.131.034h.01l.144.029h.029l.155.023h.03l.175.017c2.156.165,9.02-.331,9.02-.331v-.019h0v-.024h0a4.375,4.375,0,0,0-.775-3.56c.034-.036.069-.075.1-.115,0,0-.91-1.572-.414-2.07s-2.482-9.1-2.482-9.1a6.818,6.818,0,0,1-.663-5.3,10.8,10.8,0,0,0-.083-5.875,3.389,3.389,0,0,0,2.215-3.317v-.249a.878.878,0,0,0,.144.009.625.625,0,0,0,.092,0,4.374,4.374,0,0,1,.083-2.565c.5-1.076,1.572-.083,2.565-4.468.719-3.173,1.351-6.824,1.646-8.6A4.528,4.528,0,0,0,839.085,392.939Zm-18.886,9.31-.755-.719c.25.1.527.206.838.3l2.846.331A14.722,14.722,0,0,1,820.2,402.249Z" transform="translate(-715.054 -335.532)" fill="url(#a)"/><path d="M828.583,513.964s-5.854.813-7.074.575l-3.258-3.1s-3.09,2.358,1.789,3.9l9.112,1.065Z" transform="translate(-716.234 -447.666)" fill="#fdc2cc"/><path d="M828.583,513.964s-5.854.813-7.074.575l-3.258-3.1s-3.09,2.358,1.789,3.9l9.112,1.065Z" transform="translate(-716.234 -447.666)" opacity="0.05"/><path d="M874.294,758.65l-2.846,2.521a10.306,10.306,0,0,1-2.521.325c-.9-.082-1.3,1.383.813,1.545s8.862-.325,8.862-.325a4.107,4.107,0,0,0-1.3-4.066Z" transform="translate(-759.831 -659.348)" fill="#47465a"/><path d="M874.294,758.65l-2.846,2.521a10.306,10.306,0,0,1-2.521.325c-.9-.082-1.3,1.383.813,1.545s8.862-.325,8.862-.325a4.107,4.107,0,0,0-1.3-4.066Z" transform="translate(-759.831 -659.348)" opacity="0.05"/><path d="M878.71,779.11a4.48,4.48,0,0,1-.1.881s-6.755.487-8.862.325c-1.016-.078-1.449-.457-1.526-.821-.092.417.276.969,1.526,1.065,2.114.162,8.862-.325,8.862-.325A4.7,4.7,0,0,0,878.71,779.11Z" transform="translate(-759.836 -676.867)" fill="#fff" opacity="0.3"/><path d="M933.79,424.336s1.789,2.521,1.138,4.228,3.415-1.789,3.415-1.789a6.929,6.929,0,0,1-.651-4.715Z" transform="translate(-815.994 -371.132)" fill="#fdc2cc"/><path d="M894.091,765.44l-2.846,2.524a10.309,10.309,0,0,1-2.521.325c-.9-.082-1.3,1.38.813,1.544s8.862-.325,8.862-.325a4.108,4.108,0,0,0-1.3-4.066Z" transform="translate(-776.783 -665.162)" fill="#47465a"/><path d="M886.645,585.154a2.175,2.175,0,0,1-1.647.755,6.9,6.9,0,0,1-2.986-.755c1.056-.894-1.625-8.781-1.625-8.781a3.669,3.669,0,0,1-2.032-3.415l.719-12.8.18-3.215,2.276-1.383,1.8,1.377,1.7,1.306a6.842,6.842,0,0,1,.213,1.269,3.39,3.39,0,0,1-2.164,3.691,10.608,10.608,0,0,1,.082,5.772,6.7,6.7,0,0,0,.651,5.2s2.928,8.455,2.443,8.943S886.645,585.154,886.645,585.154Z" transform="translate(-768.523 -485.445)" fill="#565171"/><path d="M886.645,585.154a2.175,2.175,0,0,1-1.647.755,6.9,6.9,0,0,1-2.986-.755c1.056-.894-1.625-8.781-1.625-8.781a3.669,3.669,0,0,1-2.032-3.415l.719-12.8.18-3.215,2.276-1.383,1.8,1.377,1.7,1.306a6.842,6.842,0,0,1,.213,1.269,3.39,3.39,0,0,1-2.164,3.691,10.608,10.608,0,0,1,.082,5.772,6.7,6.7,0,0,0,.651,5.2s2.928,8.455,2.443,8.943S886.645,585.154,886.645,585.154Z" transform="translate(-768.523 -485.445)" opacity="0.05"/><path d="M898.694,591.953c-1.383,1.707-4.633,0-4.633,0a.517.517,0,0,0,.144-.221c.6-1.621-2.012-9.372-2.012-9.372a4.75,4.75,0,0,1-2.443-3.577l-.575-13.028-.075-1.687,3.42-1.306,1.051-.4,3.5,2.679a6.343,6.343,0,0,1,.224,1.7,3.329,3.329,0,0,1-2.17,3.262,10.608,10.608,0,0,1,.082,5.772,6.7,6.7,0,0,0,.651,5.2s2.927,8.455,2.443,8.943S898.694,591.953,898.694,591.953Z" transform="translate(-777.727 -491.268)" fill="#565171"/><path d="M892.342,560.945a10.956,10.956,0,0,1-2.857-1.407l-.457-.287s-.732-2.032-2.683-.487a7.3,7.3,0,0,1-2.12,1.2,4.963,4.963,0,0,1-.905.227l.18-3.215,2.276-1.383,1.8,1.377,1.051-.4,3.5,2.676A6.34,6.34,0,0,1,892.342,560.945Z" transform="translate(-772.778 -485.471)" opacity="0.1"/><path d="M893.7,451.851c-.287,1.745-.911,5.33-1.617,8.449-.976,4.311-2.032,3.333-2.521,4.391a4.3,4.3,0,0,0-.082,2.521c-.813.082-3.5-1.707-3.5-1.707s-.732-2.032-2.683-.487a5.721,5.721,0,0,1-3.5,1.463c-.407-2.683,2.6-9.837,2.6-9.837s2.93-5.529,3.574-6.26a3.054,3.054,0,0,0,.628-1.236,3.368,3.368,0,0,0,.1-.553c1.056-.082,3.659-1.868,3.659-1.868l2.032-.325v1.056a.312.312,0,0,1,.066.04,6.531,6.531,0,0,1,1.048,2.2A4.455,4.455,0,0,1,893.7,451.851Z" transform="translate(-769.735 -391.973)" fill="#f68080"/><path d="M910.736,459.617s-2.114-1.707-5.284,3.821-3.9,4.633-3.9,4.633.651,2.443.325,2.928a17.842,17.842,0,0,1,3.008,0c.813.162,5.854-6.18,5.854-6.18S913.339,461.242,910.736,459.617Z" transform="translate(-788.388 -403.078)" opacity="0.1"/><path d="M910.185,457.359s-2.114-1.7-5.284,3.821-3.9,4.635-3.9,4.635,2.518,2.764,3.331,2.922,5.854-6.18,5.854-6.18S912.785,458.985,910.185,457.359Z" transform="translate(-787.917 -401.146)" opacity="0.1"/><path d="M901.355,522.808a9.828,9.828,0,0,0-.325-2.21c.494-.065.806-.108.806-.108l.575,2.443Z" transform="translate(-787.942 -455.415)" opacity="0.1"/><path d="M938.262,423.19l-3.9,2.272a8.3,8.3,0,0,1,.454.744,3.43,3.43,0,0,0,.684.069c1.042,0,1.528-1.094,2.156-1.829C937.614,423.86,938.088,423.845,938.262,423.19Z" transform="translate(-816.482 -372.099)" opacity="0.1"/><circle cx="3.415" cy="3.415" r="3.415" transform="translate(115.521 47.189)" fill="#fdc2cc"/><path d="M909.6,387.066a2.334,2.334,0,0,1,1.279-.671,3.256,3.256,0,0,0,1.374-.431c.431-.343.621-1,1.15-1.141a1.26,1.26,0,0,1,.688.055,4.455,4.455,0,0,1,2.156,1.437,1.846,1.846,0,0,0,.5.5,3.6,3.6,0,0,1,.342.167.93.93,0,0,1,.279.364,3.534,3.534,0,0,1,.247,2.482c-.132.49-.371.944-.512,1.437a1.886,1.886,0,0,0,.082,1.476.6.6,0,0,1-.719-.266,3.063,3.063,0,0,1-.287-.789,3.017,3.017,0,0,0-.881-1.37c-.256-.227-.719-.379-.892-.086-.069.114-.065.257-.124.375a.493.493,0,0,1-.676.144,1.036,1.036,0,0,1-.422-.627c-.335-1.133-.905-1.845-2.117-1.361a1.454,1.454,0,0,1-1.417-.007A1.146,1.146,0,0,1,909.6,387.066Z" transform="translate(-794.986 -339.225)" opacity="0.1"/><path d="M909.6,386.486a2.334,2.334,0,0,1,1.279-.671,3.256,3.256,0,0,0,1.374-.431c.431-.344.621-1,1.15-1.141a1.26,1.26,0,0,1,.688.055,4.455,4.455,0,0,1,2.156,1.437,1.846,1.846,0,0,0,.5.5,3.6,3.6,0,0,1,.342.167.93.93,0,0,1,.279.364,3.534,3.534,0,0,1,.247,2.482c-.132.49-.371.944-.512,1.437a1.886,1.886,0,0,0,.082,1.476.6.6,0,0,1-.719-.266,3.063,3.063,0,0,1-.287-.789,3.017,3.017,0,0,0-.881-1.37c-.256-.227-.719-.379-.892-.086-.069.114-.065.257-.124.375a.493.493,0,0,1-.676.144,1.036,1.036,0,0,1-.422-.627c-.335-1.132-.905-1.845-2.117-1.361a1.454,1.454,0,0,1-1.417-.007A1.145,1.145,0,0,1,909.6,386.486Z" transform="translate(-794.986 -338.728)" fill="#b96b6b"/><path d="M933.272,447.475H931.62s-3.252,1.625-3.333,1.545a2.765,2.765,0,0,0-.877.106,3.354,3.354,0,0,0,.1-.553c1.056-.082,3.659-1.868,3.659-1.868l2.032-.325v1.056A.315.315,0,0,1,933.272,447.475Z" transform="translate(-810.531 -391.956)" opacity="0.05"/><path d="M898.51,785.9a4.489,4.489,0,0,1-.1.881s-6.755.487-8.862.325c-1.016-.078-1.449-.457-1.526-.821-.092.417.276.969,1.526,1.065,2.114.162,8.862-.325,8.862-.325A4.7,4.7,0,0,0,898.51,785.9Z" transform="translate(-776.791 -682.682)" fill="#fff" opacity="0.3"/><g transform="translate(110.093 55.481)" opacity="0.05"><path d="M882.893,571.917a6.9,6.9,0,0,1-2.7,1.367,1.2,1.2,0,0,0,.02.178,5.721,5.721,0,0,0,3.5-1.463,2.619,2.619,0,0,1,1.045-.546C884.33,571.25,883.718,571.263,882.893,571.917Z" transform="translate(-880.19 -554.437)"/><path d="M945.892,455.976a6.489,6.489,0,0,0-1.048-2.2.312.312,0,0,0-.066-.04s-.673.023-.651.04a6.151,6.151,0,0,1,.951,2.114,4.454,4.454,0,0,1,.177,2.156c-.287,1.745-.911,5.33-1.617,8.449-.976,4.311-2.032,3.333-2.521,4.391a4.106,4.106,0,0,0-.114,2.387,2.056,2.056,0,0,0,.845.214,4.3,4.3,0,0,1,.082-2.521c.489-1.058,1.545-.082,2.521-4.391.706-3.117,1.327-6.7,1.617-8.449A4.456,4.456,0,0,0,945.892,455.976Z" transform="translate(-932.156 -453.74)"/></g><path d="M223.43,434.464A3.454,3.454,0,0,1,220.4,432.6a6.714,6.714,0,0,0-.8-1.131,3.823,3.823,0,0,1-.559-2.031c.065-1.483-1.483-9.612-1.483-9.612s.194-3.1-1.355-5.03c-1.019-1.273-2.485-4.924-3.369-7.269a.488.488,0,0,0,.208.109l-.036-.2.036.009-.451-2.516a11.452,11.452,0,0,1-1.667-2.528l.1-.022,1.37-.287s2.226-3.162,2.363-4.72l.181.009h.256a53.443,53.443,0,0,1,6.167.323h0c0-.01-.016-.05-.033-.114h0a7.739,7.739,0,0,1-.2-.953l.128-.009,1.268-.085s4.386-4.9,2.774-5.806-3.29,4.064-3.29,4.064l-.542.1-.144.027a.627.627,0,0,1,.046-.062c.017-.02-7.161-.322-8.258-2.064,0,0-3.162-2.516-3.29-4.194a1.892,1.892,0,0,0-1.137-1.61,2.481,2.481,0,0,0-1.253-.234l-1.48.1.1.187h-.042a4.98,4.98,0,0,1-.233-.655h.03c-.01-.046-.02-.092-.029-.144a3.484,3.484,0,0,0,2.565-4.29,1.394,1.394,0,0,0,.431-.012,1.279,1.279,0,0,0,.944-1.219V380.6a1.868,1.868,0,0,0-.719-1.437c-.3-.246-.648-.421-.917-.694a6.808,6.808,0,0,1-.742-1.15,3.4,3.4,0,0,0-1.748-1.361,1.6,1.6,0,0,0-1.6.187c-.211.2-.333.486-.575.654a2.543,2.543,0,0,1-1.22.22,2.326,2.326,0,0,0-1.753,1.314,3.018,3.018,0,0,0-.287,1.387,3.706,3.706,0,0,0,.116.974c.08.318.2.624.287.938.181.655.223,1.345.431,1.993a2.508,2.508,0,0,0,.808,1.224l-.062.267a2.8,2.8,0,0,0-1.74,1.742c-.549,1.2-2.406,2.432-3.222,2.93a1.344,1.344,0,0,0-.608.844,4.387,4.387,0,0,0-.1,1.072,7.357,7.357,0,0,0,.773,3.216,25.979,25.979,0,0,0,2.452,4.455s.079.948.083,1.949a5.755,5.755,0,0,1-.213,1.857,7.073,7.073,0,0,0-.172,2.026c0,1.752.172,4.038.172,4.038s.493.093,1.258.206l.476,8.363a4.024,4.024,0,0,1-.91,2.794,6.179,6.179,0,0,1-1.15,1.089c-1.355.967-4.258,11.161-4.258,11.161s.144.009.377.027l-.892,2.489s3.564,2.731,5.734,1.985a2.1,2.1,0,0,1,.719-.1c.431,0,1.344-.338.834-.785a33.047,33.047,0,0,1-2.781-2.892,1.473,1.473,0,0,1,.2.118v-.02l.03.02s.007-.1.023-.263l-.032-.01c.066-.671.273-2.358.686-2.565.516-.259,4.322-7.805,4.322-7.805l3.806-9.806s3.032,5.226,5.612,6.128v2.18s1.42,6.451,1.936,7.161,0,3.548,0,3.548a1.767,1.767,0,0,0,.348.306l-.412,2.338a26.327,26.327,0,0,1,8,1.42C223.106,436.335,225.042,435.5,223.43,434.464Zm-11.871-33.745-.628.157-.124.032c-.013-.078-.022-.124-.022-.124a1.282,1.282,0,0,1-.456.111,8.4,8.4,0,0,1-.382-2.176,14.668,14.668,0,0,1-.385-2.695,1.978,1.978,0,0,1,.256-1.111l.21.017.144.144.01.01.075.068h0l.078.07.013.012.085.073.014.013.086.073.009.007.1.079.022.017.1.082h.009l.1.079.023.017.111.085.023.017.106.078.019.013.121.086.029.02.126.088.011.007.124.082.03.02.134.085.029.017.125.076.023.014.144.083.035.02.144.083h.011l.144.076.036.019.152.076.032.014.144.066.027.013.16.069.039.016.167.066h0A9.752,9.752,0,0,0,211.559,400.719Z" transform="translate(-182.584 -331.548)" fill="url(#b)"/><path d="M197.917,762.12l-1.2,3.339s3.278,2.514,5.408,1.993a5.947,5.947,0,0,1,.977-.158c.441-.033,1.2-.354.732-.763a40.221,40.221,0,0,1-3.527-3.778Z" transform="translate(-184.853 -662.319)" fill="#4f4d59"/><path d="M340.156,755.352l-.566,3.212a25.706,25.706,0,0,1,7.81,1.385s1.89-.819.315-1.827a3.369,3.369,0,0,1-2.961-1.827c-1.134-1.953-1.827-1.7-1.827-1.7Z" transform="translate(-307.191 -655.868)" fill="#4f4d59"/><path d="M205.826,562.047l.555,9.773a4.043,4.043,0,0,1-.964,2.859,5.926,5.926,0,0,1-1.041.97c-1.322.944-4.156,10.9-4.156,10.9s3.212.188,4.093.819c0,0,.188-2.519.693-2.771s4.22-7.617,4.22-7.617l3.718-9.579s2.961,5.1,5.48,5.983v2.141s1.385,6.3,1.89,6.99,0,3.464,0,3.464,1.449,1.827,4.786-.126a4.2,4.2,0,0,1-1.006-2.646c.065-1.449-1.449-9.383-1.449-9.383a8.193,8.193,0,0,0-1.322-4.912c-1.51-1.894-4.031-9.127-4.031-9.127l-1.733-3.729Z" transform="translate(-187.85 -485.865)" fill="#787c9c"/><g transform="translate(12.406 70.186)" opacity="0.1"><path d="M201.033,586.555s2.834-9.951,4.156-10.9a6,6,0,0,0,1.094-1.033,4,4,0,0,0,.91-2.794l-.555-9.773,9.286-5.729-.126-.272-9.728,6,.555,9.773a4,4,0,0,1-.9,2.8,6,6,0,0,1-1.094,1.033c-1.322.944-4.156,10.9-4.156,10.9s3.212.188,4.093.819c0,0,.007-.1.023-.257A17.8,17.8,0,0,0,201.033,586.555Z" transform="translate(-200.47 -556.06)"/><path d="M298.97,653.584s.5-2.771,0-3.464-1.9-6.992-1.9-6.992v-2.141C294.56,640.106,291.6,635,291.6,635l-.22.575c.854,1.354,3.132,4.715,5.132,5.415v2.141s1.385,6.3,1.89,6.99,0,3.464,0,3.464a2.632,2.632,0,0,0,2.255.765A2.443,2.443,0,0,1,298.97,653.584Z" transform="translate(-278.315 -623.655)"/></g><path d="M378.74,487.078l-1.237.082-.652.043v-1.581l.862-.155.53-.1s1.637-4.849,3.212-3.968S378.74,487.078,378.74,487.078Z" transform="translate(-339.096 -421.854)" fill="#714b4f"/><path d="M245.516,431.26s-.819,3.149-1.071,5.1,5.856.378,5.856.378-2.33-2.834-1.006-4.346Z" transform="translate(-225.713 -379.009)" fill="#714b4f"/><path d="M250.682,458.625l.126,1.2-1.952-.126-1.96-1.7-1.952-5.476-1.259-1.952-.946-1.2.378-1.449s.172.144.464.374c.959.734,3.209,2.259,4.853,1.838a1.957,1.957,0,0,0,.224-.07l2.453,4.218Z" transform="translate(-224.259 -393.275)" fill="#e6e6f0"/><path d="M215.852,445.28s-1.006.188-1.7,1.7c-.533,1.163-2.331,2.361-3.134,2.854a1.344,1.344,0,0,0-.609.849,6.269,6.269,0,0,0,.658,3.981,25.476,25.476,0,0,0,2.393,4.346,14.211,14.211,0,0,1-.126,3.9c-.378.887,0,5.731,0,5.731s6.611,1.259,8.817,0,1.89-6.109,1.89-6.109,2.078,4.4,2.834,4.534l-.441-2.456a10.583,10.583,0,0,1-2.587-6.046s-.756-3.086-.126-3.9c0,0,10.644.882,11.273.126,0,0-6.99-.315-8.061-2.012,0,0-3.086-2.456-3.212-4.093a1.811,1.811,0,0,0-.944-1.483,2.466,2.466,0,0,0-1.411-.315l-1.423.1s2.456,4.346,2.33,4.912.126,5.164.126,5.164-2.828-6.114-4.083-6.806-2.708-3.537-2.708-3.537l.251-1.437" transform="translate(-196.491 -391.014)" opacity="0.1"/><path d="M250.682,458.625l.126,1.2-1.952-.126-1.96-1.7-1.952-5.476-1.259-1.952-.946-1.2.378-1.449s.172.144.464.374l-.086.5s1.449,2.844,2.708,3.537,4.093,6.8,4.093,6.8-.251-4.6-.126-5.164c.086-.385-1.018-2.508-1.735-3.834a1.945,1.945,0,0,0,.224-.07l2.453,4.215Z" transform="translate(-224.259 -393.275)" opacity="0.1"/><path d="M377.482,512.023l-.652.043v-1.581l.862-.155A2.451,2.451,0,0,0,377.482,512.023Z" transform="translate(-339.079 -446.716)" opacity="0.1"/><path d="M215.852,444s-1.006.188-1.7,1.7c-.533,1.163-2.331,2.361-3.134,2.854a1.344,1.344,0,0,0-.609.849,6.269,6.269,0,0,0,.658,3.981,25.477,25.477,0,0,0,2.393,4.346,14.211,14.211,0,0,1-.126,3.9c-.378.887,0,5.731,0,5.731s6.611,1.259,8.817,0,1.89-6.121,1.89-6.121,2.078,4.409,2.834,4.534l-.441-2.456a10.583,10.583,0,0,1-2.587-6.046s-.756-3.086-.126-3.9c0,0,2.456,2.646,5.227,2.587a53.214,53.214,0,0,1,6.046.315s-.629-2.012,0-2.771c0,0-6.99-.315-8.061-2.012,0,0-3.086-2.456-3.212-4.093a1.811,1.811,0,0,0-.944-1.483,2.466,2.466,0,0,0-1.411-.315l-1.423.1s2.462,4.337,2.335,4.912.126,5.164.126,5.164-2.834-6.111-4.089-6.8-2.713-3.534-2.713-3.534l.252-1.437" transform="translate(-196.491 -389.918)" fill="#787c9c"/><path d="M228.732,490s1.512,5.1,2.393,5.731,6.234,3.842,7.81,3.086c0,0,.378,1.89-.188,2.33,0,0-5.872-.23-5.92-.252,0,0-3.842-.5-4.471-2.393s-1.385-5.1-1.385-5.1Z" transform="translate(-210.756 -429.307)" opacity="0.1"/><ellipse cx="0.22" cy="0.315" rx="0.22" ry="0.315" transform="translate(25.819 65.823)" fill="#ba7855"/><ellipse cx="0.22" cy="0.315" rx="0.22" ry="0.315" transform="translate(26.448 68.028)" fill="#ba7855"/><g transform="translate(13.821 54.07)" opacity="0.1"><path d="M213.783,467.229s-.378-4.849,0-5.731.126-3.9.126-3.9a25.289,25.289,0,0,1-2.393-4.346,6.279,6.279,0,0,1-.658-3.981,1.344,1.344,0,0,1,.611-.849c.8-.493,2.6-1.692,3.133-2.854a3.271,3.271,0,0,1,1.236-1.5l.024-.144s-1.006.188-1.7,1.7c-.533,1.163-2.331,2.361-3.133,2.854a1.344,1.344,0,0,0-.611.849,6.269,6.269,0,0,0,.658,3.981,25.478,25.478,0,0,0,2.393,4.346,14.211,14.211,0,0,1-.126,3.9c-.378.887,0,5.731,0,5.731s4.724.9,7.518.418A29.355,29.355,0,0,1,213.783,467.229Z" transform="translate(-210.321 -443.92)"/><path d="M279.681,460.51a38.278,38.278,0,0,0,.07,4.067c.3.622.5,1.033.5,1.033s-.252-4.6-.126-5.164c.119-.539-2.092-4.491-2.312-4.886l-.458.032S279.808,459.935,279.681,460.51Z" transform="translate(-267.717 -453.887)"/><path d="M311,511.377c-2.771.063-5.227-2.587-5.227-2.587a1.006,1.006,0,0,0-.16.342c.719.677,2.731,2.354,4.945,2.3a52.106,52.106,0,0,1,6.046.315s-.013-.042-.033-.114a50.129,50.129,0,0,0-5.572-.256Z" transform="translate(-291.915 -499.467)"/><path d="M308.91,563.6s.026.394.012.984c.655,1.293,1.848,3.524,2.381,3.613l-.093-.517A29.17,29.17,0,0,1,308.91,563.6Z" transform="translate(-294.741 -546.4)"/></g><path d="M306.923,526.859l-1.338.287-1.055.223.566-1.581.394-.1.614-.152s.882-4.409,2.646-4.093S306.923,526.859,306.923,526.859Z" transform="translate(-277.169 -456.218)" fill="#714b4f"/><path d="M305.585,552.5l-1.055.223.566-1.581.394-.1A6.292,6.292,0,0,1,305.585,552.5Z" transform="translate(-277.169 -481.575)" opacity="0.1"/><path d="M228.732,489.1s1.512,5.1,2.393,5.731,6.234,3.842,7.81,3.086c0,0,.378,1.89-.188,2.33,0,0-5.872-.23-5.92-.251,0,0-3.842-.5-4.471-2.393s-1.385-5.1-1.385-5.1Z" transform="translate(-210.756 -428.537)" fill="#787c9c"/><path d="M250.6,432.14s-.128.493-.3,1.21a3.4,3.4,0,0,0,3.754,1.725,1.961,1.961,0,0,1,.325-1.807Z" transform="translate(-230.733 -379.763)" opacity="0.1"/><circle cx="3.4" cy="3.4" r="3.4" transform="translate(19.111 48.472)" fill="#714b4f"/><path d="M245.745,387.588a1.82,1.82,0,0,0,.759.046,1.246,1.246,0,0,0,.921-1.19,1.828,1.828,0,0,0-.7-1.4c-.287-.24-.632-.411-.9-.678a6.348,6.348,0,0,1-.719-1.12,3.324,3.324,0,0,0-1.712-1.328,1.558,1.558,0,0,0-1.561.183c-.206.194-.326.474-.556.638a2.482,2.482,0,0,1-1.191.214,2.271,2.271,0,0,0-1.712,1.282,3.208,3.208,0,0,0-.167,2.179c.079.309.194.609.279.917.177.641.218,1.314.423,1.946a2.085,2.085,0,0,0,1.262,1.437,3.99,3.99,0,0,1,.405-2.055.589.589,0,0,1,.287-.319.7.7,0,0,1,.346,0,3.449,3.449,0,0,0,2.3-.466c.241-.144.618-.648.877-.7C244.72,387.112,245.4,387.51,245.745,387.588Z" transform="translate(-220.281 -336.651)" opacity="0.1"/><path d="M245.751,386.708a1.82,1.82,0,0,0,.759.046,1.246,1.246,0,0,0,.921-1.19,1.828,1.828,0,0,0-.7-1.4c-.287-.24-.632-.411-.9-.678a6.349,6.349,0,0,1-.719-1.12,3.324,3.324,0,0,0-1.712-1.328,1.558,1.558,0,0,0-1.561.183c-.206.194-.326.474-.556.638a2.482,2.482,0,0,1-1.191.214,2.271,2.271,0,0,0-1.712,1.282,3.208,3.208,0,0,0-.167,2.173c.079.309.194.609.279.917.177.641.218,1.314.423,1.946a2.085,2.085,0,0,0,1.262,1.437,3.989,3.989,0,0,1,.405-2.055.589.589,0,0,1,.287-.319.7.7,0,0,1,.346,0,3.449,3.449,0,0,0,2.3-.466c.241-.144.618-.648.877-.7C244.726,386.232,245.406,386.632,245.751,386.708Z" transform="translate(-220.287 -335.897)" fill="#503f43"/><rect width="74.265" height="88.817" transform="translate(32.527 15.528)" fill="#fafbfc"/><rect width="74.265" height="3.011" transform="translate(32.527 15.528)" fill="#7983a6"/><line x2="54.194" transform="translate(42.563 51.72)" fill="none" stroke="#7983a6" stroke-miterlimit="10" stroke-width="1"/><g transform="translate(42.563 45.824)" opacity="0.5"><line x2="0.862" fill="none" stroke="#7983a6" stroke-miterlimit="10" stroke-width="1"/><line x2="49.93" transform="translate(2.555)" fill="none" stroke="#7983a6" stroke-miterlimit="10" stroke-width="1" stroke-dasharray="11.78 11.78"/><line x2="0.862" transform="translate(53.332)" fill="none" stroke="#7983a6" stroke-miterlimit="10" stroke-width="1"/></g><g transform="translate(42.563 39.928)" opacity="0.5"><line x2="0.862" fill="none" stroke="#7983a6" stroke-miterlimit="10" stroke-width="1"/><line x2="49.93" transform="translate(2.555)" fill="none" stroke="#7983a6" stroke-miterlimit="10" stroke-width="1" stroke-dasharray="11.78 11.78"/><line x2="0.862" transform="translate(53.332)" fill="none" stroke="#7983a6" stroke-miterlimit="10" stroke-width="1"/></g><g transform="translate(42.563 34.032)" opacity="0.5"><line x2="0.862" fill="none" stroke="#7983a6" stroke-miterlimit="10" stroke-width="1"/><line x2="49.93" transform="translate(2.555)" fill="none" stroke="#7983a6" stroke-miterlimit="10" stroke-width="1" stroke-dasharray="11.78 11.78"/><line x2="0.862" transform="translate(53.332)" fill="none" stroke="#7983a6" stroke-miterlimit="10" stroke-width="1"/></g><g transform="translate(42.563 28.136)" opacity="0.5"><line x2="0.862" fill="none" stroke="#7983a6" stroke-miterlimit="10" stroke-width="1"/><line x2="49.93" transform="translate(2.555)" fill="none" stroke="#7983a6" stroke-miterlimit="10" stroke-width="1" stroke-dasharray="11.78 11.78"/><line x2="0.862" transform="translate(53.332)" fill="none" stroke="#7983a6" stroke-miterlimit="10" stroke-width="1"/></g><g transform="translate(45.261 39.928)" opacity="0.3"><rect width="3.889" height="11.792" fill="#e43f6f"/></g><rect width="3.889" height="17.814" transform="translate(56.111 33.968)" fill="#e43f6f"/><g transform="translate(66.963 45.76)" opacity="0.3"><rect width="3.889" height="6.084" fill="#e43f6f"/></g><rect width="3.889" height="23.835" transform="translate(77.814 27.948)" fill="#e43f6f"/><g transform="translate(88.664 33.718)" opacity="0.3"><rect width="3.889" height="18.002" fill="#e43f6f"/></g><circle cx="1.003" cy="1.003" r="1.003" transform="translate(46.202 53.413)" fill="#e43f6f"/><circle cx="1.003" cy="1.003" r="1.003" transform="translate(57.116 53.413)" fill="#e43f6f"/><circle cx="1.003" cy="1.003" r="1.003" transform="translate(68.03 53.413)" fill="#e43f6f"/><circle cx="1.003" cy="1.003" r="1.003" transform="translate(78.943 53.413)" fill="#e43f6f"/><circle cx="1.003" cy="1.003" r="1.003" transform="translate(89.857 53.413)" fill="#e43f6f"/><line x2="54.194" transform="translate(42.563 89.605)" fill="none" stroke="#7983a6" stroke-miterlimit="10" stroke-width="1"/><g transform="translate(42.563 83.709)" opacity="0.5"><line x2="0.862" fill="none" stroke="#7983a6" stroke-miterlimit="10" stroke-width="1"/><line x2="49.93" transform="translate(2.555)" fill="none" stroke="#7983a6" stroke-miterlimit="10" stroke-width="1" stroke-dasharray="11.78 11.78"/><line x2="0.862" transform="translate(53.332)" fill="none" stroke="#7983a6" stroke-miterlimit="10" stroke-width="1"/></g><g transform="translate(42.563 77.814)" opacity="0.5"><line x2="0.862" fill="none" stroke="#7983a6" stroke-miterlimit="10" stroke-width="1"/><line x2="49.93" transform="translate(2.555)" fill="none" stroke="#7983a6" stroke-miterlimit="10" stroke-width="1" stroke-dasharray="11.78 11.78"/><line x2="0.862" transform="translate(53.332)" fill="none" stroke="#7983a6" stroke-miterlimit="10" stroke-width="1"/></g><g transform="translate(42.563 71.917)" opacity="0.5"><line x2="0.862" fill="none" stroke="#7983a6" stroke-miterlimit="10" stroke-width="1"/><line x2="49.93" transform="translate(2.555)" fill="none" stroke="#7983a6" stroke-miterlimit="10" stroke-width="1" stroke-dasharray="11.78 11.78"/><line x2="0.862" transform="translate(53.332)" fill="none" stroke="#7983a6" stroke-miterlimit="10" stroke-width="1"/></g><g transform="translate(42.563 66.022)" opacity="0.5"><line x2="0.862" fill="none" stroke="#7983a6" stroke-miterlimit="10" stroke-width="1"/><line x2="49.93" transform="translate(2.555)" fill="none" stroke="#7983a6" stroke-miterlimit="10" stroke-width="1" stroke-dasharray="11.78 11.78"/><line x2="0.862" transform="translate(53.332)" fill="none" stroke="#7983a6" stroke-miterlimit="10" stroke-width="1"/></g><rect width="3.889" height="11.792" transform="translate(45.261 77.814)" fill="#e43f6f"/><rect width="3.889" height="11.917" transform="translate(56.111 77.75)" fill="#e43f6f"/><rect width="3.889" height="6.084" transform="translate(66.963 83.647)" fill="#e43f6f"/><rect width="3.889" height="23.835" transform="translate(77.814 65.833)" fill="#e43f6f"/><rect width="3.889" height="18.002" transform="translate(103.467 51.771)" fill="#e43f6f"/><g transform="translate(46.202 91.298)" opacity="0.7"><circle cx="1.003" cy="1.003" r="1.003" fill="#e43f6f"/></g><g transform="translate(57.116 91.298)" opacity="0.7"><circle cx="1.003" cy="1.003" r="1.003" fill="#e43f6f"/></g><g transform="translate(68.03 91.298)" opacity="0.7"><circle cx="1.003" cy="1.003" r="1.003" fill="#e43f6f"/></g><g transform="translate(78.943 91.298)" opacity="0.7"><circle cx="1.003" cy="1.003" r="1.003" fill="#e43f6f"/></g><g transform="translate(89.857 91.298)" opacity="0.7"><circle cx="1.003" cy="1.003" r="1.003" fill="#e43f6f"/></g><path d="M270.343,775.622a1.677,1.677,0,0,0,.55-.831.737.737,0,0,0-.385-.846,1.079,1.079,0,0,0-1.018.358,1.354,1.354,0,0,1-.99.477,1.506,1.506,0,0,0,.466-1.41.589.589,0,0,0-.129-.287c-.2-.21-.552-.119-.788.046a2.934,2.934,0,0,0-.96,2.455,4.707,4.707,0,0,1-.014-1.006,1.039,1.039,0,0,0-.379-.894,1.149,1.149,0,0,0-.575-.137,1.2,1.2,0,0,0-.94.267.924.924,0,0,0,.037,1.15,3.742,3.742,0,0,0,.973.779,2.156,2.156,0,0,1,.7.663.653.653,0,0,1,.052.118h2.105A5.867,5.867,0,0,0,270.343,775.622Z" transform="translate(-243.317 -671.601)" fill="#e43f6f"/><path d="M982.343,763.621a1.676,1.676,0,0,0,.55-.831.737.737,0,0,0-.385-.846,1.079,1.079,0,0,0-1.017.358,1.354,1.354,0,0,1-.99.477,1.506,1.506,0,0,0,.466-1.41.589.589,0,0,0-.129-.287c-.2-.21-.552-.119-.788.046a2.933,2.933,0,0,0-.96,2.455,4.7,4.7,0,0,1-.014-1.006,1.039,1.039,0,0,0-.379-.894,1.149,1.149,0,0,0-.575-.136,1.2,1.2,0,0,0-.94.267.924.924,0,0,0,.037,1.15,3.739,3.739,0,0,0,.973.779,2.158,2.158,0,0,1,.7.662.662.662,0,0,1,.052.118h2.105A5.862,5.862,0,0,0,982.343,763.621Z" transform="translate(-852.991 -661.326)" fill="#e43f6f"/><path d="M839.951,507.952l-1.051-.122-8.048-.936c-4.885-1.544-1.8-3.895-1.8-3.895l3.252,3.09a37.766,37.766,0,0,0,6.266-.461c.494-.065.806-.108.806-.108Z" transform="translate(-725.488 -440.439)" fill="#fdc2cc"/><path d="M910.736,458.517s-2.114-1.707-5.284,3.821-3.9,4.633-3.9,4.633.651,2.443.325,2.927a17.842,17.842,0,0,1,3.008,0c.813.162,5.854-6.18,5.854-6.18S913.339,460.138,910.736,458.517Z" transform="translate(-788.388 -402.136)" fill="#f68080"/></g></svg>