<svg id="Car" xmlns="http://www.w3.org/2000/svg" width="149.053" height="85.32" viewBox="0 0 149.053 85.32">
  <g id="Background_Complete" transform="translate(6.117 2.076)">
    <g id="Group_1285" data-name="Group 1285" transform="translate(127.475 25.1)">
      <g id="Group_1271" data-name="Group 1271" transform="translate(4.767)">
        <g id="Group_1270" data-name="Group 1270">
          <path id="Path_2501" data-name="Path 2501" d="M672.816,178.212a3.008,3.008,0,0,1,.761,2.162,5.446,5.446,0,0,1-.7,2.227,9.27,9.27,0,0,1-3.458,3.2,6.235,6.235,0,0,1,0-4.368c.478-1.514,2.24-3.957,3.393-3.222" transform="translate(-669.013 -178.077)" fill="#ebebeb"/>
        </g>
      </g>
      <g id="Group_1273" data-name="Group 1273" transform="translate(5.59 8.54)">
        <g id="Group_1272" data-name="Group 1272">
          <path id="Path_2502" data-name="Path 2502" d="M672.8,219.631a2.536,2.536,0,0,1,1.653-1.9,3.417,3.417,0,0,1,2.566.216,1.417,1.417,0,0,1,.826.865,1.1,1.1,0,0,1-.391,1.016,2.239,2.239,0,0,1-1.044.432,4.377,4.377,0,0,1-3.61-.627" transform="translate(-672.8 -217.57)" fill="#ebebeb"/>
        </g>
      </g>
      <g id="Group_1276" data-name="Group 1276" transform="translate(2.284 9.938)">
        <g id="Group_1275" data-name="Group 1275">
          <g id="Group_1274" data-name="Group 1274">
            <path id="Path_2503" data-name="Path 2503" d="M657.6,228.373a1.389,1.389,0,0,1,.152-.259q.2-.292.457-.714a8.992,8.992,0,0,1,1.827-2.162,5.437,5.437,0,0,1,2.588-1.168,4.074,4.074,0,0,1,.87-.022.675.675,0,0,1,.239.043.226.226,0,0,1,.087.022,6.065,6.065,0,0,0-1.174.043,5.8,5.8,0,0,0-2.523,1.168,10.22,10.22,0,0,0-1.849,2.119,6.66,6.66,0,0,1-.5.692C657.687,228.287,657.622,228.373,657.6,228.373Z" transform="translate(-657.6 -224.034)" fill="#e0e0e0"/>
          </g>
        </g>
      </g>
      <g id="Group_1279" data-name="Group 1279" transform="translate(2.176 2.102)">
        <g id="Group_1278" data-name="Group 1278">
          <g id="Group_1277" data-name="Group 1277">
            <path id="Path_2504" data-name="Path 2504" d="M662.3,187.8a.333.333,0,0,1-.044.13c-.043.086-.065.216-.13.368-.109.324-.283.778-.5,1.341-.435,1.146-1.044,2.7-1.761,4.411s-1.392,3.244-1.914,4.346c-.261.562-.457.995-.609,1.3-.065.151-.131.259-.174.346l-.065.13a.7.7,0,0,0,.044-.13c.043-.086.087-.216.152-.368.152-.324.348-.778.587-1.319.5-1.1,1.153-2.66,1.87-4.368s1.348-3.265,1.783-4.39c.218-.562.392-1.016.522-1.341.065-.151.109-.259.152-.368A.26.26,0,0,0,662.3,187.8Z" transform="translate(-657.1 -187.8)" fill="#e0e0e0"/>
          </g>
        </g>
      </g>
      <g id="Group_1281" data-name="Group 1281" transform="translate(0 4.867)">
        <g id="Group_1280" data-name="Group 1280">
          <path id="Path_2505" data-name="Path 2505" d="M650.271,206.342a5.871,5.871,0,0,0-1.327-5.19c-.326-.346-.783-.692-1.24-.519-.457.151-.587.714-.609,1.189a5.026,5.026,0,0,0,3.088,4.627" transform="translate(-647.095 -200.587)" fill="#ebebeb"/>
        </g>
      </g>
      <g id="Group_1284" data-name="Group 1284" transform="translate(1.48 6.838)">
        <g id="Group_1283" data-name="Group 1283">
          <g id="Group_1282" data-name="Group 1282">
            <path id="Path_2506" data-name="Path 2506" d="M653.9,209.7a1.564,1.564,0,0,1,.217.216,1.375,1.375,0,0,1,.218.259c.087.108.174.238.261.368.087.151.2.3.283.476a3.659,3.659,0,0,1,.283.584,6.3,6.3,0,0,1,.392,1.406,6.777,6.777,0,0,1,.043,1.47,2.9,2.9,0,0,1-.109.627c-.043.195-.087.368-.13.541s-.109.3-.152.432a2.323,2.323,0,0,1-.152.324c-.087.173-.13.259-.152.259s.174-.389.37-1.038c.043-.173.087-.346.13-.541a5.429,5.429,0,0,0,.087-.627,6.612,6.612,0,0,0-.043-1.449,6.447,6.447,0,0,0-.391-1.384c-.087-.195-.174-.411-.261-.584s-.174-.324-.261-.476C654.183,210.024,653.9,209.722,653.9,209.7Z" transform="translate(-653.9 -209.7)" fill="#e0e0e0"/>
          </g>
        </g>
      </g>
    </g>
    <g id="Group_1309" data-name="Group 1309" transform="translate(0 11.6)">
      <g id="Group_1287" data-name="Group 1287">
        <g id="Group_1286" data-name="Group 1286">
          <path id="Path_2507" data-name="Path 2507" d="M61.83,115.788s-2,.649-.065,4.909a53.618,53.618,0,0,0,3.327,6.4s.326.995-.5,1.1-2.61-.259-3.023.714c-.435,1.016.283,2.033,1.761,2.962,1.5.93,4.676,3.071,4.958,3.265s.544.649,0,.822-4.632.389-4.393,2.314c.217,1.924,4.806,3.827,5.306,4.044s.609.432.544.714c-.043.281-1.435.216-2.588.346-1.153.108-2.479.454-2.262,1.535.217,1.1,2.871,3.5,9.547,4.454l3.11.238,1.827-2.552c3.566-5.687,3.436-9.255,2.74-10.12-.7-.887-1.8-.086-2.631.714s-1.7,1.881-1.935,1.752-.348-.368-.2-.887,1.653-5.211.326-6.638c-1.327-1.406-4.132,1.535-4.61,1.838s-.674-.195-.631-.541.457-4.152.7-5.882c.261-1.73-.065-2.919-1.109-3.244-1.022-.324-1.892,1.276-2.5,1.838-.631.562-1.153-.346-1.153-.346a54.033,54.033,0,0,0-2.762-6.66c-2.022-4.238-3.849-3.092-3.849-3.092" transform="translate(-60.921 -115.647)" fill="#ebebeb"/>
        </g>
      </g>
      <g id="Group_1290" data-name="Group 1290" transform="translate(2.605 3.969)">
        <g id="Group_1289" data-name="Group 1289">
          <g id="Group_1288" data-name="Group 1288">
            <path id="Path_2508" data-name="Path 2508" d="M87.079,164.727c-1.479-3.114-3.98-8.693-6.176-13.471s-4.175-9.1-5.632-12.217c-.718-1.557-1.327-2.811-1.718-3.7-.2-.432-.37-.778-.478-.995a1.437,1.437,0,0,0-.13-.259A.236.236,0,0,0,72.9,134a.236.236,0,0,1,.043.086,1.419,1.419,0,0,0,.13.259c.109.238.283.562.478.995.413.865,1.022,2.119,1.761,3.676,1.479,3.114,3.458,7.438,5.654,12.2,2.2,4.779,4.7,10.358,6.154,13.471" transform="translate(-72.9 -134)" fill="#e0e0e0"/>
          </g>
        </g>
      </g>
      <g id="Group_1293" data-name="Group 1293" transform="translate(3.127 13.894)">
        <g id="Group_1292" data-name="Group 1292">
          <g id="Group_1291" data-name="Group 1291">
            <path id="Path_2509" data-name="Path 2509" d="M75.3,179.9s.087.022.217.065.326.13.565.238c.478.195,1.131.5,1.848.822.7.324,1.348.649,1.827.865.217.108.413.195.565.259a2.017,2.017,0,0,1,.2.108s-.087-.022-.217-.065-.326-.13-.565-.238c-.478-.195-1.131-.5-1.848-.843-.718-.324-1.348-.627-1.827-.865-.217-.108-.413-.195-.565-.259A.9.9,0,0,1,75.3,179.9Z" transform="translate(-75.3 -179.9)" fill="#e0e0e0"/>
          </g>
        </g>
      </g>
      <g id="Group_1296" data-name="Group 1296" transform="translate(8.563 10.001)">
        <g id="Group_1295" data-name="Group 1295">
          <g id="Group_1294" data-name="Group 1294">
            <path id="Path_2510" data-name="Path 2510" d="M100.3,167.976c-.022,0,.522-1.384,1.218-3.049.7-1.687,1.283-3.027,1.327-3.027.022,0-.522,1.384-1.218,3.049S100.341,167.976,100.3,167.976Z" transform="translate(-100.297 -161.9)" fill="#e0e0e0"/>
          </g>
        </g>
      </g>
      <g id="Group_1299" data-name="Group 1299" transform="translate(11.608 18.885)">
        <g id="Group_1298" data-name="Group 1298">
          <g id="Group_1297" data-name="Group 1297">
            <path id="Path_2511" data-name="Path 2511" d="M114.3,207.656l.13-.195c.109-.13.239-.3.391-.476.326-.411.783-.973,1.261-1.622s.892-1.254,1.2-1.687c.13-.195.261-.368.348-.519.087-.13.13-.195.13-.173a.569.569,0,0,1-.109.195c-.065.13-.2.3-.326.541-.283.454-.7,1.06-1.174,1.708s-.957,1.211-1.283,1.622c-.174.195-.326.368-.413.476A1.576,1.576,0,0,0,114.3,207.656Z" transform="translate(-114.3 -202.981)" fill="#e0e0e0"/>
          </g>
        </g>
      </g>
      <g id="Group_1302" data-name="Group 1302" transform="translate(6.237 22.651)">
        <g id="Group_1301" data-name="Group 1301">
          <g id="Group_1300" data-name="Group 1300">
            <path id="Path_2512" data-name="Path 2512" d="M89.6,220.4a1.474,1.474,0,0,1,.217.022c.152.022.348.043.565.065.478.065,1.153.173,1.892.281s1.414.216,1.892.3c.217.043.413.065.565.108.13.022.217.043.217.043a1.473,1.473,0,0,1-.217-.022c-.152-.022-.348-.043-.565-.065-.478-.065-1.153-.173-1.892-.281s-1.414-.216-1.892-.3c-.217-.043-.413-.065-.565-.108C89.665,220.422,89.6,220.422,89.6,220.4Z" transform="translate(-89.6 -220.4)" fill="#e0e0e0"/>
          </g>
        </g>
      </g>
      <g id="Group_1305" data-name="Group 1305" transform="translate(8.064 29.592)">
        <g id="Group_1304" data-name="Group 1304">
          <g id="Group_1303" data-name="Group 1303">
            <path id="Path_2513" data-name="Path 2513" d="M98,252.5a2.539,2.539,0,0,1,.283.022c.2.022.435.043.739.086.631.087,1.479.195,2.436.324s1.8.259,2.436.368c.3.043.544.087.739.13q.261.032.261.065a2.539,2.539,0,0,1-.283-.022c-.2-.022-.435-.043-.739-.086-.631-.087-1.479-.195-2.436-.324s-1.8-.259-2.436-.368c-.3-.043-.544-.087-.739-.13Q98,252.532,98,252.5Z" transform="translate(-98 -252.5)" fill="#e0e0e0"/>
          </g>
        </g>
      </g>
      <g id="Group_1308" data-name="Group 1308" transform="translate(14.783 24.468)">
        <g id="Group_1307" data-name="Group 1307">
          <g id="Group_1306" data-name="Group 1306">
            <path id="Path_2514" data-name="Path 2514" d="M128.9,234.854a1.353,1.353,0,0,1,.174-.238c.13-.173.283-.368.478-.627.391-.541.957-1.276,1.544-2.119s1.109-1.6,1.457-2.162c.174-.259.326-.5.435-.67.109-.151.174-.238.174-.238l-.13.259c-.087.173-.239.389-.413.67-.348.562-.848,1.341-1.435,2.184s-1.153,1.579-1.566,2.1c-.217.259-.37.476-.5.605A2.552,2.552,0,0,0,128.9,234.854Z" transform="translate(-128.9 -228.8)" fill="#e0e0e0"/>
          </g>
        </g>
      </g>
    </g>
    <g id="Group_1339" data-name="Group 1339" transform="translate(57.059)">
      <g id="Group_1313" data-name="Group 1313">
        <g id="Group_1312" data-name="Group 1312">
          <g id="Group_1311" data-name="Group 1311">
            <g id="Group_1310" data-name="Group 1310">
              <path id="Path_2515" data-name="Path 2515" d="M331.822,99.323c-5.567-2.789-7.677-9.147-8.329-15.05a6.311,6.311,0,0,1-.022-2.919,2.023,2.023,0,0,1,2.283-1.384c.783.238,1.218,1.038,1.74,1.687a5.815,5.815,0,0,0,2.631,1.86,2.194,2.194,0,0,0,2.044-.108c.783-.584.718-1.773.565-2.746-.283-1.816-.544-3.633-.826-5.449a8.924,8.924,0,0,1-.13-2.941,3.042,3.042,0,0,1,1.609-2.314,1.865,1.865,0,0,1,2.457.908,10.828,10.828,0,0,1,.2,1.211,1.059,1.059,0,0,0,.739.887c.413.065.761-.281,1-.605a12.82,12.82,0,0,0,1.827-3.849,17.961,17.961,0,0,1,1.653-3.935,5.326,5.326,0,0,1,3.306-2.508,3.22,3.22,0,0,1,3.566,1.687c.565,1.319-.044,2.833-.761,4.065a22.382,22.382,0,0,1-3.914,4.973,1.75,1.75,0,0,0-.652.93c-.109.67.587,1.233,1.261,1.362a12.014,12.014,0,0,0,2.327-.065,2.226,2.226,0,0,1,2.044.865c.544.93-.13,2.1-.87,2.9a18.9,18.9,0,0,1-5.089,3.979,6.493,6.493,0,0,0-1.914,1.3,1.807,1.807,0,0,0-.283,2.141,1.862,1.862,0,0,0,2.109.476,12.327,12.327,0,0,0,2.022-1.124c1.283-.692,3.023-.865,4.045.173a3.046,3.046,0,0,1,.718,2.681,7.209,7.209,0,0,1-1.131,2.616,18.822,18.822,0,0,1-7.22,6.768,12.852,12.852,0,0,1-9,1.535" transform="translate(-323.297 -62.001)" fill="#f5f5f5"/>
            </g>
          </g>
        </g>
      </g>
      <g id="Group_1318" data-name="Group 1318" transform="translate(9.504 0.584)">
        <g id="Group_1317" data-name="Group 1317">
          <g id="Group_1316" data-name="Group 1316">
            <g id="Group_1315" data-name="Group 1315">
              <g id="Group_1314" data-name="Group 1314">
                <path id="Path_2516" data-name="Path 2516" d="M367,97.546a88.294,88.294,0,0,1,2.109-9.9c.239-.865.457-1.73.7-2.573.217-.843.457-1.687.718-2.487a45.6,45.6,0,0,1,1.827-4.519c.652-1.406,1.327-2.725,1.957-3.957s1.261-2.357,1.87-3.352a34.842,34.842,0,0,1,3.219-4.541c.413-.5.761-.887,1-1.146.109-.13.2-.216.261-.281l.087-.086a.481.481,0,0,1-.087.108c-.065.065-.152.173-.261.3-.217.259-.544.649-.957,1.168a34.536,34.536,0,0,0-3.153,4.563q-.881,1.524-1.827,3.373c-.631,1.233-1.283,2.552-1.935,3.957a40.848,40.848,0,0,0-1.8,4.519q-.391,1.2-.718,2.465c-.217.843-.457,1.708-.7,2.573a92.289,92.289,0,0,0-2.131,9.882" transform="translate(-367 -64.7)" fill="#e0e0e0"/>
              </g>
            </g>
          </g>
        </g>
      </g>
      <g id="Group_1323" data-name="Group 1323" transform="translate(10.107 7.957)">
        <g id="Group_1322" data-name="Group 1322">
          <g id="Group_1321" data-name="Group 1321">
            <g id="Group_1320" data-name="Group 1320">
              <g id="Group_1319" data-name="Group 1319">
                <path id="Path_2517" data-name="Path 2517" d="M372.759,109.331c-.022,0-.065-.13-.152-.411-.087-.259-.217-.649-.348-1.124-.283-.951-.631-2.27-1-3.741s-.739-2.768-1.022-3.719c-.152-.476-.261-.843-.348-1.124-.087-.259-.13-.411-.109-.411a1.769,1.769,0,0,1,.174.389c.109.259.239.627.413,1.1.326.93.7,2.249,1.087,3.719.37,1.449.7,2.746.935,3.741.109.454.217.822.283,1.124S372.759,109.331,372.759,109.331Z" transform="translate(-369.774 -98.8)" fill="#e0e0e0"/>
              </g>
            </g>
          </g>
        </g>
      </g>
      <g id="Group_1328" data-name="Group 1328" transform="translate(13.071 14.327)">
        <g id="Group_1327" data-name="Group 1327">
          <g id="Group_1326" data-name="Group 1326">
            <g id="Group_1325" data-name="Group 1325">
              <g id="Group_1324" data-name="Group 1324">
                <path id="Path_2518" data-name="Path 2518" d="M395.665,128.268a1.736,1.736,0,0,1-.5.13c-.326.065-.783.173-1.348.324-1.131.281-2.7.735-4.371,1.319-1.7.584-3.2,1.168-4.284,1.622-.544.216-.979.411-1.283.541s-.478.195-.478.195a2.03,2.03,0,0,1,.435-.259c.283-.151.718-.368,1.261-.605a45.752,45.752,0,0,1,4.262-1.687,43.408,43.408,0,0,1,4.415-1.276c.565-.13,1.044-.216,1.37-.281A2.372,2.372,0,0,1,395.665,128.268Z" transform="translate(-383.4 -128.259)" fill="#e0e0e0"/>
              </g>
            </g>
          </g>
        </g>
      </g>
      <g id="Group_1333" data-name="Group 1333" transform="translate(0.958 18.142)">
        <g id="Group_1332" data-name="Group 1332">
          <g id="Group_1331" data-name="Group 1331">
            <g id="Group_1330" data-name="Group 1330">
              <g id="Group_1329" data-name="Group 1329">
                <path id="Path_2519" data-name="Path 2519" d="M336.377,160.95a1.319,1.319,0,0,1-.109-.13c-.065-.108-.174-.259-.283-.432-.239-.368-.587-.908-.979-1.578-.826-1.341-1.892-3.244-3.045-5.341-1.153-2.119-2.2-4.022-2.979-5.384-.391-.67-.7-1.211-.935-1.6-.109-.173-.174-.324-.261-.432-.065-.108-.087-.151-.087-.151a.856.856,0,0,1,.109.151c.065.108.174.259.283.411.239.368.587.908.979,1.579.826,1.341,1.892,3.244,3.045,5.341s2.2,4,2.979,5.363c.391.67.7,1.211.935,1.6.109.173.174.324.261.432A.539.539,0,0,1,336.377,160.95Z" transform="translate(-327.7 -145.9)" fill="#e0e0e0"/>
              </g>
            </g>
          </g>
        </g>
      </g>
      <g id="Group_1338" data-name="Group 1338" transform="translate(9.613 25.407)">
        <g id="Group_1337" data-name="Group 1337">
          <g id="Group_1336" data-name="Group 1336">
            <g id="Group_1335" data-name="Group 1335">
              <g id="Group_1334" data-name="Group 1334">
                <path id="Path_2520" data-name="Path 2520" d="M383.462,179.5a.482.482,0,0,1-.152.087,4.811,4.811,0,0,0-.457.238c-.435.216-1,.5-1.718.843-1.435.714-3.414,1.708-5.611,2.811s-4.175,2.076-5.632,2.768c-.718.346-1.327.605-1.74.778-.2.086-.348.151-.478.195-.109.043-.174.065-.174.065a.483.483,0,0,1,.152-.086,4.8,4.8,0,0,0,.457-.238c.435-.216,1-.5,1.718-.843,1.435-.714,3.414-1.708,5.611-2.811s4.175-2.076,5.632-2.768c.718-.346,1.327-.605,1.74-.778.2-.086.348-.151.478-.195C383.4,179.522,383.462,179.5,383.462,179.5Z" transform="translate(-367.5 -179.5)" fill="#e0e0e0"/>
              </g>
            </g>
          </g>
        </g>
      </g>
    </g>
    <g id="Group_1340" data-name="Group 1340" transform="translate(100.243 6.105)">
      <path id="Path_2521" data-name="Path 2521" d="M531.949,94.854c0-3.525-3.719-5.773-7.524-4a4.361,4.361,0,0,0-2,1.9,6.258,6.258,0,0,0,.326,5.687l2.958,7.46a1.276,1.276,0,0,0,2.37,0l2.892-7.5A8.974,8.974,0,0,0,531.949,94.854Zm-3.566,3.071c-2.544,1.47-5.154-1.254-3.74-3.957a2.379,2.379,0,0,1,.8-.865c2.566-1.47,5.154,1.254,3.74,3.957A1.943,1.943,0,0,1,528.383,97.925Z" transform="translate(-521.875 -90.234)" fill="#f5f5f5"/>
    </g>
  </g>
  <g id="Floor" transform="translate(1.59 84.634)">
    <g id="Group_1342" data-name="Group 1342">
      <g id="Group_1341" data-name="Group 1341">
        <path id="Path_2522" data-name="Path 2522" d="M185.782,443.865c0,.022-32.62.065-72.83.065-40.232,0-72.852-.022-72.852-.065s32.6-.065,72.852-.065C153.162,443.8,185.782,443.822,185.782,443.865Z" transform="translate(-40.1 -443.8)" fill="#263238"/>
      </g>
    </g>
  </g>
  <g id="Device" transform="translate(28.208)">
    <g id="Group_1374" data-name="Group 1374">
      <g id="Group_1350" data-name="Group 1350">
        <g id="Group_1349" data-name="Group 1349">
          <g id="Group_1348" data-name="Group 1348">
            <g id="Group_1347" data-name="Group 1347">
              <g id="Group_1344" data-name="Group 1344">
                <g id="Group_1343" data-name="Group 1343">
                  <path id="Path_2523" data-name="Path 2523" d="M197.664,137.1l-28.9-.13a6.274,6.274,0,0,1-6.263-6.292l.3-72.049a6.275,6.275,0,0,1,6.328-6.228l28.9.13a6.274,6.274,0,0,1,6.263,6.292l-.3,72.049A6.289,6.289,0,0,1,197.664,137.1Z" transform="translate(-162.499 -52.399)" fill="#455a64"/>
                </g>
              </g>
              <g id="Group_1346" data-name="Group 1346" transform="translate(1.892 2.465)">
                <g id="Group_1345" data-name="Group 1345">
                  <path id="Path_2524" data-name="Path 2524" d="M204.777,63.929l-5.611-.022a1.384,1.384,0,0,0-1.37,1.406v1.016a1.384,1.384,0,0,1-1.37,1.406l-10.917-.043a1.385,1.385,0,0,1-1.348-1.427V65.248a1.4,1.4,0,0,0-1.348-1.427h-1.979l-4.893-.022a4.406,4.406,0,0,0-4.436,4.368l-.3,70.341a4.419,4.419,0,0,0,4.393,4.411l28.858.13a4.406,4.406,0,0,0,4.436-4.368l.3-70.341A4.438,4.438,0,0,0,204.777,63.929Z" transform="translate(-171.2 -63.799)" fill="#fafafa"/>
                </g>
              </g>
            </g>
          </g>
        </g>
      </g>
      <g id="Group_1351" data-name="Group 1351" transform="translate(2.175 15.288)">
        <path id="Path_2525" data-name="Path 2525" d="M172.5,123.1h4.719l4.219,4.195-4.393,4.346-4.5-4.476Z" transform="translate(-172.5 -123.1)" fill="#ebebeb"/>
      </g>
      <g id="Group_1352" data-name="Group 1352" transform="translate(9.699 15.288)">
        <path id="Path_2526" data-name="Path 2526" d="M209.47,125.435,207.1,123.1h5.328Z" transform="translate(-207.1 -123.1)" fill="#ebebeb"/>
      </g>
      <g id="Group_1353" data-name="Group 1353" transform="translate(14.157 15.418)">
        <path id="Path_2527" data-name="Path 2527" d="M227.6,127.83l4.154-4.13h14.505a16.408,16.408,0,0,1-6.524,16.2Z" transform="translate(-227.6 -123.7)" fill="#ebebeb"/>
      </g>
      <g id="Group_1354" data-name="Group 1354" transform="translate(7.938 20.867)">
        <path id="Path_2528" data-name="Path 2528" d="M203.436,148.9,199,153.333l12.287,12.217,4.436-4.563Z" transform="translate(-199 -148.9)" fill="#ebebeb"/>
      </g>
      <g id="Group_1355" data-name="Group 1355" transform="translate(2.11 22.207)">
        <path id="Path_2529" data-name="Path 2529" d="M172.2,160.679l2.784-2.876-2.718-2.7Z" transform="translate(-172.2 -155.1)" fill="#ebebeb"/>
      </g>
      <g id="Group_1356" data-name="Group 1356" transform="translate(2.284 26.619)">
        <path id="Path_2530" data-name="Path 2530" d="M177.284,175.5,173,179.738v5.925l8.829,8.974,7.481-6.919Z" transform="translate(-173 -175.5)" fill="#ebebeb"/>
      </g>
      <g id="Group_1357" data-name="Group 1357" transform="translate(27.945 15.439)">
        <path id="Path_2531" data-name="Path 2531" d="M291,141.228s9.155-6.682,6.2-17.428h5.7l-.065,30.359Z" transform="translate(-291 -123.8)" fill="#ebebeb"/>
      </g>
      <g id="Group_1358" data-name="Group 1358" transform="translate(21.79 34.619)">
        <path id="Path_2532" data-name="Path 2532" d="M267.136,212.5l-4.436,4.584L276.292,230.6l4.154-4.39Z" transform="translate(-262.7 -212.5)" fill="#ebebeb"/>
      </g>
      <g id="Group_1359" data-name="Group 1359" transform="translate(12.983 40.458)">
        <path id="Path_2533" data-name="Path 2533" d="M229.159,239.5l-6.959,6.876,13.918,13.753,6.959-6.682Z" transform="translate(-222.2 -239.5)" fill="#ebebeb"/>
      </g>
      <g id="Group_1360" data-name="Group 1360" transform="translate(16.289 63.919)">
        <path id="Path_2534" data-name="Path 2534" d="M237.4,358.985,248.056,348l10.112,10.271Z" transform="translate(-237.4 -348)" fill="#ebebeb"/>
      </g>
      <g id="Group_1361" data-name="Group 1361" transform="translate(28.597 51.594)">
        <path id="Path_2535" data-name="Path 2535" d="M294,301.92,305.091,291c0,.476-.087,22.64-.087,22.64Z" transform="translate(-294 -291)" fill="#ebebeb"/>
      </g>
      <g id="Group_1362" data-name="Group 1362" transform="translate(7.242 56.372)">
        <path id="Path_2536" data-name="Path 2536" d="M207.674,313.1l6.285,6.249-12.417,12.758-5.741-6.855Z" transform="translate(-195.8 -313.1)" fill="#ebebeb"/>
      </g>
      <g id="Group_1363" data-name="Group 1363" transform="translate(2.131 38.922)">
        <path id="Path_2537" data-name="Path 2537" d="M172.3,262.889c.587-.065,15.788-14.207,15.788-14.207L172.3,232.4Z" transform="translate(-172.3 -232.4)" fill="#ebebeb"/>
      </g>
      <g id="Group_1364" data-name="Group 1364" transform="translate(1.892 69.411)">
        <path id="Path_2538" data-name="Path 2538" d="M171.2,376.622l3.675-3.222,5.067,5.968H171.2v-2.292" transform="translate(-171.2 -373.4)" fill="#ebebeb"/>
      </g>
      <g id="Group_1371" data-name="Group 1371" transform="translate(5.546 9.06)">
        <g id="Group_1366" data-name="Group 1366">
          <g id="Group_1365" data-name="Group 1365">
            <path id="Path_2539" data-name="Path 2539" d="M189.087,96.224a9.439,9.439,0,0,1-1.087-.93h0v-.086h0l.022-.022.022-.022.043-.043a.381.381,0,0,1,.109-.086,1.406,1.406,0,0,1,.2-.173,4.35,4.35,0,0,1,.348-.3,3.342,3.342,0,0,1,.326-.259,1.459,1.459,0,0,1-.283.324l-.326.324-.2.195c-.044.022-.065.065-.109.108l-.044.043-.022.022-.022.022h0v-.086h0A6.1,6.1,0,0,1,189.087,96.224Z" transform="translate(-188 -94.3)" fill="#263238"/>
          </g>
        </g>
        <g id="Group_1370" data-name="Group 1370" transform="translate(30.685 0.043)">
          <g id="Group_1367" data-name="Group 1367">
            <path id="Path_2540" data-name="Path 2540" d="M329.578,94.738a.239.239,0,1,1-.239-.238A.241.241,0,0,1,329.578,94.738Z" transform="translate(-329.1 -94.5)" fill="#263238"/>
          </g>
          <g id="Group_1368" data-name="Group 1368" transform="translate(0 0.805)">
            <path id="Path_2541" data-name="Path 2541" d="M329.491,98.306a.234.234,0,0,1,0,.324.237.237,0,0,1-.326,0,.234.234,0,0,1,0-.324A.2.2,0,0,1,329.491,98.306Z" transform="translate(-329.1 -98.225)" fill="#263238"/>
          </g>
          <g id="Group_1369" data-name="Group 1369" transform="translate(0 1.622)">
            <path id="Path_2542" data-name="Path 2542" d="M329.578,102.238a.239.239,0,1,1-.239-.238A.241.241,0,0,1,329.578,102.238Z" transform="translate(-329.1 -102)" fill="#263238"/>
          </g>
        </g>
      </g>
      <g id="Group_1372" data-name="Group 1372" transform="translate(16.332 10.293)">
        <rect id="Rectangle_1581" data-name="Rectangle 1581" width="10.178" height="0.843" fill="#263238"/>
      </g>
      <g id="Group_1373" data-name="Group 1373" transform="translate(14.139 20.277)">
        <path id="Path_2543" data-name="Path 2543" d="M238.776,151.326c0-3.935-4.154-6.444-8.416-4.454a4.935,4.935,0,0,0-2.24,2.119,7.054,7.054,0,0,0,.37,6.357l3.306,8.325a1.428,1.428,0,0,0,2.653-.022l3.24-8.368A10.145,10.145,0,0,0,238.776,151.326Zm-3.98,3.438c-2.849,1.643-5.741-1.406-4.175-4.411a2.276,2.276,0,0,1,.913-.951c2.849-1.643,5.741,1.406,4.175,4.411A2.568,2.568,0,0,1,234.8,154.764Z" transform="translate(-227.514 -146.174)" fill="#e8505b"/>
      </g>
    </g>
  </g>
  <g id="Car-2" data-name="Car" transform="translate(11.874 31.866)">
    <g id="Group_1531" data-name="Group 1531" transform="translate(0 0)">
      <g id="Group_1527" data-name="Group 1527">
        <g id="Group_1379" data-name="Group 1379" transform="translate(7.591 23.642)">
          <g id="Group_1376" data-name="Group 1376">
            <g id="Group_1375" data-name="Group 1375">
              <rect id="Rectangle_1582" data-name="Rectangle 1582" width="120.652" height="17.601" fill="#e8505b"/>
            </g>
          </g>
          <g id="Group_1378" data-name="Group 1378" opacity="0.5">
            <g id="Group_1377" data-name="Group 1377">
              <rect id="Rectangle_1583" data-name="Rectangle 1583" width="120.652" height="17.601"/>
            </g>
          </g>
        </g>
        <g id="Group_1410" data-name="Group 1410" transform="translate(11.407 28.808)">
          <g id="Group_1385" data-name="Group 1385" transform="translate(0 0)">
            <g id="Group_1384" data-name="Group 1384">
              <g id="Group_1383" data-name="Group 1383">
                <g id="Group_1382" data-name="Group 1382">
                  <g id="Group_1381" data-name="Group 1381">
                    <g id="Group_1380" data-name="Group 1380">
                      <path id="Path_4934" data-name="Path 4934" d="M11.63,0A11.569,11.569,0,1,1,0,11.564,11.612,11.612,0,0,1,11.63,0Z" transform="translate(0 1.562) rotate(-3.849)" fill="#263238"/>
                    </g>
                  </g>
                </g>
              </g>
            </g>
          </g>
          <g id="Group_1391" data-name="Group 1391" transform="translate(0.75 12.132)">
            <g id="Group_1390" data-name="Group 1390">
              <g id="Group_1389" data-name="Group 1389">
                <g id="Group_1388" data-name="Group 1388">
                  <g id="Group_1387" data-name="Group 1387">
                    <g id="Group_1386" data-name="Group 1386">
                      <path id="Path_2544" data-name="Path 2544" d="M143.3,389.1v.022a11.636,11.636,0,0,0,23.269.346v-.022Z" transform="translate(-143.295 -389.1)" fill="#263238"/>
                    </g>
                  </g>
                </g>
              </g>
            </g>
          </g>
          <g id="Group_1397" data-name="Group 1397" transform="translate(4.208 4.196)">
            <g id="Group_1396" data-name="Group 1396">
              <g id="Group_1395" data-name="Group 1395">
                <g id="Group_1394" data-name="Group 1394">
                  <g id="Group_1393" data-name="Group 1393">
                    <g id="Group_1392" data-name="Group 1392">
                      <path id="Path_2545" data-name="Path 2545" d="M159.2,360.4a8.167,8.167,0,1,0,8.286-8A8.153,8.153,0,0,0,159.2,360.4Z" transform="translate(-159.196 -352.396)" fill="#fafafa"/>
                    </g>
                  </g>
                </g>
              </g>
            </g>
          </g>
          <g id="Group_1403" data-name="Group 1403" transform="translate(4.209 4.196)">
            <g id="Group_1402" data-name="Group 1402">
              <g id="Group_1401" data-name="Group 1401">
                <g id="Group_1400" data-name="Group 1400">
                  <g id="Group_1399" data-name="Group 1399">
                    <g id="Group_1398" data-name="Group 1398">
                      <path id="Path_2546" data-name="Path 2546" d="M167.486,352.4a8.156,8.156,0,0,0-8.286,8l16.332.238A8.125,8.125,0,0,0,167.486,352.4Z" transform="translate(-159.2 -352.396)" fill="#e0e0e0"/>
                    </g>
                  </g>
                </g>
              </g>
            </g>
          </g>
          <g id="Group_1409" data-name="Group 1409" transform="translate(7.405 7.396)">
            <g id="Group_1408" data-name="Group 1408">
              <g id="Group_1407" data-name="Group 1407">
                <g id="Group_1406" data-name="Group 1406">
                  <g id="Group_1405" data-name="Group 1405">
                    <g id="Group_1404" data-name="Group 1404">
                      <path id="Path_2547" data-name="Path 2547" d="M173.9,372.06a4.97,4.97,0,1,0,5.045-4.865A4.96,4.96,0,0,0,173.9,372.06Z" transform="translate(-173.897 -367.193)" fill="#263238"/>
                    </g>
                  </g>
                </g>
              </g>
            </g>
          </g>
        </g>
        <g id="Group_1441" data-name="Group 1441" transform="translate(100.472 28.911)">
          <g id="Group_1416" data-name="Group 1416" transform="translate(0 0)">
            <g id="Group_1415" data-name="Group 1415" transform="translate(0 0)">
              <g id="Group_1414" data-name="Group 1414" transform="translate(0 0)">
                <g id="Group_1413" data-name="Group 1413">
                  <g id="Group_1412" data-name="Group 1412">
                    <g id="Group_1411" data-name="Group 1411">
                      <path id="Path_4935" data-name="Path 4935" d="M11.631,0A11.569,11.569,0,1,1,0,11.565,11.611,11.611,0,0,1,11.631,0Z" transform="matrix(0.998, -0.058, 0.058, 0.998, 0, 1.346)" fill="#263238"/>
                    </g>
                  </g>
                </g>
              </g>
            </g>
          </g>
          <g id="Group_1422" data-name="Group 1422" transform="translate(0.651 12.03)">
            <g id="Group_1421" data-name="Group 1421">
              <g id="Group_1420" data-name="Group 1420">
                <g id="Group_1419" data-name="Group 1419">
                  <g id="Group_1418" data-name="Group 1418">
                    <g id="Group_1417" data-name="Group 1417">
                      <path id="Path_2548" data-name="Path 2548" d="M552.4,389.1v.022a11.636,11.636,0,0,0,23.269.346v-.022Z" transform="translate(-552.395 -389.1)" fill="#263238"/>
                    </g>
                  </g>
                </g>
              </g>
            </g>
          </g>
          <g id="Group_1428" data-name="Group 1428" transform="translate(4.109 4.093)">
            <g id="Group_1427" data-name="Group 1427">
              <g id="Group_1426" data-name="Group 1426">
                <g id="Group_1425" data-name="Group 1425">
                  <g id="Group_1424" data-name="Group 1424">
                    <g id="Group_1423" data-name="Group 1423">
                      <path id="Path_2549" data-name="Path 2549" d="M568.3,360.4a8.167,8.167,0,1,0,8.286-8A8.153,8.153,0,0,0,568.3,360.4Z" transform="translate(-568.296 -352.396)" fill="#fafafa"/>
                    </g>
                  </g>
                </g>
              </g>
            </g>
          </g>
          <g id="Group_1434" data-name="Group 1434" transform="translate(4.11 4.093)">
            <g id="Group_1433" data-name="Group 1433">
              <g id="Group_1432" data-name="Group 1432">
                <g id="Group_1431" data-name="Group 1431">
                  <g id="Group_1430" data-name="Group 1430">
                    <g id="Group_1429" data-name="Group 1429">
                      <path id="Path_2550" data-name="Path 2550" d="M576.586,352.4a8.156,8.156,0,0,0-8.286,8l16.332.238A8.125,8.125,0,0,0,576.586,352.4Z" transform="translate(-568.3 -352.396)" fill="#e0e0e0"/>
                    </g>
                  </g>
                </g>
              </g>
            </g>
          </g>
          <g id="Group_1440" data-name="Group 1440" transform="translate(7.306 7.293)">
            <g id="Group_1439" data-name="Group 1439">
              <g id="Group_1438" data-name="Group 1438">
                <g id="Group_1437" data-name="Group 1437">
                  <g id="Group_1436" data-name="Group 1436">
                    <g id="Group_1435" data-name="Group 1435">
                      <path id="Path_2551" data-name="Path 2551" d="M583,372.06a4.97,4.97,0,1,0,5.045-4.865A4.96,4.96,0,0,0,583,372.06Z" transform="translate(-582.997 -367.193)" fill="#263238"/>
                    </g>
                  </g>
                </g>
              </g>
            </g>
          </g>
        </g>
        <g id="Group_1443" data-name="Group 1443">
          <g id="Group_1442" data-name="Group 1442">
            <path id="Path_2552" data-name="Path 2552" d="M126.429,213.5s-17.137,1.254-23.487,2.681c-4.48.995-13.113,2.725-13,8.109l.674,3.871a5.822,5.822,0,0,0-3.2,5.168c0,3.719-.783,9.471,6.7,9.687,1.24.043,3.566,0,3.566,0s-1.435-15.828,13.179-16.282c14.875-.476,13.874,16.131,13.874,16.131H186.8s-2.544-16.174,13.461-16.218c16.006-.022,13.57,16.3,13.57,16.3s5.893.5,8.634-4.411c2.74-4.93,2.022-8.433,2.022-8.433L224.4,227a2.016,2.016,0,0,0-1.957-1.946h0s1.066-7.828-.565-9.19-10.634-9.536-10.634-9.536l.435-.259a1,1,0,0,0-.217-1.795c-3.414-1.168-10.178-3.481-11.765-4.022a2.809,2.809,0,0,0-.739-.151c-.957-.065-3.632-.238-8.546-.3-6-.065-29.815,0-29.815,0s-8.2.67-12.765,2.66C143.066,204.6,126.429,213.5,126.429,213.5Z" transform="translate(-87.392 -199.767)" fill="#e8505b"/>
          </g>
        </g>
        <g id="Group_1446" data-name="Group 1446" transform="translate(1.79 33.058)" opacity="0.4">
          <g id="Group_1445" data-name="Group 1445">
            <g id="Group_1444" data-name="Group 1444">
              <path id="Path_2553" data-name="Path 2553" d="M98.229,352.722a2.654,2.654,0,0,0-2.044.281,2.025,2.025,0,0,0-.5,1.276,5.709,5.709,0,0,0,.043,1.924,2.347,2.347,0,0,0,1.087,1.535,1.512,1.512,0,0,0,1.783-.216,2.236,2.236,0,0,0,.435-1.665,14.152,14.152,0,0,0-.109-2.357,1.051,1.051,0,0,0-.217-.476.659.659,0,0,0-.478-.3" transform="translate(-95.625 -352.646)"/>
            </g>
          </g>
        </g>
        <g id="Group_1448" data-name="Group 1448" transform="translate(2.546 24.045)">
          <g id="Group_1447" data-name="Group 1447">
            <path id="Path_2554" data-name="Path 2554" d="M99.8,315.318c1.827,0,3.588-.108,5.393-.216a.905.905,0,0,0,.544-.173.861.861,0,0,0,.2-.649,3.421,3.421,0,0,0-.783-2.7,2.988,2.988,0,0,0-1.675-.562,11.018,11.018,0,0,0-4.371.432Z" transform="translate(-99.1 -310.964)" fill="#fafafa"/>
          </g>
        </g>
        <g id="Group_1451" data-name="Group 1451" transform="translate(6.189 22.668)">
          <g id="Group_1450" data-name="Group 1450">
            <g id="Group_1449" data-name="Group 1449">
              <path id="Path_2555" data-name="Path 2555" d="M150.68,324.555a.9.9,0,0,0-.022-.151c0-.108-.022-.259-.022-.454-.022-.411-.065-.995-.087-1.751-.043-.757-.087-1.687-.2-2.746a22.734,22.734,0,0,0-.631-3.589,15.883,15.883,0,0,0-1.761-4.065,12.565,12.565,0,0,0-3.393-3.762,19.878,19.878,0,0,0-11.047-3.308,17.932,17.932,0,0,0-10.96,3.438,16.5,16.5,0,0,0-3.566,3.611,17.062,17.062,0,0,0-2.088,3.892,15.25,15.25,0,0,0-.87,3.546,15.475,15.475,0,0,0-.109,2.746,14.677,14.677,0,0,0,.217,1.73c.043.195.065.346.087.454a.9.9,0,0,1,.022.151.674.674,0,0,1-.043-.151c-.022-.108-.043-.26-.087-.454a13.391,13.391,0,0,1-.152-4.5,15.672,15.672,0,0,1,.87-3.568,17.307,17.307,0,0,1,2.088-3.935,15.68,15.68,0,0,1,3.566-3.633,18,18,0,0,1,11.026-3.46,19.767,19.767,0,0,1,11.113,3.33,13.019,13.019,0,0,1,3.414,3.784,15.9,15.9,0,0,1,1.74,4.087,20.7,20.7,0,0,1,.631,3.611c.109,1.081.152,2.011.174,2.768s.065,1.341.065,1.752c0,.195.022.346.022.454Z" transform="translate(-115.853 -304.595)" fill="#fff"/>
            </g>
          </g>
        </g>
        <g id="Group_1454" data-name="Group 1454" transform="translate(41.141 2.113)">
          <g id="Group_1453" data-name="Group 1453">
            <g id="Group_1452" data-name="Group 1452">
              <path id="Path_2556" data-name="Path 2556" d="M277.1,250.31v-.13a2.92,2.92,0,0,0-.022-.389c0-.346-.022-.843-.043-1.492-.044-1.319-.087-3.222-.152-5.665s-.152-5.406-.239-8.8c-.022-.843-.043-1.73-.065-2.638a9.988,9.988,0,0,1,.065-1.384c.044-.238.065-.454.109-.692s.087-.454.152-.692a13.572,13.572,0,0,1,.979-2.768,14.419,14.419,0,0,1,1.588-2.638h0c3.327-2.076,6.937-4.346,10.743-6.725.957-.605,1.914-1.211,2.892-1.816a22.217,22.217,0,0,1,3.066-1.708,29.553,29.553,0,0,1,3.327-1.319c.565-.195,1.153-.368,1.74-.541.587-.151,1.174-.324,1.783-.432a40.3,40.3,0,0,1,6.937-.865,62.808,62.808,0,0,1,6.7.022h.065l-.022.065c-1.022,4.584-2,8.887-2.892,12.844h0a13.95,13.95,0,0,0-1.3,2.768,7.67,7.67,0,0,0-.435,2.854q.1,1.427.13,2.789c.022.908.043,1.773.043,2.616.043,3.395.065,6.357.065,8.8v5.665c0-1.319-.022-3.222-.044-5.665s-.043-5.406-.087-8.8c-.022-.843-.043-1.73-.065-2.616-.022-.908-.043-1.816-.13-2.768a7.894,7.894,0,0,1,.435-2.9,14.72,14.72,0,0,1,1.3-2.789v.022c.892-3.957,1.848-8.282,2.871-12.844l.043.065a62.813,62.813,0,0,0-6.7-.022,42.287,42.287,0,0,0-6.915.865c-.609.13-1.2.281-1.783.432-.587.173-1.174.346-1.74.541a32.245,32.245,0,0,0-3.327,1.319,24.614,24.614,0,0,0-3.066,1.687c-.979.605-1.957,1.211-2.914,1.816-3.827,2.4-7.437,4.649-10.765,6.725h.022a13.568,13.568,0,0,0-1.588,2.616,13.761,13.761,0,0,0-.957,2.746,20.624,20.624,0,0,0-.239,5.384c.087,3.395.152,6.357.217,8.8s.109,4.368.13,5.665c.022.649.022,1.146.022,1.492v.389C277.1,250.267,277.1,250.31,277.1,250.31Z" transform="translate(-276.573 -209.537)" fill="#263238"/>
            </g>
          </g>
        </g>
        <g id="Group_1457" data-name="Group 1457" transform="translate(81.139 2.213)">
          <g id="Group_1456" data-name="Group 1456">
            <g id="Group_1455" data-name="Group 1455">
              <path id="Path_2557" data-name="Path 2557" d="M460.5,210.346h.413c.261,0,.652-.022,1.153-.022,1-.022,2.457-.043,4.284-.086,3.632-.065,8.7-.151,14.44-.238h.022l.022.022c.652.778,1.327,1.622,2.022,2.465,2.044,2.508,4,4.887,5.785,7.049.217.281.435.541.652.8a4.447,4.447,0,0,1,.979,2.746,4.774,4.774,0,0,1-.348,1.773c-.239.519-.457,1.038-.652,1.514-.848,1.946-1.522,3.5-2,4.584-.239.541-.413.951-.544,1.254-.065.13-.109.238-.152.324a.217.217,0,0,0-.043.108.91.91,0,0,0,.043-.108c.022-.087.087-.195.13-.324.13-.281.3-.714.522-1.254.457-1.081,1.131-2.66,1.957-4.606a7.873,7.873,0,0,0,.979-3.265,4.3,4.3,0,0,0-.435-1.838,5.5,5.5,0,0,0-.522-.843c-.218-.259-.435-.541-.652-.8-1.783-2.162-3.74-4.541-5.785-7.028q-1.044-1.265-2.022-2.465l.044.022c-5.741.086-10.808.151-14.44.216-1.8.022-3.262.043-4.284.043h-1.457A.918.918,0,0,1,460.5,210.346Z" transform="translate(-460.5 -210)" fill="#263238"/>
            </g>
          </g>
        </g>
        <g id="Group_1460" data-name="Group 1460" transform="translate(67.801 19.144)">
          <g id="Group_1459" data-name="Group 1459">
            <g id="Group_1458" data-name="Group 1458">
              <path id="Path_2558" data-name="Path 2558" d="M405.22,290.808a.992.992,0,0,0,.174-.022,1.361,1.361,0,0,0,.457-.173,1.129,1.129,0,0,0,.457-.605,1.677,1.677,0,0,0,.065-.476,1.134,1.134,0,0,0-1.131-1.124h-4.828a1.09,1.09,0,0,0-.761.3,1.263,1.263,0,0,0-.37.714,1.249,1.249,0,0,0,.13.757,1.264,1.264,0,0,0,.565.5,1.642,1.642,0,0,0,.718.086h2c.783,0,1.392.022,1.848.022h.5a1.3,1.3,0,0,0,.174.022.991.991,0,0,0-.174.022h-.5c-.457,0-1.087,0-1.848.022h-2.37a1.276,1.276,0,0,1-.391-.087,1.226,1.226,0,0,1-.609-.541,1.335,1.335,0,0,1-.152-.822,1.224,1.224,0,0,1,.391-.778,1.286,1.286,0,0,1,.848-.324h4.828a1.2,1.2,0,0,1,1.066.67,1.234,1.234,0,0,1,.13.541,1.832,1.832,0,0,1-.065.5,1.246,1.246,0,0,1-.5.627,1.631,1.631,0,0,1-.478.173A.371.371,0,0,1,405.22,290.808Z" transform="translate(-399.167 -288.3)" fill="#263238"/>
            </g>
          </g>
        </g>
        <g id="Group_1463" data-name="Group 1463" transform="translate(99.987 19.144)">
          <g id="Group_1462" data-name="Group 1462">
            <g id="Group_1461" data-name="Group 1461">
              <path id="Path_2559" data-name="Path 2559" d="M553.22,290.808a.992.992,0,0,0,.174-.022,1.361,1.361,0,0,0,.457-.173,1.129,1.129,0,0,0,.457-.605,1.677,1.677,0,0,0,.065-.476,1.134,1.134,0,0,0-1.131-1.124h-4.828a1.09,1.09,0,0,0-.761.3,1.264,1.264,0,0,0-.37.714,1.249,1.249,0,0,0,.13.757,1.263,1.263,0,0,0,.565.5,1.642,1.642,0,0,0,.718.086h2c.783,0,1.392.022,1.848.022h.5a.088.088,0,1,1,0,.043h-.5c-.457,0-1.087,0-1.848.022h-2.37a1.277,1.277,0,0,1-.391-.087,1.227,1.227,0,0,1-.609-.541,1.334,1.334,0,0,1-.152-.822,1.225,1.225,0,0,1,.391-.778,1.286,1.286,0,0,1,.848-.324h4.828a1.2,1.2,0,0,1,1.066.67,1.235,1.235,0,0,1,.13.541,1.83,1.83,0,0,1-.065.5,1.246,1.246,0,0,1-.5.627,1.633,1.633,0,0,1-.478.173A.327.327,0,0,1,553.22,290.808Z" transform="translate(-547.167 -288.3)" fill="#263238"/>
            </g>
          </g>
        </g>
        <g id="Group_1465" data-name="Group 1465" transform="translate(125.428 16.441)">
          <g id="Group_1464" data-name="Group 1464">
            <path id="Path_2560" data-name="Path 2560" d="M672.972,275.8h-6.437a2.369,2.369,0,0,0-2.109,1.254h0a2.347,2.347,0,0,0-.065,2.054l2.523,5.709,6.437-.065S674.69,277.53,672.972,275.8Z" transform="translate(-664.154 -275.8)" fill="#fafafa"/>
          </g>
        </g>
        <g id="Group_1467" data-name="Group 1467" transform="translate(44.844 1.931)">
          <g id="Group_1466" data-name="Group 1466">
            <path id="Path_2561" data-name="Path 2561" d="M293.6,222.385l33.207-.605,21.616-.389,7.133-4.087a1.083,1.083,0,0,0,.326-1.622l-4.436-5.8a2.5,2.5,0,0,0-1.935-.973l-24.182-.195s-9.112-.519-16.267,3.46A154.64,154.64,0,0,0,293.6,222.385Z" transform="translate(-293.6 -208.697)" fill="#263238"/>
          </g>
        </g>
        <g id="Group_1469" data-name="Group 1469" transform="translate(38.863 2.559)">
          <g id="Group_1468" data-name="Group 1468">
            <path id="Path_2562" data-name="Path 2562" d="M287.3,211.6s1.674.757.587,1.449-17.919,11.244-17.919,11.244l-3.871-1.751C272.95,218.757,279.887,215.081,287.3,211.6Z" transform="translate(-266.1 -211.6)" fill="#455a64"/>
          </g>
        </g>
        <g id="Group_1472" data-name="Group 1472" transform="translate(2.916 15.49)">
          <g id="Group_1471" data-name="Group 1471">
            <g id="Group_1470" data-name="Group 1470">
              <path id="Path_2563" data-name="Path 2563" d="M141.162,271.422a.265.265,0,0,1-.109.022,2.321,2.321,0,0,1-.3.065c-.283.065-.674.13-1.174.238-1.022.195-2.523.5-4.349.8-3.7.627-8.807,1.362-14.505,1.86-1.414.13-2.805.216-4.154.3s-2.631.173-3.871.281a32.956,32.956,0,0,0-6.459,1.1,18.15,18.15,0,0,0-4.067,1.687,11.748,11.748,0,0,0-1.022.627c-.109.065-.2.13-.261.173s-.087.043-.087.043a.644.644,0,0,1,.087-.065c.065-.043.152-.108.261-.173.239-.151.565-.389,1.022-.649a16.979,16.979,0,0,1,4.067-1.73,33.088,33.088,0,0,1,6.481-1.124c1.24-.108,2.523-.195,3.871-.281s2.74-.195,4.154-.324c5.7-.5,10.808-1.211,14.505-1.816,1.848-.3,3.327-.584,4.371-.778.5-.086.913-.173,1.174-.216a2.328,2.328,0,0,0,.3-.065A.048.048,0,0,0,141.162,271.422Z" transform="translate(-100.8 -271.4)" fill="#263238"/>
            </g>
          </g>
        </g>
        <g id="Group_1475" data-name="Group 1475" transform="translate(126.938 30.237)">
          <g id="Group_1474" data-name="Group 1474">
            <g id="Group_1473" data-name="Group 1473">
              <path id="Path_2564" data-name="Path 2564" d="M680.973,339.665c0,.022-2.218.065-4.937.065-2.74,0-4.937-.022-4.937-.065s2.218-.065,4.937-.065C678.755,339.622,680.973,339.643,680.973,339.665Z" transform="translate(-671.1 -339.6)" fill="#263238"/>
            </g>
          </g>
        </g>
        <g id="Group_1478" data-name="Group 1478" transform="translate(40.516 35.859)">
          <g id="Group_1477" data-name="Group 1477">
            <g id="Group_1476" data-name="Group 1476">
              <path id="Path_2565" data-name="Path 2565" d="M329.5,365.665c0,.022-12.5.065-27.9.065-15.419,0-27.9-.022-27.9-.065,0-.022,12.5-.065,27.9-.065C317,365.622,329.5,365.643,329.5,365.665Z" transform="translate(-273.7 -365.6)" fill="#263238"/>
            </g>
          </g>
        </g>
        <g id="Group_1481" data-name="Group 1481" transform="translate(0.937 30.431)">
          <g id="Group_1480" data-name="Group 1480">
            <g id="Group_1479" data-name="Group 1479">
              <path id="Path_2566" data-name="Path 2566" d="M99.572,340.565c0,.022-1.761.065-3.936.065s-3.936-.022-3.936-.065,1.761-.065,3.936-.065S99.572,340.543,99.572,340.565Z" transform="translate(-91.7 -340.5)" fill="#263238"/>
            </g>
          </g>
        </g>
        <g id="Group_1483" data-name="Group 1483" transform="translate(122.69 6.365)">
          <g id="Group_1482" data-name="Group 1482">
            <path id="Path_2567" data-name="Path 2567" d="M652.6,229.2s-1.479,1.643-.892,2.854,6.611,5.449,6.611,5.449l4.371.822Z" transform="translate(-651.566 -229.2)" fill="#455a64"/>
          </g>
        </g>
        <g id="Group_1485" data-name="Group 1485" transform="translate(81.139 3.402)">
          <g id="Group_1484" data-name="Group 1484">
            <path id="Path_2568" data-name="Path 2568" d="M461.5,215.5l-1,10.574,17.615-.5,7.089-4.108-4.589-5.968Z" transform="translate(-460.5 -215.5)" fill="#455a64"/>
          </g>
        </g>
        <g id="Group_1487" data-name="Group 1487" transform="translate(49.019 3.376)">
          <g id="Group_1486" data-name="Group 1486">
            <path id="Path_2569" data-name="Path 2569" d="M312.8,226.519s10.612-7.633,14.81-9.147a26.77,26.77,0,0,1,9.938-1.946c3.632-.108,5.85,0,5.85,0l-2.805,10.725Z" transform="translate(-312.8 -215.378)" fill="#455a64"/>
          </g>
        </g>
        <g id="Group_1493" data-name="Group 1493" transform="translate(47.444 10.905)">
          <g id="Group_1489" data-name="Group 1489" transform="translate(0.01 0.065)">
            <g id="Group_1488" data-name="Group 1488">
              <path id="Path_2570" data-name="Path 2570" d="M305.6,254.068h0a1.888,1.888,0,0,1,.957-1.622l2.436-1.362a4.658,4.658,0,0,1,2.283-.584h0a4.781,4.781,0,0,1,1.457.238,2.639,2.639,0,0,1,1.783,2.422h0a2.663,2.663,0,0,1-2.675,2.768h-4.349A1.856,1.856,0,0,1,305.6,254.068Z" transform="translate(-305.6 -250.5)" fill="#e8505b"/>
            </g>
          </g>
          <g id="Group_1492" data-name="Group 1492">
            <g id="Group_1491" data-name="Group 1491">
              <g id="Group_1490" data-name="Group 1490">
                <path id="Path_2571" data-name="Path 2571" d="M305.565,253.833a1.864,1.864,0,0,0,.022.238,1.645,1.645,0,0,0,.217.627,2,2,0,0,0,.739.735,1.8,1.8,0,0,0,.631.195c.239.022.478.022.739.022,1.066,0,2.327,0,3.719-.022a2.939,2.939,0,0,0,1.044-.173,2.739,2.739,0,0,0,.913-.584,3.063,3.063,0,0,0,.631-.93,2.575,2.575,0,0,0,.152-1.146,2.7,2.7,0,0,0-1.087-1.946,2.929,2.929,0,0,0-1-.432,4.448,4.448,0,0,0-1.044-.13,4.592,4.592,0,0,0-1.914.411c-.283.13-.544.281-.783.411-.261.13-.5.281-.718.411-.457.259-.892.476-1.24.692a1.716,1.716,0,0,0-.739.735,1.644,1.644,0,0,0-.217.627,1.018,1.018,0,0,0-.065.259.676.676,0,0,1,0-.238,2.067,2.067,0,0,1,.2-.649,1.7,1.7,0,0,1,.761-.757q.555-.324,1.24-.714c.239-.13.478-.259.718-.411.261-.13.5-.3.8-.432a4.727,4.727,0,0,1,1.957-.432,4.811,4.811,0,0,1,1.087.13,3.144,3.144,0,0,1,1.044.432,2.679,2.679,0,0,1,1.153,2.011,2.687,2.687,0,0,1-.826,2.162,2.983,2.983,0,0,1-.957.605,3.056,3.056,0,0,1-1.066.173c-1.392,0-2.653,0-3.719-.022-.261,0-.522,0-.761-.022a1.923,1.923,0,0,1-1.414-.973,2.069,2.069,0,0,1-.2-.649A1.449,1.449,0,0,1,305.565,253.833Z" transform="translate(-305.556 -250.2)" fill="#263238"/>
              </g>
            </g>
          </g>
        </g>
        <g id="Group_1496" data-name="Group 1496" transform="translate(95.511 23.577)">
          <g id="Group_1495" data-name="Group 1495">
            <g id="Group_1494" data-name="Group 1494">
              <path id="Path_2572" data-name="Path 2572" d="M560.317,327.937v-.151c0-.108.022-.259.022-.432a6.277,6.277,0,0,0,.043-.714c0-.281.022-.605.044-.973v-1.211c-.022-.454-.022-.93-.087-1.449a17.4,17.4,0,0,0-.631-3.481,16.232,16.232,0,0,0-.7-1.946,14.368,14.368,0,0,0-1.044-1.968,13.346,13.346,0,0,0-3.393-3.525,17.04,17.04,0,0,0-4.871-2.4,20.36,20.36,0,0,0-5.806-.778,18.909,18.909,0,0,0-5.785.843,14.934,14.934,0,0,0-4.806,2.508,18.637,18.637,0,0,0-3.436,3.5,14.8,14.8,0,0,0-1.153,1.9,15.287,15.287,0,0,0-.783,1.9,23.47,23.47,0,0,0-1.261,6.076c-.044.735-.022,1.3-.022,1.687a3.706,3.706,0,0,1,.022.432v.151a.9.9,0,0,0-.022-.151c0-.108-.022-.238-.043-.432a14.189,14.189,0,0,1,0-1.687,22.338,22.338,0,0,1,1.218-6.1,19.552,19.552,0,0,1,.783-1.9,13.655,13.655,0,0,1,1.153-1.924,18.332,18.332,0,0,1,3.458-3.546,15.976,15.976,0,0,1,2.24-1.47,16.19,16.19,0,0,1,2.588-1.06,19.189,19.189,0,0,1,5.828-.843,20.615,20.615,0,0,1,5.828.778A16.027,16.027,0,0,1,554.62,312a14.368,14.368,0,0,1,1.914,1.687,13.242,13.242,0,0,1,1.5,1.881,11.643,11.643,0,0,1,1.044,1.989,16.432,16.432,0,0,1,1.3,5.449c.065.519.065,1.016.087,1.449v1.233c-.022.368-.022.692-.044.973s-.044.519-.065.714-.022.346-.044.432A.2.2,0,0,1,560.317,327.937Z" transform="translate(-526.585 -308.8)" fill="#fff"/>
            </g>
          </g>
        </g>
        <g id="Group_1499" data-name="Group 1499" transform="translate(56.87 15.619)">
          <g id="Group_1498" data-name="Group 1498">
            <g id="Group_1497" data-name="Group 1497">
              <path id="Path_2573" data-name="Path 2573" d="M368.363,272h-.2c-.13,0-.326,0-.565.022-.5,0-1.218.022-2.088.043-1.761.043-4.2.086-6.872.173-2.7.065-5.132.13-6.894.13H349.1c.13,0,.326,0,.565-.022.5,0,1.218-.022,2.088-.043,1.762-.043,4.2-.086,6.872-.173,2.7-.065,5.111-.13,6.872-.13h2.871Z" transform="translate(-348.9 -272)" fill="#fff"/>
            </g>
          </g>
        </g>
        <g id="Group_1502" data-name="Group 1502" transform="translate(69.613 18.82)">
          <g id="Group_1501" data-name="Group 1501">
            <g id="Group_1500" data-name="Group 1500">
              <path id="Path_2574" data-name="Path 2574" d="M411.327,286.865a17.521,17.521,0,0,1-1.914.065,12.99,12.99,0,0,1-1.914-.065,17.507,17.507,0,0,1,1.914-.065A12.75,12.75,0,0,1,411.327,286.865Z" transform="translate(-407.5 -286.8)" fill="#fff"/>
            </g>
          </g>
        </g>
        <g id="Group_1505" data-name="Group 1505" transform="translate(63.546 7.314)">
          <g id="Group_1504" data-name="Group 1504">
            <g id="Group_1503" data-name="Group 1503">
              <path id="Path_2575" data-name="Path 2575" d="M390.212,233.595c.022.022-2.349,1.016-5.284,2.184-2.936,1.189-5.306,2.119-5.328,2.076s2.349-1.016,5.284-2.184C387.8,234.481,390.19,233.551,390.212,233.595Z" transform="translate(-379.599 -233.593)" fill="#fff"/>
            </g>
          </g>
        </g>
        <g id="Group_1508" data-name="Group 1508" transform="translate(59.262 8.051)">
          <g id="Group_1507" data-name="Group 1507">
            <g id="Group_1506" data-name="Group 1506">
              <path id="Path_2576" data-name="Path 2576" d="M369.99,237c.022.022-2.24,1.016-5.023,2.206s-5.067,2.119-5.067,2.1c-.022-.022,2.24-1.016,5.023-2.206S369.99,236.977,369.99,237Z" transform="translate(-359.899 -236.998)" fill="#fff"/>
            </g>
          </g>
        </g>
        <g id="Group_1511" data-name="Group 1511" transform="translate(89.142 6.904)">
          <g id="Group_1510" data-name="Group 1510">
            <g id="Group_1509" data-name="Group 1509">
              <path id="Path_2577" data-name="Path 2577" d="M507.912,231.695c.022.022-2.349,1.016-5.284,2.184-2.936,1.189-5.306,2.119-5.328,2.076-.022-.022,2.349-1.016,5.285-2.184S507.89,231.652,507.912,231.695Z" transform="translate(-497.299 -231.693)" fill="#fff"/>
            </g>
          </g>
        </g>
        <g id="Group_1514" data-name="Group 1514" transform="translate(84.858 7.64)">
          <g id="Group_1513" data-name="Group 1513">
            <g id="Group_1512" data-name="Group 1512">
              <path id="Path_2578" data-name="Path 2578" d="M487.69,235.1c.022.022-2.24,1.016-5.023,2.206s-5.067,2.119-5.067,2.1c-.022-.022,2.24-1.016,5.023-2.206S487.69,235.077,487.69,235.1Z" transform="translate(-477.599 -235.098)" fill="#fff"/>
            </g>
          </g>
        </g>
        <g id="Group_1517" data-name="Group 1517" transform="translate(79.204 15.603)">
          <g id="Group_1516" data-name="Group 1516">
            <g id="Group_1515" data-name="Group 1515">
              <path id="Path_2579" data-name="Path 2579" d="M472.607,271.941c0,.022-4.7.087-10.5.108-5.806.043-10.5.043-10.5,0,0-.022,4.7-.086,10.5-.108S472.607,271.92,472.607,271.941Z" transform="translate(-451.6 -271.925)" fill="#fff"/>
            </g>
          </g>
        </g>
        <g id="Group_1520" data-name="Group 1520" transform="translate(99.537 18.659)">
          <g id="Group_1519" data-name="Group 1519">
            <g id="Group_1518" data-name="Group 1518">
              <path id="Path_2580" data-name="Path 2580" d="M550.993,286.089c0,.022-1.327.065-2.936.087-1.631.022-2.958,0-2.958-.022s1.327-.065,2.936-.086C549.667,286.046,550.993,286.068,550.993,286.089Z" transform="translate(-545.1 -286.059)" fill="#fff"/>
            </g>
          </g>
        </g>
        <g id="Group_1523" data-name="Group 1523" transform="translate(3.633 17.097)">
          <g id="Group_1522" data-name="Group 1522">
            <g id="Group_1521" data-name="Group 1521">
              <path id="Path_2581" data-name="Path 2581" d="M115.822,278.848a.317.317,0,0,1-.13.022c-.087.022-.217.022-.37.043s-.348.043-.587.086c-.217.043-.478.065-.761.13-.565.108-1.24.238-1.979.432a21.3,21.3,0,0,0-2.349.778c-.826.324-1.588.67-2.262,1.016a16.847,16.847,0,0,0-1.74,1.016c-.239.151-.457.3-.652.432a5.578,5.578,0,0,0-.478.346c-.13.087-.217.151-.3.216a1.127,1.127,0,0,1-.109.065.259.259,0,0,1,.087-.086c.065-.065.174-.13.283-.238a5.585,5.585,0,0,1,.478-.346c.2-.13.391-.281.631-.432.478-.324,1.066-.67,1.74-1.038a24.817,24.817,0,0,1,2.262-1.038c.826-.324,1.631-.562,2.37-.778a19.228,19.228,0,0,1,1.979-.411c.283-.043.544-.086.783-.108.217-.022.435-.043.587-.065a2.527,2.527,0,0,1,.37-.022C115.778,278.827,115.822,278.827,115.822,278.848Z" transform="translate(-104.1 -278.834)" fill="#fff"/>
            </g>
          </g>
        </g>
        <g id="Group_1526" data-name="Group 1526" transform="translate(47.714 11.429)">
          <g id="Group_1525" data-name="Group 1525">
            <g id="Group_1524" data-name="Group 1524">
              <path id="Path_2582" data-name="Path 2582" d="M313.281,253.2a1.054,1.054,0,0,0-.217-.195,1.594,1.594,0,0,0-.718-.281,3.2,3.2,0,0,0-1.153.13,10.15,10.15,0,0,0-1.37.454,9.117,9.117,0,0,0-2.218,1.384c-.522.432-.783.757-.8.735,0,0,.065-.086.174-.238a6.816,6.816,0,0,1,.565-.562,8.308,8.308,0,0,1,2.24-1.427,6.513,6.513,0,0,1,1.392-.454,3.378,3.378,0,0,1,1.2-.108,1.382,1.382,0,0,1,.739.324c.065.065.109.13.152.173A.217.217,0,0,0,313.281,253.2Z" transform="translate(-306.8 -252.623)" fill="#fff"/>
            </g>
          </g>
        </g>
      </g>
      <g id="Group_1530" data-name="Group 1530" transform="translate(101.103 2.105)">
        <g id="Group_1529" data-name="Group 1529">
          <g id="Group_1528" data-name="Group 1528">
            <path id="Path_2583" data-name="Path 2583" d="M575.4,213.695a4.029,4.029,0,0,1-.935.086,5.452,5.452,0,0,1-1.087-.13,9.125,9.125,0,0,1-1.392-.432c-.5-.195-1.044-.432-1.609-.67-.283-.108-.587-.238-.913-.368a10.3,10.3,0,0,0-.979-.346,39.415,39.415,0,0,0-4.436-1.211,48.871,48.871,0,0,0-8.286-1.016c-.544-.022-1.022-.022-1.435-.043h-1.087c-.283,0-.522.022-.7.022h-.174a.544.544,0,0,0,.174-.022c.174,0,.391-.022.7-.043.3,0,.674-.022,1.087-.022.435,0,.913,0,1.435.022a48.762,48.762,0,0,1,8.307.995,39.414,39.414,0,0,1,4.436,1.211c.326.13.652.238.979.346.3.13.609.259.913.368.587.259,1.109.5,1.609.692a8.928,8.928,0,0,0,1.37.432,8.343,8.343,0,0,0,1.066.151,6.183,6.183,0,0,0,.7-.022c.065,0,.13-.022.174-.022C575.373,213.673,575.4,213.673,575.4,213.695Z" transform="translate(-552.3 -209.5)" fill="#263238"/>
          </g>
        </g>
      </g>
    </g>
  </g>
  <g id="Character" transform="translate(6.742 18.448)">
    <g id="Group_1702" data-name="Group 1702">
      <g id="Group_1562" data-name="Group 1562" transform="translate(8.497 8.741)">
        <g id="Group_1532" data-name="Group 1532" transform="translate(0.398)">
          <path id="Path_2584" data-name="Path 2584" d="M120.51,189.394a37.29,37.29,0,0,0-1.935-7.092,4.351,4.351,0,0,0-2.24-3.049c-.652-.259-3.936-1.427-5.067-1.038a14.178,14.178,0,0,0-3.153,1.579,4.165,4.165,0,0,0-1.653,2.1l-1.761,4.887,3.066,3.027,1.544-3.244,1.674,3.892-.239,3.935,9.547,2.552C121.141,195.557,121.01,192.075,120.51,189.394Z" transform="translate(-104.7 -178.136)" fill="#e8505b"/>
        </g>
        <g id="Group_1535" data-name="Group 1535" transform="translate(7.302 6.112)">
          <g id="Group_1534" data-name="Group 1534" opacity="0.2">
            <g id="Group_1533" data-name="Group 1533">
              <path id="Path_2585" data-name="Path 2585" d="M142.873,206.4c-.413,2.465-.478,2.811-.913,5.276a5.966,5.966,0,0,1-1.174,2.768,3.368,3.368,0,0,1-1.5,1.038,3.69,3.69,0,0,1-2-.086,1.778,1.778,0,0,1-.783-1.838c.8.173,1.066.432,1.762,0a5.978,5.978,0,0,0,1.8-1.881c1.37-2.7,1.761-2.789,2.805-5.276" transform="translate(-136.445 -206.4)"/>
            </g>
          </g>
        </g>
        <g id="Group_1537" data-name="Group 1537" transform="translate(4.008 6.371)">
          <g id="Group_1536" data-name="Group 1536">
            <path id="Path_2586" data-name="Path 2586" d="M124.105,212.1a4.217,4.217,0,0,1-.413-.649c-.261-.432-.609-.995-.979-1.6-.391-.605-.739-1.146-1-1.579-.261-.411-.413-.649-.413-.67a.5.5,0,0,1,.13.151q.13.162.326.454c.283.389.652.951,1.044,1.557.391.627.718,1.189.957,1.622.109.216.217.389.261.5C124.084,212.033,124.105,212.1,124.105,212.1Z" transform="translate(-121.3 -207.6)" fill="#263238"/>
          </g>
        </g>
        <g id="Group_1539" data-name="Group 1539" transform="translate(7.745 14.262)">
          <g id="Group_1538" data-name="Group 1538">
            <path id="Path_2587" data-name="Path 2587" d="M144.2,245.132a1.833,1.833,0,0,1-.217.087c-.065.022-.174.043-.261.065-.109.022-.217.065-.37.087a6.282,6.282,0,0,1-.957.086,5.991,5.991,0,0,1-1.2-.108,8.058,8.058,0,0,1-1.153-.324,6.612,6.612,0,0,1-.87-.411,1.851,1.851,0,0,1-.3-.195.949.949,0,0,1-.217-.173c-.13-.087-.2-.151-.174-.151.022-.022.283.195.761.454a8.494,8.494,0,0,0,.87.389,5.754,5.754,0,0,0,1.131.3,7.653,7.653,0,0,0,1.174.108,6.236,6.236,0,0,0,.957-.065C143.878,245.2,144.2,245.111,144.2,245.132Z" transform="translate(-138.481 -244.093)" fill="#263238"/>
          </g>
        </g>
        <g id="Group_1559" data-name="Group 1559" transform="translate(0 1.354)">
          <g id="Group_1551" data-name="Group 1551" transform="translate(0 3.098)">
            <g id="Group_1540" data-name="Group 1540">
              <path id="Path_2588" data-name="Path 2588" d="M112.509,202.2c-.022.086-1.044,2.119-1.044,2.119l-4.85-2.53-.5-2.076a1.294,1.294,0,0,0-.565-.778,1.276,1.276,0,0,0-1-.173l-1.435.584a.394.394,0,0,0-.239.281c-.022.108,0,.216.2.195.348-.022,1.087-.108,1.087-.108l-.348,1.189a1.371,1.371,0,0,0,.087.93l.217.411.478.757h0s4.719,4.8,7.35,5.125c1.588.195,3.393-4.238,3.393-4.238Z" transform="translate(-102.869 -198.726)" fill="#b78876"/>
            </g>
            <g id="Group_1550" data-name="Group 1550" transform="translate(1.159 0.816)">
              <g id="Group_1549" data-name="Group 1549">
                <g id="Group_1544" data-name="Group 1544" transform="translate(0.109)">
                  <g id="Group_1543" data-name="Group 1543">
                    <g id="Group_1542" data-name="Group 1542">
                      <g id="Group_1541" data-name="Group 1541">
                        <path id="Path_2589" data-name="Path 2589" d="M108.7,202.716l.109-.108a.83.83,0,0,1,.37-.108.367.367,0,0,1,.326.216c.043.087.022.173,0,.151-.022,0,0-.065-.043-.13a.364.364,0,0,0-.283-.151.823.823,0,0,0-.348.086C108.765,202.695,108.7,202.738,108.7,202.716Z" transform="translate(-108.7 -202.5)" fill="#aa6550"/>
                      </g>
                    </g>
                  </g>
                </g>
                <g id="Group_1548" data-name="Group 1548" transform="translate(0 0.605)">
                  <g id="Group_1547" data-name="Group 1547">
                    <g id="Group_1546" data-name="Group 1546">
                      <g id="Group_1545" data-name="Group 1545">
                        <path id="Path_2590" data-name="Path 2590" d="M108.918,205.646a.259.259,0,0,0-.087-.087.592.592,0,0,0-.217-.173.435.435,0,0,0-.283-.022.773.773,0,0,0-.13.022.307.307,0,0,1,.109-.065.381.381,0,0,1,.3.022.554.554,0,0,1,.239.195C108.918,205.6,108.918,205.646,108.918,205.646Z" transform="translate(-108.2 -205.3)" fill="#aa6550"/>
                      </g>
                    </g>
                  </g>
                </g>
              </g>
            </g>
          </g>
          <g id="Group_1552" data-name="Group 1552" transform="translate(9.336 0.148)">
            <path id="Path_2591" data-name="Path 2591" d="M147.1,185.087l-1.3,6.184,3.479,2.076,1.327-3.806S150.062,184.935,147.1,185.087Z" transform="translate(-145.8 -185.083)" fill="#e8505b"/>
          </g>
          <g id="Group_1554" data-name="Group 1554" transform="translate(2.703 0.259)">
            <g id="Group_1553" data-name="Group 1553">
              <path id="Path_2592" data-name="Path 2592" d="M125.108,185.6a.642.642,0,0,1-.087.065,1.453,1.453,0,0,1-.261.13c-.239.108-.565.281-1,.476a14.851,14.851,0,0,1-3.458,1.081,8.44,8.44,0,0,1-3.61-.13,7.721,7.721,0,0,1-1.044-.368c-.109-.043-.2-.108-.261-.13-.065-.043-.087-.043-.087-.065,0,0,.13.043.37.151a6.059,6.059,0,0,0,1.044.324,9.113,9.113,0,0,0,3.566.086,16.35,16.35,0,0,0,3.436-1.038c.435-.173.761-.324,1-.432C124.977,185.643,125.108,185.6,125.108,185.6Z" transform="translate(-115.3 -185.6)" fill="#ebebeb"/>
            </g>
          </g>
          <g id="Group_1556" data-name="Group 1556" transform="translate(2.181 0.942)">
            <g id="Group_1555" data-name="Group 1555">
              <path id="Path_2593" data-name="Path 2593" d="M124.143,188.765a.644.644,0,0,1-.087.065c-.087.043-.174.108-.283.173-.13.086-.283.173-.478.281s-.391.216-.631.324c-.13.065-.239.108-.37.173s-.283.108-.413.173a9.412,9.412,0,0,1-.935.324,15.65,15.65,0,0,1-2.24.476,13.744,13.744,0,0,1-2.283.065,7.081,7.081,0,0,1-1-.108l-.457-.065c-.152-.022-.283-.065-.413-.086a4.655,4.655,0,0,1-.7-.173c-.2-.043-.37-.108-.522-.151-.13-.043-.239-.087-.326-.108a.92.92,0,0,1-.109-.043.383.383,0,0,1,.109.022,3.374,3.374,0,0,0,.326.087q.228.065.522.13c.2.043.435.108.7.151.13.022.261.043.413.065s.283.043.457.065c.3.043.631.065,1,.086a13.869,13.869,0,0,0,2.283-.086,15.412,15.412,0,0,0,2.218-.454,9.416,9.416,0,0,0,.935-.324c.152-.065.283-.108.413-.151.13-.065.261-.108.391-.173.239-.108.457-.216.652-.3a3.158,3.158,0,0,0,.478-.259c.13-.065.217-.13.3-.173C124.121,188.765,124.143,188.743,124.143,188.765Z" transform="translate(-112.9 -188.756)" fill="#ebebeb"/>
            </g>
          </g>
          <g id="Group_1558" data-name="Group 1558" transform="translate(9.119)">
            <g id="Group_1557" data-name="Group 1557">
              <path id="Path_2594" data-name="Path 2594" d="M148.5,192.811a2.008,2.008,0,0,1-.283-.151c-.2-.108-.457-.259-.761-.432-.652-.389-1.566-.908-2.61-1.492l-.043-.022v-.043c.087-.454.2-.951.3-1.47.152-.778.3-1.492.457-2.162.065-.324.13-.649.2-.951a2.9,2.9,0,0,1,.283-.8,1.649,1.649,0,0,1,.892-.822,1.214,1.214,0,0,1,.326-.065c.087,0,.109,0,.109.022a1.53,1.53,0,0,0-.435.087,1.6,1.6,0,0,0-.848.822,3.638,3.638,0,0,0-.261.778c-.065.3-.13.605-.2.951-.13.67-.283,1.406-.435,2.162-.109.519-.2,1.016-.3,1.47l-.022-.065c1.044.605,1.935,1.146,2.588,1.535.3.195.565.346.739.454C148.41,192.747,148.5,192.811,148.5,192.811Z" transform="translate(-144.8 -184.4)" fill="#263238"/>
            </g>
          </g>
        </g>
        <g id="Group_1561" data-name="Group 1561" transform="translate(12.899 5.787)">
          <g id="Group_1560" data-name="Group 1560">
            <path id="Path_2595" data-name="Path 2595" d="M163.167,204.9a1.725,1.725,0,0,1-.022.584,11.33,11.33,0,0,1-.239,1.362,7.658,7.658,0,0,1-.457,1.319c-.152.324-.261.519-.261.519a2.647,2.647,0,0,1,.2-.541c.13-.324.283-.8.435-1.319.13-.519.217-.995.283-1.341A2.216,2.216,0,0,1,163.167,204.9Z" transform="translate(-162.185 -204.9)" fill="#263238"/>
          </g>
        </g>
      </g>
      <g id="Group_1596" data-name="Group 1596" transform="translate(0 20.641)">
        <g id="Group_1581" data-name="Group 1581" transform="translate(0 28.268)">
          <g id="Group_1575" data-name="Group 1575">
            <g id="Group_1563" data-name="Group 1563" transform="translate(0.001)">
              <path id="Path_2596" data-name="Path 2596" d="M67.3,363.9l-.043,3.308s-3.393,1.06-3.458,1.687l6.437.3.283-5.146Z" transform="translate(-63.8 -363.9)" fill="#455a64"/>
            </g>
            <g id="Group_1565" data-name="Group 1565" transform="translate(5.166 3.101)">
              <g id="Group_1564" data-name="Group 1564">
                <path id="Path_2597" data-name="Path 2597" d="M87.864,378.252a.247.247,0,1,1-.13.476.279.279,0,0,1-.174-.324.225.225,0,0,1,.326-.13" transform="translate(-87.548 -378.239)" fill="#e0e0e0"/>
              </g>
            </g>
            <g id="Group_1566" data-name="Group 1566" transform="translate(0 4.671)">
              <path id="Path_2598" data-name="Path 2598" d="M70.233,386.105v-.519l-6.176-.087s-.283.108-.261.3Z" transform="translate(-63.795 -385.5)" fill="#e0e0e0"/>
            </g>
            <g id="Group_1568" data-name="Group 1568" transform="translate(3.37 3.241)">
              <g id="Group_1567" data-name="Group 1567">
                <path id="Path_2599" data-name="Path 2599" d="M79.294,378.911a3.385,3.385,0,0,1,.3.151c.152.108.217.238.261.238.022,0,0-.195-.2-.324S79.272,378.889,79.294,378.911Z" transform="translate(-79.292 -378.886)" fill="#263238"/>
              </g>
            </g>
            <g id="Group_1570" data-name="Group 1570" transform="translate(2.676 3.496)">
              <g id="Group_1569" data-name="Group 1569">
                <path id="Path_2600" data-name="Path 2600" d="M76.1,380.074c0,.022.13.086.217.216.109.13.13.281.152.281s.065-.173-.065-.346C76.3,380.074,76.1,380.053,76.1,380.074Z" transform="translate(-76.1 -380.067)" fill="#263238"/>
              </g>
            </g>
            <g id="Group_1572" data-name="Group 1572" transform="translate(2.02 3.751)">
              <g id="Group_1571" data-name="Group 1571">
                <path id="Path_2601" data-name="Path 2601" d="M73.327,381.8a.3.3,0,0,0,0-.324c-.065-.173-.217-.259-.239-.216-.022.022.065.13.13.259S73.283,381.779,73.327,381.8Z" transform="translate(-73.084 -381.249)" fill="#263238"/>
              </g>
            </g>
            <g id="Group_1574" data-name="Group 1574" transform="translate(3.457 2.418)">
              <g id="Group_1573" data-name="Group 1573">
                <path id="Path_2602" data-name="Path 2602" d="M79.693,375.174a3.109,3.109,0,0,0,.326.022c.174.022.3.086.326.065s-.109-.151-.326-.173C79.823,375.066,79.671,375.152,79.693,375.174Z" transform="translate(-79.69 -375.084)" fill="#263238"/>
              </g>
            </g>
          </g>
          <g id="Group_1576" data-name="Group 1576" transform="translate(3.502 0.649)" opacity="0.3">
            <path id="Path_2603" data-name="Path 2603" d="M79.9,366.9v.584l3.153.13.022-.519Z" transform="translate(-79.9 -366.9)"/>
          </g>
          <g id="Group_1578" data-name="Group 1578" transform="translate(3.481 1.362)">
            <g id="Group_1577" data-name="Group 1577">
              <path id="Path_2604" data-name="Path 2604" d="M79.8,370.676c0,.022.13.043.326.022a2.715,2.715,0,0,0,.348-.086.775.775,0,0,0,.2-.086.475.475,0,0,1,.109-.065.126.126,0,0,0,.022-.173c-.022-.043-.087-.065-.13-.086a.277.277,0,0,0-.13.022l-.2.065a.8.8,0,0,0-.3.173c-.152.13-.217.238-.2.259s.087-.086.239-.195a1.98,1.98,0,0,1,.3-.151.638.638,0,0,1,.2-.043c.065-.022.13-.022.152.022v.043c-.022.022-.043.043-.065.043a.653.653,0,0,1-.174.086,1.923,1.923,0,0,1-.326.108A2.624,2.624,0,0,1,79.8,370.676Z" transform="translate(-79.8 -370.2)" fill="#263238"/>
            </g>
          </g>
          <g id="Group_1580" data-name="Group 1580" transform="translate(3.16 0.887)">
            <g id="Group_1579" data-name="Group 1579">
              <path id="Path_2605" data-name="Path 2605" d="M78.689,369.016c.022,0,.087-.108.109-.3a1.967,1.967,0,0,0-.022-.346l-.065-.195c-.043-.065-.087-.151-.2-.173a.147.147,0,0,0-.13.086c-.022.043-.022.086-.043.108a.367.367,0,0,0,0,.216.823.823,0,0,0,.13.346c.109.173.239.216.261.195s-.087-.086-.174-.238a.7.7,0,0,1-.087-.3.6.6,0,0,1,.022-.195c.022-.065.043-.13.065-.108.022,0,.087.065.109.108.022.065.043.108.065.173a.892.892,0,0,1,.043.324C78.711,368.887,78.668,368.995,78.689,369.016Z" transform="translate(-78.325 -368)" fill="#263238"/>
            </g>
          </g>
        </g>
        <g id="Group_1587" data-name="Group 1587" transform="translate(0.271)">
          <g id="Group_1582" data-name="Group 1582">
            <path id="Path_2606" data-name="Path 2606" d="M81.385,237.544s-10.047-4.195-13.157-4.368c-1.957-.108-3.436,1.124-3.153,3.135.13.995,2.914,12.758,2.914,12.758l4.241-1.924-2.044-8.13,8.264,4Z" transform="translate(-65.04 -233.17)" fill="#263238"/>
          </g>
          <g id="Group_1584" data-name="Group 1584" transform="translate(3.858 3.79)">
            <g id="Group_1583" data-name="Group 1583">
              <path id="Path_2607" data-name="Path 2607" d="M82.787,250.7a10.783,10.783,0,0,0,.652,1.016,9.566,9.566,0,0,0,.631,1.038,2.7,2.7,0,0,0-.5-1.1A2.874,2.874,0,0,0,82.787,250.7Z" transform="translate(-82.783 -250.696)" fill="#455a64"/>
            </g>
          </g>
          <g id="Group_1586" data-name="Group 1586" transform="translate(3.035 4.262)">
            <g id="Group_1585" data-name="Group 1585">
              <path id="Path_2608" data-name="Path 2608" d="M79,252.884a8.4,8.4,0,0,0,1.087.8c.587.432,1.066.822,1.087.8a4.249,4.249,0,0,0-1-.908A3.956,3.956,0,0,0,79,252.884Z" transform="translate(-78.997 -252.88)" fill="#455a64"/>
            </g>
          </g>
        </g>
        <g id="Group_1591" data-name="Group 1591" transform="translate(2.698 4.375)">
          <g id="Group_1588" data-name="Group 1588">
            <path id="Path_2609" data-name="Path 2609" d="M97.969,255.93a7.258,7.258,0,0,1-2.479,2.054c-1.522.562-12.722,5.817-12.722,5.817s-2.022,15.007-1.87,14.38l-4.7-.108.5-13.817a6.427,6.427,0,0,1,3.023-4.714L90.1,253.4Z" transform="translate(-76.2 -253.4)" fill="#263238"/>
          </g>
          <g id="Group_1590" data-name="Group 1590" transform="translate(0.391 0.714)">
            <g id="Group_1589" data-name="Group 1589">
              <path id="Path_2610" data-name="Path 2610" d="M78.043,269.35a.675.675,0,0,0,.022-.195c0-.13.022-.324.022-.541a13.921,13.921,0,0,1,.2-1.989,6.688,6.688,0,0,1,1.022-2.746,5.344,5.344,0,0,1,1.2-1.233,11.581,11.581,0,0,1,1.588-.995c2.262-1.276,4.2-2.595,5.632-3.5.718-.454,1.3-.822,1.7-1.06.2-.108.348-.216.457-.281a.86.86,0,0,0,.152-.108,1,1,0,0,0-.174.086c-.109.065-.283.151-.478.259-.413.238-1,.584-1.74,1.016-1.457.887-3.414,2.162-5.654,3.46a16.931,16.931,0,0,0-1.609,1.016,5.306,5.306,0,0,0-1.24,1.276,6.9,6.9,0,0,0-1,2.789,12.493,12.493,0,0,0-.13,2.011v.541A.7.7,0,0,1,78.043,269.35Z" transform="translate(-78 -256.7)" fill="#455a64"/>
            </g>
          </g>
        </g>
        <g id="Group_1593" data-name="Group 1593" transform="translate(19.417 5.477)">
          <g id="Group_1592" data-name="Group 1592">
            <path id="Path_2611" data-name="Path 2611" d="M154,261.506c.022-.022-.109-.151-.283-.389a2.72,2.72,0,0,1-.435-1.038,2.769,2.769,0,0,1,0-1.124,2.958,2.958,0,0,0,.109-.454.95.95,0,0,0-.217.432,2.607,2.607,0,0,0-.043,1.189,2.3,2.3,0,0,0,.5,1.06A1.034,1.034,0,0,0,154,261.506Z" transform="translate(-153.082 -258.5)" fill="#455a64"/>
          </g>
        </g>
        <g id="Group_1595" data-name="Group 1595" transform="translate(4.438 4.893)">
          <g id="Group_1594" data-name="Group 1594">
            <path id="Path_2612" data-name="Path 2612" d="M84.2,279.932a.339.339,0,0,1,.022-.086c0-.065.022-.13.022-.216.022-.216.043-.5.087-.865.087-.778.174-1.86.326-3.222.065-.67.13-1.427.217-2.227s.152-1.643.217-2.552a26.561,26.561,0,0,1,.326-2.811,10.919,10.919,0,0,1,.87-2.876,10.493,10.493,0,0,1,1.7-2.487,15.422,15.422,0,0,1,2.131-1.86A43.826,43.826,0,0,1,94.2,258.2c1.2-.67,2.131-1.254,2.762-1.687a7.988,7.988,0,0,0,.718-.519c.065-.065.13-.108.174-.151s.065-.043.065-.043a.269.269,0,0,1-.065.043.76.76,0,0,1-.2.13c-.174.108-.413.281-.739.5-.631.411-1.588.995-2.784,1.643a41.612,41.612,0,0,0-4.11,2.508,15.572,15.572,0,0,0-2.153,1.86,10.343,10.343,0,0,0-1.74,2.508,12.114,12.114,0,0,0-.87,2.919,26.973,26.973,0,0,0-.3,2.811c-.065.908-.13,1.751-.217,2.552-.065.8-.13,1.535-.2,2.227-.109,1.341-.2,2.443-.261,3.222-.022.368-.043.67-.065.887a.807.807,0,0,1-.022.238Z" transform="translate(-84.2 -255.8)" fill="#455a64"/>
          </g>
        </g>
      </g>
      <g id="Group_1670" data-name="Group 1670" transform="translate(9.331)">
        <g id="Group_1597" data-name="Group 1597">
          <path id="Path_2613" data-name="Path 2613" d="M112.855,138.921a1.842,1.842,0,0,0-2.088-1.124,2.862,2.862,0,0,1-.587.13,2.955,2.955,0,0,1-.718-.195,1.045,1.045,0,0,0-1.2.778,1.458,1.458,0,0,0-1.2.238.941.941,0,0,0-.283,1.124c.087.151.217.281.3.454.13.259.065.584.152.865a1.178,1.178,0,0,0,1.022.714,3.422,3.422,0,0,0,1.3-.195" transform="translate(-106.7 -137.712)" fill="#263238"/>
        </g>
        <g id="Group_1665" data-name="Group 1665" transform="translate(1.131 0.927)">
          <g id="Group_1664" data-name="Group 1664">
            <g id="Group_1651" data-name="Group 1651">
              <g id="Group_1638" data-name="Group 1638" transform="translate(0.36 0.627)">
                <g id="Group_1637" data-name="Group 1637">
                  <g id="Group_1636" data-name="Group 1636">
                    <g id="Group_1601" data-name="Group 1601">
                      <g id="Group_1600" data-name="Group 1600">
                        <g id="Group_1599" data-name="Group 1599">
                          <g id="Group_1598" data-name="Group 1598">
                            <path id="Path_2614" data-name="Path 2614" d="M116.2,153.117c-.065-.411-.087-.714-.087-.714a2.219,2.219,0,0,1-1.957-1.73,18.644,18.644,0,0,1-.587-3.5,1.9,1.9,0,0,1,1.8-2.076l3.719-.195.087.584.979,7.114a1.977,1.977,0,0,1-1.718,2.227h0A1.991,1.991,0,0,1,116.2,153.117Z" transform="translate(-113.556 -144.9)" fill="#b78876"/>
                          </g>
                        </g>
                      </g>
                    </g>
                    <g id="Group_1611" data-name="Group 1611" transform="translate(0.436 2.642)">
                      <g id="Group_1605" data-name="Group 1605" transform="translate(0.092 0.404)">
                        <g id="Group_1604" data-name="Group 1604">
                          <g id="Group_1603" data-name="Group 1603">
                            <g id="Group_1602" data-name="Group 1602">
                              <path id="Path_2615" data-name="Path 2615" d="M115.988,159.226a.224.224,0,0,0,.261.195.215.215,0,0,0,.2-.238.225.225,0,0,0-.261-.195A.2.2,0,0,0,115.988,159.226Z" transform="translate(-115.985 -158.985)" fill="#263238"/>
                            </g>
                          </g>
                        </g>
                      </g>
                      <g id="Group_1610" data-name="Group 1610">
                        <g id="Group_1609" data-name="Group 1609">
                          <g id="Group_1608" data-name="Group 1608">
                            <g id="Group_1607" data-name="Group 1607">
                              <g id="Group_1606" data-name="Group 1606">
                                <path id="Path_2616" data-name="Path 2616" d="M115.571,157.438c.043.022.2-.13.435-.173s.435.065.457.022c.022-.022-.022-.065-.109-.108a.506.506,0,0,0-.37-.043.656.656,0,0,0-.348.173C115.571,157.373,115.549,157.438,115.571,157.438Z" transform="translate(-115.562 -157.117)" fill="#263238"/>
                              </g>
                            </g>
                          </g>
                        </g>
                      </g>
                    </g>
                    <g id="Group_1621" data-name="Group 1621" transform="translate(2.85 2.317)">
                      <g id="Group_1615" data-name="Group 1615" transform="translate(0.008 0.339)">
                        <g id="Group_1614" data-name="Group 1614">
                          <g id="Group_1613" data-name="Group 1613">
                            <g id="Group_1612" data-name="Group 1612">
                              <path id="Path_2617" data-name="Path 2617" d="M126.7,157.426a.224.224,0,0,0,.261.195.215.215,0,0,0,.2-.238.225.225,0,0,0-.261-.195A.22.22,0,0,0,126.7,157.426Z" transform="translate(-126.7 -157.185)" fill="#263238"/>
                            </g>
                          </g>
                        </g>
                      </g>
                      <g id="Group_1620" data-name="Group 1620">
                        <g id="Group_1619" data-name="Group 1619">
                          <g id="Group_1618" data-name="Group 1618">
                            <g id="Group_1617" data-name="Group 1617">
                              <g id="Group_1616" data-name="Group 1616">
                                <path id="Path_2618" data-name="Path 2618" d="M126.671,155.938c.044.022.2-.13.435-.173s.435.065.457.022c.022-.022-.022-.065-.109-.108a.506.506,0,0,0-.37-.043.656.656,0,0,0-.348.173C126.671,155.851,126.649,155.916,126.671,155.938Z" transform="translate(-126.662 -155.617)" fill="#263238"/>
                              </g>
                            </g>
                          </g>
                        </g>
                      </g>
                    </g>
                    <g id="Group_1626" data-name="Group 1626" transform="translate(1.572 2.53)">
                      <g id="Group_1625" data-name="Group 1625">
                        <g id="Group_1624" data-name="Group 1624">
                          <g id="Group_1623" data-name="Group 1623">
                            <g id="Group_1622" data-name="Group 1622">
                              <path id="Path_2619" data-name="Path 2619" d="M121.462,158.654c0-.022-.152-.022-.413,0-.065,0-.13,0-.152-.043s0-.108.022-.195c.043-.151.065-.324.109-.5a8.49,8.49,0,0,0,.217-1.319,9.357,9.357,0,0,0-.326,1.3c-.043.173-.065.346-.109.5a.351.351,0,0,0,0,.259.12.12,0,0,0,.109.065h.109A1.207,1.207,0,0,0,121.462,158.654Z" transform="translate(-120.785 -156.6)" fill="#263238"/>
                            </g>
                          </g>
                        </g>
                      </g>
                    </g>
                    <g id="Group_1630" data-name="Group 1630" transform="translate(2.554 6.487)">
                      <g id="Group_1629" data-name="Group 1629">
                        <g id="Group_1628" data-name="Group 1628">
                          <g id="Group_1627" data-name="Group 1627">
                            <path id="Path_2620" data-name="Path 2620" d="M125.3,175.916a4.5,4.5,0,0,0,2.283-1.016,2.318,2.318,0,0,1-2.2,1.427Z" transform="translate(-125.3 -174.9)" fill="#aa6550"/>
                          </g>
                        </g>
                      </g>
                    </g>
                    <g id="Group_1635" data-name="Group 1635" transform="translate(2.337 4.627)">
                      <g id="Group_1634" data-name="Group 1634">
                        <g id="Group_1633" data-name="Group 1633">
                          <g id="Group_1632" data-name="Group 1632">
                            <g id="Group_1631" data-name="Group 1631">
                              <path id="Path_2621" data-name="Path 2621" d="M124.974,166.3c-.043,0,0,.259-.2.5-.2.216-.478.238-.478.281,0,.022.065.043.2.022a.852.852,0,0,0,.413-.216.572.572,0,0,0,.152-.411C125.018,166.365,125,166.3,124.974,166.3Z" transform="translate(-124.3 -166.3)" fill="#263238"/>
                            </g>
                          </g>
                        </g>
                      </g>
                    </g>
                  </g>
                </g>
              </g>
              <g id="Group_1642" data-name="Group 1642" transform="translate(2.996 2.033)">
                <g id="Group_1641" data-name="Group 1641">
                  <g id="Group_1640" data-name="Group 1640">
                    <g id="Group_1639" data-name="Group 1639">
                      <path id="Path_2622" data-name="Path 2622" d="M125.68,151.681c.043.065.283,0,.565-.022.3-.022.544.022.565-.043.022-.022-.043-.086-.152-.13a1.188,1.188,0,0,0-.435-.086.86.86,0,0,0-.435.13C125.7,151.595,125.658,151.638,125.68,151.681Z" transform="translate(-125.674 -151.4)" fill="#263238"/>
                    </g>
                  </g>
                </g>
              </g>
              <g id="Group_1646" data-name="Group 1646" transform="translate(0.761 2.543)">
                <g id="Group_1645" data-name="Group 1645">
                  <g id="Group_1644" data-name="Group 1644">
                    <g id="Group_1643" data-name="Group 1643">
                      <path id="Path_2623" data-name="Path 2623" d="M115.422,154.094c.043.043.217-.043.413-.065.2-.043.391-.022.413-.087.022-.022-.022-.086-.109-.13a.6.6,0,0,0-.348-.043.427.427,0,0,0-.3.173C115.4,154.007,115.378,154.072,115.422,154.094Z" transform="translate(-115.4 -153.761)" fill="#263238"/>
                    </g>
                  </g>
                </g>
              </g>
              <g id="Group_1650" data-name="Group 1650">
                <g id="Group_1649" data-name="Group 1649">
                  <g id="Group_1648" data-name="Group 1648">
                    <g id="Group_1647" data-name="Group 1647">
                      <path id="Path_2624" data-name="Path 2624" d="M112.074,144.119a2.567,2.567,0,0,0,2.109-.432,3.042,3.042,0,0,1,1.87-.67c.217.13.37.93,1.2,1.081,0,0,.152,1.557.761,1.427.435-.086.174-1.816,0-2.789a.856.856,0,0,0-.8-.692L116.054,142l-1.435.389-1.544.411-1.174.476Z" transform="translate(-111.9 -142)" fill="#263238"/>
                    </g>
                  </g>
                </g>
              </g>
            </g>
            <g id="Group_1663" data-name="Group 1663" transform="translate(5.959 2.76)">
              <g id="Group_1656" data-name="Group 1656">
                <g id="Group_1655" data-name="Group 1655">
                  <g id="Group_1654" data-name="Group 1654">
                    <g id="Group_1653" data-name="Group 1653">
                      <g id="Group_1652" data-name="Group 1652">
                        <path id="Path_2625" data-name="Path 2625" d="M139.3,154.9c.022-.022.979-.519,1.153.519a.8.8,0,0,1-.913.973C139.539,156.349,139.3,154.9,139.3,154.9Z" transform="translate(-139.3 -154.762)" fill="#b78876"/>
                      </g>
                    </g>
                  </g>
                </g>
              </g>
              <g id="Group_1662" data-name="Group 1662" transform="translate(0.435 0.311)">
                <g id="Group_1661" data-name="Group 1661">
                  <g id="Group_1660" data-name="Group 1660">
                    <g id="Group_1659" data-name="Group 1659">
                      <g id="Group_1658" data-name="Group 1658">
                        <g id="Group_1657" data-name="Group 1657">
                          <path id="Path_2626" data-name="Path 2626" d="M141.365,157.065a.067.067,0,0,1,.043.022.325.325,0,0,0,.13-.022.4.4,0,0,0,.13-.432,1.215,1.215,0,0,0-.087-.259.225.225,0,0,0-.152-.108.136.136,0,0,0-.109.065v.043a.094.094,0,0,1-.022-.065.079.079,0,0,1,.022-.065.165.165,0,0,1,.087-.043.239.239,0,0,1,.217.13.548.548,0,0,1,.109.281.492.492,0,0,1-.2.5.24.24,0,0,1-.174,0Z" transform="translate(-141.3 -156.2)" fill="#aa6550"/>
                        </g>
                      </g>
                    </g>
                  </g>
                </g>
              </g>
            </g>
          </g>
        </g>
        <g id="Group_1667" data-name="Group 1667" transform="translate(1.805 0.426)">
          <g id="Group_1666" data-name="Group 1666">
            <path id="Path_2627" data-name="Path 2627" d="M115,139.685a.958.958,0,0,0,.109.13.814.814,0,0,0,.391.259,1.246,1.246,0,0,0,.7.022,4.519,4.519,0,0,0,.826-.259,2.215,2.215,0,0,1,.892-.151,1.087,1.087,0,0,1,.674.3.791.791,0,0,1,.217.454.44.44,0,0,1-.022.173.974.974,0,0,0-.022-.173.945.945,0,0,0-.217-.411,1.057,1.057,0,0,0-.631-.259,2.516,2.516,0,0,0-.848.151,5.312,5.312,0,0,1-.848.259,1.36,1.36,0,0,1-.739-.065.845.845,0,0,1-.391-.3A.182.182,0,0,1,115,139.685Z" transform="translate(-115 -139.681)" fill="#455a64"/>
          </g>
        </g>
        <g id="Group_1669" data-name="Group 1669" transform="translate(0.478 1.055)">
          <g id="Group_1668" data-name="Group 1668">
            <path id="Path_2628" data-name="Path 2628" d="M113.728,142.963a.5.5,0,0,0-.152-.13,1,1,0,0,0-.522-.151,1.608,1.608,0,0,0-.783.195,7.523,7.523,0,0,1-.935.432,2.34,2.34,0,0,1-1.848-.195,2.4,2.4,0,0,1-.457-.346c-.087-.108-.13-.151-.13-.173a5.093,5.093,0,0,0,.631.454,2.4,2.4,0,0,0,1.783.173,9.345,9.345,0,0,0,.935-.432,1.758,1.758,0,0,1,.848-.173,1.06,1.06,0,0,1,.544.195A.364.364,0,0,1,113.728,142.963Z" transform="translate(-108.9 -142.594)" fill="#455a64"/>
          </g>
        </g>
      </g>
      <g id="Group_1701" data-name="Group 1701" transform="translate(3.305 9.987)">
        <g id="Group_1674" data-name="Group 1674" transform="translate(1.394 4.714)">
          <g id="Group_1673" data-name="Group 1673">
            <g id="Group_1672" data-name="Group 1672">
              <g id="Group_1671" data-name="Group 1671">
                <path id="Path_2629" data-name="Path 2629" d="M92.12,209.981,87.074,205.7l-1.674.368a27.367,27.367,0,0,0,3.023,4.952,3.015,3.015,0,0,0,3.327.951C93.816,211.257,92.12,209.981,92.12,209.981Z" transform="translate(-85.4 -205.7)" fill="#b78876"/>
              </g>
            </g>
          </g>
        </g>
        <g id="Group_1681" data-name="Group 1681">
          <g id="Group_1677" data-name="Group 1677">
            <g id="Group_1676" data-name="Group 1676">
              <g id="Group_1675" data-name="Group 1675">
                <path id="Path_2630" data-name="Path 2630" d="M81.668,183.9H79.515a.539.539,0,0,0-.5.67l2.153,4.173A.523.523,0,0,0,81.6,189h2.61a.36.36,0,0,0,.283-.541l-2.088-4.087A.794.794,0,0,0,81.668,183.9Z" transform="translate(-78.991 -183.9)" fill="#455a64"/>
              </g>
            </g>
          </g>
          <g id="Group_1680" data-name="Group 1680" transform="translate(0.034 0.259)">
            <g id="Group_1679" data-name="Group 1679">
              <g id="Group_1678" data-name="Group 1678">
                <path id="Path_2631" data-name="Path 2631" d="M81.661,185.1H79.508a.367.367,0,0,0-.326.519l2.109,4.087a.523.523,0,0,0,.435.259h2.588a.219.219,0,0,0,.2-.3l-2.088-4.087A.874.874,0,0,0,81.661,185.1Z" transform="translate(-79.149 -185.1)" fill="#263238"/>
              </g>
            </g>
          </g>
        </g>
        <g id="Group_1697" data-name="Group 1697" transform="translate(0.763 1.968)">
          <g id="Group_1684" data-name="Group 1684">
            <g id="Group_1683" data-name="Group 1683">
              <g id="Group_1682" data-name="Group 1682">
                <path id="Path_2632" data-name="Path 2632" d="M84.088,193l-1.3.519-.283,1.038.631,1.557,2.305.346-.674-.692.087-.605s.652-.195.652-.3c.022-.108-.087-.432-.174-.432a4.244,4.244,0,0,0-.783.238s.8-.627.783-.735-.109-.368-.261-.389a10.678,10.678,0,0,0-1.457.584l-.217.476-.174-.757C83.239,193.843,84.37,193.519,84.088,193Z" transform="translate(-82.5 -193)" fill="#b78876"/>
              </g>
            </g>
          </g>
          <g id="Group_1688" data-name="Group 1688" transform="translate(1.709 1.657)">
            <g id="Group_1687" data-name="Group 1687">
              <g id="Group_1686" data-name="Group 1686">
                <g id="Group_1685" data-name="Group 1685">
                  <path id="Path_2633" data-name="Path 2633" d="M90.413,201.471a.694.694,0,0,1-.043-.13.609.609,0,0,1,.043-.324.717.717,0,0,1,.2-.281c.065-.065.109-.087.109-.065.022.022-.152.13-.239.368A.994.994,0,0,0,90.413,201.471Z" transform="translate(-90.361 -200.662)" fill="#aa6550"/>
                </g>
              </g>
            </g>
          </g>
          <g id="Group_1692" data-name="Group 1692" transform="translate(1.131 0.838)">
            <g id="Group_1691" data-name="Group 1691">
              <g id="Group_1690" data-name="Group 1690">
                <g id="Group_1689" data-name="Group 1689">
                  <path id="Path_2634" data-name="Path 2634" d="M87.7,198.263a1.191,1.191,0,0,0,.043-.346,1.193,1.193,0,0,1,.065-.368.389.389,0,0,1,.13-.195.452.452,0,0,1,.217-.13c.3-.108.587-.195.8-.259.2-.065.326-.108.348-.087a2.75,2.75,0,0,1-.326.13c-.2.087-.478.173-.783.281a.571.571,0,0,0-.2.108.47.47,0,0,0-.109.173,2.935,2.935,0,0,0-.087.368C87.787,198.155,87.722,198.263,87.7,198.263Z" transform="translate(-87.7 -196.874)" fill="#aa6550"/>
                </g>
              </g>
            </g>
          </g>
          <g id="Group_1696" data-name="Group 1696" transform="translate(0.81 1.492)">
            <g id="Group_1695" data-name="Group 1695">
              <g id="Group_1694" data-name="Group 1694">
                <g id="Group_1693" data-name="Group 1693">
                  <path id="Path_2635" data-name="Path 2635" d="M86.241,200.4c-.022,0-.022-.108,0-.259a1.281,1.281,0,0,1,.065-.238c.022,0,.022.108,0,.259C86.307,200.289,86.263,200.4,86.241,200.4Z" transform="translate(-86.225 -199.9)" fill="#aa6550"/>
                </g>
              </g>
            </g>
          </g>
        </g>
        <g id="Group_1700" data-name="Group 1700" transform="translate(1.568 0.757)">
          <g id="Group_1699" data-name="Group 1699">
            <g id="Group_1698" data-name="Group 1698">
              <path id="Path_2636" data-name="Path 2636" d="M86.2,187.681a.283.283,0,1,0,.283-.281A.3.3,0,0,0,86.2,187.681Z" transform="translate(-86.2 -187.4)" fill="#fafafa"/>
            </g>
          </g>
        </g>
      </g>
    </g>
  </g>
  <g id="Plant" transform="translate(0 70.708)">
    <g id="Group_1718" data-name="Group 1718">
      <g id="Group_1704" data-name="Group 1704" transform="translate(2.827)">
        <g id="Group_1703" data-name="Group 1703">
          <path id="Path_2637" data-name="Path 2637" d="M47.054,379.4a2.7,2.7,0,0,1,1.588,1.341,4.75,4.75,0,0,1,.478,2.054,8.243,8.243,0,0,1-1.2,4.044,5.475,5.475,0,0,1-2-3.395c-.326-1.406-.087-4.087,1.131-4.044" transform="translate(-45.791 -379.397)" fill="#e8505b"/>
        </g>
      </g>
      <g id="Group_1706" data-name="Group 1706" transform="translate(6.473 6.223)">
        <g id="Group_1705" data-name="Group 1705">
          <path id="Path_2638" data-name="Path 2638" d="M62.7,411.4a2.252,2.252,0,0,1,.413-2.227,2.992,2.992,0,0,1,2.088-.995,1.281,1.281,0,0,1,1.022.281.98.98,0,0,1,.152.973,1.841,1.841,0,0,1-.609.8A3.957,3.957,0,0,1,62.7,411.4" transform="translate(-62.557 -408.177)" fill="#e8505b"/>
        </g>
      </g>
      <g id="Group_1709" data-name="Group 1709" transform="translate(5.743 7.634)">
        <g id="Group_1708" data-name="Group 1708">
          <g id="Group_1707" data-name="Group 1707">
            <path id="Path_2639" data-name="Path 2639" d="M59.2,420.841v-.281c0-.195.022-.454.022-.757a7.975,7.975,0,0,1,.435-2.508,4.906,4.906,0,0,1,1.457-2.076,3.739,3.739,0,0,1,.652-.411c.087-.043.152-.065.2-.086a.169.169,0,0,1,.065-.022,5.123,5.123,0,0,0-.87.562,4.968,4.968,0,0,0-1.414,2.054,9.342,9.342,0,0,0-.457,2.465c-.022.324-.043.584-.065.757C59.222,420.754,59.222,420.841,59.2,420.841Z" transform="translate(-59.2 -414.7)" fill="#263238"/>
          </g>
        </g>
      </g>
      <g id="Group_1712" data-name="Group 1712" transform="translate(4.081 2.055)">
        <g id="Group_1711" data-name="Group 1711">
          <g id="Group_1710" data-name="Group 1710">
            <path id="Path_2640" data-name="Path 2640" d="M51.565,388.9a.261.261,0,0,1,.022.108,3.375,3.375,0,0,1,.065.346c.065.3.152.735.239,1.276.2,1.081.435,2.552.674,4.217.239,1.643.413,3.135.522,4.238.065.541.109.973.13,1.276a2.228,2.228,0,0,1,.022.346v.13a.312.312,0,0,1-.022-.13c-.022-.086-.022-.195-.043-.346-.043-.324-.087-.757-.152-1.276-.13-1.081-.326-2.573-.544-4.217-.239-1.643-.478-3.135-.652-4.217-.087-.519-.152-.951-.217-1.276a2.945,2.945,0,0,1-.043-.346C51.565,388.943,51.543,388.9,51.565,388.9Z" transform="translate(-51.556 -388.9)" fill="#263238"/>
          </g>
        </g>
      </g>
      <g id="Group_1714" data-name="Group 1714" transform="translate(0 7.061)">
        <g id="Group_1713" data-name="Group 1713">
          <path id="Path_2641" data-name="Path 2641" d="M37.555,415.543a5.28,5.28,0,0,0-3.414-3.395,1.124,1.124,0,0,0-1.2.151c-.283.324-.13.822.087,1.189a4.521,4.521,0,0,0,4.523,2.162" transform="translate(-32.791 -412.051)" fill="#e8505b"/>
        </g>
      </g>
      <g id="Group_1717" data-name="Group 1717" transform="translate(1.719 8.39)">
        <g id="Group_1716" data-name="Group 1716">
          <g id="Group_1715" data-name="Group 1715">
            <path id="Path_2642" data-name="Path 2642" d="M40.7,418.2l.261.065c.087.022.174.065.3.108a1.852,1.852,0,0,1,.37.173c.13.065.283.151.435.238a4.717,4.717,0,0,1,.478.324,5.331,5.331,0,0,1,.957.908,5.267,5.267,0,0,1,.7,1.124c.087.195.152.368.217.541a2.24,2.24,0,0,1,.13.476,3.5,3.5,0,0,1,.087.411c.022.13.022.216.043.3q.033.259,0,.259c-.022,0-.043-.368-.2-.973-.043-.151-.087-.3-.152-.476a5.267,5.267,0,0,0-.217-.519,6.174,6.174,0,0,0-.7-1.1,7.347,7.347,0,0,0-.935-.908,4.511,4.511,0,0,0-.892-.562C41.045,418.33,40.675,418.221,40.7,418.2Z" transform="translate(-40.696 -418.2)" fill="#263238"/>
          </g>
        </g>
      </g>
    </g>
  </g>
</svg>
