<svg xmlns="http://www.w3.org/2000/svg" width="67.823" height="89.765" viewBox="0 0 67.823 89.765"><rect width="56.956" height="84.279" transform="translate(0 2.189)" fill="#535461"/><path d="M41.434,88.7,0,86.523V2.244L41.434.063Z" transform="translate(0 -0.055)" fill="#e43f6f"/><circle cx="0.513" cy="0.513" r="0.513" transform="translate(37.457 47.856)" fill="#535461"/><path d="M291.166,377.66l.356.616.356.616h-1.423l.356-.616Z" transform="translate(-253.196 -329.214)" fill="#535461"/><path d="M319.755,88.7l-2.538-.008.1-88.632h2.437Z" transform="translate(-276.525 -0.055)" fill="#e43f6f"/><g transform="translate(40.692)" opacity="0.1"><path d="M319.783,88.64h-2.566L317.345,0h2.437Z" transform="translate(-317.217)" fill="#fff"/></g><circle cx="1.668" cy="1.668" r="1.668" transform="translate(36.303 42.981)" opacity="0.1"/><circle cx="1.668" cy="1.668" r="1.668" transform="translate(36.303 42.725)" fill="#535461"/><line y2="84.798" transform="translate(6.776 2.066)" fill="none" stroke="#000" stroke-miterlimit="10" stroke-width="2" opacity="0.1"/><line y2="85.568" transform="translate(14.087 1.553)" fill="none" stroke="#000" stroke-miterlimit="10" stroke-width="2" opacity="0.1"/><line y2="86.446" transform="translate(21.399 1.168)" fill="none" stroke="#000" stroke-miterlimit="10" stroke-width="2" opacity="0.1"/><line y2="87.364" transform="translate(28.711 0.784)" fill="none" stroke="#000" stroke-miterlimit="10" stroke-width="2" opacity="0.1"/><line y2="87.857" transform="translate(36.023 0.399)" fill="none" stroke="#000" stroke-miterlimit="10" stroke-width="2" opacity="0.1"/><ellipse cx="5.067" cy="4.746" rx="5.067" ry="4.746" transform="translate(54.354 7.482)" fill="#2f2e41"/><path d="M645.469,425.939l-1.283,1.8s-6.157,1.283-3.848,3.207,5.644-1.8,5.644-1.8l1.8-2.309Z" transform="translate(-600.801 -384.143)" fill="#ffb8b8"/><path d="M685.485,266.939s-1.668,0-2.052,2.309-.77,10.006-.77,10.006-5.388,7.055-4.49,7.953,1.924,2.566,2.566,2.309,6.157-7.825,6.157-7.825Z" transform="translate(-634.145 -245.539)" fill="#e43f6f"/><path d="M685.485,266.939s-1.668,0-2.052,2.309-.77,10.006-.77,10.006-5.388,7.055-4.49,7.953,1.924,2.566,2.566,2.309,6.157-7.825,6.157-7.825Z" transform="translate(-634.145 -245.539)" opacity="0.1"/><path d="M756.995,215.939s-.128,5-1.668,5.259-1.026,1.924-1.026,1.924,5,2.95,8.338,0l.641-1.539s-2.309-1.668-1.283-3.977Z" transform="translate(-700.525 -201.081)" fill="#ffb8b8"/><path d="M672.322,455.939s-7.568,14.111-4.746,18.472,7.055,13.341,7.7,13.341,4.233-1.8,3.977-2.95-4.1-9.749-5.131-10.519-.513-2.822-.385-2.95,4.362-6.927,4.362-6.927-.128,10.775.385,12.443-.128,13.6.513,14.111,3.592,1.411,4.1.641,2.052-12.443,1.026-15.137l1.924-18.472Z" transform="translate(-624.446 -410.295)" fill="#2f2e41"/><path d="M723.776,722.939l-3.207,5.9s-4.618,3.335-1.411,3.848a7.574,7.574,0,0,0,5.131-.77l2.822-2.052v-5.9Z" transform="translate(-668.973 -643.044)" fill="#2f2e41"/><path d="M728.859,681.7l1.668,3.977s.641,1.668,0,2.053-2.437,2.694-1.283,2.95a3.758,3.758,0,0,0,.7.07,7.128,7.128,0,0,0,5.182-2.109l1.04-1.04s-3.562-8.2-3.513-8.142S728.859,681.7,728.859,681.7Z" transform="translate(-678.418 -605.145)" fill="#2f2e41"/><circle cx="4.361" cy="4.361" r="4.361" transform="translate(55.316 9.213)" fill="#ffb8b8"/><path d="M719.186,253.385l-1.347,1.347s-4.1,1.539-6.029,0a12.916,12.916,0,0,1,.706-1.347c0,.128-5.58.962-6.093,3.271s.385,6.286.385,6.286-3.592,16.933-2.181,17.318,14.624,3.592,14.5,1.155,1.026-12.443,1.026-12.443l4.49-8.595s-.641-2.822-2.181-3.72A14.6,14.6,0,0,1,719.186,253.385Z" transform="translate(-657.008 -233.717)" fill="#e43f6f"/><path d="M737.073,448.939l-1.668,1.026s-6.414,4.361-3.079,5.131,5.259-3.079,5.259-3.079l1.283-1.539Z" transform="translate(-680.602 -404.193)" fill="#ffb8b8"/><path d="M775.283,301.939l1.154,1.155s.77,10.775-.77,12.956-8.595,8.082-8.98,7.7-2.822-2.309-2.309-2.566,7.335-7.385,7.335-7.385l-.536-9.933Z" transform="translate(-709.32 -276.049)" opacity="0.1"/><path d="M779.283,298.939l1.154,1.155s.77,10.775-.77,12.956-8.595,8.082-8.979,7.7-2.822-2.309-2.309-2.566,7.335-7.385,7.335-7.385l-.537-9.933Z" transform="translate(-712.806 -273.434)" fill="#e43f6f"/><path d="M757.946,155.1a4.456,4.456,0,0,0-3.5.607l1.078.27s-1.617.135-1.819,2.291h.741s-.472,1.887,0,2.426l.3-.573.876,1.752.2-.876.4.135.27-1.415s.674,1.011,1.213,1.078v-.876s1.483,1.685,1.954,1.617l-.674-.943.943.2-.4-.674,2.426.674-.539-.674,1.685.539.809.337s1.146-2.628-.472-4.448A4.762,4.762,0,0,0,757.946,155.1Z" transform="translate(-700.073 -147.723)" fill="#2f2e41"/></svg>