<svg xmlns="http://www.w3.org/2000/svg" width="150" height="143.544" viewBox="0 0 150 143.544"><g transform="translate(0 0.039)"><path d="M249.033,187.633a.228.228,0,0,1-.048-.094A71.783,71.783,0,0,1,346.879,104.6a.229.229,0,0,1-.179.421,71.33,71.33,0,0,0-97.27,82.4.229.229,0,0,1-.4.2Z" transform="translate(-244.126 -98.903)" fill="#e6e6e6"/><path d="M461.582,448.2a.229.229,0,0,1,.263-.36,71.017,71.017,0,0,0,73.839-11.482c20.906-17.809,29.784-45.185,23.169-71.444a.229.229,0,1,1,.444-.112,70.845,70.845,0,0,1-1.176,38.7,72.155,72.155,0,0,1-96.454,44.756A.226.226,0,0,1,461.582,448.2Z" transform="translate(-414.831 -310.344)" fill="#e6e6e6"/><path d="M435.7,433.339a.229.229,0,0,1,.026-.323L543.862,340.9a.229.229,0,1,1,.3.348L436.024,433.365a.229.229,0,0,1-.323-.026Z" transform="translate(-394.24 -291.424)" fill="#e6e6e6"/><path d="M233.123,195.532a.229.229,0,0,1,.026-.323l108.136-92.116a.229.229,0,0,1,.3.348L233.446,195.558A.229.229,0,0,1,233.123,195.532Z" transform="translate(-233.069 -102.224)" fill="#e6e6e6"/><path d="M435.7,433.339a.229.229,0,0,1,.026-.323L543.862,340.9a.229.229,0,1,1,.3.348L436.024,433.365a.229.229,0,0,1-.323-.026Z" transform="translate(-394.24 -291.424)" fill="#e6e6e6"/><path d="M440.233,281.3H398.381v-.219a.643.643,0,0,0-.643-.643h-17.69a.643.643,0,0,0-.643.643v.219H337.38a2.831,2.831,0,0,0-2.831,2.831v57.308a2.831,2.831,0,0,0,2.831,2.831H440.233a2.831,2.831,0,0,0,2.831-2.831V284.127A2.831,2.831,0,0,0,440.233,281.3Z" transform="translate(-313.807 -243.36)" fill="#3f3d56"/><path d="M358.383,314.131a.265.265,0,0,0-.265.265v54.358a.265.265,0,0,0,.265.265h98.351a.265.265,0,0,0,.265-.265V314.4a.265.265,0,0,0-.265-.265Z" transform="translate(-332.558 -270.17)" fill="#e43f6f"/><circle cx="1.035" cy="1.035" r="1.035" transform="translate(73.878 39.316)" fill="#e43f6f"/><path d="M424.468,569.48h-9.85v-1.017c0-.056-.063-.1-.141-.1H411.1c-.078,0-.141.045-.141.1v1.017h-2.111v-1.017c0-.056-.063-.1-.141-.1h-3.377c-.078,0-.141.045-.141.1v1.017H403.08v-1.017c0-.056-.063-.1-.141-.1h-3.377c-.078,0-.141.045-.141.1v1.017h-2.111v-1.017c0-.056-.063-.1-.141-.1h-3.377c-.078,0-.141.045-.141.1v1.017h-2.111v-1.017c0-.056-.063-.1-.141-.1h-3.377c-.078,0-.141.045-.141.1v1.017h-2.111v-1.017c0-.056-.063-.1-.141-.1h-3.377c-.078,0-.141.045-.141.1v1.017H380v-1.017c0-.056-.063-.1-.141-.1H353.41c-.078,0-.141.045-.141.1v1.017h-2.111v-1.017c0-.056-.063-.1-.141-.1h-3.377c-.078,0-.141.045-.141.1v1.017h-2.111v-1.017c0-.056-.063-.1-.141-.1h-3.377c-.078,0-.141.045-.141.1v1.017H339.62v-1.017c0-.056-.063-.1-.141-.1H336.1c-.078,0-.141.045-.141.1v1.017h-2.111v-1.017c0-.056-.063-.1-.141-.1h-3.377c-.078,0-.141.045-.141.1v1.017h-2.111v-1.017c0-.056-.063-.1-.141-.1h-3.377c-.078,0-.141.045-.141.1v1.017h-2.111v-1.017c0-.056-.063-.1-.141-.1H318.8c-.078,0-.141.045-.141.1v1.017h-6.473c-1.865,0-3.377,1.087-3.377,2.428v1.1c0,1.341,1.512,2.428,3.377,2.428H424.468c1.865,0,3.377-1.087,3.377-2.428v-1.1C427.844,570.567,426.332,569.48,424.468,569.48Z" transform="translate(-293.325 -472.436)" fill="#3f3d56"/><path d="M429.933,424.235h-29.07a.229.229,0,1,1,0-.458h29.07a.229.229,0,1,1,0,.458Z" transform="translate(-366.384 -357.405)" fill="#f2f2f2"/><path d="M429.933,448.872h-29.07a.229.229,0,1,1,0-.458h29.07a.229.229,0,1,1,0,.458Z" transform="translate(-366.384 -377.006)" fill="#f2f2f2"/><path d="M429.933,473.509h-29.07a.229.229,0,1,1,0-.458h29.07a.229.229,0,1,1,0,.458Z" transform="translate(-366.384 -396.607)" fill="#f2f2f2"/><rect width="37.311" height="35.937" rx="3.36" transform="translate(76.253 53.669)" fill="#fff"/><path d="M642.642,420.887a9.2,9.2,0,0,1,18.049-1.94c.111,0,.223-.008.335-.008a3.611,3.611,0,0,1,1.127.192c4.576,1.5,3.371,8.334-1.445,8.334H648.872a6.222,6.222,0,0,1-6.236-6.442Q642.638,420.955,642.642,420.887Z" transform="translate(-558.918 -348.2)" fill="#e43f6f"/><path d="M448.2,340.414v-3.765h-2.027v3.765h-1.619l1.316,2.28,1.316,2.28,1.316-2.28,1.316-2.28Z" transform="translate(-353.692 -267.87)" fill="#fff"/></g></svg>