<svg xmlns="http://www.w3.org/2000/svg" width="138.609" height="110.951" viewBox="0 0 138.609 110.951"><path d="M381.445,260.441a40.594,40.594,0,1,1,28.7-11.89A40.594,40.594,0,0,1,381.445,260.441Zm0-80.876a40.282,40.282,0,1,0,40.282,40.282,40.327,40.327,0,0,0-40.282-40.282Z" transform="translate(-311.994 -166.036)" fill="#ccc"/><rect width="40.896" height="30.438" transform="translate(84.524 59.597) rotate(90)" fill="#2f2e41"/><rect width="40.896" height="16.234" transform="translate(48.857 58.348)" fill="#3f3d56"/><rect width="40.896" height="16.234" transform="translate(48.857 76.455)" fill="#3f3d56"/><rect width="40.896" height="16.234" transform="translate(48.857 94.561)" fill="#3f3d56"/><rect width="40.896" height="2.497" transform="translate(48.857 65.231)" fill="#e43f6f"/><rect width="40.896" height="2.497" transform="translate(48.857 83.338)" fill="#e43f6f"/><rect width="40.896" height="2.497" transform="translate(48.857 101.445)" fill="#e43f6f"/><circle cx="0.937" cy="0.937" r="0.937" transform="translate(80.855 59.753)" fill="#e43f6f"/><circle cx="0.937" cy="0.937" r="0.937" transform="translate(84.133 59.753)" fill="#e43f6f"/><circle cx="0.937" cy="0.937" r="0.937" transform="translate(87.411 59.753)" fill="#e43f6f"/><circle cx="0.937" cy="0.937" r="0.937" transform="translate(80.855 77.547)" fill="#e43f6f"/><circle cx="0.937" cy="0.937" r="0.937" transform="translate(84.133 77.547)" fill="#e43f6f"/><circle cx="0.937" cy="0.937" r="0.937" transform="translate(87.411 77.547)" fill="#e43f6f"/><circle cx="0.937" cy="0.937" r="0.937" transform="translate(80.855 95.342)" fill="#e43f6f"/><circle cx="0.937" cy="0.937" r="0.937" transform="translate(84.133 95.342)" fill="#e43f6f"/><circle cx="0.937" cy="0.937" r="0.937" transform="translate(87.411 95.342)" fill="#e43f6f"/><rect width="138.609" height="0.312" transform="translate(0 110.639)" fill="#3f3d56"/><path d="M312.113,353.279v29.032a2.291,2.291,0,0,1-2.29,2.29H298.541a2.291,2.291,0,0,1-2.291-2.291V353.279a2.291,2.291,0,0,1,2.291-2.29h1.369a1.089,1.089,0,0,0,1.008,1.5h6.432a1.089,1.089,0,0,0,1.008-1.5h1.466a2.291,2.291,0,0,1,2.29,2.29Z" transform="translate(-274.358 -310.968)" fill="#e6e6e6"/><rect width="14.36" height="19.98" transform="translate(22.643 45.565)" fill="#fff"/><rect width="5.732" height="0.328" transform="translate(26.721 59.303)" fill="#e6e6e6"/><rect width="8.869" height="0.328" transform="translate(26.715 60.506)" fill="#e43f6f"/><rect width="6.96" height="0.328" transform="translate(26.715 61.639)" fill="#e6e6e6"/><rect width="4.094" height="0.328" transform="translate(26.715 62.772)" fill="#e6e6e6"/><rect width="6.141" height="0.328" transform="translate(26.715 63.905)" fill="#e6e6e6"/><rect width="0.655" height="0.655" transform="translate(24.121 59.209)" fill="#e6e6e6"/><rect width="0.655" height="0.655" transform="translate(24.121 60.342)" fill="#e43f6f"/><rect width="0.655" height="0.655" transform="translate(24.121 61.475)" fill="#e6e6e6"/><rect width="0.655" height="0.655" transform="translate(24.121 62.608)" fill="#e6e6e6"/><rect width="0.655" height="0.655" transform="translate(24.121 63.741)" fill="#e6e6e6"/><rect width="5.775" height="5.775" transform="translate(26.965 48.062)" fill="#e6e6e6"/><rect width="38.38" height="24.581" transform="translate(50.123 0.022)" fill="#e6e6e6"/><rect width="31.821" height="12.025" transform="translate(53.016 6.899)" fill="#fff"/><rect width="7.637" height="0.436" transform="translate(58.814 8.982)" fill="#e6e6e6"/><rect width="11.817" height="0.436" transform="translate(58.806 10.584)" fill="#e43f6f"/><rect width="9.274" height="0.436" transform="translate(58.806 12.094)" fill="#e6e6e6"/><rect width="5.455" height="0.436" transform="translate(58.806 13.603)" fill="#e6e6e6"/><rect width="8.183" height="0.436" transform="translate(58.806 15.113)" fill="#e6e6e6"/><rect width="0.873" height="0.873" transform="translate(55.35 8.856)" fill="#e6e6e6"/><rect width="0.873" height="0.873" transform="translate(55.35 10.366)" fill="#e43f6f"/><rect width="0.873" height="0.873" transform="translate(55.35 11.876)" fill="#e6e6e6"/><rect width="0.873" height="0.873" transform="translate(55.35 13.385)" fill="#e6e6e6"/><rect width="0.873" height="0.873" transform="translate(55.35 14.895)" fill="#e6e6e6"/><rect width="7.814" height="7.814" transform="translate(75.462 8.405)" fill="#e6e6e6"/><rect width="38.38" height="1.631" transform="translate(50.106)" fill="#e43f6f"/><circle cx="0.327" cy="0.327" r="0.327" transform="translate(50.991 0.506)" fill="#fff"/><circle cx="0.327" cy="0.327" r="0.327" transform="translate(52.138 0.506)" fill="#fff"/><circle cx="0.327" cy="0.327" r="0.327" transform="translate(53.285 0.506)" fill="#fff"/><rect width="9.365" height="4.839" transform="translate(104.839 46.017)" fill="#e6e6e6"/><rect width="9.365" height="4.839" transform="translate(104.839 63.343)" fill="#e6e6e6"/><circle cx="7.805" cy="7.805" r="7.805" transform="translate(101.717 49.295)" fill="#e6e6e6"/><circle cx="6.088" cy="6.088" r="6.088" transform="translate(103.434 51.012)" fill="#fff"/><rect width="4.721" height="0.27" transform="translate(107.528 55.432)" fill="#e2e2e2"/><rect width="7.305" height="0.27" transform="translate(107.523 56.422)" fill="#e43f6f"/><rect width="5.733" height="0.27" transform="translate(107.523 57.355)" fill="#e2e2e2"/><rect width="3.372" height="0.27" transform="translate(107.523 58.289)" fill="#e2e2e2"/><rect width="5.059" height="0.27" transform="translate(107.523 59.222)" fill="#e2e2e2"/><rect width="0.54" height="0.54" transform="translate(105.387 55.354)" fill="#e2e2e2"/><rect width="0.54" height="0.54" transform="translate(105.387 56.287)" fill="#e43f6f"/><rect width="0.54" height="0.54" transform="translate(105.387 57.221)" fill="#e2e2e2"/><rect width="0.54" height="0.54" transform="translate(105.387 58.154)" fill="#e2e2e2"/><rect width="0.54" height="0.54" transform="translate(105.387 59.087)" fill="#e2e2e2"/></svg>