<svg xmlns="http://www.w3.org/2000/svg" width="155.017" height="88.991" viewBox="0 0 155.017 88.991"><g transform="translate(0.001 0.001)"><path d="M140.576,211.415a2.082,2.082,0,0,1-2.653-2.447c1.212-5.04,5.818-17.367,22.6-22.551a33.227,33.227,0,0,1,20.714-.115,33.634,33.634,0,0,1,10.549,5.9,2.065,2.065,0,0,1,.338,2.9l-.013.016a2.114,2.114,0,0,1-2.945.334c-3.063-2.413-12.358-9.745-27.424-5.092-14.71,4.544-18.706,15.173-19.742,19.522a2.052,2.052,0,0,1-1.425,1.529Z" transform="translate(-137.872 -184.704)" fill="#e43f6f"/><path d="M217.559,279.347a2.067,2.067,0,0,1-.515.1c-13.112.706-21.454-10.187-21.8-10.641l-.064-.1c-.209-.324-5.257-8-3.035-14.1,1.021-2.788,3.278-4.746,6.728-5.811,3.209-.991,5.835-.7,8.07.9a16.219,16.219,0,0,1,4.146,5.112c2.368,3.888,3.819,5.866,8.319,4.725a4.786,4.786,0,0,0,3.32-3.25c1.135-3.275.129-7.739-2.532-11.117-3.438-4.382-13.059-11.66-24.929-7.993a21.787,21.787,0,0,0-12,8.9,22.871,22.871,0,0,0-3.669,11.99c-.046,7.6,6.186,17.609,6.245,17.7a2.061,2.061,0,0,1-.655,2.841l-.019.012a2.111,2.111,0,0,1-2.891-.647c-.281-.457-6.936-11.125-6.883-19.914A26.412,26.412,0,0,1,212,234.075a28.993,28.993,0,0,1,11.488,8.49c3.539,4.506,4.785,10.405,3.174,15.009a8.9,8.9,0,0,1-6.252,5.944c-7.7,1.959-10.717-2.973-12.918-6.571-2.259-3.688-3.509-5.418-7.414-4.211-2.144.662-3.465,1.724-4.02,3.248-.756,2.084-.04,4.756.695,6.629l.023.059a16.931,16.931,0,0,0,4.3,6.248c3.021,2.79,8.629,6.767,15.777,6.384a2.064,2.064,0,0,1,2.188,1.932v.02a2.11,2.11,0,0,1-1.485,2.092Z" transform="translate(-169.111 -224.087)" fill="#e43f6f"/><path d="M242.189,322.579a2.116,2.116,0,0,1-1.655-.173,33.385,33.385,0,0,1-14.276-15.5l-.013-.043c-2.06-4.605-3.3-11.641-.565-17.588,2.02-4.388,5.811-7.472,11.249-9.152a16.691,16.691,0,0,1,17.337,4.21,25.689,25.689,0,0,1,5.364,7.6,2.1,2.1,0,1,1-3.863,1.644,21.512,21.512,0,0,0-4.523-6.333,12.535,12.535,0,0,0-13.106-3.153c-4.246,1.311-7.169,3.63-8.665,6.892-2.158,4.7-1.047,10.558.565,14.166a29.306,29.306,0,0,0,12.572,13.661,2.055,2.055,0,0,1,.781,2.8l-.016.028A2.108,2.108,0,0,1,242.189,322.579Z" transform="translate(-209.64 -263.403)" fill="#e43f6f"/><circle cx="2.675" cy="2.675" r="2.675" transform="translate(30.555 33.178)" fill="#e6e6e6"/><path d="M610.863,526.541a1.107,1.107,0,0,1-.165-.012,1.083,1.083,0,0,1-.715-.431l-1.469-1.992a1.09,1.09,0,0,1,.23-1.524l12.562-9.265a1.09,1.09,0,0,1,1.524.23l1.469,1.992a1.09,1.09,0,0,1-.23,1.525l-12.562,9.265a1.083,1.083,0,0,1-.645.213Z" transform="translate(-529.4 -458.024)" fill="#e43f6f"/><path d="M666.253,495.87l-1.923-2.607a1.006,1.006,0,0,1,.213-1.407l7.356-6.445a1.006,1.006,0,0,1,1.407.213l3.516,4.2a1.006,1.006,0,0,1-.213,1.407l-8.95,4.852A1.006,1.006,0,0,1,666.253,495.87Z" transform="translate(-575.869 -434.812)" fill="#2f2e41"/><path d="M729.552,601.754h-2.475a1.092,1.092,0,0,1-1.09-1.09V580.031a1.092,1.092,0,0,1,1.09-1.09h2.475a1.091,1.091,0,0,1,1.09,1.09v20.632A1.091,1.091,0,0,1,729.552,601.754Z" transform="translate(-627.348 -512.82)" fill="#e43f6f"/><path d="M758.744,601.754h-2.476a1.092,1.092,0,0,1-1.09-1.09V580.031a1.092,1.092,0,0,1,1.09-1.09h2.476a1.091,1.091,0,0,1,1.09,1.09v20.632A1.091,1.091,0,0,1,758.744,601.754Z" transform="translate(-651.643 -512.82)" fill="#e43f6f"/><rect width="54.347" height="0.376" transform="translate(75.964 88.615)" fill="#3f3d56"/><circle cx="8.976" cy="8.976" r="8.976" transform="translate(93.369 23.853)" fill="#e43f6f"/><path d="M715.777,479.531l-5.2-23.086V450.99a1.342,1.342,0,0,0-1.342-1.342h-4.98v-3.508a1.342,1.342,0,0,0-1.342-1.342h-2.684a1.342,1.342,0,0,0-1.342,1.342v3.508h-4.98a1.342,1.342,0,0,0-1.342,1.342v28.695a1.335,1.335,0,0,0,.1.5,1.314,1.314,0,0,0,1.237,1.041l21.036.7A1.347,1.347,0,0,0,715.777,479.531Z" transform="translate(-599.535 -401.176)" fill="#2f2e41"/><path d="M737.116,371.124a3.087,3.087,0,0,1-1.776-.423,1.364,1.364,0,0,1-.537-1.018.918.918,0,0,1,.312-.754,1.185,1.185,0,0,1,1.12-.161l-.453-3.309.332-.046.532,3.89-.277-.127a1.015,1.015,0,0,0-1.038.009.589.589,0,0,0-.193.486,1.03,1.03,0,0,0,.4.759,2.775,2.775,0,0,0,1.588.359Z" transform="translate(-634.684 -335.105)" fill="#2f2e41"/><rect width="1.807" height="0.335" transform="translate(97.648 30.639)" fill="#2f2e41"/><rect width="1.807" height="0.335" transform="translate(103.351 30.639)" fill="#2f2e41"/><path d="M687.065,283.751a5.287,5.287,0,0,1-2.347-4.612,6.648,6.648,0,0,1,2.35-5.078,10.425,10.425,0,0,1,5.966-2.292,21.227,21.227,0,0,1,7.622,1.065c2.643.768,5.234,1.734,7.94,2.272a16.312,16.312,0,0,0,7.844-.181c2.386-.7,4.808-1.927,7.357-1.714a6.682,6.682,0,0,1,5,3.459c2.233,3.593,2.409,8.416,5.62,11.408a10.82,10.82,0,0,0,5,2.318,21.523,21.523,0,0,1,5.173,1.539,4.469,4.469,0,0,1,2.471,4.588,8.7,8.7,0,0,1-3.636,5.458,15.385,15.385,0,0,1-12.981,2.537c-4.635-1.23-8.4-4.821-13.338-5.046-2.755-.126-5.467.625-8.221.5a7.818,7.818,0,0,1-5.293-2.211,4.144,4.144,0,0,1-1.133-2.438c-.03-.32-.534-.323-.5,0a5.48,5.48,0,0,0,3.427,4.3,9.452,9.452,0,0,0,2.932.807,18.671,18.671,0,0,0,4.064-.139,35.34,35.34,0,0,1,4.268-.33,12.2,12.2,0,0,1,3.83.681,71.9,71.9,0,0,1,6.757,3.206,16.551,16.551,0,0,0,6.9,1.66,16.136,16.136,0,0,0,6.771-1.452,12.851,12.851,0,0,0,5.362-4.295c1.222-1.8,1.863-4.158.764-6.172a6.58,6.58,0,0,0-4.162-2.869c-1.837-.545-3.757-.794-5.555-1.473a7.648,7.648,0,0,1-2.545-1.526,9.563,9.563,0,0,1-1.934-2.669c-1.029-2.008-1.555-4.214-2.422-6.288a10.9,10.9,0,0,0-3.672-5.042,6.247,6.247,0,0,0-3.2-1.032,11.133,11.133,0,0,0-3.712.6c-1.268.386-2.506.868-3.783,1.223a13.7,13.7,0,0,1-4.138.494,31.377,31.377,0,0,1-8.364-1.807c-4.763-1.507-10.059-3.12-14.847-.8a7.8,7.8,0,0,0-4.112,4.417,6.942,6.942,0,0,0,.4,5.465,5.108,5.108,0,0,0,1.822,1.9.252.252,0,0,0,.254-.434Z" transform="translate(-592.58 -256.723)" fill="#2f2e41"/><path d="M766.267,531.523h-2.475a1.092,1.092,0,0,1-1.09-1.09v-14.3a1.092,1.092,0,0,1,1.09-1.09h2.476a1.091,1.091,0,0,1,1.09,1.09v14.3A1.091,1.091,0,0,1,766.267,531.523Z" transform="translate(-657.905 -459.64)" fill="#e43f6f"/><path d="M726.974,331.044a2.136,2.136,0,0,0,3.633,1.208l-.421-.111a3.557,3.557,0,0,0,6.231.737c.19-.263-.247-.515-.434-.254a3.054,3.054,0,0,1-5.311-.617.255.255,0,0,0-.421-.111,1.637,1.637,0,0,1-2.792-.986c-.045-.319-.53-.183-.485.134Z" transform="translate(-628.167 -306.237)" fill="#2f2e41"/><path d="M603.112,536.455l-.052.036-.974-1.437a1,1,0,0,0-1.4-.268h0l-3.044,2.064a1,1,0,0,0-.268,1.4l5.344,7.883a1,1,0,0,0,1.4.268h0l3.044-2.064a1,1,0,0,0,.268-1.4h0l-3.677-5.423.052-.036Z" transform="translate(-520.166 -475.926)" fill="#3f3d56"/><path d="M603.084,537.249l-.385.261a.345.345,0,0,1,0,.573l-1.688,1.144a.345.345,0,0,1-.531-.214l-.359.244a.726.726,0,0,0-.194,1.009h0l5.165,7.618a.726.726,0,0,0,1.009.194h0l2.961-2.007a.726.726,0,0,0,.194-1.009h0l-5.165-7.618a.726.726,0,0,0-1.009-.194h0Z" transform="translate(-522.329 -478.016)" fill="#fff"/></g></svg>