<svg xmlns="http://www.w3.org/2000/svg" width="202.227" height="62.419" viewBox="0 0 202.227 62.419"><g transform="translate(0 0.816)"><path d="M2104.739,1359.065c-.568-2.592-.453-4.555,2.063-6.3,9.394-6.527,18.617-13.3,27.906-19.979a5.422,5.422,0,0,1,.632-.306c2.933,2.107,5.954,4.272,8.971,6.442,6.719,4.832,13.461,9.633,20.122,14.545a3.971,3.971,0,0,1,1.56,2.663c.1,12.257.065,24.515.058,36.772,0,.316-.07.631-.132,1.154h-26.1c.156-9.779-2.867-18.344-9.877-25.291C2123,1361.875,2114.509,1358.862,2104.739,1359.065Zm57.023,30.971c0-10.91.031-21.539-.066-32.166a3.493,3.493,0,0,0-1.48-2.219c-5.748-4.236-11.554-8.392-17.35-12.562-2.545-1.831-5.108-3.638-7.663-5.456l-23.939,17.261c19.373,4.115,30.289,15.728,32.918,35.142Z" transform="translate(-2104.458 -1332.477)" fill="#e32823"/><path d="M2104.816,1404.608v-3.92c14.479-2.181,30.225,11.5,28.509,28.254h-3.992c.261-6.841-1.748-12.91-6.694-17.8C2117.754,1406.3,2111.771,1404.285,2104.816,1404.608Z" transform="translate(-2104.642 -1367.34)" fill="#e32823"/><path d="M2104.76,1426.5v-4.054c9.856-1.948,19.3,7.345,17.892,17.637h-4.1a12.07,12.07,0,0,0-3.309-10.145A11.857,11.857,0,0,0,2104.76,1426.5Z" transform="translate(-2104.613 -1378.48)" fill="#e32823"/></g><text transform="translate(72.227 29)" fill="#747170" font-size="29" font-family="Lato-Bold, Lato" font-weight="700"><tspan x="0" y="0">Intelligent</tspan><tspan font-family="Lato-Light, Lato" font-weight="300"><tspan x="0" y="26">Solutions</tspan></tspan></text></svg>