<svg xmlns="http://www.w3.org/2000/svg" xmlns:xlink="http://www.w3.org/1999/xlink" width="149.099" height="119.546" viewBox="0 0 149.099 119.546"><defs><linearGradient id="a" x1="7991.716" y1="1" x2="7991.716" gradientUnits="objectBoundingBox"><stop offset="0" stop-color="gray" stop-opacity="0.251"/><stop offset="0.54" stop-color="gray" stop-opacity="0.122"/><stop offset="1" stop-color="gray" stop-opacity="0.102"/></linearGradient><linearGradient id="b" x1="3.146" y1="1" x2="3.146" y2="0" xlink:href="#a"/></defs><g transform="translate(0.033 -0.031)"><path d="M839.522,520.505a1.686,1.686,0,0,0-2.2.2,1.725,1.725,0,0,0,.068,2.4l2.1,2.092a.35.35,0,0,0,.5,0l2.1-2.106a1.725,1.725,0,0,0,.056-2.4,1.692,1.692,0,0,0-2.2-.192A.353.353,0,0,1,839.522,520.505Z" transform="translate(-725.644 -449.495)" fill="#6c63ff"/><path d="M247.522,212.505a1.686,1.686,0,0,0-2.2.2,1.725,1.725,0,0,0,.068,2.4l2.1,2.092a.35.35,0,0,0,.5,0l2.1-2.106a1.725,1.725,0,0,0,.056-2.4,1.692,1.692,0,0,0-2.2-.192A.353.353,0,0,1,247.522,212.505Z" transform="translate(-225.376 -189.22)" fill="#6c63ff"/><path d="M121.522,487.505a1.686,1.686,0,0,0-2.2.2,1.725,1.725,0,0,0,.068,2.4l2.1,2.092a.35.35,0,0,0,.5,0l2.1-2.106a1.725,1.725,0,0,0,.056-2.4,1.692,1.692,0,0,0-2.2-.192A.353.353,0,0,1,121.522,487.505Z" transform="translate(-118.9 -421.608)" fill="#6c63ff"/><path d="M838.522,185.505a1.686,1.686,0,0,0-2.2.2,1.725,1.725,0,0,0,.068,2.4l2.1,2.092a.35.35,0,0,0,.5,0l2.1-2.106a1.725,1.725,0,0,0,.056-2.4,1.692,1.692,0,0,0-2.2-.192A.353.353,0,0,1,838.522,185.505Z" transform="translate(-724.799 -166.404)" fill="#6c63ff"/><rect width="0.465" height="2.634" transform="translate(100.847 11.481)" fill="#3ad29f"/><rect width="0.465" height="2.634" transform="translate(102.396 12.565) rotate(90)" fill="#3ad29f"/><rect width="0.465" height="2.634" transform="translate(121.3 47.275)" fill="#3ad29f"/><rect width="0.465" height="2.634" transform="translate(122.85 48.359) rotate(90)" fill="#3ad29f"/><rect width="0.465" height="2.634" transform="translate(29.878 79.97)" fill="#3ad29f"/><rect width="0.465" height="2.634" transform="translate(31.428 81.054) rotate(90)" fill="#3ad29f"/><rect width="0.465" height="2.634" transform="translate(19.186 11.481)" fill="#3ad29f"/><rect width="0.465" height="2.634" transform="translate(20.736 12.565) rotate(90)" fill="#3ad29f"/><rect width="0.465" height="2.634" transform="translate(39.64 15.664)" fill="#3ad29f"/><rect width="0.465" height="2.634" transform="translate(41.19 16.749) rotate(90)" fill="#3ad29f"/><path d="M301.616,345.246a.569.569,0,0,1-.318-.688.285.285,0,0,0,.012-.064h0a.285.285,0,0,0-.513-.189h0a.282.282,0,0,0-.031.056.57.57,0,0,1-.688.318.308.308,0,0,0-.064-.012h0a.285.285,0,0,0-.189.513h0a.244.244,0,0,0,.056.031.572.572,0,0,1,.318.69.209.209,0,0,0-.012.062h0a.285.285,0,0,0,.513.189h0a.322.322,0,0,0,.031-.056.569.569,0,0,1,.688-.31.289.289,0,0,0,.064.012h0a.287.287,0,0,0,.189-.514h0A.322.322,0,0,0,301.616,345.246Z" transform="translate(-271.722 -300.773)" fill="#f55f44"/><path d="M868.658,65.246a.569.569,0,0,1-.31-.688.285.285,0,0,0,.012-.064h0a.285.285,0,0,0-.513-.189h0a.282.282,0,0,0-.031.056.57.57,0,0,1-.688.31.308.308,0,0,0-.063-.012h0a.285.285,0,0,0-.189.513h0a.244.244,0,0,0,.056.031.572.572,0,0,1,.318.69.209.209,0,0,0-.012.062h0a.285.285,0,0,0,.513.189h0a.324.324,0,0,0,.031-.056.569.569,0,0,1,.688-.31.289.289,0,0,0,.064.012h0a.287.287,0,0,0,.189-.514h0A.321.321,0,0,0,868.658,65.246Z" transform="translate(-750.906 -64.16)" fill="#3ad29f"/><path d="M516.658,81.246a.569.569,0,0,1-.31-.688.285.285,0,0,0,.012-.064h0a.285.285,0,0,0-.513-.189h0a.279.279,0,0,0-.031.056.57.57,0,0,1-.688.31.31.31,0,0,0-.064-.012h0a.285.285,0,0,0-.189.513h0a.244.244,0,0,0,.056.031.572.572,0,0,1,.318.69.211.211,0,0,0-.012.062h0a.285.285,0,0,0,.513.189h0a.324.324,0,0,0,.031-.056.569.569,0,0,1,.688-.31.289.289,0,0,0,.064.012h0a.287.287,0,0,0,.189-.514h0A.321.321,0,0,0,516.658,81.246Z" transform="translate(-453.449 -77.681)" fill="#f55f44"/><path d="M331.616,455.246a.569.569,0,0,1-.318-.688.288.288,0,0,0,.012-.064h0a.285.285,0,0,0-.513-.189h0a.281.281,0,0,0-.031.056.57.57,0,0,1-.688.318.31.31,0,0,0-.064-.012h0a.285.285,0,0,0-.189.513h0a.244.244,0,0,0,.056.031.572.572,0,0,1,.318.69.21.21,0,0,0-.012.062h0a.285.285,0,0,0,.513.189h0a.322.322,0,0,0,.031-.056.569.569,0,0,1,.688-.31.289.289,0,0,0,.064.012h0a.287.287,0,0,0,.189-.514h0A.323.323,0,0,0,331.616,455.246Z" transform="translate(-297.073 -393.728)" fill="#f55f44"/><path d="M773.658,327.246a.569.569,0,0,1-.31-.688.285.285,0,0,0,.012-.064h0a.285.285,0,0,0-.513-.189h0a.279.279,0,0,0-.031.056.57.57,0,0,1-.688.318.309.309,0,0,0-.064-.012h0a.285.285,0,0,0-.189.513h0a.245.245,0,0,0,.056.031.572.572,0,0,1,.318.69.209.209,0,0,0-.012.062h0a.285.285,0,0,0,.513.189h0a.315.315,0,0,0,.031-.056.569.569,0,0,1,.688-.31.289.289,0,0,0,.064.012h0a.287.287,0,0,0,.189-.514h0A.323.323,0,0,0,773.658,327.246Z" transform="translate(-670.626 -285.562)" fill="#f55f44"/><path d="M1069.658,223.246a.569.569,0,0,1-.31-.688.282.282,0,0,0,.012-.064h0a.285.285,0,0,0-.513-.189h0a.279.279,0,0,0-.031.056.57.57,0,0,1-.688.318.309.309,0,0,0-.063-.012h0a.285.285,0,0,0-.189.513h0a.248.248,0,0,0,.056.031.572.572,0,0,1,.31.69.211.211,0,0,0-.012.062h0a.285.285,0,0,0,.513.189h0a.325.325,0,0,0,.031-.056.569.569,0,0,1,.688-.31.289.289,0,0,0,.063.012h0a.287.287,0,0,0,.189-.514h0A.323.323,0,0,0,1069.658,223.246Z" transform="translate(-920.76 -197.677)" fill="#f55f44"/><path d="M749.73,402.78l.025.077A.411.411,0,0,1,749.73,402.78Z" transform="translate(-652.009 -350.283)" fill="url(#a)"/><path d="M282.162,273.121c-.016-.022-.031-.043-.043-.065s-.017-.031-.025-.046a.659.659,0,0,1-.034-.065l-.019-.047c-.008-.022-.017-.045-.023-.067l-.012-.045a.388.388,0,0,0-.016-.068v-.26l.009-.077v-.029a.759.759,0,0,1,.019-.081v-.025a.664.664,0,0,1,.028-.084v-.02c0-.006.023-.059.036-.088v-.012c.014-.031.029-.062.045-.091h0l.054-.095h0a3.341,3.341,0,0,1,.775-.835,8.085,8.085,0,0,0,5.177-.136s3.815-1.907,3.542-1.362a1.673,1.673,0,0,0,.059.958,5,5,0,0,0,3.386-2.255l-2.083-2.245s8.46-4.776,9.409-7.227,5.578-9.4,5.578-9.4,1.5-5.45,4.224-6.675a100.6,100.6,0,0,0,8.606-12.058c-1.126-2.8-2.7-7.185-2.34-9.059.445-2.324-.017-6.744-.2-8.3-1.508,1.257-7.635,6.237-10.016,6.118a5.315,5.315,0,0,1-2.634-1.111,18.585,18.585,0,0,1-3.9-3.657c.277.026.505-.228.69-.652-2.275-2.479-6.987-7.555-7.5-7.658-.68-.136-4.359-6.541-2.315-7.9s5.721,3.542,5.857,4.494c.093.646,2.944,3.486,4.766,5.247v-.071l.27.135v-.135l4.7,2.354,4.015-5.487s1.085-5.857,3.815-6.818a11.257,11.257,0,0,0,4.7-3.882,2.8,2.8,0,0,1,.06.29c.138-.181.212-.29.212-.29a.21.21,0,0,0,.016.065,7.117,7.117,0,0,0,.155-2.564l-.039-.023c-.017-.105-.034-.206-.053-.3a6.818,6.818,0,0,1-2.749-8.433,15.368,15.368,0,0,0-2.557-1.156,7.485,7.485,0,0,1-3.073-2.324,2.707,2.707,0,0,1,1.424.029c.057-.629-.669-1.348-.1-1.827a1.745,1.745,0,0,1,1.5-.124,9.19,9.19,0,0,0,1.484.456,3.551,3.551,0,0,0,2.456-.818,6.379,6.379,0,0,1,2.16-1.278c1.748-.454,3.483.587,5.239,1.027,2.82.707,4.5,1.46,4.628,3.254a5.817,5.817,0,0,1,1,.846,3.719,3.719,0,0,1,1.2,2.027,5.479,5.479,0,0,1-.854,3.564c-.339.62-1.969,3.846-3.077,3.42a6.818,6.818,0,0,1-1.02.953c.036.372.087.747.155,1.122a2.5,2.5,0,0,0,.8.276,9.728,9.728,0,0,0,1.839.161,27.24,27.24,0,0,0,2.9-.177,24.4,24.4,0,0,1,2.819-.155,13.957,13.957,0,0,1,1.405.067h.073c.095.011.187.022.277.036h.043c.105.016.206.031.31.05h.033l.248.048.056.012c.087.019.17.039.253.06h0q.127.033.246.07l.04.012.194.06.042.016c.146.05.284.1.414.155l.04.017.155.07.029.014.183.085.016.008.155.077.039.019.155.079h.011l.194.1.116.06.054.028.155.081c1.362.682,14.576,4.224,16.89,11.312l-.046.043-.011.008-.053.048c.039.1.076.206.11.31,0,0-.225.2-.575.53.62,2.71,2.287,9.632,3.163,9.96,1.085.409,2.317,8.719-.544,8.446s-2.862-6.948-2.862-6.948a80.852,80.852,0,0,0-3.277-7.625,3.588,3.588,0,0,0-.545,1.058l.009.028a.182.182,0,0,1-.009-.026.753.753,0,0,0-.016.358c-.135-.4-.834-2.21-2.292-1.966-1.557.259-7.438-5.533-7.994-6.088.012.155.029.338.048.556h0v.008c.011.127.023.265.034.412v.046a.563.563,0,0,0,.008.113.235.235,0,0,1,0,.074l.009.115v.081l.009.115v.1c0,.034.009.112.012.169s.008.091.011.136,0,.065,0,.1l.009.136v.093a.749.749,0,0,0,.011.146.281.281,0,0,1,0,.1l.009.155v.09c0,.082.011.164.015.248v.033l.014.229v.079c0,.062.008.126.011.189v.09c0,.065.008.13.011.2v.081a1.521,1.521,0,0,0,.012.236v.045l.014.3v.017a1.964,1.964,0,0,0,.012.27v.077l.009.222v.39c0,.2.014.412.02.62v2.386c.009,2.972-.181,6-.849,7.723a8.5,8.5,0,0,0-.558,2.9,11.838,11.838,0,0,0,1.506,5.146h0l-.155-.05c.019.034.029.051.029.051l-.088-.028c.133.28.225.437.225.437s-.2-.064-.552-.167a14.456,14.456,0,0,1-.13,7.932s-.545,3-.136,4.088.818,9.809.818,9.809a1.861,1.861,0,0,0,2.315.409c1.5-.676,19.877-3,19.877-3s.043.076.115.208c.566-.177,1.381-.446,1.977-.7-.22-.31-.425-.488-.594-.465,0,0,.982-.474,2.052-.848h0l.2-.067h.008l.191-.062h.012l.183-.056h.02l.167-.046.034-.011.155-.04.04-.011.155-.034.043-.009.135-.028.051-.009.122-.02.057-.009.112-.012h.511l.074.015.05.011a.188.188,0,0,1,.062.023.384.384,0,0,1,.045.017.527.527,0,0,1,.059.033c.011,0,.023.012.033.02a.4.4,0,0,1,.074.07c.68.817,4.494,16.484,2.724,17.573-.053.033-.1.064-.155.091l-.062.036-.081.045-.077.042-.057.029-.084.04-.043.02-.087.037-.031.012c-.031.012-.062.025-.091.034h-.02l-.093.029h-.012c-.987.267-1.316-.648-2.513-2.606-1.173-1.92-2.679-4.339-4-5.234-.029.064-.057.13-.09.194,0,0-13.76,1.5-18.8,3.133s-8.987,3.813-12.261,0c-2.933-3.421-5.865-14.514-6.438-16.764h0c-.04-.155-.068-.274-.085-.338h0v-.05h0l-10.9,8.31-4.794,5.569s-6.663,9.4-7.895,9.53S300,273.457,300,273.457l-.208-.223c-.05.249-.087.479-.115.679a4.139,4.139,0,0,1-.377,3.243h0l-.017.034-.046.095-.025.05c-.016.029-.029.059-.045.087l-.023.043c-.016.031-.033.06-.048.09l-.023.043-.037.065-.019.033c-.016.029-.033.056-.046.082a.242.242,0,0,0-.02.034c-.011.015-.02.033-.029.048a.2.2,0,0,1-.017.026l-.036.059a.181.181,0,0,0-.014.023l-.023.034-.009.015-.023.036h0c0,.009-.009.014-.012.02h0s-14.305-3.409-16.076-4.494a1.794,1.794,0,0,1-.155-.105l-.045-.034c-.031-.025-.062-.048-.09-.073a.612.612,0,0,1-.046-.043c-.023-.022-.048-.043-.068-.065l-.042-.046-.054-.064Z" transform="translate(-256.746 -158.496)" fill="url(#b)"/><path d="M812.257,624.677s3.186-.93,3.318-1.328,2.789,7.3,2.789,7.3l-2.654,1.859s-2.789-1.591-4.246-1.326S812.257,624.677,812.257,624.677Z" transform="translate(-703.762 -536.662)" fill="#4c4c56"/><path d="M342.833,754.48s-.392,3.582-4.777,3.981,2.919,3.583,2.919,3.583l5.578.4a11.07,11.07,0,0,1,1.061-3.981C348.544,756.736,342.833,754.48,342.833,754.48Z" transform="translate(-302.94 -647.486)" fill="#4c4c56"/><path d="M408.048,477.817s2.529,3.852.8,9.953c0,0-.53,2.919-.132,3.981s.795,9.554.795,9.554a1.807,1.807,0,0,0,2.256.4c1.46-.663,19.369-2.919,19.369-2.919s2.919,5.042,1.326,8.095c0,0-13.4,1.46-18.311,3.051s-8.758,3.719-11.944,0-6.369-16.719-6.369-16.719L385.22,501.3l-4.649,5.44s-6.508,9.156-7.7,9.288-6.767,8.891-6.767,8.891l-6.768-7.3s8.228-4.649,9.156-7.033,5.44-9.155,5.44-9.155,1.46-5.309,4.114-6.508c0,0,9.554-11.411,10.483-16.719s15.923-2.789,15.923-2.789Z" transform="translate(-322.111 -411.164)" fill="#5f5d7e"/><path d="M299.905,775.454s-.93-2.123-.663-2.653-3.451,1.326-3.451,1.326a7.876,7.876,0,0,1-5.042.133s-1.99,1.458-.265,2.521,15.658,4.379,15.658,4.379,2.123-3.053.4-4.777Z" transform="translate(-263.33 -662.888)" fill="#986365"/><path d="M368.531,516.116c.93-2.388,5.44-9.155,5.44-9.155s1.46-5.309,4.114-6.508c0,0,9.554-11.411,10.483-16.719a3.3,3.3,0,0,1,2.114-2.374q.93,2.78,1.852,5.558,1.263,3.8,2.527,7.593a13.964,13.964,0,0,1,.9,4.611c-.064-.253-.1-.392-.1-.392l-10.616,8.095-4.649,5.44s-6.508,9.156-7.7,9.288-6.767,8.891-6.767,8.891l-6.768-7.3S367.6,518.505,368.531,516.116Z" transform="translate(-322.136 -416.687)" opacity="0.1"/><path d="M529.553,261.756a7.055,7.055,0,0,1-.332,5.507c-1.46,2.654.6,7.365,1.923,7.63s6.635-3.184,7.033-5.44-1.725-6.9-.663-9.953Z" transform="translate(-465.244 -229.205)" fill="#fdc2cc"/><path d="M515.072,305.75s-4.114,8.36-8.625,2.388c0,0-4.512,9.156-3.053,10.616a30.554,30.554,0,0,0,3.318,2.789l2.389,16.719s13.534-4.649,19.24-3.847l-8.758-20.965Z" transform="translate(-443.598 -268.288)" opacity="0.1"/><path d="M515.072,303.18s-4.114,8.36-8.625,2.388c0,0-4.512,9.156-3.053,10.616a30.554,30.554,0,0,0,3.318,2.789l2.389,16.719s13.534-4.649,19.244-3.851l-8.758-20.965Z" transform="translate(-443.598 -266.117)" fill="#d39999"/><path d="M746.209,365.69s2.255,10.351,3.316,10.749,2.256,8.491-.53,8.226-2.789-6.767-2.789-6.767-2.916-7.822-4.111-8.752S746.209,365.69,746.209,365.69Z" transform="translate(-645.409 -318.941)" fill="#fdc2cc"/><path d="M365.4,335.887s-5.972-5.578-6.1-6.508-3.719-5.705-5.707-4.379,1.593,7.563,2.256,7.7,8.493,8.758,8.493,8.758Z" transform="translate(-316.748 -284.36)" fill="#fdc2cc"/><path d="M570.84,289.05s.73.862,5.639.332,6.1.4,7.438,1.061,14.2,4.114,16.453,11.014c0,0-5.042,4.511-4.511,5.705,0,0-.663-2.256-2.256-1.99s-7.83-5.972-7.83-5.972,1.195,11.677-.4,15.791.795,8.226.795,8.226-11.279-3.583-16.321-1.859c0,0-2.919-13.137-.4-18.439s-1.061-10.351-1.061-10.351Z" transform="translate(-498.768 -254.176)" opacity="0.1"/><path d="M569.954,286.48s.73.863,5.639.332,6.105.4,7.438,1.061,14.192,4.111,16.448,11.014c0,0-5.042,4.511-4.512,5.705,0,0-.663-2.256-2.256-1.99s-7.828-5.97-7.828-5.97,1.195,11.677-.4,15.791.8,8.226.8,8.226S574,317.068,568.96,318.791c0,0-2.919-13.137-.4-18.439S567.5,290,567.5,290Z" transform="translate(-498.016 -252.004)" opacity="0.1"/><path d="M570.806,286.48s.73.863,5.639.332,6.1.4,7.438,1.061,14.192,4.111,16.447,11.014c0,0-5.042,4.511-4.511,5.705,0,0-.663-2.256-2.256-1.99s-7.83-5.97-7.83-5.97,1.195,11.677-.4,15.791.795,8.226.795,8.226-11.279-3.582-16.321-1.859c0,0-2.919-13.137-.4-18.439S568.35,290,568.35,290Z" transform="translate(-498.734 -252.004)" fill="#ec7580"/><path d="M435.291,301.89a10.953,10.953,0,0,1-4.577,3.782c-2.653.928-3.719,6.635-3.719,6.635l-3.982,5.44-4.773-2.389s-.133,6.508-1.46,6.37c0,0,3.318,4.246,5.97,4.379s10.086-6.237,10.086-6.237.8,5.839.265,8.625,3.318,11.279,3.318,11.279l5.307-1.061s-2.789-10.616-6.237-12.34c0,0,0-7.165.531-8.891s-3.451-8.226-2.919-9.553c.3-.745,1.467-2.337,2.056-3.782A3.781,3.781,0,0,0,435.291,301.89Z" transform="translate(-370.65 -265.027)" opacity="0.1"/><path d="M432.721,300.18a10.964,10.964,0,0,1-4.577,3.782c-2.653.93-3.719,6.634-3.719,6.634l-3.981,5.44-4.774-2.388s-.133,6.508-1.46,6.37c0,0,3.318,4.246,5.972,4.379s10.084-6.237,10.084-6.237.8,5.839.265,8.625,3.325,11.279,3.325,11.279L439.164,337s-2.789-10.616-6.235-12.34c0,0,0-7.167.53-8.891s-3.449-8.226-2.919-9.554c.3-.744,1.467-2.335,2.056-3.781A3.781,3.781,0,0,0,432.721,300.18Z" transform="translate(-368.479 -263.581)" opacity="0.1"/><path d="M434.431,300.18a10.917,10.917,0,0,1-4.577,3.782c-2.659.93-3.719,6.634-3.719,6.634l-3.981,5.44-4.774-2.388s-.132,6.508-1.46,6.37c0,0,3.318,4.246,5.972,4.379s10.084-6.237,10.084-6.237.8,5.839.265,8.625,3.318,11.279,3.318,11.279L440.867,337s-2.789-10.616-6.237-12.34c0,0,0-7.167.53-8.891s-3.449-8.226-2.919-9.554c.3-.744,1.469-2.335,2.058-3.781A3.788,3.788,0,0,0,434.431,300.18Z" transform="translate(-369.924 -263.581)" fill="#ec7580"/><path d="M432.981,301.63a10.959,10.959,0,0,1-4.577,3.776c-2.654.93-3.719,6.634-3.719,6.634l-3.978,5.453L415.93,315.1s-.132,6.508-1.46,6.369c0,0,3.318,4.247,5.972,4.379s10.084-6.235,10.084-6.235.8,5.839.265,8.625,3.318,11.279,3.318,11.279l5.309-1.061s-2.789-10.616-6.237-12.34c0,0,0-7.167.53-8.891s-3.449-8.226-2.919-9.554c.3-.744,1.469-2.337,2.058-3.781A3.789,3.789,0,0,0,432.981,301.63Z" transform="translate(-368.698 -264.807)" opacity="0.05"/><path d="M826.321,616.576s3.848-1.859,4.512-1.061,4.377,16.056,2.653,17.118-1.859.265-3.318-2.123-3.449-5.578-4.909-5.44c0,0,4.246-1.46,4.114-1.991S827.25,616.444,826.321,616.576Z" transform="translate(-715.835 -529.886)" fill="#986365"/><path d="M541.821,264.384a6.635,6.635,0,0,1-7.394.417,6.664,6.664,0,0,0-.327-1.326l7.961-2.255A7.486,7.486,0,0,0,541.821,264.384Z" transform="translate(-469.791 -230.658)" opacity="0.1"/><path d="M493.876,194.284c-1.618.141-3.587-.164-4.184-1.266-.172-.31-.209-.665-.384-.981-.507-.913-1.959-1.286-3.124-1.787a7.289,7.289,0,0,1-2.994-2.264,2.648,2.648,0,0,1,1.395.028c.057-.62-.652-1.312-.1-1.78a1.7,1.7,0,0,1,1.463-.119,8.882,8.882,0,0,0,1.447.443,3.468,3.468,0,0,0,2.392-.8,6.066,6.066,0,0,1,2.1-1.24c1.7-.443,3.393.572,5.1,1,3.507.879,5.206,1.83,4.253,4.879C500.529,192.648,496.818,194.03,493.876,194.284Z" transform="translate(-426.77 -165.752)" fill="#865a61"/><circle cx="6.635" cy="6.635" r="6.635" transform="translate(61.388 21.537)" fill="#fdc2cc"/><path d="M528.029,203.807a3.89,3.89,0,0,0-2.54-2.879,5.547,5.547,0,0,0-3.339.415,8.446,8.446,0,0,1-3.307.775,2.47,2.47,0,0,1-2.42-1.99.953.953,0,0,1,.082-.514,1.249,1.249,0,0,1,.476-.439,10.233,10.233,0,0,1,5.546-1.87,13.525,13.525,0,0,1,4.7,1.24c1.911.759,4.081,1.821,4.475,3.837a5.313,5.313,0,0,1-.831,3.466c-.336.62-1.968,3.843-3.048,3.311C527.386,208.945,528.236,204.644,528.029,203.807Z" transform="translate(-454.848 -176.646)" opacity="0.1"/><path d="M526.314,202.089a3.889,3.889,0,0,0-2.541-2.879,5.547,5.547,0,0,0-3.339.415,8.446,8.446,0,0,1-3.307.775,2.471,2.471,0,0,1-2.42-1.991.959.959,0,0,1,.084-.514,1.28,1.28,0,0,1,.474-.439,10.263,10.263,0,0,1,5.547-1.87,13.594,13.594,0,0,1,4.7,1.24c1.909.759,4.081,1.821,4.475,3.837a5.312,5.312,0,0,1-.832,3.465c-.335.62-1.966,3.844-3.046,3.313C525.671,207.227,526.523,202.932,526.314,202.089Z" transform="translate(-453.397 -175.193)" fill="#865a61"/><path d="M849.77,632.773c1.726-1.061-1.99-16.321-2.653-17.118-.291-.349-1.195-.187-2.117.1,1.047-.366,2.182-.634,2.515-.236.663.8,4.377,16.056,2.653,17.118a3.119,3.119,0,0,1-.962.439A4.792,4.792,0,0,0,849.77,632.773Z" transform="translate(-732.517 -529.893)" fill="#fff" opacity="0.5"/><path d="M290,788c-.178.457-.124.987.62,1.443,1.725,1.061,15.658,4.379,15.658,4.379a6.906,6.906,0,0,0,.38-.645,7.148,7.148,0,0,1-.513.911s-13.935-3.321-15.66-4.384A1.119,1.119,0,0,1,290,788Z" transform="translate(-263.331 -675.813)" fill="#fff" opacity="0.5"/><g transform="translate(70.993 34.476)" opacity="0.05"><path d="M659.106,304.412a30.073,30.073,0,0,1,4.159-4.509c-2.256-6.9-15.126-10.349-16.453-11.014a8.719,8.719,0,0,0-2.722-1.049,8.317,8.317,0,0,1,3.784,1.182c1.326.663,14.2,4.114,16.453,11.014,0,0-4.845,4.339-4.535,5.631a4.167,4.167,0,0,0-.685-1.255Z" transform="translate(-633.731 -287.629)"/><path d="M745.46,402.89l.025.074A.385.385,0,0,1,745.46,402.89Z" transform="translate(-719.394 -384.852)"/><path d="M583.21,286.7l.155-.218a1.69,1.69,0,0,0,.882.346A8.026,8.026,0,0,1,583.21,286.7Z" transform="translate(-582.285 -286.48)"/><path d="M726.97,389.725a1.759,1.759,0,0,1-.58-.155A1.445,1.445,0,0,1,726.97,389.725Z" transform="translate(-703.279 -373.596)"/><path d="M583.666,491.417a15.712,15.712,0,0,0-6.344.3s-.031-.138-.082-.389A20.737,20.737,0,0,1,583.666,491.417Z" transform="translate(-577.24 -459.405)"/><path d="M668.8,374.932c-.465-.894-2.059-4.452-.682-8.011,1.593-4.114.4-15.791.4-15.791s.456.456,1.151,1.114c.245,2.895.824,11.417-.482,14.81-1.6,4.112.79,8.228.79,8.228S669.539,375.141,668.8,374.932Z" transform="translate(-653.572 -341.112)"/></g></g></svg>