<svg xmlns="http://www.w3.org/2000/svg" width="178.573" height="93.611" viewBox="0 0 178.573 93.611"><g transform="translate(0 0)"><g transform="translate(8.399 0)"><g transform="translate(7.166 38.644)"><g transform="translate(0 0.055)"><g transform="translate(0 0)"><rect width="26.567" height="20.399" transform="translate(26.567 20.399) rotate(180)" fill="#f5f5f5"/></g></g><g transform="translate(6.59)"><path d="M112.986,268.21c.036,0,.066-4.547.066-10.155s-.03-10.156-.066-10.156-.067,4.546-.067,10.156S112.949,268.21,112.986,268.21Z" transform="translate(-112.919 -247.899)" fill="#ebebeb"/></g><g transform="translate(2.253 15.811)"><g transform="translate(0 0)"><rect width="2.037" height="2.292" transform="translate(2.037 2.292) rotate(180)" fill="#fafafa"/></g></g><g transform="translate(15.445 0.108)"><rect width="3.018" height="4.353" fill="#ebebeb"/></g><g transform="translate(15.445 16.041)"><rect width="3.018" height="4.353" fill="#ebebeb"/></g></g><g transform="translate(0 59.295)"><g transform="translate(0 0.091)"><rect width="43.857" height="33.675" fill="#ebebeb"/></g><g transform="translate(32.782)"><path d="M187.6,362.749c-.048,0-.087-7.506-.087-16.764s.039-16.765.087-16.765.087,7.5.087,16.765S187.645,362.749,187.6,362.749Z" transform="translate(-187.51 -329.221)" fill="#e0e0e0"/></g><g transform="translate(36.776 26.101)"><rect width="3.362" height="3.784" fill="#fafafa"/></g><g transform="translate(13.38 0.178)"><rect width="4.982" height="7.186" fill="#e0e0e0"/></g><g transform="translate(13.38 26.48)"><rect width="4.982" height="7.185" fill="#e0e0e0"/></g></g><g transform="translate(76.847 0)"><path d="M361.535,95.783a3.113,3.113,0,0,1-1.275,0,3.113,3.113,0,0,1,1.275,0Z" transform="translate(-360.26 -95.717)" fill="#ebebeb"/><g transform="translate(2.551)"><path d="M371.535,95.783a3.113,3.113,0,0,1-1.275,0,3.113,3.113,0,0,1,1.275,0Z" transform="translate(-370.26 -95.717)" fill="#ebebeb"/></g><g transform="translate(5.102)"><path d="M381.535,95.783a3.112,3.112,0,0,1-1.275,0,3.113,3.113,0,0,1,1.275,0Z" transform="translate(-380.26 -95.717)" fill="#ebebeb"/></g><g transform="translate(7.652)"><path d="M391.535,95.783a3.113,3.113,0,0,1-1.275,0,3.113,3.113,0,0,1,1.275,0Z" transform="translate(-390.26 -95.717)" fill="#ebebeb"/></g><g transform="translate(10.203)"><path d="M401.535,95.783a3.113,3.113,0,0,1-1.275,0,3.113,3.113,0,0,1,1.275,0Z" transform="translate(-400.26 -95.717)" fill="#ebebeb"/></g><g transform="translate(12.754)"><path d="M411.535,95.783a3.113,3.113,0,0,1-1.275,0,3.113,3.113,0,0,1,1.275,0Z" transform="translate(-410.26 -95.717)" fill="#ebebeb"/></g><g transform="translate(15.305)"><path d="M421.535,95.783a3.113,3.113,0,0,1-1.275,0,3.113,3.113,0,0,1,1.275,0Z" transform="translate(-420.26 -95.717)" fill="#ebebeb"/></g><g transform="translate(17.856)"><path d="M431.535,95.783a3.113,3.113,0,0,1-1.275,0,3.113,3.113,0,0,1,1.275,0Z" transform="translate(-430.26 -95.717)" fill="#ebebeb"/></g><g transform="translate(20.406)"><path d="M441.535,95.783a3.112,3.112,0,0,1-1.275,0,3.113,3.113,0,0,1,1.275,0Z" transform="translate(-440.26 -95.717)" fill="#ebebeb"/></g><g transform="translate(22.957)"><path d="M451.535,95.783a3.113,3.113,0,0,1-1.275,0,3.113,3.113,0,0,1,1.275,0Z" transform="translate(-450.26 -95.717)" fill="#ebebeb"/></g><g transform="translate(25.508)"><path d="M461.535,95.783a3.113,3.113,0,0,1-1.275,0,3.113,3.113,0,0,1,1.275,0Z" transform="translate(-460.26 -95.717)" fill="#ebebeb"/></g><g transform="translate(28.059)"><path d="M471.535,95.783a3.113,3.113,0,0,1-1.275,0,3.113,3.113,0,0,1,1.275,0Z" transform="translate(-470.26 -95.717)" fill="#ebebeb"/></g><g transform="translate(30.609)"><path d="M481.535,95.783a3.113,3.113,0,0,1-1.275,0,3.113,3.113,0,0,1,1.275,0Z" transform="translate(-480.26 -95.717)" fill="#ebebeb"/></g><g transform="translate(33.16)"><path d="M491.535,95.783a3.113,3.113,0,0,1-1.275,0,3.113,3.113,0,0,1,1.275,0Z" transform="translate(-490.26 -95.717)" fill="#ebebeb"/></g><g transform="translate(35.711)"><path d="M501.535,95.783a3.113,3.113,0,0,1-1.275,0,3.113,3.113,0,0,1,1.275,0Z" transform="translate(-500.26 -95.717)" fill="#ebebeb"/></g><g transform="translate(38.262)"><path d="M511.535,95.783a3.112,3.112,0,0,1-1.275,0,3.113,3.113,0,0,1,1.275,0Z" transform="translate(-510.26 -95.717)" fill="#ebebeb"/></g><g transform="translate(40.813)"><path d="M521.535,95.783a3.112,3.112,0,0,1-1.275,0,3.113,3.113,0,0,1,1.275,0Z" transform="translate(-520.26 -95.717)" fill="#ebebeb"/></g><g transform="translate(43.363)"><path d="M531.535,95.783a3.113,3.113,0,0,1-1.275,0,3.113,3.113,0,0,1,1.275,0Z" transform="translate(-530.26 -95.717)" fill="#ebebeb"/></g><g transform="translate(45.914)"><path d="M541.535,95.783a3.113,3.113,0,0,1-1.275,0,3.113,3.113,0,0,1,1.275,0Z" transform="translate(-540.26 -95.717)" fill="#ebebeb"/></g><g transform="translate(48.465)"><path d="M551.535,95.783a3.113,3.113,0,0,1-1.275,0,3.113,3.113,0,0,1,1.275,0Z" transform="translate(-550.26 -95.717)" fill="#ebebeb"/></g><g transform="translate(51.016)"><path d="M561.535,95.783a3.113,3.113,0,0,1-1.275,0,3.113,3.113,0,0,1,1.275,0Z" transform="translate(-560.26 -95.717)" fill="#ebebeb"/></g><g transform="translate(53.567)"><path d="M571.535,95.783a3.112,3.112,0,0,1-1.275,0,3.113,3.113,0,0,1,1.275,0Z" transform="translate(-570.26 -95.717)" fill="#ebebeb"/></g><g transform="translate(56.117)"><path d="M581.535,95.783a3.112,3.112,0,0,1-1.275,0,3.113,3.113,0,0,1,1.275,0Z" transform="translate(-580.26 -95.717)" fill="#ebebeb"/></g><g transform="translate(57.98 0.685)"><path d="M587.628,99.684a3.065,3.065,0,1,1,.066-.635A1.576,1.576,0,0,1,587.628,99.684Z" transform="translate(-587.562 -98.414)" fill="#ebebeb"/></g><g transform="translate(57.98 3.224)"><path d="M587.628,109.684a3.065,3.065,0,1,1,.066-.635A1.576,1.576,0,0,1,587.628,109.684Z" transform="translate(-587.562 -108.414)" fill="#ebebeb"/></g><g transform="translate(57.98 5.764)"><path d="M587.628,119.684a3.065,3.065,0,1,1,.066-.635A1.576,1.576,0,0,1,587.628,119.684Z" transform="translate(-587.562 -118.414)" fill="#ebebeb"/></g><g transform="translate(57.98 8.303)"><path d="M587.628,129.684a3.065,3.065,0,1,1,.066-.635A1.576,1.576,0,0,1,587.628,129.684Z" transform="translate(-587.562 -128.414)" fill="#ebebeb"/></g><g transform="translate(57.98 10.842)"><path d="M587.628,139.684a3.065,3.065,0,1,1,.066-.635A1.576,1.576,0,0,1,587.628,139.684Z" transform="translate(-587.562 -138.414)" fill="#ebebeb"/></g><g transform="translate(57.98 13.382)"><path d="M588.126,149.188a1.145,1.145,0,0,1-.5.064l-.064,0v-.066c0-.048,0-.093,0-.139a.321.321,0,1,1,.133,0c0,.046,0,.092,0,.139l-.065-.064A1.144,1.144,0,0,1,588.126,149.188Z" transform="translate(-587.562 -148.414)" fill="#ebebeb"/></g><g transform="translate(59.819 14.09)"><path d="M596.047,151.27a3.1,3.1,0,0,1-1.275,0,3.113,3.113,0,0,1,1.275,0Z" transform="translate(-594.772 -151.204)" fill="#ebebeb"/></g><g transform="translate(62.37 14.09)"><path d="M606.047,151.27a3.1,3.1,0,0,1-1.275,0,3.113,3.113,0,0,1,1.275,0Z" transform="translate(-604.772 -151.204)" fill="#ebebeb"/></g><g transform="translate(64.921 14.09)"><path d="M616.047,151.27a3.1,3.1,0,0,1-1.275,0,3.113,3.113,0,0,1,1.275,0Z" transform="translate(-614.772 -151.204)" fill="#ebebeb"/></g><g transform="translate(67.471 14.09)"><path d="M626.047,151.27a3.1,3.1,0,0,1-1.275,0,3.114,3.114,0,0,1,1.275,0Z" transform="translate(-624.772 -151.204)" fill="#ebebeb"/></g><g transform="translate(70.022 14.09)"><path d="M636.047,151.27a3.1,3.1,0,0,1-1.275,0,3.113,3.113,0,0,1,1.275,0Z" transform="translate(-634.772 -151.204)" fill="#ebebeb"/></g><g transform="translate(72.573 14.09)"><path d="M646.047,151.27a3.1,3.1,0,0,1-1.275,0,3.113,3.113,0,0,1,1.275,0Z" transform="translate(-644.772 -151.204)" fill="#ebebeb"/></g><g transform="translate(75.124 14.09)"><path d="M656.047,151.27a3.1,3.1,0,0,1-1.275,0,3.114,3.114,0,0,1,1.275,0Z" transform="translate(-654.772 -151.204)" fill="#ebebeb"/></g><g transform="translate(77.675 14.09)"><path d="M666.047,151.27a3.1,3.1,0,0,1-1.275,0,3.113,3.113,0,0,1,1.275,0Z" transform="translate(-664.772 -151.204)" fill="#ebebeb"/></g><g transform="translate(79.876 14.439)"><path d="M673.467,153.846a3.068,3.068,0,1,1,.066-.635A1.577,1.577,0,0,1,673.467,153.846Z" transform="translate(-673.401 -152.576)" fill="#ebebeb"/></g><g transform="translate(79.876 16.978)"><path d="M673.467,163.846a3.068,3.068,0,1,1,.066-.635A1.577,1.577,0,0,1,673.467,163.846Z" transform="translate(-673.401 -162.576)" fill="#ebebeb"/></g><g transform="translate(79.876 19.517)"><path d="M673.467,173.846a3.068,3.068,0,1,1,.066-.635A1.577,1.577,0,0,1,673.467,173.846Z" transform="translate(-673.401 -172.576)" fill="#ebebeb"/></g><g transform="translate(79.876 22.057)"><path d="M673.467,183.846a3.068,3.068,0,1,1,.066-.635A1.577,1.577,0,0,1,673.467,183.846Z" transform="translate(-673.401 -182.576)" fill="#ebebeb"/></g><g transform="translate(79.876 24.596)"><path d="M673.467,193.846a3.068,3.068,0,1,1,.066-.635A1.577,1.577,0,0,1,673.467,193.846Z" transform="translate(-673.401 -192.576)" fill="#ebebeb"/></g><g transform="translate(79.876 27.135)"><path d="M673.467,203.846a3.068,3.068,0,1,1,.066-.635A1.577,1.577,0,0,1,673.467,203.846Z" transform="translate(-673.401 -202.576)" fill="#ebebeb"/></g><g transform="translate(79.876 29.675)"><path d="M673.467,213.846a3.068,3.068,0,1,1,.066-.635A1.577,1.577,0,0,1,673.467,213.846Z" transform="translate(-673.401 -212.576)" fill="#ebebeb"/></g><g transform="translate(79.876 32.214)"><path d="M673.467,223.846a3.068,3.068,0,1,1,.066-.635A1.577,1.577,0,0,1,673.467,223.846Z" transform="translate(-673.401 -222.576)" fill="#ebebeb"/></g><g transform="translate(79.876 34.753)"><path d="M673.467,233.846a3.068,3.068,0,1,1,.066-.635A1.577,1.577,0,0,1,673.467,233.846Z" transform="translate(-673.401 -232.576)" fill="#ebebeb"/></g><g transform="translate(79.876 37.293)"><path d="M673.467,243.846a3.068,3.068,0,1,1,.066-.635A1.577,1.577,0,0,1,673.467,243.846Z" transform="translate(-673.401 -242.576)" fill="#ebebeb"/></g><g transform="translate(79.876 39.832)"><g transform="translate(0 0)"><path d="M673.467,253.846a3.068,3.068,0,1,1,.066-.635A1.577,1.577,0,0,1,673.467,253.846Z" transform="translate(-673.401 -252.576)" fill="#ebebeb"/></g></g></g><g transform="translate(70.463 4.289)"><path d="M356.275,112.717s-1.98-1.092-3.921,3.57a58.224,58.224,0,0,0-2.606,7.314s-.532.987-1.229.423-1.721-2.235-2.8-1.835c-1.117.414-1.392,1.713-1.028,3.561s1.015,5.925,1.073,6.294-.111.915-.647.607-3.719-3.323-5.066-1.734.52,6.57.713,7.119.1.8-.154.956-1.23-.954-2.17-1.775-2.175-1.608-2.875-.627-.645,4.824,3.5,10.749l2.1,2.62,3.353-.449c7.115-1.4,9.835-4.124,10.016-5.315s-1.257-1.477-2.506-1.537-2.727.069-2.8-.223.034-.533.556-.794,5.34-2.555,5.479-4.629-4.254-2.1-4.855-2.254-.335-.663-.042-.884,3.611-2.71,5.163-3.787,2.259-2.2,1.744-3.272c-.5-1.032-2.4-.537-3.293-.614s-.589-1.154-.589-1.154a58.246,58.246,0,0,0,3.227-7.064c1.855-4.7-.389-5.283-.389-5.283" transform="translate(-335.231 -112.606)" fill="#ebebeb"/><g transform="translate(6.054 4.282)"><path d="M358.964,161.844c1.375-3.444,3.316-8.185,5.477-13.415s4.113-9.964,5.507-13.4l1.648-4.07.449-1.106.12-.287c.028-.064.044-.1.044-.1s-.009.035-.033.1l-.109.291-.429,1.114c-.374.967-.925,2.362-1.614,4.084-1.375,3.444-3.316,8.184-5.476,13.413s-4.114,9.966-5.508,13.4" transform="translate(-358.964 -129.47)" fill="#e0e0e0"/></g><g transform="translate(11.829 11.979)"><path d="M381.607,159.779a.994.994,0,0,1,.1.219c.061.144.143.354.241.615.2.522.445,1.25.707,2.059l.659,2.073.2.627a.122.122,0,1,1-.042.015c-.06-.144-.142-.354-.238-.617-.19-.524-.431-1.255-.692-2.064l-.674-2.068-.206-.626A.972.972,0,0,1,381.607,159.779Z" transform="translate(-381.605 -159.779)" fill="#e0e0e0"/></g><g transform="translate(14.121 15.353)"><path d="M390.591,175.555c-.011-.03,1.474-.611,3.316-1.3s3.346-1.22,3.357-1.19-1.473.611-3.317,1.3S390.6,175.585,390.591,175.555Z" transform="translate(-390.591 -173.065)" fill="#e0e0e0"/></g><g transform="translate(10.439 24.995)"><path d="M376.155,211.764a1.036,1.036,0,0,1,.247-.033l.674-.052c.569-.044,1.354-.108,2.218-.209s1.643-.216,2.207-.3l.668-.1a1.055,1.055,0,0,1,.248-.025,1.022,1.022,0,0,1-.239.069c-.156.037-.382.086-.662.139-.561.109-1.341.239-2.208.338s-1.655.153-2.226.176c-.285.011-.517.017-.677.016A1.039,1.039,0,0,1,376.155,211.764Z" transform="translate(-376.155 -211.035)" fill="#e0e0e0"/></g><g transform="translate(7.194 20.874)"><path d="M363.434,194.809a.9.9,0,0,1,.148.175c.089.117.215.289.368.5.307.428.724,1.023,1.178,1.684s.861,1.264,1.15,1.7c.145.22.26.4.338.524a.886.886,0,0,1,.111.2.87.87,0,0,1-.148-.175c-.089-.117-.215-.289-.368-.5-.306-.427-.724-1.022-1.178-1.684s-.861-1.263-1.15-1.7c-.145-.22-.26-.4-.338-.523A.874.874,0,0,1,363.434,194.809Z" transform="translate(-363.433 -194.809)" fill="#e0e0e0"/></g><g transform="translate(3.055 27.421)"><path d="M347.208,220.591a1.426,1.426,0,0,1,.187.227l.474.643c.4.546.936,1.3,1.527,2.146s1.121,1.608,1.5,2.166l.444.664a1.439,1.439,0,0,1,.15.252,1.459,1.459,0,0,1-.186-.227l-.474-.643c-.4-.546-.936-1.3-1.527-2.146s-1.121-1.608-1.5-2.165l-.444-.664A1.447,1.447,0,0,1,347.208,220.591Z" transform="translate(-347.208 -220.591)" fill="#e0e0e0"/></g><g transform="translate(7.275 32.206)"><path d="M363.75,240.571a1.658,1.658,0,0,1,.312-.049l.852-.1c.719-.081,1.712-.2,2.8-.355s2.079-.323,2.792-.448l.845-.147a1.638,1.638,0,0,1,.312-.041,1.683,1.683,0,0,1-.3.085c-.2.047-.483.111-.838.183-.71.146-1.7.326-2.791.482s-2.091.261-2.813.322c-.361.03-.654.05-.856.06A1.645,1.645,0,0,1,363.75,240.571Z" transform="translate(-363.75 -239.432)" fill="#e0e0e0"/></g></g><g transform="translate(147.827 38.394)"><path d="M656.45,255.834a8.967,8.967,0,0,0-17.786-1.582,8.855,8.855,0,0,0,1.1,6.089h-.005l.026.034c.344.576.774.989,1.209,1.594l5.2,6.862a1.623,1.623,0,0,0,2.583,0l5.117-6.749a19.261,19.261,0,0,0,1.3-1.717l.018-.025h0A8.837,8.837,0,0,0,656.45,255.834Zm-8.962,3.885a3.927,3.927,0,1,1,3.944-3.927A3.935,3.935,0,0,1,647.487,259.719Z" transform="translate(-638.525 -246.912)" fill="#f5f5f5"/></g><g transform="translate(122.99 7.235)"><g transform="translate(0.445)"><path d="M542.9,124.616v10.494a.41.41,0,0,0,.411.409h22.1a.41.41,0,0,0,.411-.414l-.051-3.843a.409.409,0,0,0-.082-.239l-3.17-4.219a.411.411,0,0,0-.326-.164l-3.653-.028a.41.41,0,0,1-.408-.409v-1.587a.41.41,0,0,0-.411-.409H543.31A.41.41,0,0,0,542.9,124.616Z" transform="translate(-542.899 -124.207)" fill="#f5f5f5"/></g><g transform="translate(16.707 3.016)"><path d="M606.653,136.387v3.367a.235.235,0,0,0,.24.234l4.879-.087a.234.234,0,0,0,.191-.366l-2.281-3.35a.236.236,0,0,0-.2-.1l-2.6.07A.235.235,0,0,0,606.653,136.387Z" transform="translate(-606.653 -136.083)" fill="#ebebeb"/></g><g transform="translate(0 11.631)"><rect width="23.807" height="0.731" fill="#f5f5f5"/></g><g transform="translate(2.191 8.592)"><g transform="translate(0 0)"><path d="M2.347,0A2.362,2.362,0,0,1,4.7,2.358,2.337,2.337,0,0,1,2.358,4.7,2.362,2.362,0,0,1,0,2.347,2.337,2.337,0,0,1,2.347,0Z" transform="translate(0 3.318) rotate(-45)" fill="#ebebeb"/></g></g><g transform="translate(4.133 10.531)"><path d="M560.129,167.058a1.386,1.386,0,1,1-1.386-1.38A1.383,1.383,0,0,1,560.129,167.058Z" transform="translate(-557.357 -165.678)" fill="#fafafa"/></g><g transform="translate(15.553)"><path d="M602.237,135.519c-.059,0-.107-2.533-.107-5.656s.048-5.656.107-5.656.108,2.532.108,5.656S602.3,135.519,602.237,135.519Z" transform="translate(-602.13 -124.207)" fill="#ebebeb"/></g><g transform="translate(15.023 8.592)"><g transform="translate(0 0)"><g transform="translate(0 0)"><path d="M2.347,0A2.362,2.362,0,0,1,4.7,2.358,2.337,2.337,0,0,1,2.358,4.7,2.362,2.362,0,0,1,0,2.347,2.337,2.337,0,0,1,2.347,0Z" transform="translate(0 3.318) rotate(-45)" fill="#ebebeb"/></g></g><g transform="translate(1.941 1.939)"><path d="M610.435,167.058a1.386,1.386,0,1,1-1.386-1.38A1.383,1.383,0,0,1,610.435,167.058Z" transform="translate(-607.663 -165.678)" fill="#fafafa"/></g></g><g transform="translate(16.851 7.478)"><path d="M608.722,153.763c0,.059-.337.107-.753.107s-.753-.048-.753-.107.337-.107.753-.107S608.722,153.7,608.722,153.763Z" transform="translate(-607.216 -153.656)" fill="#ebebeb"/></g></g></g><g transform="translate(0 92.995)"><g transform="translate(0 0)"><path d="M204.637,462c0,.037-39.978.066-89.282.066-49.321,0-89.291-.029-89.291-.066s39.97-.066,89.291-.066C164.659,461.932,204.637,461.961,204.637,462Z" transform="translate(-26.064 -461.932)" fill="#263238"/></g></g><g transform="translate(21.397 68.353)"><g transform="translate(0 0)"><path d="M124.212,388.482c3.437-2.373,4.23-6.8,4.109-10.776a4.3,4.3,0,0,0-.26-1.948,1.361,1.361,0,0,0-1.653-.707c-.5.231-.714.8-.993,1.277a3.894,3.894,0,0,1-1.57,1.482,1.492,1.492,0,0,1-1.37.119c-.574-.318-.639-1.11-.633-1.77q.018-1.847.036-3.693a6.129,6.129,0,0,0-.194-1.963,2.053,2.053,0,0,0-1.289-1.39,1.25,1.25,0,0,0-1.548.828,6.088,6.088,0,0,0-.022.822.7.7,0,0,1-.411.653.8.8,0,0,1-.727-.306,8.78,8.78,0,0,1-1.576-2.386,12.172,12.172,0,0,0-1.469-2.462,3.591,3.591,0,0,0-2.427-1.366,2.149,2.149,0,0,0-2.208,1.451,3.2,3.2,0,0,0,.889,2.633,14.785,14.785,0,0,0,3.074,2.937,1.217,1.217,0,0,1,.514.554c.143.441-.278.877-.715,1.02a7.721,7.721,0,0,1-1.549.168,1.492,1.492,0,0,0-1.276.77c-.274.674.291,1.384.847,1.849a12.7,12.7,0,0,0,3.747,2.171,4.285,4.285,0,0,1,1.393.68,1.219,1.219,0,0,1,.388,1.4,1.253,1.253,0,0,1-1.361.515,8.873,8.873,0,0,1-1.454-.559,2.33,2.33,0,0,0-2.675.5,2.083,2.083,0,0,0-.23,1.848,4.815,4.815,0,0,0,1,1.636,12.757,12.757,0,0,0,5.434,3.83,8.8,8.8,0,0,0,6.177.184" transform="translate(-109.949 -364.892)" fill="#e8505b"/><g transform="translate(1.022 0.552)"><path d="M126.968,391.225a13.264,13.264,0,0,0-.8-3.618,59.047,59.047,0,0,0-2.338-6.381l-.7-1.641c-.231-.538-.459-1.072-.715-1.58a29.529,29.529,0,0,0-1.64-2.837c-.566-.877-1.134-1.689-1.672-2.444s-1.055-1.448-1.552-2.06a23.5,23.5,0,0,0-2.56-2.713c-.326-.3-.587-.517-.766-.664l-.2-.166a.5.5,0,0,0-.072-.053.466.466,0,0,0,.064.063l.2.175c.173.154.429.38.75.681a24.808,24.808,0,0,1,2.525,2.732c.492.614,1,1.309,1.537,2.065s1.1,1.57,1.66,2.446a29.8,29.8,0,0,1,1.627,2.829c.254.506.48,1.035.711,1.575l.7,1.64a60.5,60.5,0,0,1,2.342,6.365,13.505,13.505,0,0,1,.817,3.594" transform="translate(-113.955 -367.068)" fill="#263238"/></g><g transform="translate(9.449 4.221)"><path d="M147,388.778a1.344,1.344,0,0,0,.066-.282c.035-.182.078-.448.126-.777.1-.657.2-1.57.306-2.576s.223-1.915.329-2.569c.052-.327.1-.592.13-.774a1.291,1.291,0,0,0,.038-.287,1.325,1.325,0,0,0-.084.277c-.047.18-.106.443-.168.769-.128.653-.257,1.563-.365,2.571s-.2,1.892-.27,2.578c-.034.31-.064.571-.087.781A1.324,1.324,0,0,0,147,388.778Z" transform="translate(-146.993 -381.514)" fill="#263238"/></g><g transform="translate(0.927 9.86)"><path d="M113.583,403.729a1.862,1.862,0,0,0,.34.042c.219.02.536.048.926.094.781.087,1.856.244,3.034.469s2.235.478,2.995.682c.381.1.686.187.9.247a1.861,1.861,0,0,0,.333.083,1.805,1.805,0,0,0-.318-.128c-.208-.074-.511-.175-.889-.285-.756-.226-1.813-.491-2.995-.719a30.162,30.162,0,0,0-3.048-.435c-.393-.036-.711-.05-.932-.055A1.815,1.815,0,0,0,113.583,403.729Z" transform="translate(-113.583 -403.721)" fill="#263238"/></g><g transform="translate(13.135 10.103)"><path d="M161.443,415.511a.43.43,0,0,0,.059-.1l.147-.307c.126-.267.3-.658.506-1.144.415-.972.946-2.331,1.511-3.84s1.083-2.872,1.477-3.851l.47-1.158.126-.316a.443.443,0,0,0,.036-.114.436.436,0,0,0-.059.1l-.147.307c-.127.267-.3.658-.507,1.144-.415.971-.946,2.331-1.511,3.841s-1.083,2.871-1.477,3.85l-.47,1.158-.126.316A.43.43,0,0,0,161.443,415.511Z" transform="translate(-161.442 -404.679)" fill="#263238"/></g><g transform="translate(1.812 17.257)"><path d="M117.052,432.853a.452.452,0,0,0,.112.047l.329.111,1.213.4c1.024.334,2.432.813,3.988,1.343s2.971,1,4,1.31c.516.157.934.28,1.225.359l.335.089a.441.441,0,0,0,.119.023.477.477,0,0,0-.112-.047l-.329-.111-1.212-.4c-1.024-.334-2.433-.813-3.989-1.343s-2.97-1-4-1.31c-.516-.157-.934-.28-1.225-.359l-.335-.089A.458.458,0,0,0,117.052,432.853Z" transform="translate(-117.052 -432.852)" fill="#263238"/></g></g></g><g transform="translate(43.935 14.362)"><g transform="translate(0)"><g transform="translate(40.401 15.232)"><g transform="translate(16.132 10.125)"><path d="M420.252,252.129s4.116.692,4.447.78,1.635.7,1.7,1.1a11.815,11.815,0,0,1,0,1.561s-.235.191-.383-.19a3.9,3.9,0,0,1-.125-1.136l-.729-.279.4.7.066,1.649s-.509-.046-.608-.441a3.91,3.91,0,0,1-.1-.834l-.532-.448.4.536.134,1.187s-.388.125-.51-.139a4.076,4.076,0,0,1-.132-1.049l-1.5-.522-.993.551-1.855-1.044Z" transform="translate(-419.931 -252.129)" fill="#ffbe9d"/></g><path d="M358.737,212.257c.019.081,4.958,6.85,4.958,6.85l9.923,3.072-.452,3.71-12.161-2.438-4.316-4.931Z" transform="translate(-356.689 -212.257)" fill="#e8505b"/><g opacity="0.2"><path d="M358.737,212.257c.019.081,4.958,6.85,4.958,6.85l9.923,3.072-.452,3.71-12.161-2.438-4.316-4.931Z" transform="translate(-356.689 -212.257)"/></g></g><g transform="translate(0 19.23)"><g transform="translate(4.045 5.253)"><g transform="translate(0.068 0.066)"><rect width="21.83" height="3.934" rx="1.967" fill="#f5f5f5"/></g><path d="M235.282,252.689s.044,0,.128-.018a.774.774,0,0,0,.338-.154.765.765,0,0,0,.286-.513c.009-.238,0-.523,0-.838s0-.668-.006-1.053q0-.288,0-.6a.739.739,0,0,0-.262-.543.722.722,0,0,0-.288-.149,1.246,1.246,0,0,0-.343-.025l-.746,0-1.621,0-17.756.02a.712.712,0,0,0-.526.232.729.729,0,0,0-.186.546q0,.64,0,1.27,0,.315,0,.628v.312a1,1,0,0,0,.026.291.712.712,0,0,0,.341.434.7.7,0,0,0,.268.085c.09.008.2,0,.3,0l4.714,0,7.983.014,5.382.021,1.463.012.381.007c.086,0,.13.007.13.007s-.044,0-.13.007l-.381.006-1.463.012-5.382.021-7.983.014-4.714,0c-.1,0-.2,0-.314-.005a.841.841,0,0,1-.721-.613,1.135,1.135,0,0,1-.03-.326V251.5q0-.313,0-.628,0-.63,0-1.27a.861.861,0,0,1,.22-.635.845.845,0,0,1,.625-.275l17.756.019,1.621,0,.746,0a1.317,1.317,0,0,1,.363.03.8.8,0,0,1,.316.167.81.81,0,0,1,.282.6q0,.313,0,.6c0,.384,0,.736-.006,1.053s0,.6-.012.843a.788.788,0,0,1-.309.53.763.763,0,0,1-.352.146A.476.476,0,0,1,235.282,252.689Z" transform="translate(-214.162 -248.689)" fill="#263238"/></g><g transform="translate(68.795 38.274)"><g transform="translate(0 0)"><g transform="translate(0)"><g transform="translate(0)"><ellipse cx="10.432" cy="10.385" rx="10.432" ry="10.385" transform="translate(0 0.998) rotate(-2.749)" fill="#263238"/></g></g></g><g transform="translate(0.488 10.695)"><path d="M469.923,420.842c0,.009,0,.018,0,.027a10.43,10.43,0,0,0,20.858.3c0-.009,0-.018,0-.027Z" transform="translate(-469.92 -420.842)" fill="#263238"/></g><g transform="translate(3.596 3.581)"><path d="M482.1,400.015a7.322,7.322,0,1,0,7.427-7.184A7.3,7.3,0,0,0,482.1,400.015Z" transform="translate(-482.102 -392.83)" fill="#fafafa"/></g><g transform="translate(3.597 3.581)"><path d="M489.532,392.831a7.307,7.307,0,0,0-7.427,7.184l14.643.21A7.305,7.305,0,0,0,489.532,392.831Z" transform="translate(-482.105 -392.83)" fill="#e0e0e0"/></g><g transform="translate(6.458 6.431)"><path d="M493.323,408.427a4.46,4.46,0,1,0,4.524-4.376A4.45,4.45,0,0,0,493.323,408.427Z" transform="translate(-493.322 -404.05)" fill="#263238"/></g></g><g transform="translate(67.512 33.51)"><path d="M470.225,360.375s10.679-3.216,15.1,8.334l-22.346,6.89Z" transform="translate(-462.974 -359.964)" fill="#e8505b"/></g><g transform="translate(4.442 38.274)"><g transform="translate(0 0)"><g transform="translate(0)"><g transform="translate(0)"><ellipse cx="10.432" cy="10.385" rx="10.432" ry="10.385" transform="translate(0 0.998) rotate(-2.749)" fill="#263238"/></g></g></g><g transform="translate(0.488 10.695)"><path d="M217.636,420.842c0,.009,0,.018,0,.027a10.43,10.43,0,0,0,20.858.3c0-.009,0-.018,0-.027Z" transform="translate(-217.633 -420.842)" fill="#263238"/></g><g transform="translate(3.596 3.581)"><path d="M229.816,400.015a7.322,7.322,0,1,0,7.427-7.184A7.3,7.3,0,0,0,229.816,400.015Z" transform="translate(-229.815 -392.83)" fill="#fafafa"/></g><g transform="translate(3.597 3.581)"><path d="M237.245,392.831a7.307,7.307,0,0,0-7.427,7.184l14.643.21A7.305,7.305,0,0,0,237.245,392.831Z" transform="translate(-229.818 -392.83)" fill="#e0e0e0"/></g><g transform="translate(6.458 6.431)"><path d="M241.036,408.427a4.46,4.46,0,1,0,4.524-4.376A4.45,4.45,0,0,0,241.036,408.427Z" transform="translate(-241.035 -404.05)" fill="#263238"/></g></g><g transform="translate(12.39 44.141)"><path d="M264.682,402.667c-.058.029-5.489-.836-5.489-.836h0a3.329,3.329,0,0,1-2.478,1.291c-2.345.112-4.64.215-6.626.3a3.355,3.355,0,0,0-3.21,3.487v0a3.36,3.36,0,0,0,3.232,3.208l11.55.453a7.73,7.73,0,0,0,5.61-2.553h0Z" transform="translate(-246.876 -401.831)" fill="#455a64"/></g><g transform="translate(1.816 12.887)"><path d="M205.426,306.248s-.5-10.119,9.055-12.227v-1.3h33.464v3.093s-4.912,5.887-3.308,10.777,2.105,5.389,2.105,5.389h19.045a12.941,12.941,0,0,0,2.406-7.185c.1-4.291-1.691-11.628-3.028-16.318-1.215-4.265-1.984-7.831-1.984-7.831l5.714-1.9s10.572,13.761,11,14.535a9.353,9.353,0,0,1,1.555,6.535c-.346,3.955-9.846,16.165-12.351,17.54s-4.75,1.462-7,1.806c-1.949.3-16.368.1-20.139.044a7.407,7.407,0,0,1-3.723-1.029,8.329,8.329,0,0,1-2.912-3.657l-1.987-3.869Z" transform="translate(-205.422 -278.753)" fill="#e8505b"/></g><g transform="translate(0 39.678)"><path d="M202.684,384.255l-4.215,6.572a1.026,1.026,0,0,0,1.253,1.5,4.855,4.855,0,0,0,1.414-.955,65.421,65.421,0,0,0,5.364-6.635Z" transform="translate(-198.303 -384.255)" fill="#455a64"/></g><g transform="translate(5.73 29.406)"><path d="M249.641,355.26a.578.578,0,0,1,.025-.1l.085-.276a7.134,7.134,0,0,0,.221-1.084,7.624,7.624,0,0,0-.652-3.966,8.3,8.3,0,0,0-1.553-2.325,10.209,10.209,0,0,0-2.561-1.945,13,13,0,0,0-3.343-1.238,17.6,17.6,0,0,0-3.817-.393,29.116,29.116,0,0,0-3.839.28c-1.234.166-2.419.369-3.534.623a20.921,20.921,0,0,0-5.676,2.091,14.1,14.1,0,0,0-3.244,2.464c-.337.346-.578.633-.739.83l-.181.225a.525.525,0,0,1-.065.074,8.516,8.516,0,0,1,.948-1.165,13.768,13.768,0,0,1,3.235-2.51,20.75,20.75,0,0,1,5.7-2.128c1.119-.258,2.307-.464,3.545-.632a28.853,28.853,0,0,1,3.857-.284,17.589,17.589,0,0,1,3.846.4,13.039,13.039,0,0,1,3.372,1.258,10.268,10.268,0,0,1,2.583,1.977A8.347,8.347,0,0,1,249.4,349.8a7.572,7.572,0,0,1,.618,4.01,6.53,6.53,0,0,1-.246,1.086l-.1.273A.509.509,0,0,1,249.641,355.26Z" transform="translate(-220.765 -343.804)" fill="#263238"/></g><g transform="translate(25.214 31.486)"><path d="M304.614,359.1c-.014-.006.056-.16.126-.45a3.272,3.272,0,0,0,.038-1.258,5.19,5.19,0,0,0-.622-1.764,6.255,6.255,0,0,0-.617-.924,5.648,5.648,0,0,0-.829-.855,7.323,7.323,0,0,0-1.99-1.159,9.3,9.3,0,0,0-1.826-.5,12.235,12.235,0,0,0-1.273-.144,3.788,3.788,0,0,1-.471-.036.43.43,0,0,1,.122-.011c.08,0,.2-.008.35,0a9.748,9.748,0,0,1,1.286.1,8.9,8.9,0,0,1,1.856.475,7.246,7.246,0,0,1,2.031,1.171,5.693,5.693,0,0,1,.846.876,6.2,6.2,0,0,1,.622.946,5.127,5.127,0,0,1,.607,1.81,3.124,3.124,0,0,1-.081,1.283,1.817,1.817,0,0,1-.121.329A.428.428,0,0,1,304.614,359.1Z" transform="translate(-297.15 -351.995)" fill="#f5f5f5"/></g><g transform="translate(26.124 29.725)" opacity="0.4"><path d="M300.719,345.059a13.421,13.421,0,0,1,5.039,2.042,8.869,8.869,0,0,1,3.375,4.174,7.3,7.3,0,0,1-.135,5.4l2.364.2a8.614,8.614,0,0,0-1.984-7.955,11.762,11.762,0,0,0-8.66-3.852" transform="translate(-300.719 -345.059)"/></g><g transform="translate(2.497 9.054)"><rect width="25.062" height="17.804" rx="8.579" fill="#455a64"/></g><g transform="translate(2.39 12.961)"><path d="M232.843,279.109c0,.037-5.635.066-12.584.066s-12.585-.03-12.585-.066,5.633-.066,12.585-.066S232.843,279.072,232.843,279.109Z" transform="translate(-207.674 -279.043)" fill="#263238"/></g><g transform="translate(10.728 27.97)"><path d="M273.956,338.216c0,.037-7.521.066-16.8.066s-16.8-.03-16.8-.066,7.52-.066,16.8-.066S273.956,338.18,273.956,338.216Z" transform="translate(-240.361 -338.15)" fill="#263238"/></g><g transform="translate(28.764 23.483)"><path d="M326.642,323.853a2.876,2.876,0,0,0,.6-1.492c.053-.837-.33-1.883-1.235-1.883H314.457a3.383,3.383,0,0,0-3.39,3.375h15.575Z" transform="translate(-311.067 -320.478)" fill="#455a64"/></g><g transform="translate(57.33 3.494)"><path d="M425.3,253.053l-2.009-4.172a2.548,2.548,0,0,1,1.016-3.263l6.009-3.568a2.035,2.035,0,0,1,1.039-.285h1.3l.52,8.433-2,.763,1.268,2.053Z" transform="translate(-423.056 -241.764)" fill="#e8505b"/></g><g transform="translate(66.947 3.801)"><path d="M460.76,242.97s2.056.469,2.315,3.625-1.813,4.137-1.813,4.137Z" transform="translate(-460.76 -242.97)" fill="#ebebeb"/></g><g transform="translate(55.127 8.652)"><path d="M419.569,262.4s-4.156,1.961-4.664,2.283a.96.96,0,0,0-.378,1.3c.471,1.172,2.414.07,2.414.07l3.868-1.925s1.488-.7.939-1.573C421.133,261.577,419.569,262.4,419.569,262.4Z" transform="translate(-414.42 -262.077)" fill="#263238"/></g><g transform="translate(54.155 8.262)"><path d="M410.849,260.537s3.9.666,4.235.754,1.635.7,1.7,1.1a11.821,11.821,0,0,1,0,1.561s-.235.191-.383-.19a3.9,3.9,0,0,1-.125-1.136l-.729-.279.4.7.066,1.649s-.509-.046-.608-.441a3.9,3.9,0,0,1-.1-.834l-.532-.448.4.536.134,1.188s-.388.125-.51-.139a4.072,4.072,0,0,1-.132-1.049l-1.5-.522-.993.551-1.562-.852Z" transform="translate(-410.61 -260.537)" fill="#ffbe9d"/></g><g transform="translate(57.229)"><path d="M425.906,230.852c0,1.573-.727,2.849-1.623,2.849s-1.623-1.275-1.623-2.849.727-2.849,1.623-2.849S425.906,229.278,425.906,230.852Z" transform="translate(-422.66 -228.003)" fill="#263238"/></g><g transform="translate(59.118 4.239)"><path d="M430.068,245.266l.891,3.076a.794.794,0,0,0,.415-.908c-.223-1.054-.35-1.8-.6-2.726-.03-.093-.711.559-.711.559" transform="translate(-430.068 -244.698)" fill="#263238"/></g><g transform="translate(40.28 13.391)" opacity="0.4"><path d="M357.405,309.388c-.088-.253-.178-.513-.263-.779-.079-.248-.173-.506-.241-.752a8.109,8.109,0,0,1-.223-1.159c-1.5,6.1.793,10.394,4.738,10.7,5.763.441,12.79.762,15.632.019a12.063,12.063,0,0,0,7.535-6.363c.453-.709,4.575-8.207,2.049-15.428a104.628,104.628,0,0,0-6.927-14.886l-4.2,1.392s.769,3.566,1.984,7.831c1.337,4.69,3.128,12.027,3.028,16.318a12.941,12.941,0,0,1-2.406,7.185H359.07s-.408-.407-1.665-4.074" transform="translate(-356.213 -280.736)"/></g><g transform="translate(1.05 37.348)"><path d="M202.427,376.528l.134-1.447,34.763,3.987a3.421,3.421,0,0,1,2.981,3.991l-.156.877-35.978-5.2A2.04,2.04,0,0,1,202.427,376.528Z" transform="translate(-202.419 -375.081)" fill="#e8505b"/></g><g transform="translate(1.05 37.348)" opacity="0.6"><path d="M202.427,376.528l.134-1.447,34.763,3.987a3.421,3.421,0,0,1,2.981,3.991l-.156.877-35.978-5.2A2.04,2.04,0,0,1,202.427,376.528Z" transform="translate(-202.419 -375.081)"/></g><g transform="translate(68.649 33.509)" opacity="0.3"><path d="M467.433,374.93s7.653-8.379,9.23-14.967a14.972,14.972,0,0,1,2.37.175S474.508,372.384,467.433,374.93Z" transform="translate(-467.433 -359.962)"/></g><g transform="translate(68.263 30.557)"><path d="M475.424,348.335a1.285,1.285,0,0,1,.042.212c.02.14.061.345.087.613a9.417,9.417,0,0,1-.059,2.274,11.574,11.574,0,0,1-1.01,3.22,36.518,36.518,0,0,1-2.026,3.605,48.089,48.089,0,0,1-4.479,6.03c-.624.732-1.137,1.317-1.494,1.718l-.414.46a1.291,1.291,0,0,1-.151.154,1.345,1.345,0,0,1,.131-.172l.4-.476,1.462-1.745a51.882,51.882,0,0,0,4.438-6.039,38.219,38.219,0,0,0,2.029-3.588,11.758,11.758,0,0,0,1.028-3.183,10,10,0,0,0,.1-2.256c-.018-.267-.051-.473-.062-.614A1.368,1.368,0,0,1,475.424,348.335Z" transform="translate(-465.918 -348.335)" fill="#263238"/></g><g transform="translate(62.181 46.116)"><path d="M444.433,411.908a20.514,20.514,0,0,1-2.358-2.3,20.5,20.5,0,0,1,2.358,2.3Z" transform="translate(-442.073 -409.608)" fill="#263238"/></g><g transform="translate(41.826 46.152)"><path d="M362.279,411.755a5.084,5.084,0,0,1,1.366-2c.029.026-.32.442-.695.994S362.314,411.772,362.279,411.755Z" transform="translate(-362.276 -409.75)" fill="#263238"/></g><g transform="translate(23.484 45.261)"><path d="M294.011,413.977a5.145,5.145,0,0,0,1.044-1.32,4.545,4.545,0,0,0,.511-1.738,4.026,4.026,0,0,0-1.83-3.82,4.6,4.6,0,0,0-1.679-.7,5.167,5.167,0,0,0-1.687-.023.388.388,0,0,1,.114-.034,2.607,2.607,0,0,1,.335-.065,4.016,4.016,0,0,1,1.255.03A4.562,4.562,0,0,1,293.8,407a4.09,4.09,0,0,1,1.885,3.933,4.521,4.521,0,0,1-.55,1.771,3.983,3.983,0,0,1-.767.99,2.637,2.637,0,0,1-.261.219A.409.409,0,0,1,294.011,413.977Z" transform="translate(-290.37 -406.242)" fill="#263238"/></g><g transform="translate(14.285 47.895)"><path d="M254.452,419.061a11.317,11.317,0,0,1-.117-2.447,11.356,11.356,0,0,1,.117,2.447Z" transform="translate(-254.305 -416.614)" fill="#263238"/></g><g transform="translate(15.026 47.892)"><path d="M257.539,419.055a11.525,11.525,0,0,1-.315-2.452,11.528,11.528,0,0,1,.315,2.452Z" transform="translate(-257.211 -416.603)" fill="#263238"/></g><g transform="translate(10.811 26.791)"><path d="M259.565,333.574c0,.037-4.227.066-9.439.066s-9.44-.029-9.44-.066,4.226-.066,9.44-.066S259.565,333.538,259.565,333.574Z" transform="translate(-240.686 -333.508)" fill="#263238"/></g><g transform="translate(15.937 5.319)"><path d="M260.849,270.475c-.037,0-.067-4.819-.067-10.762s.03-10.764.067-10.764.066,4.818.066,10.764S260.885,270.475,260.849,270.475Z" transform="translate(-260.782 -248.949)" fill="#263238"/></g><g transform="translate(13.411 5.319)"><path d="M250.883,270.458c-.037,0,.144-4.818.4-10.757s.5-10.753.537-10.752-.144,4.817-.4,10.758S250.92,270.459,250.883,270.458Z" transform="translate(-250.878 -248.949)" fill="#263238"/></g><g transform="translate(4.815 42.012)"><path d="M219.924,407.628a.7.7,0,0,1-.112-.112c-.068-.078-.177-.187-.3-.342a9.815,9.815,0,0,1-.941-1.377,10.49,10.49,0,0,1,.044-10.532,9.844,9.844,0,0,1,.953-1.369c.122-.154.232-.262.3-.34a.718.718,0,0,1,.113-.111.711.711,0,0,1-.093.128c-.062.083-.165.2-.28.354a11.172,11.172,0,0,0-.911,1.383,10.653,10.653,0,0,0-.044,10.44,11.168,11.168,0,0,0,.9,1.391c.114.159.216.273.277.357A.721.721,0,0,1,219.924,407.628Z" transform="translate(-217.178 -393.445)" fill="#455a64"/></g></g><g transform="translate(30.01)"><g transform="translate(0 12.187)"><g transform="translate(10.326 43.889)"><g transform="translate(0)"><path d="M360.2,373.105l-.08.15-1.535,2.877-2.153,2.064,4.3,5.7,3.585-.592s-.4-.815-2.2-.972l-.688-3.408,2.528-3.9" transform="translate(-356.436 -373.105)" fill="#455a64"/></g><g transform="translate(0 4.652)"><path d="M356.436,391.863l4.3,5.7,3.585-.592-.493-.47-2.942.322-3.994-5.4Z" transform="translate(-356.436 -391.424)" fill="#e0e0e0"/></g><g transform="translate(4.379 7.504)"><path d="M374.624,402.815c-.02.041-.247-.042-.523.012s-.46.2-.494.171.128-.269.465-.328S374.653,402.781,374.624,402.815Z" transform="translate(-373.603 -402.656)" fill="#263238"/></g><g transform="translate(4.144 6.501)"><path d="M373.74,399.028c-.032.031-.227-.153-.522-.161s-.5.16-.531.127c-.015-.014.016-.081.108-.152a.683.683,0,0,1,.847.028C373.729,398.946,373.756,399.015,373.74,399.028Z" transform="translate(-372.683 -398.707)" fill="#263238"/></g><g transform="translate(4.083 5.356)"><path d="M373.4,394.566c-.036.026-.193-.16-.457-.2s-.475.073-.5.037c-.013-.016.024-.074.118-.127a.632.632,0,0,1,.772.135C373.4,394.488,373.42,394.555,373.4,394.566Z" transform="translate(-372.443 -394.195)" fill="#263238"/></g><g transform="translate(4.955 4.238)"><path d="M376.765,390.276c-.04.022-.175-.164-.421-.271s-.473-.091-.483-.135.248-.146.549-.01S376.807,390.264,376.765,390.276Z" transform="translate(-375.86 -389.793)" fill="#263238"/></g><g transform="translate(5.211 2.58)"><path d="M377.858,384.6c-.016.015-.158-.109-.375-.322l-.375-.379a1.152,1.152,0,0,1-.215-.261.292.292,0,0,1-.014-.22.227.227,0,0,1,.2-.149.677.677,0,0,1,.363.118,1.211,1.211,0,0,1,.533.7.669.669,0,0,1,0,.5,4,4,0,0,0-.107-.465,1.243,1.243,0,0,0-.274-.418,1.155,1.155,0,0,0-.232-.179.583.583,0,0,0-.27-.093.065.065,0,0,0-.062.044.139.139,0,0,0,.007.1,1.194,1.194,0,0,0,.18.226l.349.4C377.762,384.43,377.875,384.581,377.858,384.6Z" transform="translate(-376.864 -383.266)" fill="#263238"/></g><g transform="translate(6.319 3.151)"><path d="M381.242,386.357c-.017,0-.035-.188.124-.435a.91.91,0,0,1,1.031-.367.167.167,0,0,1,.077.118.2.2,0,0,1-.024.12.561.561,0,0,1-.11.134,1.607,1.607,0,0,1-.229.186,1.568,1.568,0,0,1-.45.209.738.738,0,0,1-.45.032c0-.026.168-.041.413-.139a1.779,1.779,0,0,0,.4-.223,1.674,1.674,0,0,0,.2-.176.447.447,0,0,0,.079-.1c.012-.034.009-.024,0-.033a.285.285,0,0,0-.11-.021.82.82,0,0,0-.136,0,.886.886,0,0,0-.606.319A3.453,3.453,0,0,0,381.242,386.357Z" transform="translate(-381.21 -385.512)" fill="#263238"/></g><g transform="translate(1.985 4.15)"><path d="M365.075,389.807a.431.431,0,1,1-.5-.353A.429.429,0,0,1,365.075,389.807Z" transform="translate(-364.219 -389.449)" fill="#e0e0e0"/></g></g><g transform="translate(27.154 45.957)"><path d="M422.406,381.923l1.15,7.436,9.3-1.378c-.186-.876-5.264-1.94-5.264-1.94l-.541-4.795Z" transform="translate(-422.406 -381.248)" fill="#455a64"/><g transform="translate(2.031 4.789)"><path d="M430.589,400.137a.381.381,0,0,0-.2.47.369.369,0,0,0,.467.2.4.4,0,0,0,.207-.5.384.384,0,0,0-.508-.154" transform="translate(-430.368 -400.106)" fill="#e0e0e0"/></g><g transform="translate(1.064 6.319)"><path d="M426.663,407.926l-.086-.754,8.95-1.039s.441.118.437.415Z" transform="translate(-426.577 -406.133)" fill="#e0e0e0"/></g><g transform="translate(4.557 4.7)"><path d="M441.046,399.78c.005.045-.219.1-.421.278s-.292.386-.337.374-.016-.283.232-.495S441.05,399.737,441.046,399.78Z" transform="translate(-440.272 -399.755)" fill="#263238"/></g><g transform="translate(5.835 4.97)"><path d="M445.815,400.831c.017.042-.168.148-.294.363s-.14.423-.185.428-.113-.247.049-.51S445.807,400.789,445.815,400.831Z" transform="translate(-445.283 -400.819)" fill="#263238"/></g><g transform="translate(7.007 5.232)"><path d="M449.964,402.681c-.04.016-.137-.2-.057-.465s.277-.395.3-.36-.087.187-.149.4S450.008,402.67,449.964,402.681Z" transform="translate(-449.876 -401.85)" fill="#263238"/></g><g transform="translate(4.126 3.539)"><path d="M439.543,395.293c-.013.044-.23.012-.485.068s-.442.166-.472.131.139-.225.439-.286S439.56,395.254,439.543,395.293Z" transform="translate(-438.583 -395.186)" fill="#263238"/></g><g transform="translate(3.203 2.003)"><path d="M436.461,389.712a.887.887,0,0,1-.466.067,2.119,2.119,0,0,1-.51-.077,2.252,2.252,0,0,1-.288-.1.578.578,0,0,1-.157-.088.2.2,0,0,1-.057-.237.252.252,0,0,1,.183-.133.622.622,0,0,1,.178,0,1.685,1.685,0,0,1,.3.056,1.664,1.664,0,0,1,.471.217c.245.167.344.325.33.336s-.144-.108-.389-.24a1.894,1.894,0,0,0-.45-.172,1.776,1.776,0,0,0-.28-.042c-.1-.011-.186,0-.205.048-.007.018-.007.025.018.05a.469.469,0,0,0,.115.065,2.517,2.517,0,0,0,.267.1,2.619,2.619,0,0,0,.476.1A3.29,3.29,0,0,1,436.461,389.712Z" transform="translate(-434.964 -389.134)" fill="#263238"/></g><g transform="translate(4.433 1.127)"><path d="M440,387.214c-.015.009-.129-.139-.19-.43a1.519,1.519,0,0,1-.012-.517,1.538,1.538,0,0,1,.076-.3.388.388,0,0,1,.262-.278.221.221,0,0,1,.214.1.633.633,0,0,1,.073.163,1.037,1.037,0,0,1,.047.312,1.076,1.076,0,0,1-.128.509c-.146.267-.327.349-.333.334a3.854,3.854,0,0,0,.231-.382,1.074,1.074,0,0,0,.082-.458.967.967,0,0,0-.048-.267c-.029-.1-.078-.17-.114-.155s-.114.092-.14.176a1.582,1.582,0,0,0-.078.268,1.679,1.679,0,0,0-.021.476C439.952,387.041,440.026,387.2,440,387.214Z" transform="translate(-439.784 -385.686)" fill="#263238"/></g></g><g transform="translate(11.858 28.798)"><path d="M370.419,314.044l-7.977,17.3,5.268,3.148,11.029-20.82" transform="translate(-362.442 -313.676)" fill="#263238"/></g><g transform="translate(1.616 22.702)"><path d="M353.662,316.98l-5.724.914-3.425-20.35-16.924,1.222a4.114,4.114,0,0,1-1.334-.128c-4.753-1.3-4.11-7.329-3.652-8.3l23.42-.67a4.98,4.98,0,0,1,5.082,4.274Z" transform="translate(-322.289 -289.669)" fill="#263238"/></g><path d="M317.652,224.6l.085-8.6s-1.115-5.594-1.446-7.793c-.512-3.414-1.214-5.035,4.4-7.462l1.228-.472,1.9.025c2.267.17,4.654,2.209,4.709,3.561l2.187,19.387Z" transform="translate(-315.954 -200.269)" fill="#e8505b"/><g transform="translate(0.739 2.472)"><path d="M320.163,210a14.5,14.5,0,0,0-1.268,6.492l5.909,5.647a6.959,6.959,0,0,0,5.1,2.22l12.23,1.331.339-3.185-11.633-3.282c-.463-.085-.694-.566-1.049-.874L320.163,210" transform="translate(-318.853 -210.004)" fill="#e8505b"/></g><g transform="translate(1.094 3.021)"><path d="M320.243,212.6a.856.856,0,0,1,.234-.156,2.828,2.828,0,0,1,.79-.22,4.059,4.059,0,0,1,1.321,0,1.373,1.373,0,0,1,.388.133,3.4,3.4,0,0,1,.359.245,8.954,8.954,0,0,1,.715.622c.491.455.953,1.031,1.5,1.615s1.139,1.212,1.785,1.869,1.342,1.346,2.089,2.057c.375.354.761.714,1.169,1.067.207.169.412.367.608.552a1.461,1.461,0,0,0,.687.4h.006l11.635,3.275.054.015-.006.055c-.024.225-.05.469-.076.713-.091.847-.18,1.685-.264,2.472l-.007.066-.066-.007-5.176-.566-2.449-.268-2.344-.236c-.762-.083-1.5-.17-2.22-.275a9.984,9.984,0,0,1-2.055-.475,7.6,7.6,0,0,1-1.731-.926c-.517-.358-.988-.733-1.429-1.1-1.748-1.485-3.031-2.812-3.921-3.716-.442-.456-.78-.813-1.007-1.057l-.256-.279c-.057-.064-.083-.1-.083-.1s.033.029.093.09l.265.271,1.024,1.04c.9.893,2.193,2.21,3.944,3.682.441.362.913.734,1.427,1.087a7.518,7.518,0,0,0,1.712.907,9.92,9.92,0,0,0,2.034.463c.715.1,1.455.187,2.216.268l2.343.231,2.45.265,5.177.561-.073.058c.084-.787.173-1.625.263-2.472l.076-.713.048.071L331.86,220.9l.006,0a1.57,1.57,0,0,1-.745-.431c-.205-.195-.393-.378-.6-.552-.409-.357-.8-.719-1.17-1.074-.746-.714-1.44-1.407-2.084-2.068s-1.238-1.288-1.777-1.88-1-1.167-1.483-1.621a8.981,8.981,0,0,0-.7-.623,3.4,3.4,0,0,0-.35-.244,1.323,1.323,0,0,0-.37-.13,4.083,4.083,0,0,0-1.3-.02,2.957,2.957,0,0,0-.787.2A2.087,2.087,0,0,0,320.243,212.6Z" transform="translate(-320.243 -212.166)" fill="#263238"/></g></g><g transform="translate(3.477)"><g transform="translate(0 0.382)"><g transform="translate(0 0.276)"><g transform="translate(0.655)"><path d="M332.168,158.934l.594,8.375a2.618,2.618,0,0,0,2.617,2.427h0A2.616,2.616,0,0,0,338,166.954c-.053-.8-.1-1.45-.1-1.45a2.439,2.439,0,0,0,2.062-2.342c.015-1.171-.188-3.828-.362-5.863a2.666,2.666,0,0,0-2.662-2.432H335.7A3.757,3.757,0,0,0,332.168,158.934Z" transform="translate(-332.154 -154.866)" fill="#ffbe9d"/><g transform="translate(3.09 9.858)"><path d="M346.923,194.436a4.75,4.75,0,0,1-2.655-.751,2.51,2.51,0,0,0,2.659,1.277Z" transform="translate(-344.268 -193.685)" fill="#eb996e"/></g></g><g transform="translate(3.322 3.069)"><g transform="translate(0.198 1.092)"><g transform="translate(3.076)"><g transform="translate(0.462 0.615)"><path d="M357.834,173.934a.29.29,0,0,1-.28.292.278.278,0,0,1-.3-.261.29.29,0,0,1,.28-.292A.278.278,0,0,1,357.834,173.934Z" transform="translate(-357.254 -173.672)" fill="#263238"/></g><path d="M356.593,171.556c-.036.038-.256-.125-.569-.124s-.542.157-.576.118c-.017-.017.02-.085.12-.157a.8.8,0,0,1,.461-.141.769.769,0,0,1,.453.145C356.578,171.471,356.611,171.539,356.593,171.556Z" transform="translate(-355.444 -171.252)" fill="#263238"/></g><g transform="translate(0 0.058)"><g transform="translate(0.6 0.556)"><path d="M346.316,173.934a.29.29,0,0,1-.28.292.277.277,0,0,1-.3-.261.29.29,0,0,1,.28-.292A.278.278,0,0,1,346.316,173.934Z" transform="translate(-345.735 -173.672)" fill="#263238"/></g><path d="M344.534,171.785c-.036.038-.257-.124-.57-.124s-.542.157-.576.118c-.017-.017.02-.085.12-.157a.8.8,0,0,1,.461-.141.768.768,0,0,1,.453.146C344.518,171.7,344.551,171.768,344.534,171.785Z" transform="translate(-343.384 -171.481)" fill="#263238"/></g><g transform="translate(2.139 0.077)"><path d="M351.915,174.151a2.071,2.071,0,0,1,.508-.091c.08-.008.156-.024.169-.078a.4.4,0,0,0-.053-.236l-.236-.606a10.39,10.39,0,0,1-.531-1.584,10.423,10.423,0,0,1,.658,1.538l.226.609a.459.459,0,0,1,.041.312.2.2,0,0,1-.131.116.532.532,0,0,1-.135.019A2.041,2.041,0,0,1,351.915,174.151Z" transform="translate(-351.769 -171.555)" fill="#263238"/></g><g transform="translate(1.314 2.888)"><path d="M348.584,182.626c.051,0,.052.335.342.575s.652.2.655.25c0,.021-.081.066-.233.07a.848.848,0,0,1-.547-.189.732.732,0,0,1-.265-.482C348.523,182.708,348.561,182.624,348.584,182.626Z" transform="translate(-348.534 -182.626)" fill="#263238"/></g></g><path d="M344.037,167.185c-.031.085-.343.045-.71.089s-.664.144-.713.068c-.022-.036.03-.116.149-.2a1.25,1.25,0,0,1,1.084-.119C343.982,167.079,344.05,167.145,344.037,167.185Z" transform="translate(-342.609 -166.952)" fill="#263238"/><g transform="translate(3.243 0.172)"><path d="M356.386,167.951c-.055.071-.271,0-.53-.006s-.479.048-.529-.026c-.022-.036.013-.107.108-.174a.77.77,0,0,1,.853.026C356.381,167.844,356.411,167.917,356.386,167.951Z" transform="translate(-355.321 -167.629)" fill="#263238"/></g></g><g transform="translate(0 5.525)"><path d="M330.942,176.688c-.035-.015-1.4-.412-1.355.974a1.047,1.047,0,0,0,1.434,1.016C331.022,178.638,330.942,176.688,330.942,176.688Z" transform="translate(-329.586 -176.625)" fill="#ffbe9d"/><g transform="translate(0.354 0.454)"><path d="M331.614,179.5c-.006,0-.024.018-.064.038a.244.244,0,0,1-.181.01.6.6,0,0,1-.295-.527.792.792,0,0,1,.057-.348.279.279,0,0,1,.176-.191.123.123,0,0,1,.145.061c.02.038.012.066.019.068s.029-.024.016-.081a.154.154,0,0,0-.057-.085.184.184,0,0,0-.135-.031.341.341,0,0,0-.246.223.821.821,0,0,0-.072.389.627.627,0,0,0,.373.587.261.261,0,0,0,.221-.044C331.612,179.533,331.619,179.5,331.614,179.5Z" transform="translate(-330.975 -178.411)" fill="#eb996e"/></g></g></g><g transform="translate(0.336)"><path d="M331.147,159.6a.733.733,0,0,1,.67.342c.091.2.11.422.2.62a.492.492,0,0,0,.507.327.428.428,0,0,0,.29-.316,1.169,1.169,0,0,0,0-.447c-.082-.647-.219-1.289-.245-1.941a3.319,3.319,0,0,1,.411-1.884,1.832,1.832,0,0,1,1.628-.911c.433.035.83.259,1.259.319a1.7,1.7,0,0,0,1.413-.47c.047-.046.264-.189.264-.189a.8.8,0,0,0-.146-.429,4.108,4.108,0,0,0-3.516-.722,4.059,4.059,0,0,0-2.667,2.125,5.813,5.813,0,0,0-.074,3.576" transform="translate(-330.902 -153.779)" fill="#263238"/></g></g><g transform="translate(0.12)"><path d="M338.055,155.052s-5.342-1.711-7.653,2.89a8.592,8.592,0,0,1-.345-1.769,4.123,4.123,0,0,1,8-1.121Z" transform="translate(-330.057 -152.275)" fill="#e8505b"/></g><g transform="translate(3.425 1.94)"><path d="M343.117,160.868a1.165,1.165,0,0,0,1.85.167.686.686,0,0,0,1.295-.068,1.558,1.558,0,0,0,.52.378.533.533,0,0,0,.594-.123.514.514,0,0,0-.037-.61,1.265,1.265,0,0,0-.542-.363,3.93,3.93,0,0,0-2.016-.3,2.719,2.719,0,0,0-1.767.958" transform="translate(-343.013 -159.916)" fill="#263238"/></g><g transform="translate(0.12)" opacity="0.4"><path d="M338.055,155.052a2.486,2.486,0,0,0-1.7-.768,6.715,6.715,0,0,0-5.954,3.658,8.592,8.592,0,0,1-.345-1.769,4.123,4.123,0,0,1,8-1.121Z" transform="translate(-330.057 -152.275)"/></g><g transform="translate(0.689 0.112)"><path d="M332.286,157.734a10.04,10.04,0,0,1,3.112-2.968,19.693,19.693,0,0,1,4.658-1.889,3.05,3.05,0,0,1,1.287-.134,1.158,1.158,0,0,1,.954.777c.133.525-.8,1.336-1.243,1.654a14.461,14.461,0,0,1-1.337.786s.012-.974-1.554-1.175C336.031,154.513,332.286,157.734,332.286,157.734Z" transform="translate(-332.286 -152.717)" fill="#e8505b"/></g></g><g transform="translate(2.286 22.409)" opacity="0.3"><path d="M324.915,240.521a24.832,24.832,0,0,0,1.9,4.148,7.405,7.405,0,0,0,3.193,2.8,6.914,6.914,0,0,0,5.3.094c.135-.058.4-.132.375-.276,0,0-.55-.061-.718-.09-3.352-.563-3.715-.975-5.319-2.237-1-.787-3.217-3.166-4.732-4.44" transform="translate(-324.915 -240.521)"/></g><g transform="translate(5.376 32.043)"><path d="M344.59,278.46a1.327,1.327,0,0,1-.139.31,3.875,3.875,0,0,1-.542.752,5.847,5.847,0,0,1-2.6,1.581,11.855,11.855,0,0,1-3.021.451c-.391.014-.706.018-.925.017a1.657,1.657,0,0,1-.339-.015,1.694,1.694,0,0,1,.338-.036l.921-.059a13.219,13.219,0,0,0,2.986-.484,6.063,6.063,0,0,0,2.566-1.518A6.484,6.484,0,0,0,344.59,278.46Z" transform="translate(-337.029 -278.459)" fill="#263238"/></g><g transform="translate(13.666 42.699)"><path d="M383.23,341.446a.364.364,0,0,1-.02-.079l-.046-.234-.164-.9-.58-3.316-1.863-10.948-.916-5.471.066.051-7.322.533-2.1.142-.56.033-.144.006a.177.177,0,0,1-.049,0,.186.186,0,0,1,.048-.009l.144-.016.559-.052,2.1-.178,7.318-.581.057,0,.009.056.925,5.47,1.824,10.954.538,3.323.14.9.033.236A.365.365,0,0,1,383.23,341.446Z" transform="translate(-369.528 -320.422)" fill="#455a64"/></g><g transform="translate(23.715 40.949)"><path d="M410.769,313.534c.024.03-.422.411-.927.925s-.883.961-.914.938a6.111,6.111,0,0,1,1.841-1.863Z" transform="translate(-408.926 -313.533)" fill="#455a64"/></g></g><g transform="translate(34.515 12.873)"><path d="M339.032,203.021s.015.027.031.083a1.406,1.406,0,0,1,.048.249,2.06,2.06,0,0,1-.124.923,2.378,2.378,0,0,1-.84,1.1,2.551,2.551,0,0,1-1.637.435,2.948,2.948,0,0,1-1.589-.593,3.414,3.414,0,0,1-.9-1.049,3.644,3.644,0,0,1-.345-.864,2.408,2.408,0,0,1-.051-.248c-.008-.057-.011-.087-.006-.088a5.711,5.711,0,0,0,.484,1.153,3.449,3.449,0,0,0,.9,1,2.88,2.88,0,0,0,1.524.558,2.47,2.47,0,0,0,1.558-.4,2.342,2.342,0,0,0,.823-1.033,2.173,2.173,0,0,0,.16-.886C339.051,203.141,339.019,203.024,339.032,203.021Z" transform="translate(-333.614 -202.968)" fill="#263238"/></g><g transform="translate(41.243 44.646)"><path d="M359.991,328.092" transform="translate(-359.991 -328.092)" fill="none" stroke="#263238" stroke-miterlimit="10" stroke-width="0.05"/></g><g transform="translate(42.731 17.212)"><path d="M366.625,226.858a1.064,1.064,0,0,1-.055-.265l-.1-.727-.313-2.4c-.116-.939-.206-1.79-.262-2.408-.028-.309-.048-.559-.058-.732a.136.136,0,1,1,.052-.006l.1.727c.081.647.185,1.48.3,2.4.116.938.216,1.788.275,2.406.03.309.051.559.061.732A1.047,1.047,0,0,1,366.625,226.858Z" transform="translate(-365.825 -220.057)" fill="#263238"/></g></g></g></g></svg>