<svg xmlns="http://www.w3.org/2000/svg" xmlns:xlink="http://www.w3.org/1999/xlink" width="117.069" height="117.511" viewBox="0 0 117.069 117.511"><defs><linearGradient id="a" x1="0.519" y1="-0.055" x2="0.496" y2="0.719" gradientUnits="objectBoundingBox"><stop offset="0" stop-color="#efcf64"/><stop offset="0.371" stop-color="#e38378"/><stop offset="1" stop-color="#4136eb"/></linearGradient><clipPath id="b"><path d="M134.48,130.43c-4.268-.3-8.551-.39-12.826-.352a94.3,94.3,0,0,0-21.961,2.307c-8.366,2.081-18.682,6.3-22.709,14.51-2.8,5.71-2.18,12.272-3.566,18.335-1.526,6.676-6.9,11.6-8.545,18.257-2.712,10.979,3.539,20.363,12.913,25.461,11.556,6.285,26.186,9.182,39.159,10.627,10.308,1.147,20.979.6,30.656-3.136,15.925-6.143,26.758-21.212,26.076-38.481-.414-10.48-7.612-19-9.583-29.092-.627-3.211-.834-6.625-2.546-9.412-3.65-5.942-10.878-6.96-17.181-7.935C141.087,131.012,137.788,130.66,134.48,130.43Z" transform="translate(-64.235 -130.07)" fill="none"/></clipPath><linearGradient id="c" x1="0.5" y1="0.384" x2="0.5" y2="1.046" gradientUnits="objectBoundingBox"><stop offset="0" stop-color="#efcf64"/><stop offset="1" stop-color="#eaac6d"/></linearGradient><linearGradient id="d" x1="0.5" x2="0.5" y2="1" gradientUnits="objectBoundingBox"><stop offset="0" stop-color="#d0717c"/><stop offset="0.967" stop-color="#bb3d74"/></linearGradient><linearGradient id="e" x1="-202.796" y1="-142.835" x2="-202.796" y2="-141.836" gradientUnits="objectBoundingBox"><stop offset="0" stop-color="#a867a2"/><stop offset="1" stop-color="#4136eb"/></linearGradient><linearGradient id="f" x1="-194.947" y1="-237.569" x2="-194.947" y2="-235.912" xlink:href="#e"/><linearGradient id="g" y1="0.5" x2="1" y2="0.5" gradientUnits="objectBoundingBox"><stop offset="0" stop-color="#68acff"/><stop offset="0.229" stop-color="#64a7ff"/><stop offset="0.498" stop-color="#5a98ff"/><stop offset="0.787" stop-color="#4a81ff"/><stop offset="1" stop-color="#3b6bff"/></linearGradient><linearGradient id="h" x1="0.5" y1="0.062" x2="0.5" y2="0.607" xlink:href="#g"/><linearGradient id="l" x1="105.42" y1="-166.173" x2="105.292" y2="-165.527" gradientUnits="objectBoundingBox"><stop offset="0" stop-color="#84e4fd"/><stop offset="0.472" stop-color="#6a8bfa"/><stop offset="0.83" stop-color="#584ff9"/><stop offset="1" stop-color="#5238f9"/></linearGradient><linearGradient id="r" x1="0.5" y1="2.66" x2="0.5" y2="0.5" xlink:href="#a"/><linearGradient id="s" x1="0.5" y1="2.472" x2="0.5" y2="0.312" xlink:href="#a"/><clipPath id="v"><path d="M173.676,119.293c-.414-10.48-7.612-19-9.583-29.092-.627-3.211-.834-6.625-2.546-9.412-2.081-3.388-5.327-5.174-8.9-6.266V45.759H95.4V74.944c-7.327,2.37-15.058,6.438-18.417,13.286-2.8,5.71-2.18,12.272-3.566,18.335-1.526,6.676-6.9,11.6-8.545,18.257-2.712,10.979,3.539,20.363,12.913,25.461,11.556,6.285,26.186,9.182,39.159,10.627,10.308,1.147,20.979.6,30.656-3.136C163.524,151.631,174.358,136.563,173.676,119.293Z" transform="translate(-64.235 -45.759)" fill="none"/></clipPath><linearGradient id="w" x1="0.5" x2="0.5" y2="1" gradientUnits="objectBoundingBox"><stop offset="0" stop-color="#df697b"/><stop offset="1" stop-color="#be2773"/></linearGradient></defs><g transform="translate(-58.123 -45.759)"><path d="M123.367,119.707a102.943,102.943,0,0,0-11.444,1.23c-9,1.477-16.848,4.872-25.186,8.4-1.439.609-2.925,1.288-4.417,2.039-7.46,3.752-15.054,9.294-17.471,16.826-2.016,6.285-.205,12.794-.639,19.174-.477,7.024-5.4,12.988-6.006,20.019-1,11.588,7.353,19.9,18.32,23.31,13.52,4.2,29.754,4.412,43.955,3.462,11.282-.755,22.66-3.291,32.413-8.855,11.236-6.411,19.027-16.774,21.407-28.352a37.385,37.385,0,0,0,.683-5.028c.518-4.472.214-9.338-2.524-13.293A153.857,153.857,0,0,1,163.72,145.2c-2.786-5.081-5.227-10.348-8.192-15.331a25.449,25.449,0,0,0-4.558-5.988c-3.09-2.8-6.818-3.077-10.769-3.571A96.319,96.319,0,0,0,123.367,119.707Z" transform="translate(0 -51.365)" fill="#d6e1e8"/><path d="M134.48,130.43c-4.268-.3-8.551-.39-12.826-.352a94.3,94.3,0,0,0-21.961,2.307c-8.366,2.081-18.682,6.3-22.709,14.51-2.8,5.71-2.18,12.272-3.566,18.335-1.526,6.676-6.9,11.6-8.545,18.257-2.712,10.979,3.539,20.363,12.913,25.461,11.556,6.285,26.186,9.182,39.159,10.627,10.308,1.147,20.979.6,30.656-3.136,15.925-6.143,26.758-21.212,26.076-38.481-.414-10.48-7.612-19-9.583-29.092-.627-3.211-.834-6.625-2.546-9.412-3.65-5.942-10.878-6.96-17.181-7.935C141.087,131.012,137.788,130.66,134.48,130.43Z" transform="translate(-4.253 -58.665)" fill="url(#a)"/><g transform="translate(59.982 71.405)"><g clip-path="url(#b)"><g transform="translate(-27.502 35.632)"><g transform="translate(25.602 1.153)" style="mix-blend-mode:multiply;isolation:isolate"><path d="M57.987,280.74v-1.389h2.782v-8.629h6.526V254.188h4.873v23.235h3.345v-12.38h7.654v15.263h2.98V253.257h1.76v2.528h2.98v7.123h.9v12.735h7.091V265.076h3.009v-2.323h6.738v10.022h4.558v-2.258h7.693V254.895h7.306v18.489h8.4V263.247h.88V251H143.1V267.91h.163v10.137h3.531V262.784h6.941v2.244h2.128v10.137h3.963V251.93h2.126v6.4H165.6v10.137h5.66v18.122H57.987Z" transform="translate(-57.987 -250.999)" fill="#d1d3d4"/></g><g transform="translate(48.255)"><path d="M213.022,249.8c-.748-1.054-1.829-2.591-1.829-2.591H202.8s-1.081,1.537-1.829,2.591h12.051Z" transform="translate(-180.131 -247.21)" fill="#f8fafb"/><path d="M294.968,286.994a1.305,1.305,0,0,0-1.34-.761l-2.887.33a2.178,2.178,0,0,0-1.6.924l1.047,1.767.554.509a7.834,7.834,0,0,0,3.58-.472A1.562,1.562,0,0,0,294.968,286.994Z" transform="translate(-241.48 -274.356)" fill="#e8c154"/><path d="M280.428,350.064h-5.921v4.019a1.063,1.063,0,0,0,1.063,1.063h5.893a1.063,1.063,0,0,0,1.063-1.063v-6.113A2.094,2.094,0,0,1,280.428,350.064Z" transform="translate(-231.298 -317.321)" fill="#2e336d"/><path d="M205.837,341.652h-20.1a.874.874,0,0,0-.875.875v.57a.874.874,0,0,0,.875.875h20.1a.874.874,0,0,0,.876-.875v-.57A.874.874,0,0,0,205.837,341.652Z" transform="translate(-168.921 -312.924)" fill="#2e336d"/><path d="M206.153,323.661l0,.012-.183.57-.183.57-.061.2a2.535,2.535,0,0,1-.151.379,2.762,2.762,0,0,1-.265.468,3.044,3.044,0,0,1-.5.57,3.2,3.2,0,0,1-2.134.814h-15.63a3.2,3.2,0,0,1-2.134-.814,3.056,3.056,0,0,1-.5-.57,2.764,2.764,0,0,1-.265-.468,2.539,2.539,0,0,1-.151-.379l-.061-.2-.183-.57-.183-.57,0-.012a.7.7,0,0,1,.668-.912h21.258A.7.7,0,0,1,206.153,323.661Z" transform="translate(-167.992 -299.771)" fill="#2e336d"/><g transform="translate(7.318 3.988)"><path d="M195.613,271.319l-6.088-10.568a.871.871,0,0,0-.749-.432H163.354a.871.871,0,0,0-.749.432l-6.088,10.568h39.1Z" transform="translate(-156.517 -260.319)" fill="#2e336d"/><path d="M195.613,271.319l-6.088-10.568a.871.871,0,0,0-.749-.432H163.354a.871.871,0,0,0-.749.432l-6.088,10.568h39.1Z" transform="translate(-156.517 -260.319)"/><path d="M195.613,271.319l-6.088-10.568a.871.871,0,0,0-.749-.432H163.354a.871.871,0,0,0-.749.432l-6.088,10.568h39.1Z" transform="translate(-156.517 -260.319)" fill="none" stroke="#2e336d" stroke-miterlimit="10" stroke-width="1"/></g><path d="M185.848,266.266l-5.119-8.666a3.811,3.811,0,0,0-3.282-1.873H152.661a3.811,3.811,0,0,0-3.282,1.873l-5.119,8.666-1.047,1.767-.554.509-.476.432a4.577,4.577,0,0,0-1.491,3.376v11.436a2.094,2.094,0,0,0,2.1,2.093h44.528a2.094,2.094,0,0,0,2.1-2.093V272.351a4.578,4.578,0,0,0-1.491-3.376l-.476-.432-.554-.509Zm-34.254-8.711a.871.871,0,0,1,.749-.432h25.421a.871.871,0,0,1,.749.432l6.088,10.568h-39.1Zm-4.166,26.634a1.281,1.281,0,1,1,1.283-1.279A1.276,1.276,0,0,1,147.428,284.189Zm-1.763-4.179a2.326,2.326,0,0,1-2.24-1.841l-.415-1.922a1.459,1.459,0,0,1,1.763-1.731l5.987,1.421a1.264,1.264,0,0,1,.928.912l.843,3.282Zm30.316,3.3a.874.874,0,0,1-.876.875H155a.874.874,0,0,1-.875-.875v-.57a.874.874,0,0,1,.875-.875h20.1a.874.874,0,0,1,.876.875Zm.37-6.284-.432,1.348a3.2,3.2,0,0,1-3.05,2.232h-15.63a3.2,3.2,0,0,1-3.05-2.232l-.432-1.348a.7.7,0,0,1,.668-.912h21.258A.7.7,0,0,1,176.351,277.026Zm6.329,7.164a1.281,1.281,0,1,1,1.279-1.279A1.279,1.279,0,0,1,182.679,284.189Zm4.419-7.941-.415,1.922a2.326,2.326,0,0,1-2.24,1.841l-6.866.122.843-3.282a1.264,1.264,0,0,1,.929-.912l5.986-1.421A1.459,1.459,0,0,1,187.1,276.248Z" transform="translate(-138.188 -253.136)" fill="url(#c)"/><path d="M138.531,287.486a2.178,2.178,0,0,0-1.6-.924l-2.887-.33a1.3,1.3,0,0,0-1.34.761,1.562,1.562,0,0,0,.647,2.3,7.834,7.834,0,0,0,3.58.472l.554-.509Z" transform="translate(-132.46 -274.356)" fill="#e8c154"/><path d="M140.692,347.971v6.113a1.063,1.063,0,0,0,1.063,1.063h5.893a1.063,1.063,0,0,0,1.063-1.063v-4.019h-5.921A2.094,2.094,0,0,1,140.692,347.971Z" transform="translate(-138.188 -317.321)" fill="#2e336d"/><g transform="translate(23.947 0.591)"><path d="M211.185,249.154h1.263v.346h-.416v1.216H211.6V249.5h-.412Z" transform="translate(-211.185 -249.154)" fill="#565588"/><path d="M217.345,250.461h-.554l-.084.255h-.456l.569-1.562h.5l.567,1.562h-.459Zm-.277-.837-.166.5h.334Z" transform="translate(-214.71 -249.154)" fill="#565588"/><path d="M223.282,250.275l-.259.441h-.494l.507-.8-.525-.762h.512l.295.43.253-.43h.494l-.5.787.534.776h-.512Z" transform="translate(-219.066 -249.154)" fill="#565588"/><path d="M228.947,249.154h.434v1.562h-.434Z" transform="translate(-223.544 -249.154)" fill="#565588"/></g><path d="M275.79,340.875a1.281,1.281,0,1,0,1.279,1.283A1.283,1.283,0,0,0,275.79,340.875Z" transform="translate(-231.298 -312.384)" fill="#c6dff2" stroke="#d1a024" stroke-miterlimit="10" stroke-width="1"/><path d="M269.707,317.407l-5.986,1.421a1.264,1.264,0,0,0-.929.912l-.843,3.282,6.866-.122a2.326,2.326,0,0,0,2.24-1.841l.415-1.922A1.459,1.459,0,0,0,269.707,317.407Z" transform="translate(-222.56 -296.026)" fill="#c6dff2" stroke="#d1a024" stroke-miterlimit="10" stroke-width="1"/><path d="M159.911,340.875a1.281,1.281,0,1,0,1.283,1.283A1.279,1.279,0,0,0,159.911,340.875Z" transform="translate(-150.671 -312.384)" fill="#c6dff2" stroke="#d1a024" stroke-miterlimit="10" stroke-width="1"/><path d="M155.981,318.828l-5.987-1.421a1.459,1.459,0,0,0-1.763,1.731l.415,1.922a2.327,2.327,0,0,0,2.24,1.841l6.866.122-.843-3.282A1.264,1.264,0,0,0,155.981,318.828Z" transform="translate(-143.41 -296.026)" fill="#c6dff2" stroke="#d1a024" stroke-miterlimit="10" stroke-width="1"/><path d="M206.235,325.788l-.183.57H183.832l-.183-.57Z" transform="translate(-168.078 -301.886)" fill="#565588"/><path d="M206.707,329.537l-.061.2a2.538,2.538,0,0,1-.151.379H185.066a2.54,2.54,0,0,1-.151-.379l-.061-.2Z" transform="translate(-168.916 -304.494)" fill="#565588"/><path d="M207.32,332.964a3.045,3.045,0,0,1-.5.57h-19.9a3.054,3.054,0,0,1-.5-.57Z" transform="translate(-170.006 -306.879)" fill="#565588"/><rect width="10.119" height="3.555" transform="translate(21.806 28.181)" fill="#efeadc" stroke="#d1a024" stroke-miterlimit="10" stroke-width="1"/><g transform="translate(22.721 29.151)"><path d="M207.593,343.126v1.239h.489v.335h-.927v-1.574Z" transform="translate(-207.155 -343.101)" fill="#565588"/><path d="M212.129,344.66a.807.807,0,1,1,.806-.809A.792.792,0,0,1,212.129,344.66Zm0-.406a.405.405,0,1,0-.362-.4A.357.357,0,0,0,212.129,344.253Z" transform="translate(-210.053 -343.045)" fill="#565588"/><path d="M218.7,343.126c.391,0,.587.223.587.5a.457.457,0,0,1-.346.456l.355.614h-.489l-.313-.581h-.047v.581h-.438v-1.574Zm-.036.366h-.217v.328h.217c.118,0,.179-.058.179-.165A.156.156,0,0,0,218.666,343.492Z" transform="translate(-214.709 -343.101)" fill="#565588"/><path d="M224.61,343.477h-.569v.257h.5v.333h-.5v.283h.569v.351H223.6v-1.574h1.007Z" transform="translate(-218.6 -343.101)" fill="#565588"/><path d="M228.363,343.126h.529l.4,1.023.386-1.023h.527V344.7h-.438v-.869l-.3.869H229.1l-.3-.875v.875h-.438Z" transform="translate(-221.912 -343.101)" fill="#565588"/></g></g><path d="M317.05,326.628c-.4-.134-1.428,1.7-2.557,4.423,1.065-7.97.947-10.153.5-10.3-.426-.139-2.693,5.389-3.116,9.685q.255-11.915-.466-11.973c-.5-.041-.93,4.236-2.119,12.6-.748-4.72-1.687-7.182-2-7.153-.334.03-.016,2.881.136,8.242-1.536-3.183-2.8-4.893-2.974-4.821q-.3.124,2.022,6.492h9.349S317.691,326.842,317.05,326.628Z" transform="translate(-203.858 -296.79)" fill="url(#d)"/><path d="M80.759,366.651a28.939,28.939,0,0,0,8.524,6.915c11.556,6.285,26.186,9.182,39.159,10.627,10.308,1.147,20.979.6,30.656-3.136a41.523,41.523,0,0,0,18.79-14.405Z" transform="translate(-48.23 -330.319)" fill="#212f47"/><g transform="translate(107.559 14.944)"><g transform="translate(0)"><path d="M334.152,305.729a7.829,7.829,0,0,0,1.769-1.761,4.221,4.221,0,0,0-2.289.771,4.706,4.706,0,0,0-1.684,2.057A5.732,5.732,0,0,0,334.152,305.729Zm.155,10.528a5.8,5.8,0,0,0,1.558-1.922,8.055,8.055,0,0,0,.872-2.362,4.246,4.246,0,0,0-1.769,1.675A4.716,4.716,0,0,0,334.307,316.257Zm-4.667-9.308a5.161,5.161,0,0,0-2.217-1.319,6.608,6.608,0,0,0,1.7,2.524,3.9,3.9,0,0,0,2.327,1.013A10.011,10.011,0,0,0,329.639,306.949Zm3.7,7.2a5.74,5.74,0,0,0,1.732-1.734,7.911,7.911,0,0,0,1.1-2.241,4.218,4.218,0,0,0-1.912,1.474A4.693,4.693,0,0,0,333.337,314.153Zm2.536-8.3a4.264,4.264,0,0,0-2.219,1,4.716,4.716,0,0,0-1.481,2.227,5.816,5.816,0,0,0,2.1-1.292A7.922,7.922,0,0,0,335.873,305.852Zm-5.942,4.337a5.155,5.155,0,0,0-2.37-1.017,6.62,6.62,0,0,0,2.012,2.28,3.9,3.9,0,0,0,2.44.7A9.988,9.988,0,0,0,329.932,310.189Zm6.037-1.9a4.258,4.258,0,0,0-2.07,1.279,4.706,4.706,0,0,0-1.178,2.4,5.818,5.818,0,0,0,1.917-1.557A7.939,7.939,0,0,0,335.969,308.29Zm-6.187-3.846a5.11,5.11,0,0,0-2.055-1.522,5.878,5.878,0,0,0,1.422,2.656,3.871,3.871,0,0,0,2.193,1.23A9.912,9.912,0,0,0,329.782,304.444Zm.791-2.061a5.272,5.272,0,0,0-1.4-1.7,4.9,4.9,0,0,0,.715,2.451,3.738,3.738,0,0,0,1.551,1.494A7.616,7.616,0,0,0,330.572,302.383Zm-.28,11.529a3.874,3.874,0,0,0,2.476.451,9.855,9.855,0,0,0-2.248-1.732,5.1,5.1,0,0,0-2.438-.764A5.908,5.908,0,0,0,330.292,313.912Zm1.671-9.241a4.988,4.988,0,0,0,1.808-1.027,6.391,6.391,0,0,0,1.431-1.611,3.5,3.5,0,0,0-1.882.805A4.217,4.217,0,0,0,331.963,304.67Zm-.757,10.382a5.138,5.138,0,0,0-2.529-.528,6.693,6.693,0,0,0,2.436,1.846,3.9,3.9,0,0,0,2.537.208A10.072,10.072,0,0,0,331.206,315.053Zm.982-12.9a3.943,3.943,0,0,0,1.546-.689,5.224,5.224,0,0,0,1.287-1.239,3.077,3.077,0,0,0-1.583.54A3.759,3.759,0,0,0,332.188,302.157Zm.446-3.741a5.389,5.389,0,0,0-.325,2.347c0,.02,0,.04.007.06l.034-.049a10.129,10.129,0,0,0,1.032-2.087,9.014,9.014,0,0,0,.562-2.348A5.408,5.408,0,0,0,332.634,298.416Zm-1.88,2.353a3.082,3.082,0,0,0,1.121,1.33,6.025,6.025,0,0,0-.514-1.878,4.083,4.083,0,0,0-1.007-1.454A4.282,4.282,0,0,0,330.753,300.768Z" transform="translate(-327.422 -296.338)" fill="url(#e)"/><path d="M335.157,316.463c-.03-.012-.059-.025-.089-.036h0c-.094-.038-.189-.076-.281-.122a5.682,5.682,0,0,1-1.4-.93,4.622,4.622,0,0,1-.615-.667,4.518,4.518,0,0,0,.628.635,5.347,5.347,0,0,0,.687.492,6.294,6.294,0,0,0,.722.369c.1.042.2.079.293.114l.077.028c.078.029.159.052.238.076-.07-.737-.116-1.46-.139-2.2-.1-.047-.194-.093-.29-.144l-.039-.022h0c-.1-.058-.21-.113-.311-.179a5.816,5.816,0,0,1-.675-.48,5.71,5.71,0,0,1-.623-.594,4.638,4.638,0,0,1-.544-.726,4.448,4.448,0,0,0,.562.7,5.5,5.5,0,0,0,.633.562,6.574,6.574,0,0,0,.681.446c.11.064.227.12.341.18l.011.005c.084.04.169.077.254.114-.009-.669.015-1.348.07-2.014-.075-.06-.148-.121-.221-.185h0c-.085-.074-.17-.154-.252-.235a6.245,6.245,0,0,1-.466-.52,5.82,5.82,0,0,1-.416-.592,5.051,5.051,0,0,1-.351-.667,4.823,4.823,0,0,0,.371.642,5.627,5.627,0,0,0,.433.562,6.14,6.14,0,0,0,.479.489c.067.061.136.121.205.178s.153.121.231.179a22.848,22.848,0,0,1,.348-2.476c-.04-.045-.079-.091-.117-.138a5.176,5.176,0,0,1-.523-.771,11.121,11.121,0,0,1-.469-1.116,10.915,10.915,0,0,0,.492,1.092,4.978,4.978,0,0,0,.488.689q.071.085.146.166c.107-.535.169-.8.309-1.332.132-.5.206-.752.367-1.248-.063.21-.093.314-.151.525.063-.209.1-.313.163-.521-.15.5-.217.75-.338,1.254-.127.532-.183.8-.278,1.335q.1-.048.2-.1c.242-.125.482-.263.716-.413.313-.2.914-.656.914-.656s-.592.474-.9.685c-.253.173-.516.332-.778.476-.053.029-.106.058-.159.085a22.794,22.794,0,0,0-.29,2.472c.086-.045.171-.092.256-.138s.155-.089.232-.135c.187-.112.376-.234.561-.358s.367-.256.545-.393.354-.278.522-.432c-.162.162-.334.312-.508.458s-.352.288-.533.423-.367.267-.552.391c-.094.063-.19.125-.285.184h0l-.245.149c-.04.663-.048,1.338-.023,2,.083-.04.167-.079.25-.121l.011-.006c.113-.061.228-.117.337-.179.226-.127.461-.263.682-.4s.443-.3.656-.458a6.62,6.62,0,0,0,.618-.517,6.862,6.862,0,0,1-.6.544c-.209.17-.427.334-.645.487s-.445.3-.674.439c-.1.064-.2.12-.306.179h0l-.038.022c-.094.053-.189.1-.283.154.04.733.1,1.448.188,2.176.071-.042.145-.084.214-.128l.068-.044c.087-.055.176-.112.26-.17.211-.146.431-.306.638-.469s.41-.339.6-.521a6.713,6.713,0,0,0,.559-.579,6.824,6.824,0,0,1-.542.6c-.19.191-.388.377-.59.55s-.411.346-.626.5c-.08.063-.163.119-.246.177h0c-.027.017-.051.036-.078.055-.079.055-.161.107-.242.16.146.968.335,1.912.571,2.862.048-.052.1-.1.144-.156s.118-.135.175-.2c.141-.167.279-.344.414-.521s.263-.361.387-.547.244-.377.353-.576c-.1.2-.214.4-.331.6s-.238.386-.366.572-.26.372-.394.549c-.068.09-.139.18-.21.267h0l-.132.159c.175.649.384,1.3.622,1.928.053-.053.106-.1.158-.158l.008-.009c.086-.095.177-.187.26-.281.172-.194.349-.4.512-.607s.321-.426.47-.648a6.751,6.751,0,0,0,.415-.692,6.91,6.91,0,0,1-.392.712c-.142.229-.294.457-.45.673s-.321.432-.493.637c-.073.094-.153.181-.23.271h0l-.029.034c-.059.068-.12.133-.18.2.276.691.567,1.358.886,2.03.046-.055.094-.109.137-.165l.05-.065c.064-.081.129-.164.189-.248.151-.209.306-.434.447-.656s.275-.458.4-.7a6.778,6.778,0,0,0,.337-.735,6.992,6.992,0,0,1-.313.752c-.116.244-.242.486-.375.719s-.273.465-.425.685c-.054.086-.114.168-.173.25h0c-.019.025-.036.051-.055.078-.049.069-.1.137-.154.2a27.675,27.675,0,0,0,2.219,3.549l-.268.2a28.058,28.058,0,0,1-2.221-3.616c-.086,0-.172,0-.258,0l-.1-.006h0c-.1-.006-.2-.011-.307-.026a5.725,5.725,0,0,1-1.634-.432,4.649,4.649,0,0,1-.8-.435,4.547,4.547,0,0,0,.8.4,5.459,5.459,0,0,0,.813.246,6.347,6.347,0,0,0,.806.117c.1.008.211.012.315.014l.082,0c.071,0,.144,0,.216,0-.318-.683-.607-1.361-.881-2.063-.089-.011-.178-.021-.267-.036l-.044-.008h0c-.117-.021-.235-.039-.353-.069a5.856,5.856,0,0,1-.8-.235,5.766,5.766,0,0,1-.784-.36,4.621,4.621,0,0,1-.752-.509,4.469,4.469,0,0,0,.758.475,5.525,5.525,0,0,0,.783.326,6.68,6.68,0,0,0,.79.2c.125.024.254.04.381.059h.012c.075.009.149.015.223.021-.235-.638-.442-1.3-.614-1.956-.065-.024-.13-.048-.194-.074h0c-.105-.042-.211-.089-.315-.139a6.285,6.285,0,0,1-.611-.338,5.856,5.856,0,0,1-.586-.422,5.037,5.037,0,0,1-.549-.513,4.842,4.842,0,0,0,.56.482,5.661,5.661,0,0,0,.592.388,6.158,6.158,0,0,0,.612.305c.083.036.168.07.252.1.067.024.134.047.2.068-.231-.962-.414-1.918-.554-2.9C335.339,316.53,335.247,316.5,335.157,316.463Z" transform="translate(-331.143 -303.605)" fill="#565588"/></g></g><g transform="translate(36.948 23.77)"><g transform="translate(0)"><path d="M108.888,331.914a3.215,3.215,0,0,0-.1-1.812,2.883,2.883,0,0,0-.949-1.348,5.339,5.339,0,0,0,.263,1.683A3.91,3.91,0,0,0,108.888,331.914Zm-4.428,2.553a2.9,2.9,0,0,0-.3-1.636,5.508,5.508,0,0,0-.473,1.652,3.964,3.964,0,0,0,.082,1.687A3.219,3.219,0,0,0,104.46,334.467Zm3.747-1.046a2.667,2.667,0,0,0,1.69.382,4.515,4.515,0,0,0,1.953-.7,3.522,3.522,0,0,0-1.753-.169A6.844,6.844,0,0,0,108.207,333.422Zm-2.549.235a2.88,2.88,0,0,0-.457-1.584,5.389,5.389,0,0,0-.3,1.677,3.915,3.915,0,0,0,.254,1.654A3.2,3.2,0,0,0,105.658,333.657Zm1.548-2.137a3.969,3.969,0,0,0,.637,1.56,3.216,3.216,0,0,0,.083-1.824,2.906,2.906,0,0,0-.819-1.445A5.4,5.4,0,0,0,107.206,331.52Zm-.517,3.319a2.666,2.666,0,0,0,1.626.6,4.521,4.521,0,0,0,2.028-.443,3.513,3.513,0,0,0-1.715-.4A6.814,6.814,0,0,0,106.689,334.839Zm-.743-2.018a3.972,3.972,0,0,0,.427,1.631,3.213,3.213,0,0,0,.322-1.8,2.913,2.913,0,0,0-.624-1.54A5.428,5.428,0,0,0,105.947,332.821Zm3.271-.655a2.644,2.644,0,0,0,1.7.208,4.014,4.014,0,0,0,1.855-.888,3.49,3.49,0,0,0-1.745.008A6.764,6.764,0,0,0,109.217,332.166Zm.823-1.239a2.551,2.551,0,0,0,1.457-.2,3.343,3.343,0,0,0,1.383-1.06,3.59,3.59,0,0,0-1.453.37A5.2,5.2,0,0,0,110.04,330.927Zm-1.07,5.34a3.48,3.48,0,0,0-1.65-.564,6.73,6.73,0,0,0-1.937.046,2.644,2.644,0,0,0,1.545.751A4.029,4.029,0,0,0,108.97,336.267Zm.761-7.086a2.386,2.386,0,0,0-.711-1.2,4.365,4.365,0,0,0,.138,1.464,3.4,3.4,0,0,0,.58,1.3A2.878,2.878,0,0,0,109.731,329.181ZM104,336.613a2.663,2.663,0,0,0,1.481.909,4.568,4.568,0,0,0,2.086-.033,3.5,3.5,0,0,0-1.6-.73A6.871,6.871,0,0,0,104,336.613ZM110.5,328a2.093,2.093,0,0,0-.653-.936,3.574,3.574,0,0,0,.209,1.2,2.694,2.694,0,0,0,.573,1A2.563,2.563,0,0,0,110.5,328Zm1.511-2.643a6.159,6.159,0,0,0-.638,1.52,6.9,6.9,0,0,0-.274,1.565c0,.014,0,.027,0,.041l.028-.03a3.907,3.907,0,0,0,.886-3.1Zm1,2.785a2.794,2.794,0,0,0-1.141.394,4.113,4.113,0,0,0-1.041.826,2.1,2.1,0,0,0,1.153-.28A2.918,2.918,0,0,0,113.007,328.137Z" transform="translate(-101.098 -325.352)" fill="url(#f)"/><path d="M102.393,338.608l.063.016h0c.068.017.134.034.2.046a3.888,3.888,0,0,0,1.147.054,3.158,3.158,0,0,0,.607-.119,3.075,3.075,0,0,1-.6.1,3.684,3.684,0,0,1-.577-.006,4.305,4.305,0,0,1-.547-.089c-.069-.016-.14-.035-.207-.055l-.054-.015c-.054-.016-.109-.036-.162-.055.336-.378.653-.757.965-1.155.072.014.144.027.218.038l.031,0h0c.08.01.161.023.243.027a3.978,3.978,0,0,0,.565.009,3.873,3.873,0,0,0,.583-.076,3.163,3.163,0,0,0,.593-.18,3.037,3.037,0,0,1-.59.156,3.806,3.806,0,0,1-.576.054,4.559,4.559,0,0,1-.555-.029c-.086-.01-.173-.026-.26-.039l-.009,0c-.063-.012-.124-.026-.186-.04.275-.364.536-.748.774-1.137.065,0,.13-.007.2-.012h0c.077-.006.156-.016.234-.027a4.222,4.222,0,0,0,.467-.1,3.992,3.992,0,0,0,.468-.158,3.47,3.47,0,0,0,.463-.226,3.293,3.293,0,0,1-.464.2,3.8,3.8,0,0,1-.465.135,4.2,4.2,0,0,1-.461.076c-.061.006-.123.012-.185.015s-.134.005-.2.005a15.652,15.652,0,0,0,.808-1.5l.12-.029a3.5,3.5,0,0,0,.6-.214,7.574,7.574,0,0,0,.709-.424,7.522,7.522,0,0,1-.712.4,3.417,3.417,0,0,1-.546.182c-.049.012-.1.023-.148.033.157-.338.231-.51.368-.858.13-.33.19-.5.3-.835-.05.141-.076.21-.129.35.05-.14.074-.211.12-.352-.119.335-.183.5-.32.827-.145.344-.222.514-.386.847-.023-.044-.046-.089-.068-.134-.083-.167-.159-.339-.228-.516-.091-.237-.238-.73-.238-.73s.135.5.22.742c.07.2.15.391.237.576.017.037.035.074.053.111a15.583,15.583,0,0,1-.838,1.478c-.029-.059-.057-.119-.085-.179s-.05-.112-.073-.168c-.058-.137-.113-.281-.164-.424s-.1-.289-.141-.436-.083-.3-.113-.448c.024.155.058.307.095.457s.077.3.123.448.094.3.146.438c.026.072.054.145.083.217h0c.025.061.049.12.075.18-.245.381-.513.756-.795,1.111-.03-.056-.06-.111-.089-.168l0-.008c-.037-.079-.078-.157-.113-.235-.073-.161-.148-.331-.212-.5s-.124-.342-.176-.517a4.561,4.561,0,0,1-.132-.534,4.706,4.706,0,0,0,.113.543c.046.178.1.356.158.528s.123.346.194.513c.029.076.064.148.1.222h0c0,.009.009.018.012.028.03.067.062.133.094.2-.318.387-.641.756-.982,1.122-.022-.052-.046-.1-.066-.157l-.02-.052c-.026-.065-.052-.133-.075-.2-.057-.166-.114-.343-.162-.515s-.089-.352-.123-.531a4.6,4.6,0,0,1-.074-.544,4.659,4.659,0,0,0,.055.551c.027.182.061.364.1.541s.086.356.142.529c.019.067.042.132.064.2h0c.008.02.013.04.02.061.021.062.045.124.068.186-.471.474-.956.917-1.47,1.345-.006-.048-.011-.1-.016-.144s-.01-.122-.014-.183c-.01-.149-.015-.3-.017-.454s0-.3.008-.457.018-.306.038-.459c-.027.153-.045.308-.058.462s-.025.308-.03.463-.007.31,0,.461c0,.077,0,.155.008.231h0c0,.047.006.094.009.141-.358.287-.736.56-1.121.81-.008-.05-.016-.1-.023-.151V340.5c-.009-.087-.022-.174-.03-.259-.016-.176-.03-.361-.037-.541s0-.364,0-.547a4.573,4.573,0,0,1,.051-.548,4.7,4.7,0,0,0-.071.55c-.015.183-.023.37-.024.552s0,.368.014.55c0,.081.011.161.017.242h0c0,.01,0,.02,0,.03.005.061.012.122.019.182-.431.269-.86.519-1.307.76,0-.049-.008-.1-.009-.146,0-.019,0-.037,0-.056,0-.07,0-.143,0-.213,0-.176.007-.362.019-.541s.034-.364.061-.544a4.67,4.67,0,0,1,.111-.541,4.759,4.759,0,0,0-.131.541c-.035.181-.063.365-.083.547s-.038.366-.043.549c0,.07,0,.138-.005.207h0c0,.022,0,.043,0,.065,0,.058,0,.117,0,.175a18.879,18.879,0,0,1-2.654,1.058l.066.219a19.068,19.068,0,0,0,2.682-1.094c.047.035.095.07.144.1l.055.036h0c.058.038.117.076.179.11a3.922,3.922,0,0,0,1.074.422,3.2,3.2,0,0,0,.617.084,3.1,3.1,0,0,1-.6-.1,3.647,3.647,0,0,1-.547-.193,4.366,4.366,0,0,1-.491-.261c-.061-.037-.121-.079-.179-.12l-.046-.032c-.04-.028-.078-.059-.117-.089.451-.248.884-.5,1.318-.781.053.03.106.06.161.089l.028.013h0c.073.036.145.074.222.1a3.98,3.98,0,0,0,.533.192,3.92,3.92,0,0,0,.577.118,3.15,3.15,0,0,0,.62.023,3.039,3.039,0,0,1-.609-.044,3.817,3.817,0,0,1-.563-.136,4.544,4.544,0,0,1-.516-.208c-.079-.037-.156-.081-.234-.121l-.007,0c-.045-.025-.088-.052-.131-.079.387-.256.767-.536,1.127-.829l.137.038h0c.075.019.152.036.23.05a4.3,4.3,0,0,0,.472.061,4.043,4.043,0,0,0,.493,0,3.434,3.434,0,0,0,.509-.061,3.291,3.291,0,0,1-.5.039,3.951,3.951,0,0,1-.483-.025,4.214,4.214,0,0,1-.46-.079c-.06-.014-.121-.029-.179-.047l-.139-.044c.516-.437,1-.889,1.475-1.372C102.265,338.571,102.328,338.591,102.393,338.608Z" transform="translate(-95.289 -330.517)" fill="#565588"/></g></g><g transform="translate(109.284 8.164)"><g transform="translate(0)"><g transform="translate(16.977 17.544)"><path d="M397.569,331.737q1.261.435-2.869,16.564h-2.975q2.261-6.222,4.271-12.536c.073-.229-.064-.27-.147-.051q-2.388,6.241-4.512,12.587H388.9Q396.238,331.279,397.569,331.737Z" transform="translate(-388.903 -331.725)" fill="url(#g)"/><path d="M401.416,344.508c.083-.218.22-.178.147.051q-2.023,6.307-4.271,12.536H396.9Q399.023,350.753,401.416,344.508Z" transform="translate(-394.47 -340.519)" fill="#085bbf"/></g><g transform="translate(8.098)"><path d="M366.7,308.168h-3.167l.027-1.179.056-2.073q.127-4.146.255-8.293.26-8.3.519-16.593c.013-.441-.13-.434-.156-.008q-.5,8.281-.781,16.584-.137,4.15-.2,8.3l-.019,2.076,0,1.185h-3.522c2.275-25.295,3.794-34.161,4.824-34.12S366.391,282.982,366.7,308.168Z" transform="translate(-359.716 -274.048)" fill="url(#h)"/><path d="M372.292,292.952c.026-.427.17-.434.156.008q-.26,8.3-.519,16.593-.127,4.148-.255,8.293l-.056,2.073-.027,1.179h-.3l0-1.185.019-2.076q.058-4.151.2-8.3Q371.786,301.237,372.292,292.952Z" transform="translate(-367.772 -286.978)" fill="#085bbf"/></g><g transform="translate(4.75 10.695)"><path d="M353.2,332.632h-1.827c-.073-6.059-.325-12.121-.688-18.175-.015-.257-.158-.244-.155.006q.081,9.086.618,18.169h-2.439c.226-14.044,1.005-23.4,1.664-23.426Q351.417,309.174,353.2,332.632Z" transform="translate(-348.708 -309.207)" fill="url(#g)"/><path d="M355.536,344.215h-.225q-.546-9.07-.618-18.169c0-.25.14-.263.155-.006C355.211,332.094,355.462,338.156,355.536,344.215Z" transform="translate(-352.872 -320.789)" fill="#085bbf"/></g><g transform="translate(0 18.5)"><path d="M338.958,350.487h-1.765c-.831-4.041-1.8-8.054-2.859-12.044-.05-.188-.187-.15-.152.035q1.17,6.041,2.7,12.008h-2.471q-2.022-15.4-.947-15.617Q334.573,334.645,338.958,350.487Z" transform="translate(-333.093 -334.868)" fill="url(#g)"/><path d="M339.671,358.386h-.309q-1.536-5.959-2.7-12.008c-.035-.185.1-.224.152-.035C337.87,350.332,338.84,354.345,339.671,358.386Z" transform="translate(-335.571 -342.766)" fill="#085bbf"/></g><g transform="translate(12.776 8.702)"><path d="M385.737,302.661q1.134.361-5.576,25.413h-2.7q3.5-10.111,6.691-20.335c.107-.339-.032-.375-.148-.05q-3.6,10.131-6.892,20.384h-2.025Q384.57,302.291,385.737,302.661Z" transform="translate(-375.093 -302.656)" fill="url(#g)"/><path d="M388.641,318.689c.116-.325.255-.29.148.05q-3.211,10.212-6.691,20.335h-.349Q385.03,328.829,388.641,318.689Z" transform="translate(-379.724 -313.655)" fill="#085bbf"/></g></g></g><g transform="translate(32.549 14.83)"><path d="M85.916,312.511a1.012,1.012,0,0,1,.465-1,1,1,0,0,1-.56-.942,1.336,1.336,0,0,1,.906-1.174,2.195,2.195,0,0,1-.425-2.36,2.391,2.391,0,0,1,1.519-1.283,1.517,1.517,0,0,1,.339-1.712,1.4,1.4,0,0,1,1.482-.279,1.815,1.815,0,0,1,.172-1.984,1.7,1.7,0,0,1,1.374-.571,2.856,2.856,0,0,1,.558-2.5,2.269,2.269,0,0,1,1.628-.8,2.242,2.242,0,0,1,.506-1.448c.442-.49,1.466-.738,1.927-.161a1.5,1.5,0,0,1,1.662.17,2.179,2.179,0,0,1,.472,1.873c.873-.113,1.631.683,1.7,1.875a3.007,3.007,0,0,1-1.314,2.7,1.731,1.731,0,0,1,.724,1.515,3.13,3.13,0,0,1-1.016,2.3,2.2,2.2,0,0,1,.29,1.911,3.166,3.166,0,0,1-1.644,2.08,3.281,3.281,0,0,1-.8,2.56,2.285,2.285,0,0,1-2.358.909,2.08,2.08,0,0,1-1.3,1.74.841.841,0,0,1-1.13-.578,1.66,1.66,0,0,1-1.367.972.746.746,0,0,1-.734-.712,1.1,1.1,0,0,1-.864.42,1.141,1.141,0,0,1-.822-1.239,1.045,1.045,0,0,1-.9-.845,1.221,1.221,0,0,1,.284-.869A.687.687,0,0,1,85.916,312.511Z" transform="translate(-84.301 -295.964)" fill="url(#l)"/><path d="M84.935,313.313c.159.407.328.821.517,1.217.087.2.19.4.285.593.06.124.128.247.193.37a24.279,24.279,0,0,0,2.12-2.973c-.095-.153-.195-.305-.284-.459-.111-.191-.23-.386-.337-.579-.213-.384-.433-.788-.631-1.184s-.388-.807-.563-1.217a12.65,12.65,0,0,1-.471-1.249,12.269,12.269,0,0,0,.513,1.224c.188.4.391.8.6,1.183s.446.773.672,1.141c.113.185.239.372.357.555.083.129.176.257.264.384a24.3,24.3,0,0,0,1.575-2.944c-.18-.3-.357-.6-.525-.907-.179-.326-.353-.665-.521-1s-.325-.68-.476-1.023-.3-.69-.421-1.044c.139.346.3.684.463,1.017s.335.665.516.988.368.648.56.959c.163.265.335.527.509.784a24.362,24.362,0,0,0,1.44-3.891,17.58,17.58,0,0,1-1.008-1.521c-.318-.537-.887-1.655-.887-1.655s.594,1.1.924,1.62a16.878,16.878,0,0,0,1.007,1.429,24.385,24.385,0,0,0,.895-4.353,24.464,24.464,0,0,1-.427,2.787,6.642,6.642,0,0,0,1.422-.353c.486-.176,1.438-.674,1.438-.674s-.944.536-1.429.732a6.706,6.706,0,0,1-1.454.412A24.516,24.516,0,0,1,90.6,307.8a7.734,7.734,0,0,0,.864-.053,9.551,9.551,0,0,0,.994-.173,10.68,10.68,0,0,0,1.991-.667,10.88,10.88,0,0,1-1.99.784,9.661,9.661,0,0,1-1,.228,8,8,0,0,1-.937.1,24.526,24.526,0,0,1-1.435,3.228,8.042,8.042,0,0,0,2.251.257,11.165,11.165,0,0,0,2.535-.339,11.307,11.307,0,0,1-2.556.457,8.094,8.094,0,0,1-2.336-.172,24.513,24.513,0,0,1-1.876,3.078,8.514,8.514,0,0,0,.969.282,10.16,10.16,0,0,0,1.222.2,10.553,10.553,0,0,0,2.587-.06,10.708,10.708,0,0,1-2.622.174,10.238,10.238,0,0,1-1.25-.148,8.736,8.736,0,0,1-1.038-.259,33.671,33.671,0,0,1-5.815,6.116l-.329-.43a33.236,33.236,0,0,0,4.957-4.735c-.069-.147-.142-.294-.205-.442-.087-.2-.183-.405-.262-.615-.174-.41-.326-.837-.471-1.255s-.275-.852-.392-1.282a12.759,12.759,0,0,1-.3-1.3,12.394,12.394,0,0,0,.34,1.282C84.629,312.481,84.775,312.9,84.935,313.313Z" transform="translate(-80.825 -299.314)" fill="#5049f9"/></g><g transform="translate(23.283 12.264)"><g transform="translate(12.896 13.327)"><path d="M99.341,331.351q.958.33-2.179,12.582H94.9q1.718-4.727,3.244-9.522c.056-.174-.048-.2-.112-.039q-1.814,4.741-3.427,9.561H92.758Q98.33,331,99.341,331.351Z" transform="translate(-92.758 -331.342)" fill="url(#g)"/><path d="M102.263,341.052c.063-.166.167-.135.112.039q-1.537,4.79-3.244,9.522h-.295Q100.445,345.8,102.263,341.052Z" transform="translate(-96.987 -338.023)" fill="#085bbf"/></g><g transform="translate(6.152)"><path d="M75.9,313.447H73.489l.02-.9.042-1.575q.1-3.149.193-6.3.2-6.3.395-12.6c.01-.335-.1-.33-.119-.005q-.38,6.29-.593,12.6-.1,3.152-.149,6.306l-.015,1.577v.9H70.587c1.728-19.214,2.882-25.949,3.664-25.919S75.657,294.315,75.9,313.447Z" transform="translate(-70.587 -287.529)" fill="url(#h)"/><path d="M80.14,301.89c.02-.325.129-.329.119.005q-.2,6.3-.395,12.6-.1,3.151-.193,6.3l-.042,1.575-.02.9h-.227v-.9l.015-1.577q.044-3.153.149-6.306Q79.756,308.183,80.14,301.89Z" transform="translate(-76.707 -297.351)" fill="#085bbf"/></g><g transform="translate(3.608 8.124)"><path d="M65.636,332.031H64.249c-.056-4.6-.247-9.207-.523-13.806-.012-.2-.12-.185-.118,0q.062,6.9.47,13.8H62.225c.172-10.668.764-17.779,1.264-17.794Q64.283,314.212,65.636,332.031Z" transform="translate(-62.225 -314.237)" fill="url(#g)"/><path d="M67.411,340.83H67.24q-.415-6.889-.47-13.8c0-.19.107-.2.118,0C67.164,331.623,67.356,336.227,67.411,340.83Z" transform="translate(-65.387 -323.035)" fill="#085bbf"/></g><g transform="translate(0 14.053)"><path d="M54.818,345.594H53.478c-.631-3.069-1.368-6.117-2.172-9.148-.038-.143-.142-.114-.116.027q.888,4.589,2.052,9.122H51.366q-1.536-11.7-.719-11.863Q51.487,333.56,54.818,345.594Z" transform="translate(-50.363 -333.729)" fill="url(#g)"/><path d="M55.36,351.594h-.235q-1.167-4.526-2.052-9.122c-.027-.141.078-.17.116-.027C53.992,345.477,54.729,348.525,55.36,351.594Z" transform="translate(-52.246 -339.729)" fill="#085bbf"/></g><g transform="translate(9.705 6.61)"><path d="M90.354,309.264q.862.274-4.235,19.3H84.071q2.658-7.68,5.083-15.446c.081-.258-.024-.285-.112-.038q-2.736,7.7-5.236,15.484H82.268Q89.467,308.984,90.354,309.264Z" transform="translate(-82.268 -309.26)" fill="url(#g)"/><path d="M92.559,321.44c.088-.247.193-.22.112.038q-2.439,7.757-5.083,15.446h-.265Q89.816,329.143,92.559,321.44Z" transform="translate(-85.785 -317.616)" fill="#085bbf"/></g></g><path d="M39.464,372.623a1.24,1.24,0,0,0-.068-1.764,1.177,1.177,0,0,0-1.289,0,2.987,2.987,0,0,0-5.224-2.035,2.68,2.68,0,0,0-2.578-1.9,2.3,2.3,0,0,0-1.424.746,3.506,3.506,0,0,0-1.628-4.206,3.416,3.416,0,0,0-3.528.407.933.933,0,0,0-1.7-.678,2.734,2.734,0,0,0-2.374-2.646,2.782,2.782,0,0,0-2.239,1.153.96.96,0,0,0-1.832.543,1.714,1.714,0,0,0-2.917,1.56,1.851,1.851,0,0,0-1.56-1.492,1.843,1.843,0,0,0-1.424.543,3.249,3.249,0,0,0-2.578-1.424,3.107,3.107,0,0,0-2.849,2.1,3.836,3.836,0,0,0-2.035-1.085,4.145,4.145,0,0,0-3.392,1.085,2.477,2.477,0,0,0-1.085-.611,3.1,3.1,0,0,0-3.019,1.187,2.081,2.081,0,0,0-1.764-.78,2.059,2.059,0,0,0-1.526,1.018,2.555,2.555,0,0,0-1.662-1.594,2.583,2.583,0,0,0-2.34.611.893.893,0,0,0-.645-.814.9.9,0,0,0-1.017.441,2.157,2.157,0,0,0-1.662-.645,2.159,2.159,0,0,0-1.832,1.7,1.089,1.089,0,0,0-.984.1,1.073,1.073,0,0,0-.441.814,8.784,8.784,0,0,0-2.341.576,8.776,8.776,0,0,0-1.764.95,1.342,1.342,0,0,0-1.628-.17,1.363,1.363,0,0,0-.237,1.933.743.743,0,0,0-.814.1.745.745,0,0,0-.169.882,1.485,1.485,0,0,0,.305,1.018,1.555,1.555,0,0,0,1.255.543Z" transform="translate(26.178 -326.068)" fill="url(#r)"/><path d="M390.284,380.074a1.241,1.241,0,0,0-.068-1.764,1.178,1.178,0,0,0-1.289,0,2.987,2.987,0,0,0-5.224-2.035,2.679,2.679,0,0,0-2.578-1.9,2.3,2.3,0,0,0-1.425.746,3.505,3.505,0,0,0-1.628-4.206,3.417,3.417,0,0,0-3.528.407.933.933,0,0,0-1.7-.678A2.733,2.733,0,0,0,370.475,368a2.781,2.781,0,0,0-2.238,1.153.959.959,0,0,0-1.832.543,1.715,1.715,0,0,0-2.917,1.561,1.734,1.734,0,0,0-2.985-.95,3.247,3.247,0,0,0-2.578-1.425,3.108,3.108,0,0,0-2.849,2.1,3.833,3.833,0,0,0-2.035-1.086,4.146,4.146,0,0,0-3.392,1.086,2.48,2.48,0,0,0-1.086-.61,3.1,3.1,0,0,0-3.019,1.187,1.955,1.955,0,0,0-3.29.237,2.555,2.555,0,0,0-1.662-1.594,2.584,2.584,0,0,0-2.34.611.882.882,0,0,0-1.662-.373,2.03,2.03,0,0,0-3.494,1.052,1.086,1.086,0,0,0-.983.1,1.074,1.074,0,0,0-.441.814,8.771,8.771,0,0,0-4.1,1.526,1.341,1.341,0,0,0-1.628-.169,1.363,1.363,0,0,0-.238,1.933.731.731,0,0,0-.984.984,1.486,1.486,0,0,0,.305,1.017,1.554,1.554,0,0,0,1.255.543Z" transform="translate(-217.928 -331.253)" fill="url(#s)"/><path d="M115.135,347.755c-.71-.237-2.529,3.009-4.53,7.837,1.887-14.121,1.677-17.991.89-18.248-.756-.246-4.771,9.549-5.521,17.161q.453-21.111-.826-21.216c-.879-.072-1.648,7.505-3.754,22.318-1.325-8.363-2.99-12.725-3.547-12.674-.591.054-.029,5.106.241,14.6-2.722-5.64-4.961-8.671-5.269-8.542q-.524.219,3.582,11.5h16.566S116.272,348.134,115.135,347.755Z" transform="translate(-56.58 -307.105)" fill="url(#d)"/><path d="M345.828,364.051c-.559-.186-1.989,2.367-3.563,6.165,1.484-11.107,1.319-14.151.7-14.353-.594-.194-3.753,7.511-4.343,13.5q.356-16.6-.65-16.687c-.691-.057-1.3,5.9-2.953,17.554-1.042-6.578-2.351-10.009-2.79-9.969-.465.042-.023,4.016.19,11.486-2.141-4.436-3.9-6.82-4.145-6.718q-.411.172,2.817,9.048h13.03S346.722,364.349,345.828,364.051Z" transform="translate(-220.423 -320.593)" fill="url(#d)"/></g><path d="M114.287,171.968l-1.194.007a1.145,1.145,0,0,0-1.143-1.048l-1.79.011a1.548,1.548,0,0,0,.055-.413,1.563,1.563,0,0,0-1.568-1.549l-2.744.017a1.563,1.563,0,0,0-1.549,1.568,1.543,1.543,0,0,0,.06.413h-.244a1.146,1.146,0,0,0-1.13,1.062l-.359,0A1.48,1.48,0,1,0,102.7,175l11.606-.071a1.48,1.48,0,0,0-.018-2.96Z" transform="translate(-89.963 -157.141)" fill="#252a30" style="mix-blend-mode:screen;isolation:isolate"/><path d="M378.037,181.9l-1.194.007a1.146,1.146,0,0,0-1.143-1.048l-1.79.011a1.533,1.533,0,0,0,.055-.413,1.563,1.563,0,0,0-1.568-1.549l-2.744.017a1.564,1.564,0,0,0-1.549,1.568,1.544,1.544,0,0,0,.06.413l-.244,0a1.145,1.145,0,0,0-1.13,1.062l-.359,0a1.48,1.48,0,1,0,.018,2.96l11.606-.072a1.48,1.48,0,1,0-.018-2.959Z" transform="translate(-273.485 -164.052)" fill="#252a30" style="mix-blend-mode:screen;isolation:isolate"/><path d="M158.567,211.271h-1.972a1.892,1.892,0,0,0-1.877-1.742h-2.956a2.546,2.546,0,0,0,.1-.682,2.583,2.583,0,0,0-2.575-2.575h-4.534a2.565,2.565,0,0,0-2.48,3.257h-.4a1.893,1.893,0,0,0-1.877,1.742h-.593a2.445,2.445,0,1,0,0,4.889h19.173a2.445,2.445,0,0,0,0-4.889Z" transform="translate(-114.83 -183.092)" fill="#252a30" style="mix-blend-mode:screen;isolation:isolate"/><path d="M165.535,185.846l.119.309.309.119-.309.119-.119.309-.119-.309-.309-.119.309-.119Z" transform="translate(-134.423 -168.88)" fill="#a8b5c3" style="mix-blend-mode:screen;isolation:isolate"/><path d="M380.77,219.227l.119.309.309.119-.309.119-.119.309-.119-.309-.309-.119.309-.119Z" transform="translate(-284.188 -192.107)" fill="#a8b5c3" style="mix-blend-mode:screen;isolation:isolate"/><path d="M110.95,217.158l.119.309.309.119-.309.119-.119.309-.119-.309-.309-.119.309-.119Z" transform="translate(-96.442 -190.667)" fill="#a8b5c3" style="mix-blend-mode:screen;isolation:isolate"/><path d="M147.119,154.115l.238.617.617.238-.617.238-.238.617-.238-.617-.617-.238.617-.238Z" transform="translate(-121.312 -146.801)" fill="#a8b5c3" style="mix-blend-mode:screen;isolation:isolate"/><path d="M361.515,168.232l.238.617.617.238-.617.238-.238.617-.238-.617-.617-.238.617-.238Z" transform="translate(-270.492 -156.624)" fill="#a8b5c3" style="mix-blend-mode:screen;isolation:isolate"/><path d="M221.646,169.473l.238.617.617.238-.617.238-.238.617-.238-.617-.617-.238.617-.238Z" transform="translate(-173.169 -157.487)" fill="#a8b5c3" style="mix-blend-mode:screen;isolation:isolate"/></g></g><g transform="translate(59.982 45.759)"><g transform="translate(0 0)" clip-path="url(#v)"><g transform="translate(50.635 5.148)"><path d="M285.626,241.958l-1.159.5v.389c0,1.147-3.407-1.169-4.551-1.169H258.509a50.939,50.939,0,0,0,6.474,6.442,11.83,11.83,0,0,0,6.336,1.533L303.136,279.7l13.338-13.744Z" transform="translate(-250.049 -187.234)" fill="#ffc8af"/><path d="M238.582,213.575l3.213,5.085v-2.9Z" transform="translate(-236.183 -167.676)" fill="#f2b299"/><path d="M239,153.807l3.086,4.035V155.9Z" transform="translate(-236.473 -126.089)" fill="#f2b299"/><g transform="translate(5.612)"><rect width="28.501" height="54.145" rx="6.317" transform="translate(0.152 0.152)" fill="#111b28"/><path d="M275.876,62.987a1.771,1.771,0,0,1,1.769,1.769v50.3a1.771,1.771,0,0,1-1.769,1.769H251.219a1.771,1.771,0,0,1-1.769-1.769v-50.3a1.771,1.771,0,0,1,1.769-1.769h24.658m0-.3H251.219a2.074,2.074,0,0,0-2.074,2.074v50.3a2.074,2.074,0,0,0,2.074,2.074h24.658a2.074,2.074,0,0,0,2.074-2.074v-50.3a2.074,2.074,0,0,0-2.074-2.074Z" transform="translate(-249.145 -62.683)" fill="#878cf0"/><g transform="translate(0.648 2.58)"><path d="M278.782,71.165v49.288H251.277V71.165Z" transform="translate(-251.277 -71.165)" fill="#a5b7c6"/><path d="M278.782,78.324v47.111H251.277V78.324Z" transform="translate(-251.277 -76.146)" fill="#f9fbfc"/><g transform="translate(12.252 0.646)"><rect width="3.005" height="0.668" fill="#8497a5"/></g><g transform="translate(1.067 0.646)"><rect width="3.005" height="0.668" fill="#8497a5"/></g><g transform="translate(23.437 0.646)"><g transform="translate(2.771 0)"><rect width="0.234" height="0.668" fill="#8497a5"/></g><g transform="translate(0.741)"><path d="M330.761,73.289h.507v.668h-.507Zm1.015,0h.507v.668h-.507Z" transform="translate(-330.761 -73.289)" fill="#8497a5"/></g><g transform="translate(0 0)"><rect width="0.233" height="0.668" fill="#8497a5"/></g></g><g transform="translate(0.512 5.446)"><g transform="translate(4.934 7.457)"><g transform="translate(0 3.304)"><path d="M270.739,128.908l-1.315-2.067a1.558,1.558,0,0,1,.213-1.938h0a1.558,1.558,0,0,1,2.2,0h0a1.557,1.557,0,0,1,.213,1.938Z" transform="translate(-269.181 -124.446)" fill="url(#w)"/><path d="M273.06,127.229a.952.952,0,1,1-.952-.952A.952.952,0,0,1,273.06,127.229Z" transform="translate(-270.555 -125.72)" fill="#fff"/></g><g transform="translate(5.223)"><path d="M297.985,115.28h-1.393v0l-.746-1.263a.875.875,0,0,0-.756-.431h-5.7a.876.876,0,0,0-.756.431l-.746,1.263v0h-1.4s-.375.6.122.769a1.814,1.814,0,0,0,.806.028l0,0-.206.349-.569.512v2.923h0v1.24a.244.244,0,0,0,.244.244h1.126a.244.244,0,0,0,.244-.244v-1.24h7.974v1.24a.244.244,0,0,0,.244.244H297.6a.244.244,0,0,0,.244-.244v-1.24h0v-2.923l-.579-.531-.2-.33,0,0a1.8,1.8,0,0,0,.8-.029C298.361,115.881,297.985,115.28,297.985,115.28Z" transform="translate(-286.353 -113.584)" fill="#636bec"/><path d="M290.395,127.683a.522.522,0,1,1,.517-.522A.52.52,0,0,1,290.395,127.683Z" transform="translate(-288.802 -122.669)" fill="#fbd15b"/><path d="M318.061,127.161a.519.519,0,1,1,.521.522A.52.52,0,0,1,318.061,127.161Z" transform="translate(-308.416 -122.669)" fill="#fbd15b"/><path d="M292.133,115.073a.882.882,0,0,1,.761-.435h5.057a.883.883,0,0,1,.761.435l1.206,2.091h-8.99Z" transform="translate(-289.536 -114.317)" fill="#fbd15b"/></g><path d="M273.379,148.422a.718.718,0,1,1-.718-.718A.718.718,0,0,1,273.379,148.422Z" transform="translate(-271.103 -137.325)" fill="#a5b7c6"/><path d="M273.379,181.716a.718.718,0,1,1-.718-.718A.718.718,0,0,1,273.379,181.716Z" transform="translate(-271.103 -160.492)" fill="#d3807c"/><g transform="translate(1.456 12.093)"><rect width="0.205" height="8.174" fill="#a5b7c6"/></g><circle cx="0.82" cy="0.82" r="0.82" transform="translate(0.738 15.34)" fill="#a5b7c6"/><g transform="translate(0.635 15.237)"><path d="M272.193,163.882a.718.718,0,1,1-.718.718.718.718,0,0,1,.718-.718m0-.205a.923.923,0,1,0,.923.923.924.924,0,0,0-.923-.923Z" transform="translate(-271.27 -163.677)" fill="#d3807c"/></g><g transform="translate(5.651 9.672)"><rect width="10.982" height="0.957" fill="#a5b7c6"/></g><g transform="translate(5.651 12.525)"><rect width="10.982" height="0.957" fill="#a5b7c6"/></g><g transform="translate(5.651 15.378)"><rect width="10.982" height="0.957" fill="#a5b7c6"/></g><g transform="translate(5.651 18.231)"><rect width="10.982" height="0.957" fill="#a5b7c6"/></g><g transform="translate(5.651 21.084)"><rect width="10.982" height="0.957" fill="#a5b7c6"/></g><g transform="translate(0.522 23.937)"><rect width="16.111" height="0.957" fill="#a5b7c6"/></g></g><rect width="22.37" height="3.422" transform="translate(24.427 3.422) rotate(180)" fill="#d6e1e8"/><rect width="17.906" height="2.653" transform="translate(23.932 3.037) rotate(180)" fill="#f9fbfc"/><path d="M262.666,92.5a.96.96,0,1,0,.96-.96A.96.96,0,0,0,262.666,92.5Z" transform="translate(-259.713 -90.787)" fill="#f9fbfc"/><rect width="26.482" height="0.246" transform="translate(0 39.469)" fill="#d6e1e8"/><g transform="translate(2.176 40.371)"><rect width="2.014" height="2.014" transform="translate(20.116 0.315)" fill="#d6e1e8"/><path d="M305.34,222.1h-1.416l-.708,1.226.708,1.226h1.416l.708-1.226Z" transform="translate(-290.105 -222.005)" fill="#d6e1e8"/><circle cx="1.322" cy="1.322" r="1.322" transform="translate(6.61 0)" fill="#d6e1e8"/><path d="M261.45,222.327l-1.336,2.315h2.673Z" transform="translate(-260.113 -222.163)" fill="#d6e1e8"/></g></g></g></g><g transform="translate(0.077 40.743)"><path d="M232.021,201.061l4.787,3.25a2.425,2.425,0,0,0,3.365-.659h0a2.425,2.425,0,0,0-.659-3.365l-4.787-3.25a2.425,2.425,0,0,0-3.365.659h0A2.425,2.425,0,0,0,232.021,201.061Z" transform="translate(-230.949 -196.624)" fill="#ffc8af"/><path d="M231.362,197.7a2.425,2.425,0,0,1,2.526-1.015c-1.243.324-2.284,1.883-1.886,2.891.969,2.453,3.672,3.5,5.826,5.127a2.413,2.413,0,0,1-1.019-.387l-4.787-3.25A2.425,2.425,0,0,1,231.362,197.7Z" transform="translate(-230.949 -196.628)" fill="#f2b299"/><path d="M250.56,212.617l.305.206a1.689,1.689,0,1,0,1.884-2.8l-.423-.283A2.987,2.987,0,0,0,250.56,212.617Z" transform="translate(-244.595 -205.748)" fill="#ffd5c5"/></g><g transform="translate(1.7 23.403)"><path d="M237.4,144.225l4.967,3.372a2.515,2.515,0,0,0,3.491-.684h0a2.516,2.516,0,0,0-.684-3.491l-4.967-3.372a2.516,2.516,0,0,0-3.491.684h0A2.516,2.516,0,0,0,237.4,144.225Z" transform="translate(-236.283 -139.621)" fill="#ffc8af"/><path d="M236.711,140.739h0a2.514,2.514,0,0,1,3.145-.876c-1.92.185-3.042,1.846-2.036,3.353,1.538,2.3,3.561,3.246,6.019,4.811a2.5,2.5,0,0,1-1.477-.425L237.4,144.23A2.516,2.516,0,0,1,236.711,140.739Z" transform="translate(-236.283 -139.627)" fill="#f2b299"/><path d="M256.63,156.214l.317.214a1.752,1.752,0,0,0,1.954-2.909l-.439-.294A3.1,3.1,0,0,0,256.63,156.214Z" transform="translate(-250.441 -149.087)" fill="#ffd5c5"/></g><g transform="translate(0 34.539)"><rect width="12.492" height="4.849" rx="2.425" transform="matrix(-0.83, -0.558, 0.558, -0.83, 10.366, 10.995)" fill="#ffc8af"/><path d="M234.2,180.4a2.423,2.423,0,0,1,3.06-.831c-1.553.314-1.689,3.061-.623,4.127a60.323,60.323,0,0,0,5.679,4.735,2.412,2.412,0,0,1-1.115-.4l-6.342-4.264A2.425,2.425,0,0,1,234.2,180.4Z" transform="translate(-232.846 -178.386)" fill="#f2b299"/><path d="M258.509,198.649l.305.206a1.689,1.689,0,1,0,1.883-2.8l-.423-.283A2.988,2.988,0,0,0,258.509,198.649Z" transform="translate(-250.049 -189.825)" fill="#ffd5c5"/></g><g transform="translate(1.289 29.562)"><path d="M2.425,0h7.642a2.425,2.425,0,0,1,2.425,2.425v0a2.425,2.425,0,0,1-2.425,2.425H2.425A2.425,2.425,0,0,1,0,2.425v0A2.425,2.425,0,0,1,2.425,0Z" transform="matrix(-0.83, -0.558, 0.558, -0.83, 10.366, 10.995)" fill="#ffc8af"/><path d="M238.437,164.034h0a2.425,2.425,0,0,1,2.9-.9c-1.35.8-1.935,2.487-1.158,3.264a28.825,28.825,0,0,0,6.652,5.679,2.411,2.411,0,0,1-1.389-.411L239.1,167.4A2.425,2.425,0,0,1,238.437,164.034Z" transform="translate(-237.084 -162.022)" fill="#f2b299"/><path d="M262.747,182.287l.305.206a1.689,1.689,0,1,0,1.884-2.8l-.423-.284A2.987,2.987,0,0,0,262.747,182.287Z" transform="translate(-254.287 -173.463)" fill="#ffd5c5"/></g><path d="M340.938,187.63c.3-2.525.614-5.263.614-5.783a2.972,2.972,0,0,1,.713-1.79c-.965-1.2-1.594-4.208-2.6-7.4a24.028,24.028,0,0,0,1.271,6.875Z" transform="translate(-306.52 -139.207)" fill="#f2b299"/><path d="M326.964,174.077c-3.389,0-3.1-3.5-2.914-9.034s3.76-14.631,3.76-14.631-.5-7.24,0-10.008c.4-2.205,2.482-2.1,3.31-1.962v0a3.38,3.38,0,0,1,.341.07s.189.861.614,3.325c.064.368.131.77.2,1.208a58.77,58.77,0,0,0,1.573,6.671s.692,7.524,1.007,14.224C335.313,173.666,331.429,174.077,326.964,174.077Z" transform="translate(-295.583 -115.355)" fill="#ffc8af"/><path d="M297.633,241.683v1.345L286.1,241.706Z" transform="translate(-269.249 -187.234)" fill="#f2b299"/><path d="M336.285,177.927a19.048,19.048,0,0,0,2.575.431l-2.729-.03Z" transform="translate(-304.059 -142.872)" fill="#f2b299"/><path d="M348.245,141.985l-.569.17a20.972,20.972,0,0,1-.471-2.485,2.291,2.291,0,0,1,.085-1.08,3.384,3.384,0,0,1,.341.07S347.819,139.521,348.245,141.985Z" transform="translate(-311.753 -115.5)" fill="#ffd5c5"/><path d="M266.3,245.956c-1.492-.768-2.922-3.111-3.562-4.273h-4.234a50.939,50.939,0,0,0,6.474,6.442,11.83,11.83,0,0,0,6.336,1.533L303.136,279.7l2.309-2.379L272.41,247.352S268.319,246.993,266.3,245.956Z" transform="translate(-250.049 -187.234)" fill="#f2b299"/></g></g></g></g></svg>