<svg xmlns="http://www.w3.org/2000/svg" width="150.031" height="110.425" viewBox="0 0 150.031 110.425"><g transform="translate(0 0)"><rect width="105.588" height="0.348" transform="translate(0 104.877)" fill="#e6e6e6"/><path d="M333.242,236.376h-.968l-4.112,14.916s-.081,9.917.887,14.754c0,0,1.612-2.1,2.741-2.1s2.177-10.562,2.177-10.562S338.4,238.311,333.242,236.376Z" transform="translate(-300.503 -218.379)" fill="#e6e6e6"/><path d="M473.838,400.208s-2.58,7.256-.161,7.74,3.709-5.644,3.064-6.45S473.838,400.208,473.838,400.208Z" transform="translate(-419.814 -353.67)" fill="#feb8b8"/><path d="M331.756,390.435s.725,7.667,3.122,7.084.979-6.682.054-7.14S331.756,390.435,331.756,390.435Z" transform="translate(-303.472 -345.396)" fill="#feb8b8"/><path d="M360.276,642.317s1.129,5.482-.806,6.934.645,4.515.645,4.515l6.128-6.45s-2.58-4.031-2.419-6.45Z" transform="translate(-325.763 -552.403)" fill="#feb8b8"/><path d="M249.824,544.818l-.645,4.354-.161,3.064,3.547-.322.484-6.289Z" transform="translate(-205.636 -449.905)" fill="#feb8b8"/><path d="M335.97,396.014a2.862,2.862,0,0,0-1.827,2.827c.161,2.1.645,8.707.645,8.707s-1.451,14.19,0,19.027,4.193,14.513,4.193,14.513,4.192.806,5.16-2.258c0,0-.161-10.481-1.935-12.739s-.484-2.9-.322-3.225.645-.806.645-1.29.161-2.258.161-2.9a2.468,2.468,0,0,1,.161-1.451c.323-.968.645-1.29.645-1.451s2.741-8.708,2.741-8.708l3.548,19.834s-.806,19.511-.484,19.511,3.87,1.29,5.16,0c0,0,3.225-16.77,2.58-17.737s-.806-1.129-.645-2.1.484-1.451.161-1.935-.806-2.1-.322-2.58.645-2.741.645-2.741,2.741-15.8.967-18.06S335.97,396.014,335.97,396.014Z" transform="translate(-305.435 -350.207)" fill="#2f2e41"/><path d="M334.9,673.265s-1.935-2.419-2.58-1.29-1.613,2.9-1.613,2.9-7.256,6.289-3.225,6.45a9.022,9.022,0,0,0,6.611-2.741s.645-3.225,2.58-3.225l.323.806,3.547-2.257s-.5-4.281-1.943-4.156Z" transform="translate(-298.935 -576.256)" fill="#2f2e41"/><path d="M413.7,714.293s4.193-1.612,4.676,0a9.546,9.546,0,0,1,.484,2.419s3.548,5.8,0,6.128a5.713,5.713,0,0,1-5.16-1.935s.484-2.741,0-3.064S413.7,714.293,413.7,714.293Z" transform="translate(-370.959 -612.446)" fill="#2f2e41"/><circle cx="5.644" cy="5.644" r="5.644" transform="translate(39.995 1.549)" fill="#feb8b8"/><path d="M401.96,181.766l-1.129,6.289,7.9,1.935s-1.854-4.6.161-6.611C409.4,182.869,401.96,181.766,401.96,181.766Z" transform="translate(-360.513 -173.283)" fill="#feb8b8"/><path d="M352.122,202.485a1.029,1.029,0,0,0-.8.744,4.292,4.292,0,0,1-.645,1.29s-7.579,3.547-7.579,4.031,3.064,10.8,3.064,10.8.161,6.45-1.129,7.9-2.58,6.773-2.258,7.256-2.258,1.612-1.29,2.419,14.513,8.546,22.575,5a11.041,11.041,0,0,0,0-2.419c-.161-.967.967-4.193.645-5.321s0-12.739,0-12.739l1.662-13.748a1.119,1.119,0,0,0-.785-1.205c-1.859-.565-6.169-2.877-6.763-2.381C358.047,204.758,353.248,204.321,352.122,202.485Z" transform="translate(-311.323 -190.393)" fill="#e6e6e6"/><path d="M467.558,224.868l.01,0a1.118,1.118,0,0,1,1.319.378c1,1.367,3.1,4.44,3.347,6.4.323,2.58,1.29,9.514,1.129,10.481s-.323,1.129,0,1.612.161.323,0,.806-2.1,13.868-2.1,13.868-1.29-2.9-3.709-1.935a11.54,11.54,0,0,0,0-3.386c-.323-.806-.645-1.29-.323-1.935s0-6.934-.161-7.579a33.14,33.14,0,0,1,0-4.031l-1.451-6.611Z" transform="translate(-414.017 -208.806)" fill="#e6e6e6"/><path d="M399.448,141.225l.191-1.329c.044-.31.226-.717.527-.633.256.072.815.291.908.225.35-.248.88.186,1.248-.035.154-.092.255-.29.434-.3a.5.5,0,0,1,.319.144,2.169,2.169,0,0,0,.825.448.887.887,0,0,0,.869-.237.462.462,0,0,1,.154-.147.345.345,0,0,1,.221.01l.941.256a3.615,3.615,0,0,0-.484-2.976,5.986,5.986,0,0,0-1.37-1.342q-.874-.665-1.8-1.251a5.859,5.859,0,0,0-2.191-.953,2.34,2.34,0,0,0-2.181.723,1.4,1.4,0,0,1-.505-.682.517.517,0,0,0,.033.792l-.8-.508c-.224.235.213.661.023.923a.486.486,0,0,1-.214.14,3.648,3.648,0,0,0-1.167.734,4.353,4.353,0,0,0-.919,1.692,5.341,5.341,0,0,0-.145,4.193c.076.144,1.084,2.527,1.219,2.62.454.314.158-.446.484,0,.255.35.207-.989.586-.695a.945.945,0,0,0,1.029.046c.157-.109.107-.714.022-1.27a.655.655,0,0,1,.8-.737A2.841,2.841,0,0,0,399.448,141.225Z" transform="translate(-354.863 -133.072)" fill="#2f2e41"/><path d="M467.74,253.6l1.427,16.107S466.152,256.2,467.74,253.6Z" transform="translate(-415.384 -232.605)" opacity="0.1"/><path d="M264.881,573.686c-2.308,3.263-2.918,21.834-3.054,27.787,0,.134-.007.261-.009.382h-5.843c-.071-.127-.138-.253-.2-.382-3.463-6.836-1.542-15.033-1.441-15.447-.263,1.3.927,5.08,2.272,8.738C257.426,583.515,264.442,574.254,264.881,573.686Z" transform="translate(-239.024 -496.926)" fill="#e6e6e6"/><circle cx="3.949" cy="3.949" r="3.949" transform="translate(125.868 21.949)" fill="#e43f6f"/><path d="M806.794,259.574H789.024a5.923,5.923,0,1,1,0-11.846h17.769a5.923,5.923,0,1,1,0,11.846Zm-17.769-11.057a5.133,5.133,0,1,0,0,10.267h17.769a5.133,5.133,0,0,0,0-10.267Z" transform="translate(-676.188 -227.754)" fill="#3f3d56"/><circle cx="3.949" cy="3.949" r="3.949" transform="translate(109.528 43.686)" fill="#e6e6e6"/><path d="M806.794,384.352H789.024a5.923,5.923,0,1,1,0-11.846h17.769a5.923,5.923,0,1,1,0,11.846ZM789.024,373.3a5.133,5.133,0,1,0,0,10.267h17.769a5.133,5.133,0,1,0,0-10.267Z" transform="translate(-676.188 -330.794)" fill="#e6e6e6"/><circle cx="3.949" cy="3.949" r="3.949" transform="translate(109.528 65.424)" fill="#e6e6e6"/><path d="M806.794,509.13H789.024a5.923,5.923,0,1,1,0-11.846h17.769a5.923,5.923,0,1,1,0,11.846Zm-17.769-11.057a5.133,5.133,0,1,0,0,10.267h17.769a5.133,5.133,0,1,0,0-10.267Z" transform="translate(-676.188 -433.834)" fill="#e6e6e6"/><path d="M761.348,240.361H706.472a.872.872,0,0,1-.871-.871v-87.1a.872.872,0,0,1,.871-.871h54.876a.872.872,0,0,1,.871.871v87.1A.872.872,0,0,1,761.348,240.361Zm-54.876-88.495a.523.523,0,0,0-.523.523v87.1a.523.523,0,0,0,.523.523h54.876a.523.523,0,0,0,.523-.523v-87.1a.523.523,0,0,0-.523-.523Z" transform="translate(-612.189 -148.305)" fill="#e6e6e6"/></g></svg>