<svg xmlns="http://www.w3.org/2000/svg" xmlns:xlink="http://www.w3.org/1999/xlink" width="131.777" height="84.134" viewBox="0 0 131.777 84.134"><defs><linearGradient id="a" y1="0.5" x2="0.999" y2="0.5" gradientUnits="objectBoundingBox"><stop offset="0" stop-color="gray" stop-opacity="0.251"/><stop offset="0.54" stop-color="gray" stop-opacity="0.122"/><stop offset="1" stop-color="gray" stop-opacity="0.102"/></linearGradient><linearGradient id="b" x1="0" y1="0.501" x2="1" y2="0.501" xlink:href="#a"/><linearGradient id="c" x1="-0.001" y1="0.501" x2="1" y2="0.501" xlink:href="#a"/></defs><g transform="translate(0.007 -25)"><path d="M350.67,449.78s-1.854-6.293.348-10.927a9.941,9.941,0,0,0,.8-6.237,16.714,16.714,0,0,0-.882-2.927" transform="translate(-319.029 -377.921)" fill="none" stroke="#535461" stroke-miterlimit="10" stroke-width="2"/><path d="M349.677,400.148a11.052,11.052,0,0,1-1.4,3.008,11.072,11.072,0,0,1-1.4-3.008,1.4,1.4,0,0,1,2.8,0Z" transform="translate(-316.396 -351.307)" fill="#e43f6f"/><path d="M366.118,425.7a11.076,11.076,0,0,1-2.808,1.766,11.066,11.066,0,0,1,.463-3.285,1.4,1.4,0,1,1,2.345,1.519Z" transform="translate(-330.529 -372.586)" fill="#e43f6f"/><path d="M362.266,475.419a11.1,11.1,0,0,1-3.315.108,11.077,11.077,0,0,1,2.057-2.6,1.4,1.4,0,0,1,1.259,2.495Z" transform="translate(-326.779 -415.004)" fill="#e43f6f"/><path d="M353.23,515.639a11.077,11.077,0,0,1-3.25.666,11.052,11.052,0,0,1,1.589-2.911,1.4,1.4,0,0,1,1.661,2.246Z" transform="translate(-319.063 -449.717)" fill="#e43f6f"/><path d="M339.391,437.915a11.153,11.153,0,0,0,3.131,1.095,11.046,11.046,0,0,0-1.184-3.1,1.4,1.4,0,1,0-1.946,2Z" transform="translate(-309.542 -382.886)" fill="#e43f6f"/><path d="M326.82,482.768a11.092,11.092,0,0,0,3.315.108,11.076,11.076,0,0,0-2.057-2.6,1.4,1.4,0,1,0-1.258,2.495Z" transform="translate(-298.434 -421.279)" fill="#e43f6f"/><path d="M324.713,530.239a11.075,11.075,0,0,0,3.25.666,11.051,11.051,0,0,0-1.589-2.911,1.4,1.4,0,0,0-1.661,2.246Z" transform="translate(-296.887 -462.275)" fill="#e43f6f"/><path d="M138.349,523.859c4.627.979,9.06,2.735,13.67,3.794s9.591,1.379,13.95-.459c1.91-.805,3.654-2.007,5.641-2.6,4.961-1.484,10.106,1.052,14.936,2.92a60.7,60.7,0,0,0,19.729,4.043c3.4.119,7.021-.117,9.8-2.082a33.292,33.292,0,0,1,2.92-2.2c2.113-1.161,4.754-.888,7.01-.053s4.3,2.176,6.5,3.152c5.659,2.506,12.1,2.49,18.029,4.269a29.841,29.841,0,0,1,6.537,2.847,7.022,7.022,0,0,1,3.062,2.923c1.119,2.517-.605,5.392-2.611,7.283-4.434,4.178-10.362,6.311-16.109,8.334l-18.8,6.614a92.508,92.508,0,0,1-10.794,3.313,79.153,79.153,0,0,1-11.528,1.449c-7.8.54-16.052.657-22.9-3.1-4.222-2.317-7.79-6.048-12.491-7.094-3.876-.861-7.941.257-11.876-.268-5.1-.681-9.416-4.02-13.144-7.562a40.2,40.2,0,0,1-8.582-10.864c-1.654-3.315-3.159-8.11-2.125-11.837C130.241,522.836,135.049,523.16,138.349,523.859Z" transform="translate(-128.84 -458.548)" fill="#e43f6f"/><path d="M304.986,616.023l-.073.077a1.875,1.875,0,0,1-.263.228,1.463,1.463,0,0,1-2.005-1.767,1.793,1.793,0,0,1,.187-.28h0c.028-.035.059-.071.091-.108a3.355,3.355,0,0,1,.473-.429,4,4,0,0,1,.4-.264,3.8,3.8,0,0,1,.371-.19,2.765,2.765,0,0,1,.6-.194.985.985,0,0,1,.86.15.971.971,0,0,1,.243.824,2.643,2.643,0,0,1-.108.559,3.856,3.856,0,0,1-.215.559h0c-.059.122-.123.24-.192.354a3.347,3.347,0,0,1-.364.482Z" transform="translate(-278.224 -535.653)" fill="#b65256"/><path d="M315.944,614.8a3.726,3.726,0,0,0-1.594-1.338,2.766,2.766,0,0,1,.6-.194,2.671,2.671,0,0,1,1.1.979,2.643,2.643,0,0,1-.108.554Z" transform="translate(-288.415 -535.83)" fill="#b66f7b"/><path d="M310.8,618.077a4.244,4.244,0,0,0-1.958-1.793,4,4,0,0,1,.4-.264,2.9,2.9,0,0,1,1.748,1.7h0A3.041,3.041,0,0,1,310.8,618.077Z" transform="translate(-283.676 -538.196)" fill="#b66f7b"/><path d="M303.51,622.058a4.033,4.033,0,0,1,2.009,1.768,1.881,1.881,0,0,0,.263-.228c-.79-1.59-1.686-1.809-2.084-1.818h0Z" transform="translate(-279.091 -543.15)" fill="#b66f7b"/><g transform="translate(72.73 99.766)" opacity="0.1"><path d="M651.717,773.593a1.006,1.006,0,0,0-.608-.64,1.026,1.026,0,0,0-.859.266,2.846,2.846,0,0,0-.457.459,3.924,3.924,0,0,0-.25.348,4.146,4.146,0,0,0-.239.428,3.459,3.459,0,0,0-.232.615c-.013.048-.024.1-.032.14h0a1.85,1.85,0,0,0-.041.347c-.011.7.471,1.035,1.1,1.2a1.219,1.219,0,0,0,1.566-.522,1.932,1.932,0,0,0,.14-.331c.01-.034.021-.068.029-.1a3.446,3.446,0,0,0,.1-.62c.01-.14.014-.28.011-.42h0a3.976,3.976,0,0,0-.063-.61A2.721,2.721,0,0,0,651.717,773.593Z" transform="translate(-648.999 -772.932)" fill="url(#a)"/></g><g transform="translate(120.989 77.629)" opacity="0.1"><path d="M996.815,615.994a1.6,1.6,0,0,0-.154-.253l-.055-.071a2.838,2.838,0,0,0-.359-.369c-.085-.074-.176-.14-.27-.211h0a3.268,3.268,0,0,0-.435-.259,2.256,2.256,0,0,0-.454-.169.833.833,0,0,0-.724.088.847.847,0,0,0-.246.7,2.353,2.353,0,0,0,.08.529,3.258,3.258,0,0,0,.108.337,3.43,3.43,0,0,0,.167.369,2.848,2.848,0,0,0,.294.457c.025.032.052.062.077.091h0a1.525,1.525,0,0,0,.21.2,1.245,1.245,0,0,0,1.763-1.435Z" transform="translate(-994.117 -614.621)" fill="url(#b)"/></g><g transform="translate(66.78 88.013)" opacity="0.1"><path d="M608.177,690.032l-1.727-1.152A3.115,3.115,0,0,0,608.177,690.032Z" transform="translate(-606.45 -688.88)" fill="url(#c)"/></g><path d="M890.235,389.613c1.731,6.33-5.654,24.365-5.654,24.365s-15.537-11.763-17.269-18.093a11.886,11.886,0,1,1,22.923-6.272Z" transform="translate(-763.626 -335.693)" fill="#e43f6f"/><path d="M890.235,389.613c1.731,6.33-5.654,24.365-5.654,24.365s-15.537-11.763-17.269-18.093a11.886,11.886,0,1,1,22.923-6.272Z" transform="translate(-763.626 -335.693)" opacity="0.1"/><path d="M930.37,385.79s9.672,14.6,8.949,32.69" transform="translate(-818.295 -340.16)" fill="none" stroke="#535461" stroke-miterlimit="10" stroke-width="1"/><path d="M1004.282,524.186s-8.77-4.771-7.66,12.841c0,0,7.316-.261,9.913-6.23a5.174,5.174,0,0,0-2.124-6.537Z" transform="translate(-875.199 -458.696)" fill="#e43f6f"/><path d="M1004.994,528s-1.133,9.142-7.8,12.81" transform="translate(-875.771 -462.484)" fill="none" stroke="#535461" stroke-miterlimit="10" stroke-width="1"/><path d="M652.242,765.893c-.01.035-.02.07-.029.1a1.884,1.884,0,0,1-.132.322,1.179,1.179,0,0,1-1.521.508c-.622-.164-1.084-.481-1.071-1.168a1.808,1.808,0,0,1,.039-.337h0c.008-.045.02-.089.032-.14a3.364,3.364,0,0,1,.225-.6,4.02,4.02,0,0,1,.232-.42,3.828,3.828,0,0,1,.243-.338,2.766,2.766,0,0,1,.445-.445.993.993,0,0,1,.839-.257.959.959,0,0,1,.591.622,2.638,2.638,0,0,1,.159.548,3.866,3.866,0,0,1,.06.593h0c0,.14,0,.27-.01.4A3.348,3.348,0,0,1,652.242,765.893Z" transform="translate(-576.69 -664.709)" fill="#ffd77c"/><path d="M657.039,766.039a3.8,3.8,0,0,0-2.029-.467,2.764,2.764,0,0,1,.445-.445,2.7,2.7,0,0,1,1.425.365A2.642,2.642,0,0,1,657.039,766.039Z" transform="translate(-581.439 -666.449)" fill="#ffc950"/><path d="M654.173,771.584a4.273,4.273,0,0,0-2.553-.709,4.033,4.033,0,0,1,.232-.419,2.907,2.907,0,0,1,2.331.722h0A2.311,2.311,0,0,1,654.173,771.584Z" transform="translate(-578.523 -670.999)" fill="#ffc950"/><path d="M649.5,778.464a4.04,4.04,0,0,1,2.593.66,1.883,1.883,0,0,0,.131-.322c-1.426-1.056-2.325-.839-2.685-.675h0Z" transform="translate(-576.7 -677.517)" fill="#ffc950"/><path d="M989.354,609.845l.053.07a1.558,1.558,0,0,1,.15.245,1.212,1.212,0,0,1-1.713,1.4,1.475,1.475,0,0,1-.2-.192h0q-.038-.042-.076-.088a2.763,2.763,0,0,1-.28-.443,3.315,3.315,0,0,1-.162-.358,3.168,3.168,0,0,1-.1-.327,2.281,2.281,0,0,1-.077-.513.833.833,0,0,1,.239-.68.8.8,0,0,1,.7-.087,2.188,2.188,0,0,1,.442.164,3.185,3.185,0,0,1,.419.252h0c.091.064.179.133.262.2A2.763,2.763,0,0,1,989.354,609.845Z" transform="translate(-866.954 -532.012)" fill="#cecee0"/><path d="M988.284,609.261a3.082,3.082,0,0,0-1.307,1.119,2.287,2.287,0,0,1-.077-.513,2.236,2.236,0,0,1,.942-.766A2.184,2.184,0,0,1,988.284,609.261Z" transform="translate(-866.92 -532.243)" fill="#fff" opacity="0.3"/><path d="M990.079,612.246a3.528,3.528,0,0,0-1.727,1.345,3.32,3.32,0,0,1-.162-.358,2.406,2.406,0,0,1,1.626-1.193h0C989.909,612.106,990,612.174,990.079,612.246Z" transform="translate(-868.03 -534.772)" fill="#fff" opacity="0.3"/><path d="M992.135,618.2a3.344,3.344,0,0,1,1.713-1.4,1.562,1.562,0,0,0-.15-.245c-1.4.428-1.7,1.127-1.769,1.449h0Z" transform="translate(-871.247 -538.66)" fill="#fff" opacity="0.3"/><path d="M608.16,681.51a3.026,3.026,0,0,0,1.678,1.119" transform="translate(-541.141 -594.528)" opacity="0.1"/><path d="M573.07,756.87s2.97.127,3.331,2.788" transform="translate(-510.957 -659.35)" opacity="0.1"/><path d="M749.284,351.261a3.08,3.08,0,0,0-1.307,1.119,2.284,2.284,0,0,1-.077-.513,2.237,2.237,0,0,1,.942-.766,2.182,2.182,0,0,1,.442.161Z" transform="translate(-661.34 -310.32)" fill="#fff" opacity="0.3"/><path d="M753.136,360.2a3.343,3.343,0,0,1,1.713-1.4,1.551,1.551,0,0,0-.15-.245c-1.4.428-1.7,1.127-1.769,1.449h0Z" transform="translate(-665.667 -316.737)" fill="#fff" opacity="0.3"/><path d="M755.337,395.952l-.5,2.328c-3.192.066-7.122-.049-8.454-.912-1.229-.8-3.02-.506-4.464-.042l-.54-2.517c1.709-.622,4.538-1.306,6.122.186C748.847,396.261,752.428,396.323,755.337,395.952Z" transform="translate(-655.732 -347.307)" fill="#fff" opacity="0.3"/><path d="M202.032,405.123s-3.45-11.713.645-20.333a18.5,18.5,0,0,0,1.5-11.606,31.109,31.109,0,0,0-1.643-5.454" transform="translate(-190.635 -324.625)" fill="none" stroke="#535461" stroke-miterlimit="10" stroke-width="2"/><path d="M200.2,312.459c0,1.436-2.6,5.593-2.6,5.593s-2.6-4.157-2.6-5.593a2.6,2.6,0,1,1,5.2,0Z" transform="translate(-185.75 -274.795)" fill="#e43f6f"/><path d="M230.774,360.656c-.78,1.205-5.224,3.286-5.224,3.286s.081-4.907.861-6.112a2.6,2.6,0,1,1,4.363,2.825Z" transform="translate(-212.032 -315.041)" fill="#e43f6f"/><path d="M223.628,452.583c-1.282.646-6.168.2-6.168.2s2.546-4.2,3.829-4.841a2.6,2.6,0,1,1,2.341,4.642Z" transform="translate(-205.074 -393.38)" fill="#e43f6f"/><path d="M206.806,527.293c-1.154.853-6.046,1.239-6.046,1.239s1.8-4.564,2.955-5.419a2.6,2.6,0,1,1,3.092,4.18Z" transform="translate(-190.709 -457.842)" fill="#e43f6f"/><path d="M181.961,383.971c1.029,1,5.827,2.036,5.827,2.036s-1.175-4.764-2.2-5.765a2.6,2.6,0,0,0-3.622,3.728Z" transform="translate(-173.9 -334.791)" fill="#e43f6f"/><path d="M158.267,466.917c1.282.646,6.168.2,6.168.2s-2.542-4.2-3.829-4.835a2.6,2.6,0,1,0-2.341,4.642Z" transform="translate(-152.927 -405.715)" fill="#e43f6f"/><path d="M153.129,554.462c1.154.853,6.046,1.239,6.046,1.239s-1.8-4.564-2.956-5.417a2.6,2.6,0,0,0-3.092,4.18Z" transform="translate(-148.831 -481.213)" fill="#e43f6f"/><path d="M200.2,312.459c0,1.436-2.6,5.593-2.6,5.593s-2.6-4.157-2.6-5.593a2.6,2.6,0,1,1,5.2,0Z" transform="translate(-185.75 -274.795)" opacity="0.25"/><path d="M230.774,360.656c-.78,1.205-5.224,3.286-5.224,3.286s.081-4.907.861-6.112a2.6,2.6,0,1,1,4.363,2.825Z" transform="translate(-212.032 -315.041)" opacity="0.25"/><path d="M223.628,452.583c-1.282.646-6.168.2-6.168.2s2.546-4.2,3.829-4.841a2.6,2.6,0,1,1,2.341,4.642Z" transform="translate(-205.074 -393.38)" opacity="0.25"/><path d="M206.806,527.293c-1.154.853-6.046,1.239-6.046,1.239s1.8-4.564,2.955-5.419a2.6,2.6,0,1,1,3.092,4.18Z" transform="translate(-190.709 -457.842)" opacity="0.25"/><path d="M181.961,383.971c1.029,1,5.827,2.036,5.827,2.036s-1.175-4.764-2.2-5.765a2.6,2.6,0,0,0-3.622,3.728Z" transform="translate(-173.9 -334.791)" opacity="0.25"/><path d="M158.267,466.917c1.282.646,6.168.2,6.168.2s-2.542-4.2-3.829-4.835a2.6,2.6,0,1,0-2.341,4.642Z" transform="translate(-152.927 -405.715)" opacity="0.25"/><path d="M153.129,554.462c1.154.853,6.046,1.239,6.046,1.239s-1.8-4.564-2.956-5.417a2.6,2.6,0,0,0-3.092,4.18Z" transform="translate(-148.831 -481.213)" opacity="0.25"/><path d="M693.069,514.28a25.95,25.95,0,0,0-1.258,16.561c2.408,8.976,1.643,19.716-.758,22.373" transform="translate(-612.389 -450.682)" fill="none" stroke="#535461" stroke-miterlimit="10" stroke-width="2"/><circle cx="1.011" cy="1.011" r="1.011" transform="translate(79.669 62.585)" fill="#e43f6f"/><path d="M694.94,544.859s3.8.685,4.812-.7" transform="translate(-615.786 -476.384)" fill="none" stroke="#535461" stroke-miterlimit="10" stroke-width="2"/><path d="M679.048,540.043s-2.289-2.53-2.16-4.043" transform="translate(-600.253 -469.365)" fill="none" stroke="#535461" stroke-miterlimit="10" stroke-width="2"/><path d="M691,576.5s2.079.548,3.977-3.5" transform="translate(-612.397 -501.191)" fill="none" stroke="#535461" stroke-miterlimit="10" stroke-width="2"/><path d="M666.665,588.467s-5.174-3.329-4.543-5.477" transform="translate(-587.511 -509.784)" fill="none" stroke="#535461" stroke-miterlimit="10" stroke-width="2"/><path d="M700.72,610.151s3.625-3.216,3.246-6.381" transform="translate(-620.757 -527.659)" fill="none" stroke="#535461" stroke-miterlimit="10" stroke-width="2"/><path d="M676.006,645.061s-4.615-1.289-4.475-3.311" transform="translate(-595.647 -560.328)" fill="none" stroke="#535461" stroke-miterlimit="10" stroke-width="2"/><path d="M705.85,657.835s2.907-2.693,3.286-4.335" transform="translate(-625.17 -570.435)" fill="none" stroke="#535461" stroke-miterlimit="10" stroke-width="2"/><path d="M688.17,684.971s-2.983-3.482-3.11-5.251" transform="translate(-607.287 -592.988)" fill="none" stroke="#535461" stroke-miterlimit="10" stroke-width="2"/><path d="M707.3,704.177s3.336-3.708,3.594-5.477" transform="translate(-626.417 -609.314)" fill="none" stroke="#535461" stroke-miterlimit="10" stroke-width="2"/><circle cx="1.011" cy="1.011" r="1.011" transform="translate(75.623 65.873)" fill="#e43f6f"/><circle cx="1.011" cy="1.011" r="1.011" transform="translate(74.485 80.41)" fill="#e43f6f"/><circle cx="1.011" cy="1.011" r="1.011" transform="translate(73.601 72.193)" fill="#e43f6f"/><circle cx="1.011" cy="1.011" r="1.011" transform="translate(82.955 66.758)" fill="#e43f6f"/><circle cx="1.011" cy="1.011" r="1.011" transform="translate(82.955 82.306)" fill="#e43f6f"/><circle cx="1.011" cy="1.011" r="1.011" transform="translate(81.312 70.802)" fill="#e43f6f"/><circle cx="1.011" cy="1.011" r="1.011" transform="translate(83.334 89.005)" fill="#e43f6f"/><circle cx="1.011" cy="1.011" r="1.011" transform="translate(76.509 86.351)" fill="#e43f6f"/><circle cx="1.011" cy="1.011" r="1.011" transform="translate(82.323 75.1)" fill="#e43f6f"/><circle cx="1.011" cy="1.011" r="1.011" transform="translate(79.669 62.585)" opacity="0.25"/><circle cx="1.011" cy="1.011" r="1.011" transform="translate(75.623 65.873)" opacity="0.25"/><circle cx="1.011" cy="1.011" r="1.011" transform="translate(74.485 80.41)" opacity="0.25"/><circle cx="1.011" cy="1.011" r="1.011" transform="translate(73.601 72.193)" opacity="0.25"/><circle cx="1.011" cy="1.011" r="1.011" transform="translate(82.955 66.758)" opacity="0.25"/><circle cx="1.011" cy="1.011" r="1.011" transform="translate(82.955 82.306)" opacity="0.25"/><circle cx="1.011" cy="1.011" r="1.011" transform="translate(81.312 70.802)" opacity="0.25"/><circle cx="1.011" cy="1.011" r="1.011" transform="translate(83.334 89.005)" opacity="0.25"/><circle cx="1.011" cy="1.011" r="1.011" transform="translate(76.509 86.351)" opacity="0.25"/><circle cx="1.011" cy="1.011" r="1.011" transform="translate(82.323 75.1)" opacity="0.25"/><path d="M29.25,17.25H3.75A.752.752,0,0,0,3,18v.75a.752.752,0,0,0,.75.75h25.5a.752.752,0,0,0,.75-.75V18A.752.752,0,0,0,29.25,17.25Zm-22.5,4.5h-6A.752.752,0,0,0,0,22.5v.75A.752.752,0,0,0,.75,24h6a.752.752,0,0,0,.75-.75V22.5A.752.752,0,0,0,6.75,21.75Zm19.5,0H10.5a.752.752,0,0,0-.75.75v.75a.752.752,0,0,0,.75.75H26.25a.752.752,0,0,0,.75-.75V22.5A.752.752,0,0,0,26.25,21.75ZM6.75,13.5h7.317a5.906,5.906,0,0,0,7.866,0H24.75a5.25,5.25,0,0,0,0-10.5,5.181,5.181,0,0,0-2.33.567A6.7,6.7,0,0,0,11.625,2.1,6.745,6.745,0,1,0,6.75,13.5Z" transform="translate(52 25)" fill="#e43f6f"/></g></svg>