<svg xmlns="http://www.w3.org/2000/svg" xmlns:xlink="http://www.w3.org/1999/xlink" width="127.19" height="119.533" viewBox="0 0 127.19 119.533"><defs><linearGradient id="a" x1="0.464" y1="-0.047" x2="0.639" y2="1.198" gradientUnits="objectBoundingBox"><stop offset="0" stop-color="#fff"/><stop offset="1"/></linearGradient></defs><g transform="translate(-30.25 -58.156)"><g transform="translate(30.25 58.156)"><g transform="translate(0 28.562)"><path d="M255.385,646.865a.128.128,0,0,1-.063-.017L232.981,634.1a.127.127,0,0,1,0-.22l19.069-10.945a.127.127,0,1,1,.126.22L233.3,633.988l22.085,12.6,13.251-7.748a.128.128,0,0,1,.127,0l5.466,3.123,10.994-6.282a.127.127,0,1,1,.126.221l-11.058,6.319a.129.129,0,0,1-.126,0L268.7,639.1l-13.251,7.748A.127.127,0,0,1,255.385,646.865Z" transform="translate(-198.616 -555.894)" fill="#db6ea7"/><path d="M545.445,606.013a.129.129,0,0,1-.065-.018l-19.068-11.509a.127.127,0,1,1,.131-.217l19.069,11.509a.127.127,0,0,1-.066.236Z" transform="translate(-442.303 -532.08)" fill="#db6ea7"/><path d="M612.572,459.952a.13.13,0,0,1-.063-.017l-5.529-3.159a.127.127,0,1,1,.126-.221l5.465,3.123,21.638-12.826-8.949-5.082a.127.127,0,0,1,0-.22l10.868-6.432-8.27-4.631a.127.127,0,1,1,.124-.222L636.442,435a.127.127,0,0,1,0,.22l-10.869,6.433,8.949,5.082a.127.127,0,0,1,0,.22l-21.889,12.976A.128.128,0,0,1,612.572,459.952Z" transform="translate(-509.317 -395.835)" fill="#db6ea7"/><path d="M445.13,261.357a.127.127,0,0,1-.063-.237l13.347-7.674L441.8,244.078a.127.127,0,0,1,0-.22l12.449-7.225-16.11-9.444-16.55,9.33,5.554,3.05a.127.127,0,0,1,0,.221l-16.7,9.7a.127.127,0,1,1-.128-.22l16.5-9.591-5.558-3.051a.127.127,0,0,1,0-.222l16.812-9.478a.126.126,0,0,1,.126,0l16.361,9.591a.126.126,0,0,1,.063.11.128.128,0,0,1-.063.11l-12.445,7.223,16.619,9.369a.127.127,0,0,1,0,.221l-13.54,7.786A.128.128,0,0,1,445.13,261.357Z" transform="translate(-345.936 -226.915)" fill="#db6ea7"/><path d="M216.544,277.366a.126.126,0,0,1-.064-.018L205.422,270.8a.127.127,0,0,1,.005-.221l5.55-2.938-5.489-3.121-10.655,6.393a.127.127,0,0,1-.129,0l-11.058-6.431a.127.127,0,1,1,.128-.22l10.993,6.394,10.655-6.393a.127.127,0,0,1,.128,0l5.754,3.272a.127.127,0,0,1,0,.223l-5.554,2.94,10.863,6.429a.127.127,0,0,1-.065.236Z" transform="translate(-157.632 -257.93)" fill="#db6ea7"/><path d="M33.988,381.725a.127.127,0,0,1-.063-.237l5.111-2.936-8.721-4.968a.127.127,0,0,1,0-.221l11.4-6.432a.127.127,0,0,1,.126,0L56.392,375.4a.127.127,0,0,1-.128.219l-14.493-8.426-11.138,6.286,8.719,4.967a.127.127,0,0,1,0,.22l-5.3,3.046A.127.127,0,0,1,33.988,381.725Z" transform="translate(-30.25 -343.221)" fill="#db6ea7"/><path d="M532.736,693.824a3.014,3.014,0,0,1-2.727,0,.831.831,0,0,1-.008-1.575,3.015,3.015,0,0,1,2.727,0A.831.831,0,0,1,532.736,693.824Z" transform="translate(-444.953 -613.219)" fill="#db6ea7"/><path d="M279.036,713.745a2.314,2.314,0,0,1-2.093,0,.638.638,0,0,1-.007-1.209,2.313,2.313,0,0,1,2.093,0A.638.638,0,0,1,279.036,713.745Z" transform="translate(-234.827 -630.136)" fill="#db6ea7"/><path d="M669.953,578.97a2.313,2.313,0,0,1-2.093,0,.638.638,0,0,1-.006-1.209,2.314,2.314,0,0,1,2.093,0A.638.638,0,0,1,669.953,578.97Z" transform="translate(-559.582 -518.172)" fill="#db6ea7"/><path d="M110.914,374.829a2.313,2.313,0,0,1-2.093,0,.638.638,0,0,1-.007-1.209,2.314,2.314,0,0,1,2.093,0A.638.638,0,0,1,110.914,374.829Z" transform="translate(-95.16 -348.581)" fill="#db6ea7"/><path d="M272.914,281.829a2.314,2.314,0,0,1-2.093,0,.638.638,0,0,1-.007-1.209,2.314,2.314,0,0,1,2.093,0A.638.638,0,0,1,272.914,281.829Z" transform="translate(-229.741 -271.321)" fill="#db6ea7"/><path d="M628.914,259.829a2.313,2.313,0,0,1-2.093,0,.638.638,0,0,1-.007-1.209,2.314,2.314,0,0,1,2.093,0A.638.638,0,0,1,628.914,259.829Z" transform="translate(-525.489 -253.045)" fill="#db6ea7"/><ellipse cx="1.113" cy="1.928" rx="1.113" ry="1.928" transform="matrix(0.005, -1, 1, 0.005, 100.955, 74.825)" fill="#db6ea7"/><path d="M174.736,259.825a3.014,3.014,0,0,1-2.727,0,.831.831,0,0,1-.009-1.575,3.014,3.014,0,0,1,2.727.005A.831.831,0,0,1,174.736,259.825Z" transform="translate(-147.544 -252.674)" fill="#db6ea7"/><path d="M723.155,427.659a3.014,3.014,0,0,1-2.727,0,.831.831,0,0,1-.008-1.575,3.014,3.014,0,0,1,2.727.005A.831.831,0,0,1,723.155,427.659Z" transform="translate(-603.143 -392.102)" fill="#db6ea7"/><path d="M43.155,449.659a3.014,3.014,0,0,1-2.727,0,.831.831,0,0,1-.008-1.575,3.014,3.014,0,0,1,2.727.005A.831.831,0,0,1,43.155,449.659Z" transform="translate(-38.233 -410.379)" fill="#db6ea7"/></g><ellipse cx="26.971" cy="46.716" rx="26.971" ry="46.716" transform="translate(15.266 101.381) rotate(-89.689)" fill="#af4076"/><path d="M148.351,475.9l-3.991-2.3,1.191-.687-6.613-3.818-1.191.687h0L134.665,468c.17-.193.121-.433-.157-.594a1.4,1.4,0,0,0-1.028-.091l-3.389-1.957,1.191-.687-6.613-3.818-1.191.688h0l-3.991-2.3a.308.308,0,0,0-.279,0l-13.776,7.954a1.409,1.409,0,0,0-1.07.082c-.291.168-.337.422-.142.618l-9.947,5.743a.085.085,0,0,0,0,.161l3.991,2.3h0l-1.121.647,6.613,3.818,1.121-.647,6.987,4.034c-1.815,1.12-1.786,2.872.095,3.958a7.738,7.738,0,0,0,6.853.053l4.325,2.5a.308.308,0,0,0,.279,0l9.967-5.754a1.4,1.4,0,0,0,.989-.107c.268-.155.329-.383.185-.571l13.8-7.965A.085.085,0,0,0,148.351,475.9Zm-3.359-2.991-2.1,1.213-6.056-3.5,2.1-1.213Zm-14.27-8.239-2.1,1.213-6.056-3.5,2.1-1.213Zm-11.377-5.193L123.2,461.7h0l-1.191.688,6.613,3.818,1.191-.688,3.364,1.942a.349.349,0,0,0-.122.5l-3.23,1.865-1.183-.683-6.654,3.842,1.183.683-3.284,1.9a1.474,1.474,0,0,0-.8.044l-3.372-1.947,1.144-.66-6.613-3.818-1.144.66h0l-3.358-1.939a.344.344,0,0,0-.015-.561Zm3.2,13.506,6.094-3.518,2.088,1.206-6.094,3.518Zm-12.306-3.478,6.056,3.5-2.1,1.213-6.056-3.5ZM97.7,476.748l2.1-1.213,6.056,3.5-2.1,1.213Zm14.537,11c-1.725-1-1.754-2.606-.1-3.636l2.242,1.294-.158,1.72c-.006.063.078.116.187.119a.289.289,0,0,0,.15-.034.1.1,0,0,0,.058-.075l.139-1.514,3.774,2.179A7.131,7.131,0,0,1,112.236,487.75Zm2.837-2.265,2.546-.078a.282.282,0,0,0,.13-.033.1.1,0,0,0,.058-.087c-.005-.063-.1-.111-.206-.108l-2.9.089-2.273-1.312a7.14,7.14,0,0,1,6.252.076c1.711.988,1.754,2.581.136,3.612Zm8.2,4.735-4.184-2.416c1.775-1.121,1.733-2.856-.135-3.935a7.747,7.747,0,0,0-6.811-.075l-6.992-4.037,1.261-.728L99.8,475.212l-1.261.728h0l-3.852-2.224,9.795-5.655a1.453,1.453,0,0,0,.972.009l3.358,1.939h0l-1.237.714,6.613,3.818,1.238-.714,3.372,1.947c-.217.2-.179.463.119.635a1.407,1.407,0,0,0,1.1.069l3.065,1.77h0l-1.237.714,6.613,3.818,1.238-.714,3.3,1.9a.355.355,0,0,0,.071.6Zm5.186-7.763-6.056-3.5,2.1-1.213,6.056,3.5Zm5.852,1.39a1.427,1.427,0,0,0-1.041-.041l-3.3-1.9,1.144-.661-6.613-3.818-1.144.661h0l-3.065-1.77c.209-.191.178-.442-.09-.615l3.237-1.869,1.183.683,6.654-3.842-1.183-.683,3.182-1.837a1.41,1.41,0,0,0,1.127.025l3.057,1.765h0l-1.191.687,6.613,3.818,1.191-.687,3.852,2.224Z" transform="translate(-83.387 -391.329)" fill="#ffcce8"/><g transform="translate(12.114 56.308)"><path d="M112.7,391.278l-.6-.338h0a.6.6,0,0,0-.677.024l-8.626,4.98a2.329,2.329,0,0,0-.972,1.858v9.537a.845.845,0,0,0,.355.8h0l.707.394a3.475,3.475,0,0,0-.261-.378.952.952,0,0,0,.172-.078l8.626-4.98a2.328,2.328,0,0,0,.972-1.858V391.7a1.243,1.243,0,0,0-.088-.486A.371.371,0,0,0,112.7,391.278Z" transform="translate(-101.824 -390.849)" fill="#e0cbb0"/><path d="M101.824,431.135v9.537a.845.845,0,0,0,.355.8h0l.707.394a3.474,3.474,0,0,0-.261-.377.961.961,0,0,0,.172-.078l5.046-2.913v-4.052l-6.01-3.47C101.827,431.026,101.824,431.081,101.824,431.135Z" transform="translate(-101.824 -424.18)" fill="#c6ae95"/><path d="M116.625,391.7a1.244,1.244,0,0,0-.088-.486.371.371,0,0,0,.39.064l-.6-.338h0a.6.6,0,0,0-.677.024l-8.626,4.98a1.232,1.232,0,0,0-.111.073l6.776,3.912,2.933-2.4Z" transform="translate(-106.054 -390.849)" fill="#f2dcc4"/><path d="M115.207,405.251l-8.626,4.98c-.537.31-.972-.019-.972-.735v-9.537a2.328,2.328,0,0,1,.972-1.858l8.626-4.98c.537-.31.972.019.972.735v9.537A2.328,2.328,0,0,1,115.207,405.251Z" transform="translate(-104.968 -392.64)" fill="#f7eed7"/><path d="M116.385,407.332l-8.041,4.642c-.561.324-1.017.064-1.017-.58v-9.227a2.244,2.244,0,0,1,1.017-1.754l8.041-4.643c.561-.324,1.017-.064,1.017.58v9.227A2.244,2.244,0,0,1,116.385,407.332Zm-8.041-6.816a2.046,2.046,0,0,0-.927,1.6v9.227c0,.587.416.824.927.529l8.041-4.642a2.046,2.046,0,0,0,.927-1.6V396.4c0-.587-.416-.824-.927-.529Z" transform="translate(-106.396 -394.822)" fill="#c6ad89"/><g transform="translate(1.021 0.925)" opacity="0.6" style="mix-blend-mode:screen;isolation:isolate"><path d="M108.15,412.518l9.35-16.127a.64.64,0,0,0-.676.053l-8.041,4.643a2.046,2.046,0,0,0-.927,1.6v9.227A.629.629,0,0,0,108.15,412.518Z" transform="translate(-107.856 -396.317)" fill="#f9ecc7"/></g><ellipse cx="4.123" cy="2.38" rx="4.123" ry="2.38" transform="matrix(0.505, -0.863, 0.863, 0.505, 1.833, 11.409)" fill="#cebba1"/><path d="M128.739,448.634l-1.6,1.986,1.381.8q.15-.069.3-.157a5.621,5.621,0,0,0,1.7-1.6Z" transform="translate(-122.851 -438.854)" fill="#e0cbb0"/><path d="M134.826,422.526a4.442,4.442,0,0,0-.462.309v1.5l3.006,1.736a5.3,5.3,0,0,0,.38-1.872C137.75,422.34,136.441,421.593,134.826,422.526Z" transform="translate(-128.857 -416.831)" fill="#c6ad89" opacity="0.4" style="mix-blend-mode:multiply;isolation:isolate"/><g transform="translate(6.249 5.294)"><path d="M141.379,423.9a1.691,1.691,0,0,0-2.632-1.52Z" transform="translate(-138.747 -422.128)" fill="#c6ad89" opacity="0.4" style="mix-blend-mode:multiply;isolation:isolate"/></g><path d="M121.932,429.517a5.843,5.843,0,0,0,2.651-4.574c0-1.133-.54-1.809-1.34-1.87a3.432,3.432,0,0,0-.506.241,6.444,6.444,0,0,0-2.924,5.044,2.527,2.527,0,0,0,.361,1.408A1.956,1.956,0,0,0,121.932,429.517Z" transform="translate(-116.768 -417.619)" fill="#f2ddc2"/><path d="M122.508,418.271l-5.663,3.27c-.4.228-.716.045-.716-.409v-6.5a1.58,1.58,0,0,1,.716-1.236l5.663-3.27c.395-.228.716-.045.716.409v6.5A1.581,1.581,0,0,1,122.508,418.271Zm-5.663-4.8a1.441,1.441,0,0,0-.653,1.127v6.5c0,.413.293.58.653.372l5.663-3.27a1.442,1.442,0,0,0,.653-1.127v-6.5c0-.413-.293-.58-.653-.372Z" transform="translate(-113.707 -406.784)" fill="#c6ad89"/><g transform="translate(4.839 8.623)"><path d="M131.122,442.05a.776.776,0,0,1-.352.607c-.194.112-.352.022-.352-.2a.776.776,0,0,1,.352-.607C130.965,441.737,131.122,441.827,131.122,442.05Z" transform="translate(-130.418 -441.801)" fill="#5d6d89"/><g transform="translate(0.042 0.031)"><path d="M131.6,441.985l-.5.855a.255.255,0,0,0,.237-.03.776.776,0,0,0,.352-.607A.249.249,0,0,0,131.6,441.985Z" transform="translate(-131.026 -441.985)" fill="#5d6d89" opacity="0.5" style="mix-blend-mode:multiply;isolation:isolate"/><path d="M131.286,442.337a.684.684,0,0,1-.31.535c-.171.1-.31.02-.31-.177a.684.684,0,0,1,.31-.535C131.147,442.061,131.286,442.141,131.286,442.337Z" transform="translate(-130.665 -442.095)" fill="#a6b4c9"/><path d="M131.076,442.93a.148.148,0,0,0,.047.027l.435-.749a.145.145,0,0,0-.047-.027Z" transform="translate(-131.006 -442.148)" fill="#5d6d89"/></g></g><g transform="translate(3.485 7.803)"><path d="M123.226,446.118a.894.894,0,0,1-.406.7c-.224.129-.406.026-.406-.231a.894.894,0,0,1,.406-.7C123.044,445.757,123.226,445.861,123.226,446.118Z" transform="translate(-122.414 -444.329)" fill="#494238"/><path d="M138.6,437.242a.894.894,0,0,1-.406.7c-.224.129-.406.026-.406-.231a.894.894,0,0,1,.406-.7C138.418,436.881,138.6,436.984,138.6,437.242Z" transform="translate(-135.186 -436.954)" fill="#494238"/></g><path d="M124.4,447.922c-1.093.631-2.05.521-2.585-.164.491.78,1.464.942,2.585.295a6.437,6.437,0,0,0,2.585-3.28A6.608,6.608,0,0,1,124.4,447.922Z" transform="translate(-118.432 -435.646)" fill="#fff"/><path d="M119.9,429.036a7.138,7.138,0,0,1,3.24-5.588,3.8,3.8,0,0,1,.551-.263,1.36,1.36,0,0,0-.449-.112,3.432,3.432,0,0,0-.506.241,6.444,6.444,0,0,0-2.924,5.044,3.146,3.146,0,0,0,.091.779C119.9,429.1,119.9,429.07,119.9,429.036Z" transform="translate(-116.768 -417.619)" fill="#c6ad89" opacity="0.4" style="mix-blend-mode:multiply;isolation:isolate"/><path d="M124.967,443.782a2.534,2.534,0,0,1-1.371.391,2.169,2.169,0,0,0,1.479-.336,5.93,5.93,0,0,0,2.514-3.526A6.367,6.367,0,0,1,124.967,443.782Z" transform="translate(-119.911 -431.939)" fill="#fffaee"/><path d="M123.73,445.841a.259.259,0,0,1,.162.278.894.894,0,0,1-.406.7.429.429,0,0,1-.114.047.317.317,0,0,0,.244-.047.894.894,0,0,0,.406-.7C124.022,445.908,123.9,445.8,123.73,445.841Z" transform="translate(-119.726 -436.527)" fill="#cebba1"/><path d="M139.073,436.967a.261.261,0,0,1,.157.277.9.9,0,0,1-.406.7.431.431,0,0,1-.109.045.313.313,0,0,0,.249-.045.894.894,0,0,0,.406-.7C139.371,437.03,139.245,436.923,139.073,436.967Z" transform="translate(-132.472 -429.154)" fill="#cebba1"/></g><g transform="translate(35.226 0)"><path d="M318.939,233.625s-.779-16.376-.934-21.957c-.157-5.664-.3-23.038-.3-23.038h-.023a.517.517,0,0,0-.307-.464,1.662,1.662,0,0,0-1.5-.019.5.5,0,0,0-.31.483h-.018s-.14,17.342-.3,22.995c-.155,5.593-.935,22.007-.935,22.007v.007h0a1.256,1.256,0,0,0,.661.814,3.631,3.631,0,0,0,3.284.042,1.19,1.19,0,0,0,.678-.856h0Z" transform="translate(-301.461 -166.005)" fill="#ecd2c6"/><path d="M319.407,233.625s-.779-16.376-.934-21.957c-.157-5.664-.3-23.038-.3-23.038h-.023a.517.517,0,0,0-.307-.464,1.662,1.662,0,0,0-1.5-.019.843.843,0,0,0-.126.087,1.657,1.657,0,0,1,1.276.1.508.508,0,0,1,.3.455h.022s.138,17.054.292,22.614c.139,5.019.8,19.247.911,21.6,0-.011,0-.022,0-.032h0s0,.248-.006.032a1.164,1.164,0,0,1-.651,1.187,3.563,3.563,0,0,1-3.224-.041.956.956,0,0,1-.268-.254,1.472,1.472,0,0,0,.568.554,3.631,3.631,0,0,0,3.284.042,1.19,1.19,0,0,0,.678-.856h0Z" transform="translate(-301.928 -166.005)" fill="#cdb1a7"/><path d="M321.786,234.806s-.528-19.2-.583-21.19c-.056-2.02,0-23.488,0-23.488H321.2a.185.185,0,0,0-.109-.165.593.593,0,0,0-.537-.007.177.177,0,0,0-.111.172h-.007s-.156,21.457-.212,23.473c-.055,1.995-.633,21.208-.633,21.208v0h0a.448.448,0,0,0,.236.29,2.712,2.712,0,0,0,1.72.015.425.425,0,0,0,.242-.305h0Z" transform="translate(-305.843 -167.598)" fill="#ffe9dd"/><path d="M323.532,188.63h-.023a.517.517,0,0,0-.307-.464,1.663,1.663,0,0,0-1.5-.019.5.5,0,0,0-.31.483h-.018s-.017,2.106-.046,5.089a3.6,3.6,0,0,1,2.255.036C323.549,190.753,323.532,188.63,323.532,188.63Z" transform="translate(-307.285 -166.005)" fill="#b99c94" opacity="0.3" style="mix-blend-mode:multiply;isolation:isolate"/><g transform="translate(0)"><path d="M291.7,167.881l.127-.069-.051.113Z" transform="translate(-282.677 -149.252)" fill="#ffe9dd"/><g transform="translate(18.885)"><path d="M349.963,80.522s1.216-1.167,1.846-4.654a43.764,43.764,0,0,1,4.272-7.377c3.538-5,4.791-6.276,7.444-10.175,0,0,.71-.483.479.231a148.309,148.309,0,0,1-13.672,22.228Z" transform="translate(-349.963 -58.156)" fill="#ecd2c6"/><path d="M364.654,58.219c.063.039.085.145.012.371a148.355,148.355,0,0,1-13.55,22.066l.173.119a148.315,148.315,0,0,0,13.672-22.228C365.116,58.068,364.848,58.128,364.654,58.219Z" transform="translate(-350.921 -58.157)" fill="#cdb1a7"/><path d="M362.185,94.965s2.027-4.976,8.807-13.2c0,0-1.262,4.154-8.255,14.069C362.737,95.83,361.153,97.8,362.185,94.965Z" transform="translate(-359.826 -77.766)" fill="#ffe9dd"/></g><g transform="translate(18.717 22.835)"><path d="M349.5,193.074s-.193,1.566,1.944,2.4a14.044,14.044,0,0,1,1.866,5.522c.686,4.566.542,6.179,1.172,9.6,0,0-.267.912-.612.612s-3.941-7.921-4.9-17.666Z" transform="translate(-348.971 -193.074)" fill="#ecd2c6"/><path d="M354.4,212.041a.2.2,0,0,1-.3.013c-.343-.3-3.9-7.839-4.883-17.509l-.249.221c.958,9.745,4.554,17.365,4.9,17.666C354.1,212.633,354.3,212.29,354.4,212.041Z" transform="translate(-348.971 -194.296)" fill="#cdb1a7"/><path d="M357.446,208.9s2.03,2.631,2.29,11.372c0,0-2.083-1.645-3.46-10.671C356.275,209.6,356.176,207.555,357.446,208.9Z" transform="translate(-355.037 -205.839)" fill="#ffe9dd"/></g><g transform="translate(14.53 17.424)"><path d="M327.153,162.412l-2.264-1.3-.662,2.726,2.207,4.445,2.036-1.171a6.257,6.257,0,0,0,.583-2.107A13.025,13.025,0,0,1,327.153,162.412Z" transform="translate(-324.227 -161.107)" fill="#cdb1a7"/></g><path d="M292.844,152.8a2.477,2.477,0,0,1,1.924-1.106l4.057,1.832.01-.259,2.241,1.319-2.063,1.189S293.232,154.173,292.844,152.8Z" transform="translate(-283.626 -135.863)" fill="#f2dcd0"/><g transform="translate(9.025 16.94)"><path d="M298.062,161.218l-2.264-1.3v.254l-3.907-1.92a4.923,4.923,0,0,0-.168.695l.076.044s-.05.387-.05.557c0,.118.028.435.028.435l-.077-.044a9.825,9.825,0,0,0,.193,1.077l7.486,4.9a6.255,6.255,0,0,0,.583-2.107A13.034,13.034,0,0,1,298.062,161.218Z" transform="translate(-291.701 -158.248)" fill="#e7cdc1"/><path d="M291.99,163.173a4.02,4.02,0,0,0,.028.435l2.927,1.689-.411-1.242-2.494-1.439A3.462,3.462,0,0,0,291.99,163.173Z" transform="translate(-291.941 -161.877)" fill="#b99c94"/></g><g transform="translate(13.129 17.406)"><path d="M318.207,163.505l2.063-1.189L318.032,161l-2.083,1.2Z" transform="translate(-315.949 -160.999)" fill="#ffe9dd"/></g><path d="M339.83,184.06l-2.062,1.191a5.6,5.6,0,0,1-.56,2.075l.01.021,2.036-1.171a6.256,6.256,0,0,0,.583-2.107Z" transform="translate(-320.481 -162.751)" fill="#b99c94"/><path d="M338.4,177.391s-.756-2.382-.266-2.722,1.888.668,1.888.668Z" transform="translate(-321.114 -154.891)" fill="#ecd2c6"/><path d="M340.516,180.586s.287-1.573,1.053-2.041,1.016.858,1.016.858Z" transform="translate(-323.23 -158.086)" fill="#b99c94"/><path d="M342.259,183.1c-.4-.337-1.712.269-1.649,2.086a.9.9,0,0,0,.409.727l.955-.549Z" transform="translate(-323.306 -161.882)" fill="#aa8b84"/><path d="M342.739,183.2a.623.623,0,0,0-.653.053,1.983,1.983,0,0,0-.9,1.552.633.633,0,0,0,.25.568l-.005.009,1.95.807.982-1.751Z" transform="translate(-323.786 -161.976)" fill="#ecd2c6"/><path d="M341.619,189.718l.006-.01a.707.707,0,0,1-.279-.636c0-.036,0-.072,0-.108a1.7,1.7,0,0,0-.164.687.633.633,0,0,0,.25.568l-.005.009,1.95.807.221-.395Z" transform="translate(-323.786 -166.825)" fill="#cdb1a7"/><path d="M354.2,191.089a1.571,1.571,0,0,1-.713,1.229c-.394.227-.713.045-.713-.406a1.57,1.57,0,0,1,.713-1.229C353.878,190.455,354.2,190.637,354.2,191.089Z" transform="translate(-333.411 -168.171)" fill="#ffe9dd"/><g transform="translate(0 22.653)"><path d="M256.959,192.659s-1.105-.108-3.57,2.824a21.773,21.773,0,0,1-6.033,3.019c-4.27,1.352-5.454,1.315-8.754,2.482,0,0-.515-.269.018-.758a70.333,70.333,0,0,1,18.4-8.228Z" transform="translate(-238.379 -191.998)" fill="#ecd2c6"/><path d="M268.384,202.486s-3.831,2.962-11.122,4.144c0,0,3.079-2.939,11.536-5.64C268.8,200.991,270.534,200.664,268.384,202.486Z" transform="translate(-254.066 -199.45)" fill="#ffe9dd"/><path d="M253.442,196.966a21.771,21.771,0,0,1-6.033,3.019c-4.269,1.352-5.454,1.315-8.754,2.482a.469.469,0,0,1-.207-.238.384.384,0,0,0,.164.535c3.3-1.168,4.484-1.13,8.754-2.482a21.774,21.774,0,0,0,6.033-3.019c2.465-2.932,3.57-2.824,3.57-2.824l.028-.3C256.863,194.14,255.748,194.223,253.442,196.966Z" transform="translate(-238.389 -193.778)" fill="#cdb1a7"/></g><path d="M354.5,190.973a.592.592,0,0,1,.1.353,1.57,1.57,0,0,1-.713,1.229.483.483,0,0,1-.528.032c.124.171.35.2.613.053a1.57,1.57,0,0,0,.713-1.229A.508.508,0,0,0,354.5,190.973Z" transform="translate(-333.901 -168.494)" fill="#ecd2c6"/><path d="M331.353,168.785l-2.063,1.189a14.385,14.385,0,0,0,1.9,2.587s-1.752-2.132-1.624-2.53C329.58,169.819,331.353,168.785,331.353,168.785Z" transform="translate(-313.904 -150.061)" fill="#b99c94"/><path d="M315.949,168.105l2.258,1.3,2.063-1.189a13.993,13.993,0,0,1-2.085.963A15.8,15.8,0,0,1,315.949,168.105Z" transform="translate(-302.82 -149.496)" fill="#fff9ff"/><path d="M352.857,191.951a1.571,1.571,0,0,1,.713-1.229.587.587,0,0,1,.389-.091.518.518,0,0,0-.474.062,1.57,1.57,0,0,0-.713,1.229c0,.287.129.463.324.5A.473.473,0,0,1,352.857,191.951Z" transform="translate(-333.411 -168.182)" fill="#fff9ff"/><path d="M340.516,180.569s.443-2.278,1.518-2.129C342.034,178.44,340.892,178.1,340.516,180.569Z" transform="translate(-323.23 -158.069)" fill="#fff9ff"/><path d="M343.2,184.763a1.506,1.506,0,0,1,.989-.84s1.239.855.872,1.223S343.2,184.763,343.2,184.763Z" transform="translate(-325.458 -162.637)" fill="#ffe9dd"/><path d="M292.827,152.8l3.907,1.92.006-.251,1.828-1.055-3.815-1.722s3.477,1.57,3.3,1.756a6.033,6.033,0,0,1-1.546.879C296.338,154.33,292.827,152.8,292.827,152.8Z" transform="translate(-283.612 -135.863)" fill="#cdb1a7" opacity="0.2" style="mix-blend-mode:multiply;isolation:isolate"/><path d="M296.734,160.168l-3.907-1.92A31.068,31.068,0,0,1,296.734,160.168Z" transform="translate(-283.612 -141.308)" fill="#ffe9dd"/></g></g><g transform="translate(50.044 86.495)"><path d="M357.982,584.652a.28.28,0,0,0-.021-.1h0a.284.284,0,0,0-.159-.159,12.359,12.359,0,0,0-9.016.433c-2.328,1.046-4.705,3.193-7,5.269-4.262,3.848-8.668,7.827-13.071,5.3-1.454-.835-2.2-1.8-2.208-2.87,0-.042,0-.084,0-.126.09-2.215,3.128-4.33,3.876-4.818a.782.782,0,0,0,.148.116.326.326,0,0,0,.324.034h0l.92-.407h0l.087-.039h0l.189-.084,3.47,2a1.448,1.448,0,0,0,.232.1,1.38,1.38,0,0,0,.5.1,1.783,1.783,0,0,0,.285,0h0a1.548,1.548,0,0,0,.173-.026l.043-.012a1.261,1.261,0,0,0,.122-.035.933.933,0,0,0,.15-.068l17.537-10.125a.426.426,0,0,0,.254-.441v-3.26a.349.349,0,0,0,.005-.081h0c0-.006,0-.013,0-.019s0-.008,0-.012a.626.626,0,0,0-.253-.38l-.113-.065h0l-2.792-1.612-2.9-1.677a1.542,1.542,0,0,0-1.4,0L329.83,581.718a.684.684,0,0,0-.125.091l0,0a.508.508,0,0,0-.04.043.37.37,0,0,0-.091.248s0,.006,0,.01h0a.4.4,0,0,0,.006.05v3.249c-.04.191.084.4.362.563l.617.356-.355.273h0a.322.322,0,0,0-.13.292.764.764,0,0,0,.026.184c-.779.5-4.078,2.763-4.16,5.316h0c0,.043,0,.085,0,.128.014,1.286.853,2.417,2.495,3.359a6.3,6.3,0,0,0,3.191.885c3.621,0,7.13-3.168,10.547-6.254,2.371-2.141,4.611-4.163,6.856-5.172a12.009,12.009,0,0,1,8.573-.423.285.285,0,0,0,.37-.161.275.275,0,0,0,.015-.054.289.289,0,0,0,0-.041S357.983,584.656,357.982,584.652Z" transform="translate(-325.932 -571.05)" fill="#9b3465" opacity="0.5" style="mix-blend-mode:multiply;isolation:isolate"/><path d="M372.677,593.189V589.9h-3.043v1.312l-2.9-1.676a1.676,1.676,0,0,0-1.508-.063l-14.747,8.514v-1.421h-3.043v3.339c-.04.191.084.4.362.563l5.584,3.224a1.677,1.677,0,0,0,1.508.063l17.537-10.125A.426.426,0,0,0,372.677,593.189Z" transform="translate(-343.787 -585.918)" fill="#e0cbb0"/><path d="M405.98,589.9h-3.043v1.312l-2.9-1.676a1.676,1.676,0,0,0-1.508-.063l-11.013,6.358V603.9a1.351,1.351,0,0,0,.676-.148l17.537-10.125a.426.426,0,0,0,.254-.441Z" transform="translate(-377.09 -585.918)" fill="#cebba1"/><path d="M387.739,656.923s-.059-2.579,0-2.828.529-.5.529-.5l-.754-.148v3.728a1.352,1.352,0,0,0,.676-.148l.178-.1h0C387.786,657.2,387.739,656.923,387.739,656.923Z" transform="translate(-377.09 -639.189)" fill="#c6ad89" opacity="0.4" style="mix-blend-mode:multiply;isolation:isolate"/><path d="M383.016,656.923s.059-2.579,0-2.828-.529-.5-.529-.5l.754-.148v3.728a1.352,1.352,0,0,1-.676-.148l-.178-.1h0C382.968,657.2,383.016,656.923,383.016,656.923Z" transform="translate(-372.833 -639.189)" fill="#f2ddc2"/><path d="M354.886,583.743l17.537-10.125c.386-.223.338-.613-.108-.871l-5.584-3.224a1.676,1.676,0,0,0-1.508-.062l-17.537,10.125c-.386.223-.338.613.108.871l5.584,3.224A1.676,1.676,0,0,0,354.886,583.743Z" transform="translate(-343.787 -569.293)" fill="#f7eed7"/><path d="M372.686,573.138a.592.592,0,0,0-.256-.41l-5.809-3.354a1.542,1.542,0,0,0-1.4,0L347.688,579.5a.444.444,0,0,0-.26.4Z" transform="translate(-343.79 -569.208)" fill="#f7eed7" opacity="0.4" style="mix-blend-mode:screen;isolation:isolate"/><g transform="translate(18.83 2.16)"><ellipse cx="3.178" cy="1.834" rx="3.178" ry="1.834" transform="matrix(1, -0.005, 0.005, 1, 0, 0.034)" fill="#cebba1"/><path d="M440.071,582.22h-.132a4.675,4.675,0,0,0-1.354.326v0l-.025.011-.011,0h0a3.268,3.268,0,0,0-.36.176c-1.148.663-1.24,1.7-.277,2.419h.673v-1.081h1.485Z" transform="translate(-437.242 -582.177)" fill="#c6ad89" opacity="0.4" style="mix-blend-mode:multiply;isolation:isolate"/><path d="M461.733,583.073a2.493,2.493,0,0,0-.43-.311,4.233,4.233,0,0,0-1.637-.5v2.405h2.067Z" transform="translate(-455.861 -582.212)" fill="#e0cbb0"/><path d="M438.2,582.681c-.97.56-1.184,1.388-.649,2.064h1.467c-.232-.265-1.252-.24-1.293-.612-.129-1.168,1.553-1.816,2.356-1.879v-.1A4.422,4.422,0,0,0,438.2,582.681Z" transform="translate(-437.248 -582.123)" fill="#c6ad89" opacity="0.4" style="mix-blend-mode:multiply;isolation:isolate"/><path d="M438.248,589.612a2.015,2.015,0,0,0,.754.7,4.966,4.966,0,0,0,4.494-.008,2.031,2.031,0,0,0,.777-.733,1.809,1.809,0,0,0-.829-.853,4.849,4.849,0,0,0-4.387.049A1.871,1.871,0,0,0,438.248,589.612Z" transform="translate(-438.068 -587.164)" fill="#f2ddc2"/><g transform="translate(1.49 1.656)"><path d="M454.269,596.511l-.022-.007a.266.266,0,0,0-.108-.106.7.7,0,0,0-.634,0,.275.275,0,0,0-.108.105l-.024.012s0,.088,0,.094a.239.239,0,0,0,.129.155.7.7,0,0,0,.634,0,.245.245,0,0,0,.131-.156Z" transform="translate(-452.124 -595.55)" fill="#5d6d89"/><path d="M460.811,591.842a.811.811,0,0,0-.734,0,.224.224,0,0,0,0,.424.811.811,0,0,0,.734,0A.223.223,0,0,0,460.811,591.842Z" transform="translate(-457.566 -591.755)" fill="#494238"/><path d="M454.266,596.167s0-.007,0-.01a.16.16,0,0,0,0-.041h0a.236.236,0,0,0-.126-.156.7.7,0,0,0-.637,0,.24.24,0,0,0-.128.156h0a.15.15,0,0,0,0,.056h0a.235.235,0,0,0,.126.155.7.7,0,0,0,.636,0,.238.238,0,0,0,.127-.156h0A.034.034,0,0,0,454.266,596.167Z" transform="translate(-452.124 -595.186)" fill="#6b7e99"/><path d="M446.878,599.891a.81.81,0,0,0-.733,0c-.146.084-.186.205-.123.31a4.484,4.484,0,0,0,.676.179.637.637,0,0,0,.179-.067A.224.224,0,0,0,446.878,599.891Z" transform="translate(-445.993 -598.441)" fill="#494238"/><path d="M454.474,596.27a.208.208,0,0,0-.111-.137.62.62,0,0,0-.561,0,.211.211,0,0,0-.113.138h0a.129.129,0,0,0,0,.049h0a.208.208,0,0,0,.111.137.62.62,0,0,0,.561,0,.21.21,0,0,0,.113-.138.13.13,0,0,0,0-.049Z" transform="translate(-452.384 -595.337)" fill="#b5bdc6"/><path d="M453.687,597.28a.129.129,0,0,0,0,.036.107.107,0,0,0,0,.013A.13.13,0,0,1,453.687,597.28Z" transform="translate(-452.383 -596.345)" fill="#b5bdc6"/><path d="M447.009,599.891a.81.81,0,0,0-.734,0,.326.326,0,0,0-.125.118.4.4,0,0,1,.059-.042.773.773,0,0,1,.7,0c.177.1.188.262.04.374a.564.564,0,0,0,.058-.027A.224.224,0,0,0,447.009,599.891Z" transform="translate(-446.124 -598.441)" fill="#cebba1"/><path d="M453.386,597.559a.23.23,0,0,0,.127.161.7.7,0,0,0,.637,0,.237.237,0,0,0,.128-.16Zm.725.138a.62.62,0,0,1-.561,0,.208.208,0,0,1-.111-.137h0l.784,0A.21.21,0,0,1,454.111,597.7Z" transform="translate(-452.135 -596.577)" fill="#7c8189" opacity="0.5" style="mix-blend-mode:multiply;isolation:isolate"/><path d="M460.822,591.842a.81.81,0,0,0-.733,0,.241.241,0,0,0-.148.243.27.27,0,0,1,.125-.132.724.724,0,0,1,.656,0c.154.089.174.224.065.328.011-.005.023-.01.034-.016A.223.223,0,0,0,460.822,591.842Z" transform="translate(-457.578 -591.755)" fill="#cebba1"/><path d="M454.138,597.647a.7.7,0,0,1-.637,0,.229.229,0,0,1-.129-.163.226.226,0,0,0,.129.172.7.7,0,0,0,.637,0,.231.231,0,0,0,.131-.172A.239.239,0,0,1,454.138,597.647Z" transform="translate(-452.123 -596.514)" fill="#b5bdc6"/><path d="M453.378,597.321h.891s0-.007,0-.01a.152.152,0,0,0,0-.038l-.891,0A.155.155,0,0,0,453.378,597.321Z" transform="translate(-452.126 -596.337)" fill="#5d6d89"/></g><path d="M443.7,592.68c-1.245.719-4.69.106-4.476-1.4a1.8,1.8,0,0,0-.825.612,1.391,1.391,0,0,0-.149.261,2.056,2.056,0,0,0,.754.7,4.966,4.966,0,0,0,4.494-.008,2.506,2.506,0,0,0,.451-.33A2.757,2.757,0,0,1,443.7,592.68Z" transform="translate(-438.068 -589.702)" fill="#c6ad89" opacity="0.4" style="mix-blend-mode:multiply;isolation:isolate"/><path d="M439.048,588.834a4.849,4.849,0,0,1,4.387-.049,1.828,1.828,0,0,1,.816.825c.007-.012.015-.023.022-.035a1.809,1.809,0,0,0-.829-.853,4.849,4.849,0,0,0-4.387.049,1.871,1.871,0,0,0-.809.841l.012.019A1.905,1.905,0,0,1,439.048,588.834Z" transform="translate(-438.068 -587.164)" fill="#fffaee"/><g transform="translate(0.017 0.722)"><path d="M437.449,587.96a1.389,1.389,0,0,1,.149-.261,1.212,1.212,0,0,1,.37-1.466C436.77,587.111,437.532,588.1,437.449,587.96Z" transform="translate(-437.286 -586.233)" fill="#c6ad89" opacity="0.4" style="mix-blend-mode:multiply;isolation:isolate"/><path d="M441.464,599.8l-.044-.03Z" transform="translate(-440.72 -597.481)" fill="#c6ad89" opacity="0.4" style="mix-blend-mode:multiply;isolation:isolate"/></g><path d="M438.207,582.718a4.967,4.967,0,0,1,4.494-.008,1.515,1.515,0,0,1,.916,1.379,1.467,1.467,0,0,0-.9-1.486,4.966,4.966,0,0,0-4.493.008,1.64,1.64,0,0,0-.93,1.215A1.716,1.716,0,0,1,438.207,582.718Z" transform="translate(-437.272 -582.052)" fill="#fffcf5"/></g><g transform="translate(13.09 5.457)"><ellipse cx="3.178" cy="1.834" rx="3.178" ry="1.834" transform="matrix(1, -0.005, 0.005, 1, 0, 0.034)" fill="#cebba1"/><path d="M406.158,601.705h-.132a4.668,4.668,0,0,0-1.354.326v0l-.025.011-.011,0h0a3.316,3.316,0,0,0-.36.176c-1.148.663-1.24,1.7-.277,2.419h.673v-1.081h1.485Z" transform="translate(-403.328 -601.662)" fill="#c6ad89" opacity="0.4" style="mix-blend-mode:multiply;isolation:isolate"/><path d="M427.82,602.558a2.485,2.485,0,0,0-.43-.311,4.234,4.234,0,0,0-1.636-.5v2.405h2.067Z" transform="translate(-421.948 -601.696)" fill="#e0cbb0"/><path d="M404.281,602.166c-.97.56-1.184,1.388-.649,2.064H405.1c-.232-.264-1.252-.24-1.293-.611-.129-1.168,1.553-1.816,2.356-1.879v-.1A4.424,4.424,0,0,0,404.281,602.166Z" transform="translate(-403.334 -601.607)" fill="#c6ad89" opacity="0.4" style="mix-blend-mode:multiply;isolation:isolate"/><path d="M404.334,609.1a2.014,2.014,0,0,0,.754.7,4.966,4.966,0,0,0,4.494-.008,2.034,2.034,0,0,0,.778-.733,1.806,1.806,0,0,0-.829-.853,4.848,4.848,0,0,0-4.387.049A1.873,1.873,0,0,0,404.334,609.1Z" transform="translate(-404.154 -606.648)" fill="#f2ddc2"/><g transform="translate(1.49 1.657)"><path d="M420.356,616l-.022-.007a.266.266,0,0,0-.108-.106.7.7,0,0,0-.634,0,.275.275,0,0,0-.108.105l-.024.011s0,.089,0,.094a.24.24,0,0,0,.129.155.7.7,0,0,0,.634,0,.246.246,0,0,0,.131-.156Z" transform="translate(-418.21 -615.034)" fill="#5d6d89"/><path d="M426.9,611.327a.811.811,0,0,0-.734,0,.224.224,0,0,0,0,.424.811.811,0,0,0,.734,0A.224.224,0,0,0,426.9,611.327Z" transform="translate(-423.652 -611.24)" fill="#494238"/><path d="M420.352,615.652a.1.1,0,0,0,0-.01.147.147,0,0,0,0-.041h0a.236.236,0,0,0-.126-.155.7.7,0,0,0-.636,0,.24.24,0,0,0-.128.156h0a.151.151,0,0,0,0,.056h0a.237.237,0,0,0,.126.155.7.7,0,0,0,.637,0,.238.238,0,0,0,.127-.156h0A.035.035,0,0,0,420.352,615.652Z" transform="translate(-418.21 -614.671)" fill="#6b7e99"/><path d="M412.964,619.375a.811.811,0,0,0-.734,0c-.146.084-.186.205-.123.31a4.517,4.517,0,0,0,.676.179.637.637,0,0,0,.179-.067A.224.224,0,0,0,412.964,619.375Z" transform="translate(-412.079 -617.926)" fill="#494238"/><path d="M420.561,615.755a.208.208,0,0,0-.111-.137.62.62,0,0,0-.561,0,.212.212,0,0,0-.113.138h0a.135.135,0,0,0,0,.049h0a.208.208,0,0,0,.111.137.62.62,0,0,0,.561,0,.211.211,0,0,0,.113-.138.131.131,0,0,0,0-.049Z" transform="translate(-418.471 -614.822)" fill="#b5bdc6"/><path d="M419.773,616.765a.13.13,0,0,0,0,.036.109.109,0,0,0,0,.013A.133.133,0,0,1,419.773,616.765Z" transform="translate(-418.469 -615.83)" fill="#b5bdc6"/><path d="M413.1,619.375a.811.811,0,0,0-.734,0,.328.328,0,0,0-.125.118.39.39,0,0,1,.059-.042.773.773,0,0,1,.7,0c.177.1.188.262.04.374a.527.527,0,0,0,.058-.027A.224.224,0,0,0,413.1,619.375Z" transform="translate(-412.21 -617.926)" fill="#cebba1"/><path d="M419.473,617.044a.231.231,0,0,0,.126.161.7.7,0,0,0,.637,0,.236.236,0,0,0,.128-.16Zm.725.138a.62.62,0,0,1-.561,0,.208.208,0,0,1-.111-.137h0l.784,0A.21.21,0,0,1,420.2,617.182Z" transform="translate(-418.222 -616.062)" fill="#7c8189" opacity="0.5" style="mix-blend-mode:multiply;isolation:isolate"/><path d="M426.908,611.327a.811.811,0,0,0-.734,0,.241.241,0,0,0-.148.243.273.273,0,0,1,.125-.132.726.726,0,0,1,.656,0c.154.089.174.225.065.328.011-.005.023-.01.034-.016A.224.224,0,0,0,426.908,611.327Z" transform="translate(-423.664 -611.24)" fill="#cebba1"/><path d="M420.224,617.132a.7.7,0,0,1-.637,0,.229.229,0,0,1-.129-.163.226.226,0,0,0,.129.172.7.7,0,0,0,.637,0,.231.231,0,0,0,.131-.172A.238.238,0,0,1,420.224,617.132Z" transform="translate(-418.209 -615.999)" fill="#b5bdc6"/><path d="M419.464,616.806l.891,0h0s0-.007,0-.01a.149.149,0,0,0,0-.038l-.891,0A.147.147,0,0,0,419.464,616.806Z" transform="translate(-418.212 -615.822)" fill="#5d6d89"/></g><path d="M409.784,612.164c-1.245.719-4.69.106-4.476-1.4a1.8,1.8,0,0,0-.825.612,1.4,1.4,0,0,0-.149.261,2.056,2.056,0,0,0,.754.7,4.967,4.967,0,0,0,4.494-.008,2.5,2.5,0,0,0,.451-.33A2.761,2.761,0,0,1,409.784,612.164Z" transform="translate(-404.154 -609.186)" fill="#c6ad89" opacity="0.4" style="mix-blend-mode:multiply;isolation:isolate"/><path d="M405.134,608.319a4.849,4.849,0,0,1,4.387-.049,1.826,1.826,0,0,1,.816.826c.007-.012.015-.023.022-.035a1.806,1.806,0,0,0-.829-.853,4.848,4.848,0,0,0-4.387.049,1.873,1.873,0,0,0-.809.841l.012.019A1.905,1.905,0,0,1,405.134,608.319Z" transform="translate(-404.154 -606.648)" fill="#fffaee"/><g transform="translate(0.017 0.722)"><path d="M403.535,607.445a1.408,1.408,0,0,1,.149-.261,1.212,1.212,0,0,1,.37-1.466C402.856,606.6,403.618,607.587,403.535,607.445Z" transform="translate(-403.372 -605.718)" fill="#c6ad89" opacity="0.4" style="mix-blend-mode:multiply;isolation:isolate"/><path d="M407.551,619.287l-.044-.03Z" transform="translate(-406.807 -616.966)" fill="#c6ad89" opacity="0.4" style="mix-blend-mode:multiply;isolation:isolate"/></g><path d="M404.293,602.2a4.966,4.966,0,0,1,4.494-.008,1.515,1.515,0,0,1,.916,1.379,1.468,1.468,0,0,0-.9-1.486,4.965,4.965,0,0,0-4.493.008,1.64,1.64,0,0,0-.93,1.215A1.716,1.716,0,0,1,404.293,602.2Z" transform="translate(-403.358 -601.537)" fill="#fffcf5"/></g><path d="M355.193,584.521l-5.454-3.149a.444.444,0,0,1,0-.841l17.053-9.846a1.613,1.613,0,0,1,1.457,0l5.454,3.149a.444.444,0,0,1,0,.841l-17.053,9.846A1.612,1.612,0,0,1,355.193,584.521Zm-5.388-3.954a.407.407,0,0,0,0,.77l5.454,3.148a1.475,1.475,0,0,0,1.334,0l17.053-9.846a.407.407,0,0,0,0-.77l-5.454-3.149a1.477,1.477,0,0,0-1.334,0Z" transform="translate(-345.461 -570.289)" fill="#c6ad89"/><g transform="translate(7.368 8.755)"><ellipse cx="3.178" cy="1.834" rx="3.178" ry="1.834" transform="translate(0 0.034) rotate(-0.311)" fill="#cebba1"/><path d="M372.349,621.19h-.131a4.669,4.669,0,0,0-1.354.326v0l-.025.011-.011,0h0a3.361,3.361,0,0,0-.36.176c-1.148.663-1.24,1.7-.277,2.42h.673v-1.081h1.486Z" transform="translate(-369.52 -621.147)" fill="#c6ad89" opacity="0.4" style="mix-blend-mode:multiply;isolation:isolate"/><path d="M394.01,622.043a2.5,2.5,0,0,0-.43-.311,4.241,4.241,0,0,0-1.637-.5v2.405h2.066Z" transform="translate(-388.139 -621.181)" fill="#e0cbb0"/><path d="M370.473,621.65c-.97.56-1.184,1.388-.648,2.064h1.467c-.232-.265-1.252-.24-1.293-.612-.129-1.168,1.553-1.816,2.356-1.879v-.1A4.427,4.427,0,0,0,370.473,621.65Z" transform="translate(-369.525 -621.092)" fill="#c6ad89" opacity="0.4" style="mix-blend-mode:multiply;isolation:isolate"/><path d="M370.525,628.582a2.016,2.016,0,0,0,.754.7,4.966,4.966,0,0,0,4.494-.008,2.035,2.035,0,0,0,.777-.733,1.809,1.809,0,0,0-.829-.853,4.849,4.849,0,0,0-4.387.049A1.873,1.873,0,0,0,370.525,628.582Z" transform="translate(-370.345 -626.133)" fill="#f2ddc2"/><g transform="translate(1.49 1.657)"><path d="M386.547,635.48l-.022-.007a.268.268,0,0,0-.108-.107.7.7,0,0,0-.634,0,.275.275,0,0,0-.109.105l-.024.012s0,.089,0,.094a.239.239,0,0,0,.129.155.7.7,0,0,0,.634,0,.245.245,0,0,0,.131-.156Z" transform="translate(-384.402 -634.519)" fill="#5d6d89"/><path d="M393.089,630.812a.811.811,0,0,0-.734,0,.224.224,0,0,0,0,.424.811.811,0,0,0,.734,0A.224.224,0,0,0,393.089,630.812Z" transform="translate(-389.844 -630.725)" fill="#494238"/><path d="M386.544,635.137s0-.007,0-.01a.144.144,0,0,0,0-.041h0a.236.236,0,0,0-.126-.156.7.7,0,0,0-.637,0,.241.241,0,0,0-.128.156h0a.15.15,0,0,0,0,.056h0a.236.236,0,0,0,.126.156.7.7,0,0,0,.637,0,.239.239,0,0,0,.127-.156h0S386.543,635.138,386.544,635.137Z" transform="translate(-384.401 -634.155)" fill="#6b7e99"/><path d="M379.156,638.86a.811.811,0,0,0-.734,0c-.146.084-.185.205-.123.31a4.485,4.485,0,0,0,.676.179.644.644,0,0,0,.179-.067A.224.224,0,0,0,379.156,638.86Z" transform="translate(-378.271 -637.411)" fill="#494238"/><path d="M386.752,635.24a.208.208,0,0,0-.111-.137.62.62,0,0,0-.561,0,.211.211,0,0,0-.113.138h0a.133.133,0,0,0,0,.049h0a.208.208,0,0,0,.111.137.621.621,0,0,0,.561,0,.211.211,0,0,0,.113-.138.132.132,0,0,0,0-.049Z" transform="translate(-384.662 -634.307)" fill="#b5bdc6"/><path d="M385.965,636.25a.13.13,0,0,0,0,.036s0,.009,0,.013A.133.133,0,0,1,385.965,636.25Z" transform="translate(-384.661 -635.315)" fill="#b5bdc6"/><path d="M379.287,638.86a.811.811,0,0,0-.734,0,.33.33,0,0,0-.125.118.4.4,0,0,1,.059-.042.773.773,0,0,1,.7,0c.177.1.189.262.04.375a.606.606,0,0,0,.058-.027A.224.224,0,0,0,379.287,638.86Z" transform="translate(-378.401 -637.411)" fill="#cebba1"/><path d="M385.664,636.529a.231.231,0,0,0,.126.161.7.7,0,0,0,.636,0,.237.237,0,0,0,.128-.16Zm.725.138a.62.62,0,0,1-.561,0,.207.207,0,0,1-.111-.137h0l.784,0A.21.21,0,0,1,386.389,636.667Z" transform="translate(-384.413 -635.547)" fill="#7c8189" opacity="0.5" style="mix-blend-mode:multiply;isolation:isolate"/><path d="M393.1,630.812a.811.811,0,0,0-.734,0,.241.241,0,0,0-.148.243.274.274,0,0,1,.125-.131.725.725,0,0,1,.656,0c.154.089.174.225.065.328.011-.005.023-.01.034-.016A.224.224,0,0,0,393.1,630.812Z" transform="translate(-389.855 -630.725)" fill="#cebba1"/><path d="M386.414,636.617a.7.7,0,0,1-.637,0,.229.229,0,0,1-.129-.163.227.227,0,0,0,.129.172.7.7,0,0,0,.637,0,.23.23,0,0,0,.131-.172A.238.238,0,0,1,386.414,636.617Z" transform="translate(-384.4 -635.484)" fill="#b5bdc6"/><path d="M385.656,636.291l.891,0h0a.085.085,0,0,0,0-.01.133.133,0,0,0,0-.038l-.891,0A.155.155,0,0,0,385.656,636.291Z" transform="translate(-384.404 -635.307)" fill="#5d6d89"/></g><path d="M375.975,631.649c-1.245.719-4.69.107-4.476-1.4a1.8,1.8,0,0,0-.825.612,1.39,1.39,0,0,0-.149.261,2.057,2.057,0,0,0,.754.7,4.966,4.966,0,0,0,4.494-.008,2.517,2.517,0,0,0,.451-.33A2.717,2.717,0,0,1,375.975,631.649Z" transform="translate(-370.345 -628.671)" fill="#c6ad89" opacity="0.4" style="mix-blend-mode:multiply;isolation:isolate"/><path d="M371.326,627.8a4.848,4.848,0,0,1,4.387-.049,1.827,1.827,0,0,1,.816.826c.007-.012.015-.023.022-.035a1.809,1.809,0,0,0-.829-.853,4.849,4.849,0,0,0-4.387.049,1.873,1.873,0,0,0-.809.841l.012.019A1.907,1.907,0,0,1,371.326,627.8Z" transform="translate(-370.345 -626.133)" fill="#fffaee"/><g transform="translate(0.017 0.722)"><path d="M369.726,626.929a1.4,1.4,0,0,1,.149-.261,1.212,1.212,0,0,1,.37-1.466C369.048,626.08,369.81,627.071,369.726,626.929Z" transform="translate(-369.564 -625.202)" fill="#c6ad89" opacity="0.4" style="mix-blend-mode:multiply;isolation:isolate"/><path d="M373.742,638.772l-.044-.03Z" transform="translate(-372.998 -636.45)" fill="#c6ad89" opacity="0.4" style="mix-blend-mode:multiply;isolation:isolate"/></g><path d="M370.485,621.687a4.967,4.967,0,0,1,4.494-.008,1.515,1.515,0,0,1,.916,1.379,1.467,1.467,0,0,0-.9-1.486,4.967,4.967,0,0,0-4.494.008,1.64,1.64,0,0,0-.93,1.215A1.717,1.717,0,0,1,370.485,621.687Z" transform="translate(-369.549 -621.021)" fill="#fffcf5"/></g><ellipse cx="0.612" cy="1.061" rx="0.612" ry="1.061" transform="matrix(0.863, -0.505, 0.505, 0.863, 5.58, 13.919)" fill="#c6ad89"/><path d="M361.815,658.13l1.233.712V657.3h-1.233Z" transform="translate(-355.741 -642.386)" fill="#c6ad89" opacity="0.4" style="mix-blend-mode:multiply;isolation:isolate"/><path d="M354.19,651.236a1.461,1.461,0,0,0-.663-1.144.437.437,0,0,0-.517-.014h0l-1.858,1.428.655,1.122,2.121-.939a.314.314,0,0,0,.077-.034h0A.466.466,0,0,0,354.19,651.236Z" transform="translate(-346.883 -636.327)" fill="#f7eed7"/><path d="M353.989,656.642l2.121-.939a.315.315,0,0,0,.077-.034h0a.466.466,0,0,0,.185-.419,1.2,1.2,0,0,0-.086-.417l-2.508,1.448Z" transform="translate(-349.065 -640.341)" fill="#e0cbb0"/><path d="M351.306,659.554c0,.292-.206.41-.461.263a1.015,1.015,0,0,1-.461-.795c0-.292.206-.41.461-.263A1.016,1.016,0,0,1,351.306,659.554Z" transform="translate(-346.245 -643.55)" fill="#f2ddc2"/><path d="M352.1,660.71c0,.164-.116.23-.259.148a.571.571,0,0,1-.259-.447c0-.164.116-.23.259-.148A.571.571,0,0,1,352.1,660.71Z" transform="translate(-347.236 -644.823)" fill="#c6ad89"/><path d="M331.616,655.012a6.3,6.3,0,0,1-3.19-.885c-1.642-.943-2.481-2.073-2.495-3.359-.031-2.885,4.145-5.436,4.323-5.544a.285.285,0,0,1,.294.489c-.041.024-4.075,2.49-4.047,5.05.012,1.07.755,2.035,2.208,2.87,4.4,2.529,8.81-1.45,13.071-5.3,2.3-2.076,4.677-4.223,7-5.269a12.359,12.359,0,0,1,9.016-.433.285.285,0,0,1-.209.531,12.006,12.006,0,0,0-8.573.423c-2.246,1.009-4.485,3.031-6.856,5.172C338.746,651.844,335.237,655.012,331.616,655.012Z" transform="translate(-325.931 -629.668)" fill="#f2ddc2"/><g transform="translate(0 12.687)" opacity="0.5" style="mix-blend-mode:multiply;isolation:isolate"><path d="M333.349,662.071c-.041.024-4.075,2.49-4.047,5.05,0,.029,0,.059,0,.088.1-2.514,4-4.9,4.043-4.924a.285.285,0,0,0,.116-.351A.283.283,0,0,1,333.349,662.071Z" transform="translate(-328.731 -658.927)" fill="#c6ad89"/><path d="M357.593,644.762a12.007,12.007,0,0,0-8.573.423c-2.246,1.009-4.485,3.031-6.856,5.172-3.418,3.086-6.926,6.253-10.547,6.254a6.3,6.3,0,0,1-3.191-.885c-1.6-.922-2.441-2.023-2.49-3.274,0,.043,0,.085,0,.128.014,1.286.853,2.416,2.495,3.359a6.3,6.3,0,0,0,3.191.885c3.621,0,7.13-3.168,10.547-6.254,2.371-2.141,4.611-4.163,6.856-5.172a12.007,12.007,0,0,1,8.573-.423.285.285,0,0,0,.368-.372A.285.285,0,0,1,357.593,644.762Z" transform="translate(-325.932 -644.166)" fill="#c6ad89"/></g><g transform="translate(5.083 14.256)"><path d="M356.246,654.963a.609.609,0,0,0-.214-.078l-.069.053a.5.5,0,0,1,.254.074,1.278,1.278,0,0,1,.579,1,.464.464,0,0,1-.072.266l.087-.039a.592.592,0,0,0,.042-.228A1.341,1.341,0,0,0,356.246,654.963Z" transform="translate(-355.963 -654.64)" fill="#c6ad89"/><path d="M358.143,653.519a.69.69,0,0,0-.2-.079l-.062.048a.584.584,0,0,1,.234.08,1.4,1.4,0,0,1,.636,1.1.576.576,0,0,1-.047.241l.074-.032a.683.683,0,0,0,.031-.209A1.466,1.466,0,0,0,358.143,653.519Z" transform="translate(-357.556 -653.44)" fill="#c6ad89"/></g></g><g transform="translate(65.594 24.75)"><ellipse cx="4.232" cy="7.331" rx="4.232" ry="7.331" transform="translate(7.97 48.077) rotate(-89.689)" fill="#9b3465" opacity="0.3" style="mix-blend-mode:multiply;isolation:isolate"/><ellipse cx="2.179" cy="3.775" rx="2.179" ry="3.775" transform="translate(11.537 46.043) rotate(-89.689)" fill="#656d7c"/><ellipse cx="4.769" cy="8.261" rx="4.769" ry="8.261" transform="translate(7.037 31.515) rotate(-89.689)" fill="#6aaed3" opacity="0.3" style="mix-blend-mode:multiply;isolation:isolate"/><path d="M485.413,414.328H473.679l.358,6.794c0,.025,0,.049,0,.074v.01h0a2.8,2.8,0,0,0,1.62,2.184,8.614,8.614,0,0,0,7.793.014,2.693,2.693,0,0,0,1.6-2.277Z" transform="translate(-464.223 -378.796)" fill="#888f9e"/><path d="M481.732,429.289c-.094-.058-.767,6.169,2.056,6.657s2.649-5.576,2.649-5.576A9.383,9.383,0,0,1,481.732,429.289Z" transform="translate(-470.8 -391.225)" fill="#b8becc"/><ellipse cx="3.324" cy="5.757" rx="3.324" ry="5.757" transform="translate(9.549 38.394) rotate(-89.689)" fill="#a58991"/><path d="M484.1,426.913a9.031,9.031,0,0,1-8.172-.015,3.035,3.035,0,0,1-1.685-2.132,2.751,2.751,0,0,0,1.685,2.625,9.031,9.031,0,0,0,8.172.015,2.718,2.718,0,0,0,1.659-2.586A3,3,0,0,1,484.1,426.913Z" transform="translate(-464.68 -387.468)" fill="#656d7c"/><path d="M484.531,438.389a8.873,8.873,0,0,1-8.028-.014,2.982,2.982,0,0,1-1.655-2.094,2.7,2.7,0,0,0,1.655,2.578,8.873,8.873,0,0,0,8.028.015,2.671,2.671,0,0,0,1.63-2.541A2.947,2.947,0,0,1,484.531,438.389Z" transform="translate(-465.181 -397.033)" fill="#656d7c"/><ellipse cx="3.13" cy="5.421" rx="3.13" ry="5.421" transform="matrix(0.005, -1, 1, 0.005, 9.886, 38.202)" fill="#866a72"/><path d="M481.794,412.393a4.429,4.429,0,0,0,.673.474,8.472,8.472,0,0,0,7.666.014,4.373,4.373,0,0,0,.648-.455,2.864,2.864,0,0,0-1.206-1.2,7.289,7.289,0,0,0-6.6-.012A2.823,2.823,0,0,0,481.794,412.393Z" transform="translate(-470.965 -375.559)" fill="#6d5159"/><path d="M484.9,449.843a8.735,8.735,0,0,1-7.9-.014,2.935,2.935,0,0,1-1.63-2.062,2.661,2.661,0,0,0,1.63,2.539,8.735,8.735,0,0,0,7.9.014,2.629,2.629,0,0,0,1.6-2.5A2.9,2.9,0,0,1,484.9,449.843Z" transform="translate(-465.612 -406.576)" fill="#656d7c"/><path d="M463.795,205.558c-6.663-2.4-12.225-.908-16.169,2.744l-.074.07c17.957-8.738,25.392,5.76,22.611,20.716C476.241,220.537,472.379,209.116,463.795,205.558Z" transform="translate(-442.517 -204.39)" fill="#8cc2f2" opacity="0.4"/><g transform="translate(10.334 17.532)"><path d="M481.583,320.367a62.821,62.821,0,0,0-2.713-12.311l.25-.08a63.1,63.1,0,0,1,2.724,12.363Z" transform="translate(-478.87 -307.975)" fill="#6d5159"/><path d="M520.085,320.367l-.261-.028a63.084,63.084,0,0,1,2.724-12.363l.25.08A62.824,62.824,0,0,0,520.085,320.367Z" transform="translate(-512.893 -307.975)" fill="#6d5159"/><path d="M487.45,318.931c-.1,0-.317-.054-.317-.554a3.324,3.324,0,0,1,.827-1.844.648.648,0,0,0-.551-.419.928.928,0,0,0-.7.4,1.1,1.1,0,0,1,.107.476c0,.205-.056.553-.268.553-.141,0-.228-.136-.228-.354a1.4,1.4,0,0,1,.287-.682,1.007,1.007,0,0,0-.745-.544.8.8,0,0,0-.361.109,1.066,1.066,0,0,1,.152.548c0,.192-.12.662-.342.662s-.361-.315-.361-.542a.853.853,0,0,1,.43-.694,1.258,1.258,0,0,0-1.069-.465,2.778,2.778,0,0,0-1.382.426l-.044-.074a2.862,2.862,0,0,1,1.425-.438,1.336,1.336,0,0,1,1.144.506.906.906,0,0,1,.408-.124,1.079,1.079,0,0,1,.8.555.989.989,0,0,1,.742-.407.712.712,0,0,1,.608.437c.292-.345.576-.575.709-.575a.4.4,0,0,1,.353.3,2.8,2.8,0,0,1,1.88-.656,1.29,1.29,0,0,1,.634.1l-.059.063a1.3,1.3,0,0,0-.575-.077,2.647,2.647,0,0,0-1.85.657,1.212,1.212,0,0,1,.048.331c0,.146,0,.535-.284.535a.251.251,0,0,1-.218-.276,1.021,1.021,0,0,1,.355-.613c-.055-.154-.149-.279-.284-.279-.1,0-.378.234-.663.581a2.67,2.67,0,0,1,.221,1.027C488.283,318.277,487.814,318.931,487.45,318.931Zm.554-2.3a3.228,3.228,0,0,0-.785,1.75.742.742,0,0,0,.072.369.179.179,0,0,0,.159.1c.288,0,.747-.578.747-1.262A2.639,2.639,0,0,0,488,316.628Zm-1.354-.029a1.274,1.274,0,0,0-.244.594c0,.045.007.268.142.268s.182-.286.182-.467A1.007,1.007,0,0,0,486.65,316.6Zm-1.223-.479a.779.779,0,0,0-.391.622c0,.164.092.456.275.456.135,0,.256-.391.256-.576A.974.974,0,0,0,485.427,316.12Zm3.61.227a.938.938,0,0,0-.3.52c0,.124.077.19.132.19.137,0,.2-.139.2-.45A1.107,1.107,0,0,0,489.037,316.347Z" transform="translate(-482.206 -314.224)" fill="#6d5159"/></g><g transform="translate(12.71 19.97)"><path d="M497.982,380.941h-5a.079.079,0,0,1-.072-.11,7.507,7.507,0,0,0,.413-2.777,11.721,11.721,0,0,1,.179-2.314,17.789,17.789,0,0,1-.25-2.444h0a.079.079,0,0,1,0-.022h0a1.285,1.285,0,0,1,.657-1.046,3.084,3.084,0,0,1,3.115.006,1.292,1.292,0,0,1,.666,1.071.06.06,0,0,1,0,.014,1.046,1.046,0,0,1-.013.139c-.038.428-.141,1.513-.252,2.268a22.257,22.257,0,0,1,.225,2.326c.039.752.4,2.779.407,2.8a.078.078,0,0,1-.077.092Zm-4.883-.157h4.79c-.073-.412-.358-2.048-.393-2.727a21.9,21.9,0,0,0-.225-2.318.078.078,0,0,1,0-.026c.112-.751.215-1.843.254-2.277a.922.922,0,0,0,.011-.119h0v0a1.138,1.138,0,0,0-.595-.948,2.915,2.915,0,0,0-2.943-.006,1.135,1.135,0,0,0-.586.916.086.086,0,0,1,0,.02h0a17.6,17.6,0,0,0,.25,2.435.078.078,0,0,1,0,.028,11.632,11.632,0,0,0-.179,2.3A8.063,8.063,0,0,1,493.1,380.784Z" transform="translate(-492.905 -363.442)" fill="#6d5159"/><path d="M498.552,395.977a2.54,2.54,0,0,1-1.371-.372,1.168,1.168,0,0,1-.583-.88.078.078,0,0,1,.073-.083.084.084,0,0,1,.083.073,1.016,1.016,0,0,0,.512.759,2.532,2.532,0,0,0,2.556.005.994.994,0,0,0,.5-.763.075.075,0,0,1,.082-.075.078.078,0,0,1,.075.082,1.144,1.144,0,0,1-.576.887A2.51,2.51,0,0,1,498.552,395.977Z" transform="translate(-495.973 -382.41)" fill="#6d5159"/><path d="M516.588,379.432a.078.078,0,0,1-.043-.144,1.208,1.208,0,0,0,.557-.727.078.078,0,1,1,.153.034,1.36,1.36,0,0,1-.625.825A.078.078,0,0,1,516.588,379.432Z" transform="translate(-512.514 -369.001)" fill="#6d5159"/><path d="M498.964,379.214a.079.079,0,0,0-.109-.023,2.889,2.889,0,0,1-2.916-.006,1.227,1.227,0,0,1-.568-.741.079.079,0,1,0-.154.034,1.377,1.377,0,0,0,.635.839,2.875,2.875,0,0,0,1.553.422,2.845,2.845,0,0,0,1.535-.415A.078.078,0,0,0,498.964,379.214Z" transform="translate(-494.825 -368.905)" fill="#6d5159"/><path d="M495.3,377.845a.08.08,0,0,1-.023,0,.079.079,0,0,1-.052-.1,1.117,1.117,0,0,1,.06-.152.078.078,0,0,1,.142.068.985.985,0,0,0-.052.131A.079.079,0,0,1,495.3,377.845Z" transform="translate(-494.826 -368.21)" fill="#6d5159"/><path d="M501.442,378.066a22.274,22.274,0,0,0-.225-2.326c.111-.755.214-1.84.252-2.268a1.035,1.035,0,0,0,.012-.139.056.056,0,0,0,0-.014,1.292,1.292,0,0,0-.666-1.071,3.046,3.046,0,0,0-2.052-.386,2.694,2.694,0,0,1,1.077.386,1.292,1.292,0,0,1,.666,1.071.078.078,0,0,1,0,.014,1.087,1.087,0,0,1-.013.139c-.038.428-.141,1.513-.252,2.268-.113.481-1.036,1.073-2.773.478a2.621,2.621,0,0,0,2.9.508c.052.52.08.986.1,1.34.039.752.4,2.779.407,2.8a.079.079,0,0,1-.077.092h.976a.079.079,0,0,0,.077-.092C501.845,380.845,501.481,378.818,501.442,378.066Z" transform="translate(-496.695 -363.458)" fill="#6d5159"/><path d="M504.282,353.461a1.161,1.161,0,0,1-.568-.136.433.433,0,0,1-.253-.361.429.429,0,0,1,.249-.358,1.251,1.251,0,0,1,1.129,0,.433.433,0,0,1,.252.362.428.428,0,0,1-.249.358A1.148,1.148,0,0,1,504.282,353.461Zm-.01-.874a1.026,1.026,0,0,0-.5.12.319.319,0,0,0-.191.257.324.324,0,0,0,.194.26,1.12,1.12,0,0,0,1.012,0h0a.319.319,0,0,0,.191-.256.324.324,0,0,0-.194-.26A1.041,1.041,0,0,0,504.273,352.587Z" transform="translate(-501.675 -347.379)" fill="#6d5159"/><path d="M504.3,359.037a1.158,1.158,0,0,1-.568-.136.42.42,0,0,1-.248-.385v-3.289h1.61v3.217a.4.4,0,0,1-.232.459A1.149,1.149,0,0,1,504.3,359.037Zm-.7-.6h.01l-.008.068c-.017.106.051.212.188.291a1.119,1.119,0,0,0,1.012,0c.156-.09.22-.209.177-.328l0-.02v-3.11H503.6Z" transform="translate(-501.691 -349.668)" fill="#6d5159"/><ellipse cx="0.614" cy="1.064" rx="0.614" ry="1.064" transform="translate(1.535 5.799) rotate(-89.689)" fill="#6d5159"/><path d="M498.344,329.324a.028.028,0,0,1-.027-.023,32.889,32.889,0,0,0-1.114-4.717.028.028,0,0,1,.018-.035.027.027,0,0,1,.035.018,32.9,32.9,0,0,1,1.116,4.725.028.028,0,0,1-.023.033Z" transform="translate(-496.474 -324.18)" fill="#6d5159"/><path d="M513.554,327.417h0a.028.028,0,0,1-.023-.032c.338-2.035.632-3.571.955-4.981a.029.029,0,0,1,.033-.021.028.028,0,0,1,.021.033c-.322,1.409-.616,2.944-.954,4.978A.028.028,0,0,1,513.554,327.417Z" transform="translate(-510.036 -322.382)" fill="#6d5159"/></g><path d="M448.845,219.946a16.494,16.494,0,0,1-7.538,13.429l.133-.154a34.989,34.989,0,0,0-1.425,4.118c-.111.4-.349,2.295-.7,2.338l.139-.138c.086,2.707-3.843,3.578-5.882,3.572s-5.924-.883-5.9-3.569l.139.135c-.368-.057-.581-1.959-.685-2.345a24.445,24.445,0,0,0-1.459-4.085l.14.156c-8.945-5.617-10.149-18.563-2.087-25.441a15.281,15.281,0,0,1,20.325.631A16.223,16.223,0,0,1,448.845,219.946Z" transform="translate(-418.234 -204.396)" fill="#8cdef4" opacity="0.4"/><path d="M468.7,234.725a16.888,16.888,0,0,1,.861,5.328,17.135,17.135,0,0,1-22.249,16.226,15.272,15.272,0,0,0,2.744,2.025c.245.552.463,1.133.656,1.71.126,0,.252,0,.379,0,5.595,0,10.13,1.893,10.13,4.229,0,1.563-2.032,2.926-5.051,3.658a8.873,8.873,0,0,0,5.556-.848,2.849,2.849,0,0,0,1.671-2.317h.022a35.821,35.821,0,0,1,1.818-6.432,15.187,15.187,0,0,0,3.463-23.575Z" transform="translate(-442.319 -229.591)" fill="#6b9cd1" opacity="0.4" style="mix-blend-mode:multiply;isolation:isolate"/><path d="M448.236,220A15.017,15.017,0,0,0,431.7,205.29a15.017,15.017,0,0,0-13.5,16.558,14.6,14.6,0,0,0,6.238,10.254c.665.441,1.3.71,1.655,1.462a21.072,21.072,0,0,1,1.4,6l-.138-.118c.169.023.118-.031.164.136a2.9,2.9,0,0,0,.98,1.634,7.159,7.159,0,0,0,4.208,1.353,7.73,7.73,0,0,0,4.971-1.253,2.864,2.864,0,0,0,1.069-1.729c.04-.155-.01-.124.162-.141l-.137.116a35.94,35.94,0,0,1,.95-4.312,6.747,6.747,0,0,1,.755-2.241,6.163,6.163,0,0,1,1.462-.968,13.173,13.173,0,0,0,1.675-1.334A15.075,15.075,0,0,0,448.236,220Zm.186,0a16.208,16.208,0,0,1-5.128,11.588c-.818.753-2.1,1.251-2.552,2.282a26.43,26.43,0,0,0-1.205,3.724c-.111.406-.272,2.072-.648,2.137l.139-.138c.086,2.707-3.843,3.578-5.882,3.572s-5.924-.883-5.9-3.569l.139.135c-.375-.047-1.023-3.534-1.226-4.133a5.243,5.243,0,0,0-1.828-2.919,15.646,15.646,0,0,1-3.4-22.133,15.279,15.279,0,0,1,21.755-2.726A16.185,16.185,0,0,1,448.422,220Z" transform="translate(-417.81 -204.448)" fill="#788da3"/><path d="M554.2,323.807s1.423-2.157,2.765-3.927c1.722-2.271,3.392-4.709,3.6-4.67.186.035-.738,3.076-2.347,5.367S554.316,324.411,554.2,323.807Z" transform="translate(-531.116 -296.454)" fill="#fff" opacity="0.5"/><path d="M431.685,323.807s-1.423-2.157-2.765-3.927c-1.722-2.271-3.392-4.709-3.6-4.67-.186.035.738,3.076,2.347,5.367S431.569,324.411,431.685,323.807Z" transform="translate(-424.029 -296.454)" fill="#fff" opacity="0.6"/><path d="M478.559,434.234a8.37,8.37,0,0,0,6.273,1.557S480.894,436.732,478.559,434.234Z" transform="translate(-468.277 -395.333)" fill="#979fad"/><path d="M478.559,445.422a8.369,8.369,0,0,0,6.273,1.557S480.894,447.92,478.559,445.422Z" transform="translate(-468.277 -404.628)" fill="#979fad"/><path d="M478.559,456.61a8.369,8.369,0,0,0,6.273,1.557S480.894,459.108,478.559,456.61Z" transform="translate(-468.277 -413.922)" fill="#979fad"/><g transform="translate(13.955 35.543)"><path d="M507.338,414.946a2.941,2.941,0,0,1-.531.8,4.273,4.273,0,0,1-.727.617c-.067.047-.128.083-.192.125s-.137.078-.206.118c-.138.073-.272.158-.417.217s-.283.134-.43.187l-.405.14-.236,4.5a2.329,2.329,0,0,1-1.584,2.093,6.334,6.334,0,0,1-2.345.531,8.48,8.48,0,0,0,5.277-.817,2.694,2.694,0,0,0,1.6-2.277l.358-6.789A2.136,2.136,0,0,1,507.338,414.946Z" transform="translate(-500.265 -414.396)" fill="#888f9e" opacity="0.5" style="mix-blend-mode:multiply;isolation:isolate"/></g><path d="M487.619,416.128a2.943,2.943,0,0,1-.531.8,4.279,4.279,0,0,1-.727.617c-.067.047-.128.083-.192.125s-.137.078-.207.118c-.138.073-.272.158-.417.217s-.283.134-.429.187l-.442.153c-.3.085-.6.166-.9.222-.151.036-.305.053-.458.077s-.307.045-.461.056c-.308.034-.617.043-.927.049-.309-.01-.618-.019-.926-.054-.154-.011-.308-.033-.46-.058s-.307-.043-.458-.079c-.3-.057-.6-.14-.9-.225l-.44-.156c-.146-.054-.291-.128-.436-.191s-.271-.141-.406-.212c-.07-.04-.122-.064-.207-.118-.066-.043-.133-.083-.2-.128a4.3,4.3,0,0,1-.725-.612,3.62,3.62,0,0,1-.238-.292c.507.926,1.773,2.1,4.944,2.263a8.15,8.15,0,0,0,6.236-1.962l.058-1.107h-.04A2.109,2.109,0,0,1,487.619,416.128Z" transform="translate(-466.591 -380.035)" fill="#888f9e" opacity="0.5" style="mix-blend-mode:multiply;isolation:isolate"/><path d="M483.639,425.448a6.71,6.71,0,0,0,4.972,1.045A17.216,17.216,0,0,1,483.639,425.448Z" transform="translate(-472.498 -388.034)" fill="#8cadba"/><path d="M431.2,225.409a10.7,10.7,0,0,1,11.091-10.7c4.168,0,5.671,2.6,5.671,6.881,0,8-6.719,12.108-10.632,12.108C433.732,233.694,431.2,229.158,431.2,225.409Z" transform="translate(-428.932 -212.96)" fill="#fff" opacity="0.6"/><path d="M448.493,224.715a2.882,2.882,0,0,1,2.809,3.092c0,1.71-1.428,4.8-5.484,5.069C442.438,232.876,443.551,224.715,448.493,224.715Z" transform="translate(-439.463 -221.275)" fill="#fff"/></g><g transform="translate(27.389 38.962)"><ellipse cx="1.735" cy="3.005" rx="1.735" ry="3.005" transform="translate(4.144 38.563) rotate(-89.689)" fill="#9b3465" opacity="0.3" style="mix-blend-mode:multiply;isolation:isolate"/><g transform="translate(0 0)"><path d="M192.076,291.385l5.253-3.021,3.226,1.874-2.448,12.34,5.874-4.862,2.125,1.209-6.9,21.915-.027-.017.159-15.844-2.944,6.075-1.885-1.075Z" transform="translate(-192.076 -288.364)" fill="#f9a216"/></g><path d="M192.232,291.37l4.091,2.391,4.184-2.63.177-.893-3.226-1.874Z" transform="translate(-192.206 -288.364)" fill="#ffb92c"/><g transform="translate(5.967 12.284)"><path d="M229.948,364.377,232.7,362.7l-3.043-1.757-2.323,1.923Z" transform="translate(-227.334 -360.944)" fill="#f78c19"/></g><g transform="translate(7.192 17.564)"><path d="M236.679,399.159l.642-5.464-2.695-1.556-.058,5.8Z" transform="translate(-234.568 -392.139)" fill="#f78c19"/></g><path d="M204.323,379.169l-2.932-1.693.854,6.531.265.153,1.62.924.512-1.057Z" transform="translate(-199.814 -362.394)" fill="#f78c19"/><path d="M196.425,339.482l3.09,1.784-.313-3.6-3.26-1.882Z" transform="translate(-195.287 -327.762)" fill="#f78c19"/><path d="M254.16,343.621l-1.681,1.392,3.172,1.831.634-2.014Z" transform="translate(-242.256 -334.269)" fill="#f78c19"/><g transform="translate(3.226 1.874)"><path d="M211.137,302.46l5.253-3.021-.664,13.422,6.215-4.735-6.863,21.892-.04.023,1.82-13.354-4.632,3.568Z" transform="translate(-211.137 -299.438)" fill="#ffd13e"/></g><path d="M192.442,309.015l3.35,1.934-.135-2.589-3.57-2.061Z" transform="translate(-192.086 -303.264)" fill="#f78c19"/><path d="M197.458,288.364l-5.226,3.006,3.2,1.889,5.253-3.021s-4.488,2.352-5.191,2.325-2.379-1.081-2.244-1.325S197.458,288.364,197.458,288.364Z" transform="translate(-192.206 -288.364)" fill="#ffe878"/><g transform="translate(3.226 4.707)"><path d="M211.465,316.174l-.328.189,1.09,17.795Z" transform="translate(-211.137 -316.174)" fill="#fff0b0"/><path d="M236.331,399.856l-.355.276-1.79,13.331.04-.023Z" transform="translate(-230.285 -385.693)" fill="#fff0b0"/></g><g transform="translate(7.814 10.561)"><path d="M238.265,355.486l-.017.337,6.215-5.059Z" transform="translate(-238.248 -350.764)" fill="#fff0b0"/></g><g transform="translate(3.38 1.874)" opacity="0.3" style="mix-blend-mode:screen;isolation:isolate"><path d="M212.338,309.749l4.7-8.1.109-2.208-2.837,1.632-2.262,3.9Z" transform="translate(-212.046 -299.438)" fill="#fff"/><path d="M234.186,439.061l.04-.023,2.623-8.368-1.986,3.426Z" transform="translate(-230.439 -408.46)" fill="#fff"/><path d="M215.543,353.315l4.632-3.568-.108.79,4.917-8.482.272-.869-6.215,4.735.331-6.686-4.244,7.32Z" transform="translate(-214.607 -332.499)" fill="#fff"/></g><g transform="translate(0 0)" opacity="0.2" style="mix-blend-mode:overlay;isolation:isolate"><path d="M192.076,291.385l5.253-3.021,3.226,1.874-.532,10.754,3.958-3.276,2.125,1.209-6.9,21.915-.027-.017.121-12.007-2.905,2.238-1.885-1.075Z" transform="translate(-192.076 -288.364)" fill="url(#a)"/></g></g><g transform="translate(44.838 52.312)"><path d="M329,513.084h0l-32.834,3.458-.848.513v1.854l1.195.679.745.43,1.408.813.647.373h0l4.844,2.8.068.039,4.03,2.326.878.507.685-.4.685.4,9.821-5.669h0l1.22-.7h0l.834-.482h0l.514-.3,3.261-1.882.95-.549h0l2.969-1.714v-1.853h0Z" transform="translate(-295.291 -488.4)" fill="#9b3465" opacity="0.5" style="mix-blend-mode:multiply;isolation:isolate"/><path d="M312,399.054l19.939-11.505-14.029-8.1-19.939,11.505Z" transform="translate(-297.494 -377.383)" fill="#46484f"/><g transform="translate(14.495 10.169)"><path d="M400.015,445.073,380.829,456.15v-15.8l19.51-11.3v12.158l-.325.7Z" transform="translate(-380.828 -428.761)" fill="#b0b7c9"/><path d="M400.015,504.647l.034-.072-19.219,11.1v3.215l19.185-11.077Z" transform="translate(-380.828 -491.499)" fill="#9da4b4"/><path d="M400.015,501.74l-19.185,11.077v-.474l19.51-11.267Z" transform="translate(-380.828 -488.593)" fill="#7b7f8c"/><path d="M400.014,510.183v.455l-3.557,2.052a1.615,1.615,0,0,1-.7,1.026,1.256,1.256,0,0,1-.2.081.109.109,0,0,1,0-.011l-.492-.29-2.123,1.226a1.614,1.614,0,0,1-.7,1.026.75.75,0,0,1-.2.081s-.493-.29-.5-.3l-.656.378a1.614,1.614,0,0,1-.7,1.026.749.749,0,0,1-.2.081s-.493-.29-.5-.3l-1.611.93a1.614,1.614,0,0,1-.7,1.026.742.742,0,0,1-.2.081s0-.007,0-.012-.489-.279-.492-.29l-.516.3a1.614,1.614,0,0,1-.7,1.026.745.745,0,0,1-.2.081s-.493-.29-.5-.3l-3.752,2.166v1.853l.689.406,19.57-11.3v-1.853Z" transform="translate(-380.827 -496.159)" fill="#b0b7c9"/><g transform="translate(4.257 16.532)"><path d="M408.272,562.063l-.093-.535-1.319-.761a1.614,1.614,0,0,1-.7,1.023.738.738,0,0,1-.194.078l.186.107.208,1.2.949-.015,1.215-.7.2-.4Z" transform="translate(-405.971 -554.712)" fill="#898f9d"/><path d="M418.2,554.217l0,0a1.614,1.614,0,0,1-.7,1.026.733.733,0,0,1-.184.075l.174.1.115.665.093.535.457-.007.512-.008,1.186-.684.291-.584Z" transform="translate(-415.396 -549.271)" fill="#898f9d"/><path d="M437.448,545.233l-.062-.361-1.5-.864a1.614,1.614,0,0,1-.7,1.022.747.747,0,0,1-.2.079l.189.109.208,1.2.945-.015,1.22-.7.235-.472Z" transform="translate(-430.085 -540.791)" fill="#898f9d"/><path d="M448.028,536.993a1.615,1.615,0,0,1-.7,1.026.74.74,0,0,1-.191.077l.187.108.145.84.062.361.347-.006.6-.01,1.219-.7.282-.565Z" transform="translate(-440.172 -534.963)" fill="#898f9d"/><path d="M468.807,525a1.615,1.615,0,0,1-.7,1.026,1.171,1.171,0,0,1-.191.077l.182.1.208,1.2.958-.015,1.2-.694.287-.575Z" transform="translate(-457.434 -524.997)" fill="#898f9d"/></g><g transform="translate(0.002 25.558)"><path d="M380.829,578.332v1.848l.689.406.878-.507v-.843Z" transform="translate(-380.829 -578.332)" fill="#898f9d"/></g><path d="M400.528,516.233a1.614,1.614,0,0,1-.7,1.026c-.337.194-.617.091-.7-.221l-2.123,1.225a1.614,1.614,0,0,1-.7,1.026c-.337.194-.617.091-.7-.221l-.656.378a1.615,1.615,0,0,1-.7,1.026c-.337.194-.617.091-.7-.221l-1.611.93a1.614,1.614,0,0,1-.7,1.026c-.337.194-.617.091-.7-.221l-.516.3a1.615,1.615,0,0,1-.7,1.026c-.337.195-.617.091-.7-.221l-3.752,2.166v1.853l19.57-11.3v-1.853Z" transform="translate(-384.209 -499.296)" fill="#7b7f8c"/><path d="M380.829,447.181l19.51-11.256v-.687l-19.51,11.256Z" transform="translate(-380.828 -433.898)" fill="#7b7f8c"/><path d="M400.754,428.48l-19.936,11.5v-1.159l19.936-11.5Z" transform="translate(-380.818 -427.321)" fill="#393b42"/><path d="M411.77,463.16l-14.545,8.374v-7.373l14.545-8.374Z" transform="translate(-394.449 -450.969)" fill="#46484f"/><g transform="translate(4.492 8.333)"><ellipse cx="2.394" cy="1.382" rx="2.394" ry="1.382" transform="matrix(0.505, -0.863, 0.863, 0.505, 3.473, 5.378)" fill="#393b42"/><path d="M409.105,511.3a1.922,1.922,0,0,1-.872,1.5c-.482.278-.872.056-.872-.5a1.921,1.921,0,0,1,.872-1.5C408.715,510.528,409.105,510.751,409.105,511.3Z" transform="translate(-407.361 -504.91)" fill="#393b42"/><path d="M468.223,477.171a1.922,1.922,0,0,1-.872,1.5c-.482.278-.872.056-.872-.5a1.921,1.921,0,0,1,.872-1.5C467.833,476.4,468.223,476.619,468.223,477.171Z" transform="translate(-456.473 -476.554)" fill="#393b42"/></g><path d="M380.829,569.671l.689.4,3.752-2.166s-3.568,2.009-3.78,2.009A2.161,2.161,0,0,1,380.829,569.671Z" transform="translate(-380.827 -544.112)" fill="#cad1e3"/><path d="M411.231,560.766l.69.4.516-.3a1.5,1.5,0,0,1-.523.171A7.061,7.061,0,0,1,411.231,560.766Z" transform="translate(-406.084 -538.181)" fill="#cad1e3"/><path d="M422.52,551.663l.689.406,1.611-.93s-1.527.832-1.607.819S422.52,551.663,422.52,551.663Z" transform="translate(-415.462 -530.184)" fill="#cad1e3"/><path d="M440.268,544.009l.69.4.655-.378a3.668,3.668,0,0,1-.675.293A6.625,6.625,0,0,1,440.268,544.009Z" transform="translate(-430.206 -524.26)" fill="#cad1e3"/><path d="M452.385,532.97l.689.406,2.123-1.226s-2.02,1.118-2.112,1.1S452.385,532.97,452.385,532.97Z" transform="translate(-440.272 -514.408)" fill="#cad1e3"/><path d="M473.166,515.827l.689.406,3.942-2.274s-3.818,2.17-3.937,2.157A5.527,5.527,0,0,1,473.166,515.827Z" transform="translate(-457.536 -499.296)" fill="#cad1e3"/></g><g transform="translate(0 13.574)"><path d="M300.185,459.251v12.265l1.545.892,0,.009a1.529,1.529,0,0,0,.093.295l0,.01a1.749,1.749,0,0,0,.152.278l.015.02a1.527,1.527,0,0,0,.278.306,1.113,1.113,0,0,0,.152.108.775.775,0,0,0,.1.048.821.821,0,0,0,.092.03l.011,0s.493-.29.5-.3l.655.378v0a1.618,1.618,0,0,0,.167.449l0,0c.026.047.054.093.084.137l.01.013c.028.04.056.08.087.117l.029.031c.026.03.051.059.079.086s.036.031.054.047.041.038.062.055a1.091,1.091,0,0,0,.123.083.771.771,0,0,0,.1.049.758.758,0,0,0,.1.03l.005,0s.493-.29.5-.3l1.611.93a1.614,1.614,0,0,0,.7,1.026.776.776,0,0,0,.1.046.79.79,0,0,0,.089.029l.017.005s0-.007,0-.012.489-.279.492-.29l.516.3v0a1.664,1.664,0,0,0,.252.59l.011.015c.027.04.056.079.086.115.01.013.022.024.033.036.025.028.049.056.075.082s.033.029.05.043.044.041.067.058a1.064,1.064,0,0,0,.123.083.747.747,0,0,0,.1.048.766.766,0,0,0,.094.03l.007,0s.493-.29.5-.3l3.752,2.166V467.13Z" transform="translate(-299.337 -457.252)" fill="#cad1e3"/><path d="M352.535,565.022c.01.013.022.024.033.036C352.557,565.046,352.546,565.035,352.535,565.022Z" transform="translate(-342.827 -545.122)" fill="#cad1e3"/><path d="M351.961,564.252l.011.015Z" transform="translate(-342.35 -544.482)" fill="#cad1e3"/><path d="M343.3,560.3a.738.738,0,0,0,.1.046A.772.772,0,0,1,343.3,560.3Z" transform="translate(-335.154 -541.195)" fill="#cad1e3"/><path d="M314.784,542.13v0l-.655-.378c0,.011-.5.3-.5.3l-.011,0h0l-.187.108,0,.025c0-.009.007-.016.009-.025l.653.377.693-.4Z" transform="translate(-310.34 -525.786)" fill="#b0b7c9"/><path d="M325.545,550.046a.739.739,0,0,0,.1.048A.769.769,0,0,1,325.545,550.046Z" transform="translate(-320.405 -532.68)" fill="#cad1e3"/><path d="M324.186,549c-.018-.016-.036-.03-.054-.047C324.149,548.97,324.168,548.984,324.186,549Z" transform="translate(-319.231 -531.772)" fill="#cad1e3"/><path d="M354.584,566.812a.723.723,0,0,0,.1.048A.745.745,0,0,1,354.584,566.812Z" transform="translate(-344.529 -546.609)" fill="#cad1e3"/><path d="M354.827,565.807l-.007,0-.185.107,3.748,2.164.692-.4v0h0l-3.752-2.166C355.321,565.517,354.828,565.8,354.827,565.807Z" transform="translate(-344.572 -545.523)" fill="#b0b7c9"/><path d="M344.554,559.291v0l-.516-.3c0,.012-.492.29-.492.29s0,.007,0,.011l-.017-.005-.174.1,0,.01.511.295.694-.4Z" transform="translate(-335.196 -540.111)" fill="#b0b7c9"/><path d="M297.568,531.695l0,.008s0-.006,0-.009l-1.545-.888v-.191l-.848.513,1.7.969Z" transform="translate(-295.175 -516.538)" fill="#b0b7c9"/><path d="M353.857,566.32a1.074,1.074,0,0,0,.123.083A1.074,1.074,0,0,1,353.857,566.32Z" transform="translate(-343.925 -546.2)" fill="#cad1e3"/><path d="M327.9,549.669l-1.611-.93c0,.012-.5.3-.5.3l-.005,0-.186.107,1.6.922.7-.4Z" transform="translate(-320.454 -531.594)" fill="#b0b7c9"/><path d="M324.818,549.555a1.089,1.089,0,0,0,.123.083A1.089,1.089,0,0,1,324.818,549.555Z" transform="translate(-319.801 -532.272)" fill="#cad1e3"/><path d="M353.22,565.762c-.016-.015-.034-.028-.05-.044C353.186,565.734,353.2,565.747,353.22,565.762Z" transform="translate(-343.354 -545.7)" fill="#cad1e3"/><path d="M322.925,547.49l.01.013Z" transform="translate(-318.228 -530.557)" fill="#cad1e3"/><path d="M322.421,546.663l0,0Z" transform="translate(-317.81 -529.87)" fill="#cad1e3"/><path d="M310.806,540.487l.015.02Z" transform="translate(-308.16 -524.739)" fill="#cad1e3"/><path d="M323.5,548.259l.029.031Z" transform="translate(-318.704 -531.196)" fill="#cad1e3"/><path d="M313.434,543.054a.764.764,0,0,0,.1.048A.769.769,0,0,1,313.434,543.054Z" transform="translate(-310.344 -526.872)" fill="#cad1e3"/><path d="M312.539,542.415a1.113,1.113,0,0,0,.151.108A1.113,1.113,0,0,1,312.539,542.415Z" transform="translate(-309.6 -526.341)" fill="#cad1e3"/><path d="M309.879,538.785l0,.01Z" transform="translate(-307.39 -523.325)" fill="#cad1e3"/><path d="M347.463,574.719h0l-.068-.039Z" transform="translate(-338.556 -553.145)" fill="#a3a9b7"/><path d="M347.953,561.868a.77.77,0,0,1-.094-.03.737.737,0,0,1-.1-.048,1.068,1.068,0,0,1-.123-.083c-.023-.018-.045-.039-.067-.058s-.033-.028-.05-.043-.05-.054-.075-.082c-.011-.012-.022-.023-.033-.036-.03-.037-.059-.076-.086-.115l-.011-.015a1.665,1.665,0,0,1-.252-.59h0l-.694.4,0,0a1.614,1.614,0,0,0,.7,1.026c.337.194.617.091.7-.221h0l.185-.107Z" transform="translate(-337.704 -541.586)" fill="#a3a9b7"/><path d="M336.619,555.321h0a.8.8,0,0,1-.089-.029.721.721,0,0,1-.1-.046,1.614,1.614,0,0,1-.7-1.026l0,0-.7.4.012.007a1.615,1.615,0,0,0,.7,1.026c.337.194.617.091.7-.221h0l0-.01Z" transform="translate(-328.29 -536.145)" fill="#a3a9b7"/><path d="M315.6,556.327h0l-.647-.373Z" transform="translate(-311.607 -537.589)" fill="#a3a9b7"/><path d="M318.923,545.111a.767.767,0,0,1-.1-.031.742.742,0,0,1-.1-.049,1.057,1.057,0,0,1-.123-.083c-.022-.017-.042-.036-.062-.055s-.036-.03-.054-.047-.053-.056-.079-.086l-.029-.031c-.031-.037-.059-.077-.087-.117l-.01-.013c-.03-.044-.058-.09-.084-.137l0,0a1.617,1.617,0,0,1-.167-.449h0l-.693.4,0,0a1.616,1.616,0,0,0,.7,1.026c.337.195.617.091.7-.221h0l.186-.107Z" transform="translate(-313.587 -527.666)" fill="#a3a9b7"/><path d="M302.98,549.042h0l-.745-.43Z" transform="translate(-301.04 -531.489)" fill="#a3a9b7"/><path d="M306.787,538.1h0a.82.82,0,0,1-.092-.03.747.747,0,0,1-.1-.048,1.1,1.1,0,0,1-.151-.108,1.522,1.522,0,0,1-.278-.306l-.015-.02a1.752,1.752,0,0,1-.152-.278l0-.01a1.536,1.536,0,0,1-.093-.3l0-.008-.7.4.007,0a1.614,1.614,0,0,0,.7,1.026c.327.189.6.095.688-.2l0-.025Z" transform="translate(-303.506 -521.836)" fill="#a3a9b7"/><path d="M371.611,588.658l.878.507-.878-.507Z" transform="translate(-358.674 -564.757)" fill="#a3a9b7"/><path d="M376.781,578.732l0,0v1.853l.689-.406v-1.848Z" transform="translate(-362.97 -556.179)" fill="#7b7f8c"/><path d="M297.115,536.607l1.408.813.647.373,4.844,2.8.068.039,4.03,2.327.878.507v-1.853l0,0-3.748-2.164h0c-.08.312-.361.416-.7.221a1.614,1.614,0,0,1-.7-1.026l0,0-.511-.295h0c-.08.312-.36.416-.7.221a1.615,1.615,0,0,1-.7-1.026l-.012-.007-1.6-.922h0c-.08.312-.36.416-.7.221a1.616,1.616,0,0,1-.7-1.026l0,0-.653-.377c0,.009-.006.016-.009.025-.089.291-.361.385-.688.2a1.615,1.615,0,0,1-.7-1.026l-.007,0-1.7-.969V535.5l1.195.679Z" transform="translate(-295.175 -519.054)" fill="#9599a6"/><path d="M313.841,463.444l-13.656-7.878v.624l13.656,7.879Z" transform="translate(-299.337 -454.191)" fill="#9599a6"/><path d="M312.022,456.7v-1.159l-14.029-8.1V448.6l14.027,8.094Z" transform="translate(-297.516 -447.441)" fill="#53555c"/><path d="M354.635,567.907l3.748,2.164.692-.4a3.912,3.912,0,0,1-.636.28C358.3,569.967,354.635,567.907,354.635,567.907Z" transform="translate(-344.572 -547.518)" fill="#cad1e3"/><path d="M343.349,560.874l.511.295.694-.4s-.64.311-.693.311A5.113,5.113,0,0,1,343.349,560.874Z" transform="translate(-335.196 -541.588)" fill="#cad1e3"/><path d="M325.6,551.147l1.6.922.7-.4a6.72,6.72,0,0,1-.708.322C327.14,551.983,325.6,551.147,325.6,551.147Z" transform="translate(-320.454 -533.595)" fill="#cad1e3"/><path d="M313.482,544.034l.653.377.693-.4a5.092,5.092,0,0,1-.69.321C314.067,544.323,313.482,544.034,313.482,544.034Z" transform="translate(-310.384 -527.667)" fill="#cad1e3"/><path d="M295.175,533.644l1.7.969.7-.394a4.59,4.59,0,0,1-.717.308C296.783,534.509,295.175,533.644,295.175,533.644Z" transform="translate(-295.175 -519.054)" fill="#cad1e3"/></g><g transform="translate(1.817)"><path d="M311.377,434.9l-5.444-3.144v2.7l5.442,3.143Z" transform="translate(-305.929 -420.838)" fill="#53555c"/><path d="M356.956,388.544l-18.918,10.913v-2.689l18.918-10.913Z" transform="translate(-332.6 -382.704)" fill="#393b42"/><path d="M374.926,425.209l5.621-3.245v-2.685l-2.753-.676-8.69,5.017Z" transform="translate(-358.408 -409.909)" fill="#393b42"/><path d="M330.273,370.386l-5.444-3.148-18.921,10.918,5.444,3.149,5.264-3.038,5.809,1.586,5.621-3.245-2.745-3.352Z" transform="translate(-305.908 -367.238)" fill="#46484f"/><path d="M375.017,434.061l-5.83-1.572v2.7l5.828,1.571Z" transform="translate(-358.477 -421.445)" fill="#53555c"/><path d="M381.388,410.753l4.166-2.405-2.04-2.491-6.44,3.718Z" transform="translate(-365.029 -399.321)" fill="#393b42"/><path d="M382.6,413.732l3.38.923,3.724-2.15-1.6-1.951Z" transform="translate(-369.617 -403.223)" fill="#313338"/><g transform="translate(0 3.149)"><path d="M322.425,425.665l-5.809-1.586-5.264,3.038-5.444-2.972,5.444,3.149,5.264-3.038,5.809,1.586,5.621-3.245Z" transform="translate(-305.908 -416.375)" fill="#6e727a"/><path d="M420.493,388.533l.1.12,4.874-2.812Z" transform="translate(-401.1 -385.841)" fill="#6e727a"/></g></g><g transform="translate(12.908 15.67)"><path d="M374.987,470.658V470.3h-.139a1.223,1.223,0,0,0-.379-.324,2.764,2.764,0,0,0-2.5,0,1.193,1.193,0,0,0-.38.328h-.131v.345a.605.605,0,0,0,0,.09h0a.91.91,0,0,0,.518.68,2.764,2.764,0,0,0,2.5,0A.844.844,0,0,0,374.987,470.658Z" transform="translate(-371.453 -468.011)" fill="#53555c"/><g transform="translate(0.002 1.752)"><path d="M371.967,470.39a1.193,1.193,0,0,0-.38.329h-.131v.345a.6.6,0,0,0,0,.09h0a.91.91,0,0,0,.518.68,2.146,2.146,0,0,0,.54.211v-1.868A2.124,2.124,0,0,0,371.967,470.39Z" transform="translate(-371.455 -470.178)" fill="#6b6e75"/></g><path d="M386.891,470.509a2.106,2.106,0,0,0-.483-.194v1.833a2.083,2.083,0,0,0,.49-.195.844.844,0,0,0,.51-.767v-.353h-.139A1.224,1.224,0,0,0,386.891,470.509Z" transform="translate(-383.875 -468.54)" fill="#393b42"/><path d="M374.466,469.337a2.765,2.765,0,0,1-2.5,0,.762.762,0,0,1-.008-1.444,2.765,2.765,0,0,1,2.5,0A.762.762,0,0,1,374.466,469.337Z" transform="translate(-371.443 -466.278)" fill="#393b42"/><path d="M377.512,462.1l-.145-1.691a.471.471,0,0,0-.283-.418,1.516,1.516,0,0,0-1.372,0,.5.5,0,0,0-.275.353h0l-.152,1.776h0a.534.534,0,0,0,.325.5,1.753,1.753,0,0,0,1.587,0A.515.515,0,0,0,377.512,462.1Z" transform="translate(-374.632 -459.826)" fill="#f44b42"/><g transform="translate(0.65 0.031)"><path d="M375.712,460.14a.5.5,0,0,0-.275.353h0l-.152,1.776h0a.534.534,0,0,0,.325.5,1.353,1.353,0,0,0,.332.131l.148-2.892A1.215,1.215,0,0,0,375.712,460.14Z" transform="translate(-375.281 -460.008)" fill="#f26e61"/></g><path d="M376.125,463.109s-.043.569.958.627c.892,0,1-.473,1-.473l-.01-.075Z" transform="translate(-375.332 -462.553)" fill="#c92518"/><g transform="translate(2.06 0.029)"><path d="M384.12,462.766a.515.515,0,0,0,.315-.52l-.145-1.691a.471.471,0,0,0-.283-.418,1.248,1.248,0,0,0-.392-.136l.149,2.9A1.353,1.353,0,0,0,384.12,462.766Z" transform="translate(-383.615 -460)" fill="#c92518"/></g><path d="M377.82,460.783a1.515,1.515,0,0,1-1.372,0,.418.418,0,0,1,0-.792,1.516,1.516,0,0,1,1.372,0A.418.418,0,0,1,377.82,460.783Z" transform="translate(-375.363 -459.826)" fill="#f26e61"/><path d="M377.84,463.243a1.516,1.516,0,0,1-1.372,0,.5.5,0,0,1-.28-.358.459.459,0,0,0,.28.437,1.515,1.515,0,0,0,1.372,0,.453.453,0,0,0,.275-.434A.5.5,0,0,1,377.84,463.243Z" transform="translate(-375.384 -462.365)" fill="#ffafa4"/><path d="M375.3,473.448a.539.539,0,0,0,.325.487,1.753,1.753,0,0,0,1.587,0,.575.575,0,0,0,.316-.4s-.269.531-1.214.5S375.3,473.448,375.3,473.448Z" transform="translate(-374.643 -471.142)" fill="#c92518"/></g><g transform="translate(26.947 7.619)"><path d="M457.937,423.086v-.353H457.8a1.225,1.225,0,0,0-.379-.324,2.764,2.764,0,0,0-2.5,0,1.192,1.192,0,0,0-.38.329h-.131v.345a.614.614,0,0,0,0,.09h0a.91.91,0,0,0,.518.68,2.765,2.765,0,0,0,2.5,0A.844.844,0,0,0,457.937,423.086Z" transform="translate(-454.403 -420.439)" fill="#53555c"/><g transform="translate(0.002 1.752)"><path d="M454.917,422.818a1.192,1.192,0,0,0-.38.329h-.131v.345a.614.614,0,0,0,0,.09h0a.91.91,0,0,0,.518.68,2.15,2.15,0,0,0,.54.211v-1.868A2.124,2.124,0,0,0,454.917,422.818Z" transform="translate(-454.405 -422.606)" fill="#6b6e75"/></g><path d="M469.841,422.937a2.111,2.111,0,0,0-.483-.194v1.833a2.081,2.081,0,0,0,.49-.2.844.844,0,0,0,.51-.767v-.353h-.139A1.224,1.224,0,0,0,469.841,422.937Z" transform="translate(-466.825 -420.968)" fill="#393b42"/><path d="M457.416,421.765a2.765,2.765,0,0,1-2.5,0,.762.762,0,0,1-.008-1.444,2.765,2.765,0,0,1,2.5,0A.762.762,0,0,1,457.416,421.765Z" transform="translate(-454.393 -418.705)" fill="#393b42"/><path d="M460.462,414.529l-.145-1.691a.471.471,0,0,0-.283-.418,1.516,1.516,0,0,0-1.372,0,.5.5,0,0,0-.275.353h0l-.152,1.776h0a.534.534,0,0,0,.325.5,1.753,1.753,0,0,0,1.587,0A.515.515,0,0,0,460.462,414.529Z" transform="translate(-457.581 -412.254)" fill="#cad1e3"/><g transform="translate(0.65 0.031)"><path d="M458.662,412.568a.5.5,0,0,0-.275.353h0l-.152,1.776h0a.534.534,0,0,0,.325.5,1.355,1.355,0,0,0,.332.131l.148-2.892A1.216,1.216,0,0,0,458.662,412.568Z" transform="translate(-458.231 -412.436)" fill="#ebf2ff"/></g><path d="M459.075,415.537s-.043.569.958.627c.892,0,.995-.473.995-.473l-.01-.075Z" transform="translate(-458.282 -414.981)" fill="#9599a6"/><g transform="translate(2.06 0.029)"><path d="M467.07,415.194a.515.515,0,0,0,.315-.52l-.145-1.691a.471.471,0,0,0-.283-.418,1.244,1.244,0,0,0-.392-.136l.149,2.9A1.354,1.354,0,0,0,467.07,415.194Z" transform="translate(-466.565 -412.428)" fill="#9599a6"/></g><path d="M460.77,413.211a1.516,1.516,0,0,1-1.372,0,.418.418,0,0,1,0-.792,1.516,1.516,0,0,1,1.372,0A.418.418,0,0,1,460.77,413.211Z" transform="translate(-458.313 -412.254)" fill="#d8dfef"/><path d="M460.79,415.67a1.516,1.516,0,0,1-1.372,0,.5.5,0,0,1-.28-.358.459.459,0,0,0,.28.438,1.516,1.516,0,0,0,1.372,0,.453.453,0,0,0,.275-.434A.5.5,0,0,1,460.79,415.67Z" transform="translate(-458.334 -414.793)" fill="#ebf2ff"/><path d="M458.246,425.876a.54.54,0,0,0,.325.487,1.753,1.753,0,0,0,1.587,0,.575.575,0,0,0,.316-.4s-.268.531-1.214.5S458.246,425.876,458.246,425.876Z" transform="translate(-457.593 -423.571)" fill="#9599a6"/></g><path d="M312,438.564l-14.029-7.852,14.029,8.1,19.939-11.505Z" transform="translate(-297.494 -417.14)" fill="#6e727a"/></g><g transform="translate(16.691 44.847)"><path d="M134.392,324.8l-.522-.285a.078.078,0,0,0-.1,0l-1.716.985v-1.976a.078.078,0,0,0-.051-.084l-.522-.284a.079.079,0,0,0-.1,0,.277.277,0,0,0-.126.217v2.6L129,327.266a.277.277,0,0,0-.126.217.078.078,0,0,0,.051.084l.522.285a.078.078,0,0,0,.1,0l1.716-1v1.99a.078.078,0,0,0,.051.083l.522.285a.078.078,0,0,0,.1,0,.276.276,0,0,0,.126-.217v-2.6l2.262-1.306a.277.277,0,0,0,.126-.217A.078.078,0,0,0,134.392,324.8Z" transform="translate(-128.871 -323.132)" fill="#a695a0"/><g transform="translate(0.076 2.831)"><path d="M129.919,341.457l2.258-1.3-.55-.293-2.256,1.3a.218.218,0,0,0-.049.04l.549.293A.226.226,0,0,1,129.919,341.457Z" transform="translate(-129.322 -339.86)" fill="#b5aab1"/></g><path d="M143.807,323.756v-.238a.078.078,0,0,0-.051-.084l-.522-.284a.079.079,0,0,0-.1,0,.278.278,0,0,0-.119.176Z" transform="translate(-140.622 -323.132)" fill="#cec3ca"/><g transform="translate(2.387 3.276)"><path d="M142.977,343.633l.8.442v-1.588l-.8.46Z" transform="translate(-142.977 -342.487)" fill="#8f7f8a"/></g><g transform="translate(0.548 0.293)"><path d="M146.342,330.646c-.069.04-.126.008-.126-.072V325.1a.277.277,0,0,1,.126-.217c.069-.04.126-.008.126.072v5.479A.276.276,0,0,1,146.342,330.646Z" transform="translate(-143.829 -324.861)" fill="#fff"/><path d="M137.01,333.209l-4.775,2.757c-.069.04-.126.008-.126-.072a.277.277,0,0,1,.126-.217l4.775-2.757c.069-.04.126-.008.126.072A.276.276,0,0,1,137.01,333.209Z" transform="translate(-132.11 -331.543)" fill="#fff"/></g></g><g transform="translate(30.374 7.993)"><path d="M216.156,107.323l-.608-.332a.092.092,0,0,0-.116,0l-2,1.15v-2.305a.091.091,0,0,0-.06-.1l-.609-.332a.091.091,0,0,0-.116,0,.323.323,0,0,0-.147.253v3.028l-2.638,1.523a.323.323,0,0,0-.147.253.091.091,0,0,0,.06.1l.609.332a.091.091,0,0,0,.116,0l2-1.165v2.321a.091.091,0,0,0,.06.1l.609.332a.092.092,0,0,0,.116,0,.323.323,0,0,0,.147-.253V109.2l2.638-1.523a.323.323,0,0,0,.147-.253A.09.09,0,0,0,216.156,107.323Z" transform="translate(-209.716 -105.382)" fill="#a695a0"/><g transform="translate(0.089 3.303)"><path d="M210.938,126.758l2.633-1.521-.641-.342-2.632,1.52a.258.258,0,0,0-.058.047l.64.342A.247.247,0,0,1,210.938,126.758Z" transform="translate(-210.241 -124.895)" fill="#b5aab1"/></g><path d="M227.138,106.11v-.277a.091.091,0,0,0-.06-.1l-.609-.332a.091.091,0,0,0-.116,0,.324.324,0,0,0-.139.2Z" transform="translate(-223.423 -105.382)" fill="#cec3ca"/><g transform="translate(2.785 3.821)"><path d="M226.17,129.3l.93.515V127.96l-.93.537Z" transform="translate(-226.17 -127.96)" fill="#8f7f8a"/></g><g transform="translate(0.639 0.341)"><path d="M230.095,114.147c-.081.047-.147.009-.147-.084v-6.391a.323.323,0,0,1,.147-.253c.081-.047.147-.009.147.084v6.391A.323.323,0,0,1,230.095,114.147Z" transform="translate(-227.163 -107.399)" fill="#fff"/><path d="M219.21,117.137l-5.57,3.216c-.081.047-.147.009-.147-.083a.323.323,0,0,1,.147-.253l5.57-3.216c.081-.047.147-.009.147.084A.323.323,0,0,1,219.21,117.137Z" transform="translate(-213.493 -115.193)" fill="#fff"/></g></g><g transform="translate(100.105 48.171)"><path d="M627.039,344.378l-.5-.274a.076.076,0,0,0-.1,0l-1.654.95v-1.905a.075.075,0,0,0-.049-.081l-.5-.274a.075.075,0,0,0-.1,0,.267.267,0,0,0-.121.209v2.5l-2.181,1.259a.267.267,0,0,0-.121.209.075.075,0,0,0,.049.081l.5.274a.076.076,0,0,0,.1,0l1.654-.963v1.918a.074.074,0,0,0,.049.08l.5.274a.075.075,0,0,0,.1,0,.267.267,0,0,0,.121-.209v-2.5l2.18-1.259a.266.266,0,0,0,.121-.209A.075.075,0,0,0,627.039,344.378Z" transform="translate(-621.716 -342.773)" fill="#a695a0"/><g transform="translate(0.073 2.73)"><path d="M622.726,360.44l2.177-1.257-.53-.283-2.175,1.256a.2.2,0,0,0-.048.039l.529.282A.209.209,0,0,1,622.726,360.44Z" transform="translate(-622.15 -358.901)" fill="#b5aab1"/></g><path d="M636.115,343.375v-.229a.075.075,0,0,0-.049-.081l-.5-.274a.075.075,0,0,0-.1,0,.268.268,0,0,0-.115.169Z" transform="translate(-633.044 -342.773)" fill="#cec3ca"/><g transform="translate(2.302 3.158)"><path d="M635.315,362.539l.769.426v-1.531l-.769.444Z" transform="translate(-635.315 -361.434)" fill="#8f7f8a"/></g><g transform="translate(0.528 0.282)"><path d="M638.558,350.018c-.067.039-.121.008-.121-.069v-5.282a.267.267,0,0,1,.121-.209c.067-.039.121-.008.121.069v5.282A.267.267,0,0,1,638.558,350.018Z" transform="translate(-636.135 -344.441)" fill="#fff"/><path d="M629.562,352.489l-4.6,2.658c-.067.039-.121.008-.121-.069a.266.266,0,0,1,.121-.209l4.6-2.658c.067-.039.121-.008.121.069A.267.267,0,0,1,629.562,352.489Z" transform="translate(-624.838 -350.882)" fill="#fff"/></g></g><g transform="translate(85.434 60.146)"><path d="M537.854,490.226c-1.9,1.1-3.409,6.643-2.6,7.112s10.908-.5,12.476-1.408,13.567-7.923,13.567-7.923v-.343l-9.88-5.361S539.756,489.128,537.854,490.226Z" transform="translate(-535.033 -470.663)" fill="#9b3465" opacity="0.5" style="mix-blend-mode:multiply;isolation:isolate"/><path d="M681.815,427.386l-.376-.324c3.812-4.429,3.837-8.2,3.513-10.052a4.141,4.141,0,0,0-1.342-2.737,3.617,3.617,0,0,0-3.639.65l-.31-.388a4.083,4.083,0,0,1,4.193-.694,4.535,4.535,0,0,1,1.587,3.084C685.78,418.863,685.76,422.8,681.815,427.386Z" transform="translate(-655.183 -413.526)" fill="#cebbb3"/><g transform="translate(24.478 0.253)"><path d="M683.61,415.513a4.141,4.141,0,0,1,1.342,2.737c.039.222.072.471.1.745a8.245,8.245,0,0,0-.114-1.017,3.942,3.942,0,0,0-1.342-2.691,3.562,3.562,0,0,0-3.639.639l-.186-.229c-.035.026-.07.05-.1.078l.31.388A3.617,3.617,0,0,1,683.61,415.513Z" transform="translate(-679.661 -415.02)" fill="#b7a19a"/><path d="M694.266,438.281c.111,2.1-.433,5.438-3.746,9.224l-.149-.126c-.069.083-.136.165-.208.248l.376.324C694.006,443.922,694.441,440.394,694.266,438.281Z" transform="translate(-688.386 -434.344)" fill="#b7a19a"/></g><path d="M537.854,488.2c-1.9,1.1-3.409,6.643-2.6,7.112s10.908-.5,12.476-1.408,13.567-7.924,13.567-7.924l-9.88-5.7S539.756,487.1,537.854,488.2Z" transform="translate(-535.033 -468.978)" fill="#808793"/><path d="M606.761,517.4l.043-.021c1.568-.905,13.567-7.924,13.567-7.924l-1.6-.922-12.638,7.476Z" transform="translate(-594.102 -492.454)" fill="#6c727c"/><path d="M539.428,485.856c-1.9,1.1-3.049,6.639-2.236,7.108s10.548-.5,12.116-1.4,12.776-7.467,12.776-7.467l-9.88-5.7S541.33,484.758,539.428,485.856Z" transform="translate(-536.606 -467.411)" fill="#f7eee9"/><path d="M568.077,433.763c-2.83-.388-12.1,1.734-14.771,3.993-4.265,3.606-8.631,12.358-8.631,12.358l23.846-3.133c.522-2.638,3.626-3.449,3.626-3.449C571.643,436.011,568.077,433.763,568.077,433.763Zm-.737,7.017c-.233.465-9.266,4.769-9.964,3.993s.969-5.777,1.745-6.319a19.313,19.313,0,0,1,6.591-2.055C566.448,436.515,567.573,440.315,567.34,440.78Z" transform="translate(-543.043 -430.299)" fill="#f7eee9"/><path d="M577.868,438.562a14.54,14.54,0,0,1,5.137-2.52c2.425-.735,6.168-1.765,4.879-2.148-3.786.252-10.874,2.08-13.156,4.009a26.408,26.408,0,0,0-4.266,5C572.156,443.926,576.9,439.263,577.868,438.562Z" transform="translate(-564.466 -430.447)" fill="#49bdc9"/><g transform="translate(14.166 6.092)"><path d="M618.9,457.9c.7.775,9.731-3.528,9.964-3.993s-.892-4.265-1.628-4.381a11.067,11.067,0,0,0-2.781.551,3.34,3.34,0,0,1,.184,1.426,30.5,30.5,0,0,1-5.262,2.658C618.86,455.721,618.512,457.471,618.9,457.9Z" transform="translate(-618.735 -449.522)" fill="#cebbb3"/></g><path d="M655.32,449.53a11.065,11.065,0,0,0-2.781.551,4.209,4.209,0,0,1,.2,1.363l4.217,2.435C657.137,453.3,656.042,449.644,655.32,449.53Z" transform="translate(-632.651 -443.43)" fill="#c6ad9b" opacity="0.4" style="mix-blend-mode:multiply;isolation:isolate"/><path d="M683.387,447.208a5.2,5.2,0,0,1,3.626-3.449s-.31-6.94-4.071-9.77c0,0,3.257,2.83,3.644,9.382C686.587,443.371,683.367,444.57,683.387,447.208Z" transform="translate(-657.909 -430.526)" fill="#cebbb3"/><path d="M561.107,446.71c-1.189-.1-6.345,1.112-7.754,2.171-.551.415-2.969,4.026-5.686,6.41-2.946,2.585-5.4,3.063-6.322,2.892a.361.361,0,0,1-.255-.23c-.989,1.724-1.6,2.951-1.6,2.951h0a10.442,10.442,0,0,0-.854,2.1c-.174.645-.32,1.418-.065,1.571.517.31,7.159.31,11.682-1.68,4.033-1.774,11.269-5.583,14.836-9.77C565.087,453.12,562.3,446.813,561.107,446.71Zm1.047,4.859a.126.126,0,0,1-.018.025l-.01.01-.02.02c-.752.679-9.239,4.688-9.915,3.937-.39-.433-.042-2.183.476-3.739h0a6.968,6.968,0,0,1,1.268-2.58,19.319,19.319,0,0,1,6.591-2.055C561.262,447.3,562.386,451.1,562.153,451.569Z" transform="translate(-537.856 -441.088)" fill="#49bdc9"/><path d="M616.714,449.665c.736.285,1.8,3.91,1.573,4.364a.134.134,0,0,1-.018.025l-.01.01-.02.02c-.752.679-9.24,4.688-9.915,3.937-.39-.433-.042-2.183.476-3.739h0a6.968,6.968,0,0,1,1.268-2.58c-2.016,1.124-4.381,11.4-4.032,12.057s6.474-2.326,8.219-3.45,5.738-4.264,5.854-4.769S617.964,449.7,616.714,449.665Z" transform="translate(-593.991 -443.549)" fill="#49bdc9" opacity="0.7" style="mix-blend-mode:multiply;isolation:isolate"/><path d="M634.579,470.969a3.749,3.749,0,0,1-3.392-.006,1.034,1.034,0,0,1-.01-1.958,3.748,3.748,0,0,1,3.392.006A1.034,1.034,0,0,1,634.579,470.969Z" transform="translate(-614.325 -459.281)" fill="#c6ad9b" opacity="0.4" style="mix-blend-mode:multiply;isolation:isolate"/><g transform="translate(16.261 8.969)"><path d="M635.692,470.12h0v-.411h-.13a1.489,1.489,0,0,0-.545-.5,3.582,3.582,0,0,0-3.242-.006,1.453,1.453,0,0,0-.544.508h-.122v.411h0a1.139,1.139,0,0,0,.675.952,3.582,3.582,0,0,0,3.242.006A1.114,1.114,0,0,0,635.692,470.12Z" transform="translate(-631.11 -468.428)" fill="#d8d0cb"/><g transform="translate(0 0.502)"><path d="M631.776,469.757a1.453,1.453,0,0,0-.544.508h-.122v.411h0a1.139,1.139,0,0,0,.675.952,2.757,2.757,0,0,0,.679.27v-2.413A2.738,2.738,0,0,0,631.776,469.757Z" transform="translate(-631.11 -469.486)" fill="#d8d0cb" opacity="0.4" style="mix-blend-mode:screen;isolation:isolate"/></g><path d="M649.811,469.556a2.906,2.906,0,0,0-.894-.319v2.51a2.877,2.877,0,0,0,.9-.319,1.114,1.114,0,0,0,.664-.958h0v-.411h-.13A1.49,1.49,0,0,0,649.811,469.556Z" transform="translate(-645.903 -468.777)" fill="#c6ad9b" opacity="0.4" style="mix-blend-mode:multiply;isolation:isolate"/><path d="M635.026,468.784a3.583,3.583,0,0,1-3.242-.006.988.988,0,0,1-.01-1.872,3.582,3.582,0,0,1,3.242.006A.988.988,0,0,1,635.026,468.784Z" transform="translate(-631.108 -466.521)" fill="#f7eee9"/><path d="M635.035,475.049a3.582,3.582,0,0,1-3.242-.006,1.163,1.163,0,0,1-.674-.91,1.129,1.129,0,0,0,.674.968,3.582,3.582,0,0,0,3.242.006,1.111,1.111,0,0,0,.664-.962A1.144,1.144,0,0,1,635.035,475.049Z" transform="translate(-631.117 -472.845)" fill="#fff"/><path d="M636.617,477.99l.542-.1-.366-.211Z" transform="translate(-635.684 -475.793)" fill="#49bdc9"/><path d="M639.5,471.364a1.918,1.918,0,0,1-1.736,0,.529.529,0,0,1-.005-1,1.919,1.919,0,0,1,1.736,0A.529.529,0,0,1,639.5,471.364Z" transform="translate(-636.333 -469.538)" fill="#fff"/></g><g transform="translate(14.166 8.009)"><path d="M627.073,462.245l-2.414-1.394v0a.272.272,0,0,1-.02.068,6.706,6.706,0,0,1-1.487.893,2.735,2.735,0,0,0-1.47.287c-.74.383-.827.823-.827.823-.483.221-.983.443-1.479.654-.518,1.556-.866,3.306-.476,3.739.171.191.837.037,1.086-.023a3.587,3.587,0,0,1,.27-1.953,5.912,5.912,0,0,1,1.421-.793l0-.384,3.6-1.477a1.49,1.49,0,0,1,.108.235S626.773,462.358,627.073,462.245Z" transform="translate(-618.735 -460.847)" fill="#c6ad9b" opacity="0.4" style="mix-blend-mode:multiply;isolation:isolate"/></g><path d="M627.854,449.665a8.582,8.582,0,0,1,1.367,4.209c-.222.443-8.427,4.368-9.809,4.07a.436.436,0,0,0,.053.078c.7.775,9.731-3.528,9.964-3.993S628.59,449.95,627.854,449.665Z" transform="translate(-605.13 -443.549)" fill="#75d3d8"/><path d="M541.322,517.76c-.727,1.3-1.162,2.174-1.162,2.174h0a10.434,10.434,0,0,0-.854,2.1c-.023.084-.045.171-.066.258a3.117,3.117,0,0,0,3.115-1.608A1.982,1.982,0,0,0,541.322,517.76Z" transform="translate(-538.528 -500.119)" fill="#49bdc9" opacity="0.7" style="mix-blend-mode:multiply;isolation:isolate"/><path d="M552.116,466.836a59.16,59.16,0,0,0-3.063,10.022l-.075.319c-.953,4.064-10.2,3.357-10.3,3.338a1.037,1.037,0,0,1-.228-.082c0,.034-.005.067-.007.1a1.143,1.143,0,0,0,.215.073c.024.006.695.06,1.687.06,2.76,0,8.006-.419,8.72-3.467l.075-.319a56.9,56.9,0,0,1,3.216-10.351Z" transform="translate(-537.869 -457.558)" fill="#49bdc9" opacity="0.7" style="mix-blend-mode:multiply;isolation:isolate"/><g transform="translate(0.291 17.964)"><path d="M536.764,521.642a8.822,8.822,0,0,1,2.31-1.975c.53.094-.312,3.411-1.01,3.643a.835.835,0,0,1-.657-.211C537.3,523.044,536.646,521.894,536.764,521.642Z" transform="translate(-536.75 -519.667)" fill="#49bdc9"/><path d="M537.8,533.246a6.191,6.191,0,0,1-.373-.62,1.292,1.292,0,0,1-.2-.64c.074-.1,1.214,1.23,1.142,1.45C538.234,533.509,537.958,533.385,537.8,533.246Z" transform="translate(-537.135 -529.897)" fill="#49bdc9" opacity="0.7" style="mix-blend-mode:multiply;isolation:isolate"/></g><g transform="translate(11.568 4.627)"><path d="M605.046,448.646v-1.1a3.127,3.127,0,0,0-1.665-.6v.971A3.411,3.411,0,0,1,605.046,448.646Z" transform="translate(-603.381 -445.923)" fill="#d8d0cb"/><path d="M613.22,443.918v-1.1s1.665-1.06,1.207-1.56a.581.581,0,0,1,.32.514v1.066S614.669,443.288,613.22,443.918Z" transform="translate(-611.555 -441.195)" fill="#cebbb3"/><path d="M603.381,441.9s2-1.341,2.872-.963c0,0,.975.7-1.207,1.56A3.838,3.838,0,0,0,603.381,441.9Z" transform="translate(-603.381 -440.865)" fill="#f7eee9"/><path d="M607.771,448.925l.078.033v-1.014l-.078-.025Z" transform="translate(-607.028 -446.726)" fill="#b7a19a"/><path d="M605.046,444.645a3.188,3.188,0,0,0-1.665-.539,3.84,3.84,0,0,1,1.665.6c1.192-.468,1.441-.89,1.422-1.177C606.451,443.811,606.16,444.208,605.046,444.645Z" transform="translate(-603.381 -443.077)" fill="#fffefd"/><path d="M609.9,441.168c-.017-.007-.035-.013-.053-.019l-2.076,1.145.078.025,2.07-1.137Z" transform="translate(-607.028 -441.101)" fill="#b7a19a"/></g><path d="M577.52,455.093c.113.66-.472,1.515-1.691,2.473-2.254,1.771-3.317,1.794-3.652,1.733l-.06.084a1.073,1.073,0,0,0,.264.029c.507,0,1.578-.259,3.506-1.774,1.265-.994,1.846-1.856,1.726-2.562a1.249,1.249,0,0,0-.694-.862l-.093.056A1.178,1.178,0,0,1,577.52,455.093Z" transform="translate(-565.841 -447.329)" fill="#49bdc9" opacity="0.7" style="mix-blend-mode:multiply;isolation:isolate"/><path d="M577.42,460.16a19.794,19.794,0,0,1,3.593-3.8S581.633,458.48,577.42,460.16Z" transform="translate(-570.246 -449.111)" fill="#49bdc9" opacity="0.3" style="mix-blend-mode:screen;isolation:isolate"/><path d="M538.479,522.077a12.615,12.615,0,0,1,1.964-1.654S539.4,522.852,538.479,522.077Z" transform="translate(-537.896 -502.331)" fill="#49bdc9" opacity="0.3" style="mix-blend-mode:screen;isolation:isolate"/><path d="M558.785,501.339a16.359,16.359,0,0,0,6.255-3.593s-1.032,5.09-1.808,5.916c-1.215,1.292-2.9,1.631-5.816,1.941C557.415,505.6,560.129,503.794,558.785,501.339Z" transform="translate(-553.627 -483.492)" fill="#49bdc9" opacity="0.3" style="mix-blend-mode:screen;isolation:isolate"/><path d="M537.152,559.854a42.526,42.526,0,0,0,11.474-1.2s-1.741.984-6.37,1.3C537.92,560.3,537.152,559.854,537.152,559.854Z" transform="translate(-536.793 -534.093)" fill="#bac2cc"/><path d="M669.447,418.024a.475.475,0,0,0-.405-.133,4.19,4.19,0,0,0-2.362,2.794.223.223,0,0,0-.023.078l0,.011h0a.294.294,0,0,0,.185.261.953.953,0,0,0,.862-.022.347.347,0,0,0,.16-.184h0v0h0a4.58,4.58,0,0,1,1.725-2.427A.63.63,0,0,0,669.447,418.024Z" transform="translate(-644.377 -417.148)" fill="#f7eee9"/><path d="M669.464,418.024a.475.475,0,0,0-.405-.133l-.01,0a.41.41,0,0,1,.146.1.594.594,0,0,1,.133.354,4.316,4.316,0,0,0-1.626,2.288h0v0h0a.328.328,0,0,1-.151.173.9.9,0,0,1-.813.021.441.441,0,0,1-.062-.042.3.3,0,0,0,.182.245.953.953,0,0,0,.862-.022.347.347,0,0,0,.16-.184h0v0h0a4.579,4.579,0,0,1,1.725-2.427A.631.631,0,0,0,669.464,418.024Z" transform="translate(-644.394 -417.148)" fill="#cebbb3"/></g></g></g></svg>