<svg xmlns="http://www.w3.org/2000/svg" width="168.884" height="121.184" viewBox="0 0 168.884 121.184"><g transform="translate(0 0)"><rect width="79.944" height="0.348" transform="translate(0 119.86)" fill="#3f3d56"/><path d="M109.605,601.422h2.273l1.081-8.768h-3.355Z" transform="translate(-89.284 -482.772)" fill="#ffb8b8"/><path d="M0,0H7.144V2.76H2.76A2.76,2.76,0,0,1,0,0H0Z" transform="translate(26.978 120.76) rotate(179.997)" fill="#2f2e41"/><path d="M44.379,599.4l2.253.3,2.231-8.548-3.325-.443Z" transform="translate(-36.151 -481.19)" fill="#ffb8b8"/><path d="M0,0H7.144V2.76H2.76A2.76,2.76,0,0,1,0,0H0Z" transform="translate(14.548 121.184) rotate(-172.406)" fill="#2f2e41"/><path d="M47.948,444.64l12.793.556-.556,32.446-3.337-.371-2.6-22.063-6.118,23.547L44.8,478.2Z" transform="translate(-36.491 -362.201)" fill="#3a1200"/><path d="M220.583,459.838l-4.45-.909-2.781,20.377s8.158,5.377,10.754-.185Z" transform="translate(-200.597 -396.682)" fill="#cd1a1a"/><circle cx="4.554" cy="4.554" r="4.554" transform="translate(13.491 51.656)" fill="#ffb8b8"/><path d="M190.881,457.832l-6.489,2.039s3.152,15.759-2.039,23.917c0,0,6.489,6.86,9.27-8.529C191.622,475.26,193.847,462.838,190.881,457.832Z" transform="translate(-175.344 -395.788)" fill="#3a1200"/><path d="M252.352,463.832l4.821,2.966s2.6,21.693,0,23.732S252.352,463.832,252.352,463.832Z" transform="translate(-232.366 -400.676)" fill="#3a1200"/><path d="M281.34,584.458a1.864,1.864,0,0,1,.18-2.853l-1.96-6.329,3.306.96,1.354,5.863a1.874,1.874,0,0,1-2.88,2.359Z" transform="translate(-254.529 -491.457)" fill="#ffb8b8"/><path d="M186.416,575.918a1.865,1.865,0,0,1-.187-2.853l-2.754-6.026,3.4.529,2.094,5.641a1.875,1.875,0,0,1-2.555,2.708Z" transform="translate(-176.259 -484.747)" fill="#ffb8b8"/><path d="M31.729,345.825l-1.669-.185L25.8,359.545l4.264,9.641,3.337-2.039-3.708-7.972,2.966-8.529Z" transform="translate(-21.013 -281.556)" fill="#3a1200"/><path d="M123.908,355.64l.927.185,4.45,21.692-2.966.927L122.8,365.652Z" transform="translate(-100.029 -289.702)" fill="#3a1200"/><path d="M212.448,402.008a2.607,2.607,0,0,1,1.566-2.046,6.2,6.2,0,0,1,2.81-.139,3.44,3.44,0,0,0,2.679-.649,2.3,2.3,0,0,0,.462-2.409,3.5,3.5,0,0,0-1.756-1.829,7.563,7.563,0,0,0-2.5-.66,10.2,10.2,0,0,0-3.79.149c-1.231.321-.913,1.009-1.635,2.057a3.709,3.709,0,0,0-.387,3.622,6.294,6.294,0,0,0,1.669,1.907" transform="translate(-197.532 -343.929)" fill="#2f2e41"/><path d="M545.2,249.362v-.348c.691,0,1.393-.014,2.085-.042l.014.347C546.6,249.347,545.894,249.362,545.2,249.362Zm-2.1-.04c-.695-.027-1.4-.069-2.1-.124l.027-.347c.691.055,1.391.1,2.082.123Zm6.293-.128-.028-.347c.69-.055,1.388-.125,2.075-.208l.042.345C550.79,249.067,550.087,249.138,549.393,249.193Zm-10.477-.2c-.693-.083-1.393-.181-2.079-.291l.055-.343c.682.109,1.377.207,2.065.289Zm14.644-.3-.056-.343c.682-.11,1.372-.236,2.051-.374l.069.34C554.941,248.453,554.246,248.579,553.56,248.69Zm-18.789-.365c-.684-.139-1.373-.293-2.049-.458l.083-.338c.671.164,1.356.318,2.035.455Zm22.9-.472-.083-.337c.673-.166,1.351-.347,2.014-.539l.1.334c-.668.194-1.35.376-2.028.543Zm-26.98-.527c-.67-.193-1.345-.4-2-.623l.11-.33c.656.218,1.326.426,1.991.618Zm31.011-.641-.11-.33c.656-.219,1.317-.455,1.964-.7l.124.325C563.031,246.227,562.366,246.464,561.705,246.685Zm-35-.687c-.652-.247-1.309-.511-1.952-.785l.136-.32c.639.272,1.292.535,1.939.78Zm38.919-.8-.136-.32c.635-.271,1.273-.559,1.9-.855l.149.314c-.627.3-1.269.588-1.909.861Zm-42.79-.847c-.631-.3-1.264-.616-1.881-.94l.162-.308c.613.322,1.241.636,1.869.934Zm46.572-.951-.162-.308c.612-.322,1.225-.661,1.822-1.006l.174.3C570.64,242.733,570.023,243.074,569.407,243.4Zm-50.294-1c-.606-.35-1.211-.716-1.8-1.089l.186-.294c.583.37,1.185.734,1.786,1.081Zm53.922-1.095-.186-.294c.583-.369,1.167-.756,1.737-1.15l.2.286C574.209,240.538,573.621,240.927,573.034,241.3Zm-57.472-1.154c-.575-.4-1.148-.811-1.7-1.229l.209-.278c.552.415,1.122.826,1.693,1.221Zm60.922-1.231-.209-.278c.551-.414,1.1-.847,1.64-1.286l.22.269C577.594,238.062,577.038,238.5,576.484,238.914ZM512.2,237.62c-.54-.441-1.078-.9-1.6-1.361l.23-.26c.518.459,1.053.914,1.589,1.352Zm67.528-1.36-.23-.26c.518-.459,1.033-.935,1.532-1.414l.241.251C580.773,235.319,580.254,235.8,579.733,236.26Zm-70.67-1.424c-.5-.482-1-.981-1.485-1.484l.25-.241c.481.5.977,1,1.475,1.474Zm73.7-1.483-.25-.241c.479-.5.955-1.014,1.415-1.532l.26.231c-.463.522-.942,1.041-1.424,1.542Zm-76.606-1.543c-.463-.522-.921-1.06-1.361-1.6l.269-.22c.437.534.891,1.068,1.352,1.587Zm79.393-1.6-.269-.22c.439-.537.873-1.089,1.289-1.641l.278.209c-.419.556-.855,1.112-1.3,1.652Zm-82.049-1.65c-.419-.556-.832-1.128-1.228-1.7l.286-.2c.393.568.8,1.137,1.22,1.689Zm84.576-1.706-.286-.2c.395-.571.783-1.156,1.153-1.74l.294.186c-.374.588-.763,1.177-1.161,1.752Zm-86.963-1.742c-.372-.587-.738-1.19-1.087-1.792l.3-.174c.347.6.71,1.2,1.08,1.78Zm89.213-1.807-.3-.174c.348-.6.688-1.217,1.009-1.828l.308.162C591.016,222.082,590.674,222.7,590.324,223.307Zm-91.314-1.82c-.324-.615-.64-1.245-.939-1.873l.314-.149c.3.624.611,1.25.932,1.86Zm93.272-1.9-.314-.149c.3-.626.587-1.267.859-1.9l.32.136c-.273.642-.564,1.288-.865,1.918Zm-95.073-1.88c-.274-.64-.537-1.293-.784-1.941l.325-.124c.245.643.507,1.292.779,1.928Zm96.724-1.99-.325-.123c.246-.65.483-1.313.7-1.97l.33.11c-.22.661-.459,1.328-.706,1.983Zm-98.214-1.928c-.221-.661-.432-1.335-.626-2l.334-.1c.193.664.4,1.334.622,1.99Zm99.544-2.06-.334-.1c.192-.663.373-1.341.538-2.015l.337.083c-.167.678-.349,1.361-.542,2.028Zm-100.715-1.972c-.167-.677-.322-1.366-.462-2.048l.341-.07c.138.678.293,1.362.458,2.034Zm101.716-2.1-.341-.069c.138-.677.263-1.367.373-2.051l.343.055c-.111.689-.237,1.383-.376,2.065Zm-102.555-2.008c-.111-.686-.21-1.385-.295-2.078l.345-.042c.083.688.182,1.383.293,2.064Zm103.223-2.136-.345-.041c.083-.688.152-1.386.207-2.075l.347.028C597.085,202.112,597.015,202.815,596.932,203.507ZM493.2,201.477c-.056-.694-.1-1.4-.127-2.1l.347-.014c.028.692.071,1.392.126,2.082Zm104.062-2.153-.347-.014c.027-.693.041-1.394.041-2.085v-.115h.348v.114C597.307,197.92,597.293,198.626,597.265,199.323ZM493.38,197.282h-.348v-.058c0-.678.013-1.365.039-2.04l.347.013c-.026.671-.039,1.353-.039,2.027Zm103.533-2.257c-.029-.69-.072-1.39-.128-2.081l.347-.028c.057.7.1,1.4.129,2.1Zm-103.372-1.909-.347-.027c.055-.7.124-1.4.206-2.089l.345.041C493.664,191.726,493.595,192.425,493.541,193.116Zm103.033-2.246c-.084-.686-.183-1.38-.3-2.064l.343-.056c.112.689.213,1.388.3,2.078Zm-102.54-1.894-.343-.055c.11-.688.236-1.383.374-2.066l.341.069C494.268,187.6,494.143,188.292,494.033,188.975ZM595.9,186.755c-.14-.679-.294-1.363-.461-2.034l.337-.084c.167.675.323,1.364.464,2.047Zm-101.042-1.866-.338-.082c.165-.677.347-1.359.54-2.029l.334.1C495.2,183.538,495.022,184.216,494.858,184.888ZM594.9,182.708c-.193-.664-.4-1.333-.624-1.99l.33-.111c.222.661.433,1.335.628,2Zm-98.885-1.826-.33-.11c.22-.662.457-1.329.7-1.984l.325.123C496.465,179.561,496.23,180.224,496.012,180.881Zm97.557-2.126c-.247-.647-.51-1.295-.781-1.927l.319-.137c.273.637.538,1.289.786,1.94Zm-96.079-1.784-.32-.136c.273-.642.563-1.288.862-1.919l.314.149c-.3.627-.585,1.268-.857,1.906Zm94.439-2.038c-.3-.623-.612-1.249-.934-1.859l.307-.162c.325.615.641,1.245.941,1.872ZM499.28,173.2l-.308-.161c.324-.618.665-1.237,1.014-1.842l.3.174C499.941,171.967,499.6,172.583,499.28,173.2Zm90.706-1.943c-.348-.6-.711-1.2-1.082-1.779l.293-.187c.373.586.739,1.189,1.089,1.791Zm-88.618-1.673-.294-.186c.373-.589.763-1.179,1.159-1.753l.286.2c-.393.57-.781,1.156-1.151,1.741Zm86.384-1.841c-.394-.568-.805-1.136-1.222-1.688l.277-.209c.419.555.833,1.127,1.23,1.7Zm-84.013-1.594-.278-.209c.419-.557.855-1.114,1.3-1.654l.269.22C504.588,165.038,504.155,165.591,503.739,166.145Zm81.5-1.732c-.438-.535-.894-1.068-1.354-1.585l.26-.231c.463.52.921,1.057,1.363,1.6Zm-78.865-1.5-.26-.23c.461-.521.94-1.041,1.423-1.544l.251.241C507.31,161.879,506.835,162.395,506.376,162.913Zm76.1-1.615c-.481-.5-.978-.994-1.477-1.473l.241-.251c.5.481,1,.98,1.486,1.482ZM509.263,159.9l-.241-.251c.5-.483,1.02-.962,1.541-1.425l.231.26C510.276,158.948,509.761,159.424,509.263,159.9Zm70.2-1.491c-.519-.459-1.054-.913-1.59-1.35l.22-.269c.539.44,1.078.9,1.6,1.359Zm-67.08-1.277-.22-.269c.539-.442,1.094-.878,1.649-1.3l.209.278C513.467,156.263,512.916,156.7,512.38,157.135Zm63.846-1.358c-.554-.416-1.125-.826-1.694-1.219l.2-.286c.573.4,1.147.808,1.706,1.227Zm-60.519-1.15-.2-.286c.573-.4,1.161-.787,1.747-1.16l.186.293C516.86,153.845,516.276,154.232,515.707,154.627Zm57.083-1.219c-.586-.37-1.187-.733-1.787-1.079l.174-.3c.6.348,1.209.714,1.8,1.086Zm-53.568-1.013-.174-.3c.6-.348,1.218-.69,1.833-1.015l.162.307c-.612.323-1.224.662-1.821,1.008Zm49.951-1.073c-.614-.322-1.243-.635-1.87-.932l.149-.314c.631.3,1.264.614,1.882.938Zm-46.27-.869-.15-.314c.627-.3,1.269-.589,1.908-.863l.137.319c-.635.272-1.273.561-1.9.857Zm42.493-.919c-.639-.271-1.292-.533-1.94-.778l.123-.325c.653.247,1.31.51,1.953.783Zm-38.67-.719-.124-.325c.65-.248,1.315-.486,1.976-.708l.11.33C528.033,148.333,527.373,148.569,526.727,148.815Zm34.759-.758c-.657-.218-1.327-.425-1.992-.616l.1-.334c.669.192,1.344.4,2.005.62Zm-30.806-.568-.1-.334c.669-.195,1.351-.378,2.027-.545l.084.337c-.672.166-1.35.349-2.014.542Zm26.8-.583c-.671-.164-1.356-.316-2.036-.453l.069-.341c.684.138,1.374.291,2.049.456Zm-22.751-.418-.07-.34c.681-.14,1.376-.267,2.065-.379l.056.343c-.684.112-1.374.238-2.051.377Zm18.663-.4c-.684-.109-1.378-.206-2.065-.287l.041-.345c.692.082,1.391.179,2.079.289Zm-14.548-.266-.042-.345c.691-.084,1.394-.156,2.088-.212l.028.346C540.227,145.663,539.529,145.734,538.842,145.818Zm10.408-.224c-.689-.054-1.389-.094-2.082-.12l.013-.347c.7.026,1.4.067,2.1.121ZM543,145.48l-.014-.347c.695-.029,1.4-.044,2.1-.045v.348C544.39,145.436,543.689,145.451,543,145.48Z" transform="translate(-428.423 -141.028)" fill="#ccc"/><path d="M33.542,0A33.542,33.542,0,1,1,0,33.542,33.542,33.542,0,0,1,33.542,0Z" transform="translate(64.795 21.651)" fill="#d74848"/><ellipse cx="17.814" cy="24.505" rx="17.814" ry="24.505" transform="translate(68.618 30.688)" fill="#fff"/><ellipse cx="4.972" cy="7.821" rx="4.972" ry="7.821" transform="translate(75.555 52.563)" fill="#3f3d56"/><circle cx="3.302" cy="3.302" r="3.302" transform="translate(160.934 33.159)" fill="#6c63ff"/><circle cx="4.866" cy="4.866" r="4.866" transform="translate(121.227 0)" fill="#6c63ff"/><circle cx="3.302" cy="3.302" r="3.302" transform="translate(119.567 104.484)" fill="#6c63ff"/><path d="M6.762,64H.961A.961.961,0,0,0,0,64.961v5.8a.961.961,0,0,0,.961.961h5.8a.961.961,0,0,0,.961-.961v-5.8A.961.961,0,0,0,6.762,64Zm3.81.758-2.2,1.521v3.166l2.2,1.519a.645.645,0,0,0,1.014-.519V65.277A.645.645,0,0,0,10.572,64.758Z" transform="translate(12.131 -27.239)" fill="#d74848"/></g></svg>