<svg xmlns="http://www.w3.org/2000/svg" xmlns:xlink="http://www.w3.org/1999/xlink" width="151.107" height="114.968" viewBox="0 0 151.107 114.968"><defs><linearGradient id="a" x1="0.5" y1="1" x2="0.5" gradientUnits="objectBoundingBox"><stop offset="0" stop-color="gray" stop-opacity="0.251"/><stop offset="0.54" stop-color="gray" stop-opacity="0.122"/><stop offset="1" stop-color="gray" stop-opacity="0.102"/></linearGradient><linearGradient id="b" x1="0.63" y1="0.974" x2="0.63" y2="-0.017" xlink:href="#a"/><linearGradient id="c" x1="0.5" y1="1" x2="0.5" y2="0" xlink:href="#a"/></defs><g transform="translate(0.002 0.022)"><path d="M113.549,78.4a9.53,9.53,0,0,0-1.457,3.631c-2.783,10.375-9.64,18.72-17.449,24.681-3.307,2.525-7.333,5.911-6.61,10.438.39,2.431,2.1,4.221,3.368,6.2a19.237,19.237,0,0,1,2.258,14.745c-1.444,5.647-5.48,10.917-4.231,16.627.77,3.515,3.386,6.016,5.9,8.166q5.885,5.028,12.144,9.42c2.8,1.963,5.773,3.872,9.033,4.121,2.871.22,5.682-.871,8.408-1.948a19.282,19.282,0,0,0,6.746-3.808c1.255-1.232,2.255-2.821,3.65-3.828,3.275-2.367,7.481-.867,11.236.146a39.122,39.122,0,0,0,26.775-2.452c12.934-6.078,22.792-18.842,35.442-25.69,5.439-2.945,11.356-4.773,16.393-8.566a30.622,30.622,0,0,0,7.206-7.8,33.729,33.729,0,0,0,5.272-20.7c-.595-7.332-3.926-14.4-9.159-18.535-5.6-4.43-12.677-5.258-19.051-7.917-6.579-2.75-12.434-7.475-18.95-10.42a38.763,38.763,0,0,0-33.437.748c-7.1,3.588-14.285,11.96-22.188,12.6C129.22,78.7,117.945,73.062,113.549,78.4Z" transform="translate(-87.95 -61.51)" fill="#e43f6f" opacity="0.1"/><path d="M951.187,273.867s-2.132-7.242.4-12.572a11.439,11.439,0,0,0,.926-7.176,19.236,19.236,0,0,0-1.016-3.368" transform="translate(-824.046 -223.054)" fill="none" stroke="#535461" stroke-miterlimit="10" stroke-width="2"/><path d="M950.2,217.678c0,.888-1.611,3.461-1.611,3.461s-1.611-2.573-1.611-3.461a1.611,1.611,0,1,1,3.213,0Z" transform="translate(-821.163 -193.349)" fill="#e43f6f"/><path d="M968.235,247.4c-.482.745-3.235,2.033-3.235,2.033s.05-3.033.532-3.779a1.611,1.611,0,0,1,2.7,1.747Z" transform="translate(-836.552 -218.156)" fill="#e43f6f"/><path d="M964.108,301.241c-.792.4-3.808.123-3.808.123s1.574-2.594,2.367-2.994a1.611,1.611,0,0,1,1.447,2.869Z" transform="translate(-832.541 -263.595)" fill="#e43f6f"/><path d="M954.139,345.569c-.713.527-3.739.766-3.739.766s1.113-2.822,1.828-3.351a1.611,1.611,0,0,1,1.9,2.583Z" transform="translate(-824.091 -301.579)" fill="#e43f6f"/><path d="M938.655,259.8c.637.618,3.6,1.26,3.6,1.26s-.732-2.945-1.364-3.565a1.611,1.611,0,1,0-2.239,2.305Z" transform="translate(-813.576 -228.348)" fill="#e43f6f"/><path d="M925.919,309.681c.792.4,3.808.123,3.808.123s-1.574-2.594-2.367-2.994a1.611,1.611,0,0,0-1.447,2.869Z" transform="translate(-802.522 -270.799)" fill="#e43f6f"/><path d="M921.639,360.578c.713.527,3.739.766,3.739.766s-1.113-2.822-1.828-3.351a1.611,1.611,0,1,0-1.9,2.583Z" transform="translate(-798.887 -314.246)" fill="#e43f6f"/><path d="M950.2,217.678c0,.888-1.611,3.461-1.611,3.461s-1.611-2.573-1.611-3.461a1.611,1.611,0,1,1,3.213,0Z" transform="translate(-821.163 -193.349)" fill="#e43f6f" opacity="0.1"/><path d="M968.235,247.4c-.482.745-3.235,2.033-3.235,2.033s.05-3.033.532-3.779a1.611,1.611,0,0,1,2.7,1.747Z" transform="translate(-836.552 -218.156)" fill="#e43f6f" opacity="0.1"/><path d="M964.108,301.241c-.792.4-3.808.123-3.808.123s1.574-2.594,2.367-2.994a1.611,1.611,0,0,1,1.447,2.869Z" transform="translate(-832.541 -263.595)" fill="#e43f6f" opacity="0.1"/><path d="M954.139,345.569c-.713.527-3.739.766-3.739.766s1.113-2.822,1.828-3.351a1.611,1.611,0,0,1,1.9,2.583Z" transform="translate(-824.091 -301.579)" fill="#e43f6f" opacity="0.1"/><path d="M938.655,259.8c.637.618,3.6,1.26,3.6,1.26s-.732-2.945-1.364-3.565a1.611,1.611,0,1,0-2.239,2.305Z" transform="translate(-813.576 -228.348)" fill="#e43f6f" opacity="0.1"/><path d="M925.919,309.681c.792.4,3.808.123,3.808.123s-1.574-2.594-2.367-2.994a1.611,1.611,0,0,0-1.447,2.869Z" transform="translate(-802.522 -270.799)" fill="#e43f6f" opacity="0.1"/><path d="M921.639,360.578c.713.527,3.739.766,3.739.766s-1.113-2.822-1.828-3.351a1.611,1.611,0,1,0-1.9,2.583Z" transform="translate(-798.887 -314.246)" fill="#e43f6f" opacity="0.1"/><path d="M1012.187,352.867s-2.132-7.242.4-12.572a11.438,11.438,0,0,0,.926-7.176,19.237,19.237,0,0,0-1.016-3.368" transform="translate(-876.112 -290.484)" fill="none" stroke="#535461" stroke-miterlimit="10" stroke-width="2"/><path d="M1011.2,296.678c0,.888-1.611,3.461-1.611,3.461s-1.611-2.573-1.611-3.461a1.611,1.611,0,1,1,3.213,0Z" transform="translate(-873.229 -260.778)" fill="#e43f6f"/><path d="M1029.269,325.287c-.482.745-3.229,2.031-3.229,2.031s.05-3.033.532-3.779a1.611,1.611,0,1,1,2.7,1.747Z" transform="translate(-888.653 -284.473)" fill="#e43f6f"/><path d="M1025.108,379.621c-.792.4-3.808.123-3.808.123s1.574-2.594,2.367-2.994a1.611,1.611,0,1,1,1.447,2.869Z" transform="translate(-884.607 -330.405)" fill="#e43f6f"/><path d="M1015.139,424.569c-.713.527-3.739.766-3.739.766s1.113-2.822,1.828-3.351a1.611,1.611,0,0,1,1.9,2.583Z" transform="translate(-876.157 -369.01)" fill="#e43f6f"/><path d="M1000.618,339.731c.637.618,3.6,1.26,3.6,1.26s-.732-2.945-1.364-3.565a1.611,1.611,0,0,0-2.239,2.305Z" transform="translate(-866.605 -296.712)" fill="#e43f6f"/><path d="M986.919,388.681c.792.4,3.808.123,3.808.123s-1.574-2.594-2.367-2.994a1.611,1.611,0,0,0-1.447,2.869Z" transform="translate(-854.588 -338.229)" fill="#e43f6f"/><path d="M982.639,439.579c.713.527,3.739.766,3.739.766s-1.113-2.822-1.828-3.351a1.611,1.611,0,1,0-1.9,2.583Z" transform="translate(-850.954 -381.676)" fill="#e43f6f"/><path d="M1011.2,296.678c0,.888-1.611,3.461-1.611,3.461s-1.611-2.573-1.611-3.461a1.611,1.611,0,1,1,3.213,0Z" transform="translate(-873.229 -260.778)" fill="#e43f6f" opacity="0.1"/><path d="M1029.269,325.287c-.482.745-3.229,2.031-3.229,2.031s.05-3.033.532-3.779a1.611,1.611,0,1,1,2.7,1.747Z" transform="translate(-888.653 -284.473)" fill="#e43f6f" opacity="0.1"/><path d="M1025.108,379.621c-.792.4-3.808.123-3.808.123s1.574-2.594,2.367-2.994a1.611,1.611,0,1,1,1.447,2.869Z" transform="translate(-884.607 -330.405)" fill="#e43f6f" opacity="0.1"/><path d="M1015.139,424.569c-.713.527-3.739.766-3.739.766s1.113-2.822,1.828-3.351a1.611,1.611,0,0,1,1.9,2.583Z" transform="translate(-876.157 -369.01)" fill="#e43f6f" opacity="0.1"/><path d="M1000.618,339.731c.637.618,3.6,1.26,3.6,1.26s-.732-2.945-1.364-3.565a1.611,1.611,0,0,0-2.239,2.305Z" transform="translate(-866.605 -296.712)" fill="#e43f6f" opacity="0.1"/><path d="M986.919,388.681c.792.4,3.808.123,3.808.123s-1.574-2.594-2.367-2.994a1.611,1.611,0,0,0-1.447,2.869Z" transform="translate(-854.588 -338.229)" fill="#e43f6f" opacity="0.1"/><path d="M982.639,439.579c.713.527,3.739.766,3.739.766s-1.113-2.822-1.828-3.351a1.611,1.611,0,1,0-1.9,2.583Z" transform="translate(-850.954 -381.676)" fill="#e43f6f" opacity="0.1"/><ellipse cx="72.37" cy="11.649" rx="72.37" ry="11.649" transform="matrix(0.995, -0.097, 0.097, 0.995, 4.787, 70.433)" fill="#e43f6f" opacity="0.1"/><path d="M246.787,337.387c2.708-5.551,2.148-14.586,1.86-17.652-.063-.671-.113-1.056-.113-1.056s-2.387-.376-1.507-3.266c.431-1.415-1.1-2.2-2.768-2.626a19.5,19.5,0,0,0-3.638-.514L217.5,310.845h0c-3.171-5.032-9.41-4.224-9.41-4.224s-5.565-.579-9.511-.639a10.62,10.62,0,0,0-1.957-1.366,6.444,6.444,0,0,0-1.327-.6,3.76,3.76,0,0,0-3.322.622,1.767,1.767,0,0,0-.54.628,1.719,1.719,0,0,0-.11.353,6.31,6.31,0,0,0-.146.628,1.082,1.082,0,0,1-.146.286c-.158.224-.431.393-.466.663a.444.444,0,0,0,0,.047.492.492,0,0,0-.057.167.6.6,0,0,0,.075.347.559.559,0,0,0,.029.05,4.133,4.133,0,0,0-.473.908,1.516,1.516,0,0,0-.157.1l-.044.032v.089l-.025.019-.054,1.443.031.023a4.271,4.271,0,0,0,1.986,3.333c.019.092.037.186.054.284a7.741,7.741,0,0,1,.108,1.432h-.025c-.688-.293-1.866.138-2.878.64H176.022a41.086,41.086,0,0,1,5.685-5.841v-2.891c-2.235-.111-21.869,9.32-26.173,11.4l-.19.092-22.122.685a34.09,34.09,0,0,0-10.545,1.523,30.008,30.008,0,0,0-13.2,8.436,24.666,24.666,0,0,0-3.758,5.237l.025.2-.025.051.035.031.6,4.7.41,3.237c-2.85,1.842.842,2.581.842,2.581,3.515,3.014,9.17,2.89,9.17,2.89,1.381,1.885,5.4,1.633,5.4,1.633h21.1a51.132,51.132,0,0,1,1.318-5.741c.9,6.487,6.019,11.456,12.2,11.456a11.41,11.41,0,0,0,1.371-.083,11.4,11.4,0,0,0,1.371.083c6.249,0,11.413-5.086,12.226-11.681h1.033a23.018,23.018,0,0,1-1,4.334c18.968-5.527,54.265-8.165,54.265-8.165q.22-2.087.482-4.026a9.4,9.4,0,0,0,8.588,6.131,8.468,8.468,0,0,1,2.086,0c4.556,0,8.348-3.555,9.2-8.267a21.539,21.539,0,0,1,.193,2.509c-.163.8-.3,1.311-.324,1.383q.171-.313.325-.641v.261c-.035.146-.06.228-.067.256l.064-.12v.192A5.711,5.711,0,0,1,246.787,337.387Z" transform="translate(-103.082 -268.388)" fill="url(#a)"/><rect width="43.483" height="17.541" transform="translate(98.01 49.054)" fill="#6f7d95"/><path d="M593.73,276.1l6.176,13.836,12.231-.741.494-5.682.371-6.671L595.707,275.6Z" transform="translate(-506.776 -235.256)" fill="#4b5c7a"/><path d="M681.68,323.84a11.572,11.572,0,0,1,5.189-2.718c2.846-.495,12.354.494,12.354.494l1.359,2.343-.255,1.116Z" transform="translate(-594.726 -283)" fill="#ff4d52"/><rect width="43.853" height="12.847" transform="translate(66.385 47.942)" fill="#4b5c7a"/><path d="M635.145,327.562a6.91,6.91,0,0,0-1.151-6.419l-3.828-2.671a.182.182,0,0,1-.012.026,4.98,4.98,0,0,1-1.041-2.018c-.012-.047-.022-.1-.034-.146a4.119,4.119,0,0,0,.908-.93,2.244,2.244,0,0,0,1.008-1.611,8.035,8.035,0,0,0,.951-1.923,3.4,3.4,0,0,0,.1-.335,1.757,1.757,0,0,0,.1-.658,1.8,1.8,0,0,0-.243-.7,7.385,7.385,0,0,0-2.98-2.652,6.343,6.343,0,0,0-1.3-.595,3.7,3.7,0,0,0-3.266.612,1.737,1.737,0,0,0-.532.618,1.694,1.694,0,0,0-.108.347,6.219,6.219,0,0,0-.139.618,1.067,1.067,0,0,1-.138.28c-.157.22-.423.385-.458.653a.428.428,0,0,0,0,.047.482.482,0,0,0-.056.164.586.586,0,0,0,.073.341.555.555,0,0,0,.029.05,4.065,4.065,0,0,0-.466.893,1.484,1.484,0,0,0-.155.1l-.042.031v.088l-.025.019-.054,1.419.029.023a4.2,4.2,0,0,0,1.952,3.279c.019.091.037.183.053.28a7.52,7.52,0,0,1,.105,1.548.524.524,0,0,1,0-.135c-1.059-.479-3.369.845-4.3,1.431h0a1.764,1.764,0,0,0-.391.253l-.016.012h0c-.64.518-1.9,1.96-2.907,5.663-1.391,5.168-1.246,6.34-2.26,7.538s-2.02,9.638-2.02,9.638l2.04.549.261-.838c2.425,2.211,9.216,3.276,9.216,3.276l.208-.646a5.473,5.473,0,0,0,2.783-.195c2.545-.9,3.5-3.181,5.346-6.191S635.145,327.562,635.145,327.562Zm-10.267,15.573,4.7-14.583c.426,2.264-1.454,5.83-1.621,8.162C627.854,338.214,626.108,341.194,624.878,343.135Z" transform="translate(-535.695 -270.879)" fill="url(#b)"/><path d="M719.825,343.763s.819,3.118-1.611,3.661-.829-1.4-.829-1.4l2.343-2.283Z" transform="translate(-624.76 -302.425)" fill="#472727"/><path d="M625.595,394.64s-1.807.732-3.136,5.665-1.2,6.046-2.153,7.192-1.936,9.193-1.936,9.193l1.913.516,1.665-5.378,4.58-14.206Z" transform="translate(-540.689 -345.87)" fill="#dde0e4"/><path d="M625.595,394.64s-1.807.732-3.136,5.665-1.2,6.046-2.153,7.192-1.936,9.193-1.936,9.193l1.913.516,1.665-5.378,4.58-14.206Z" transform="translate(-540.689 -345.87)" opacity="0.05"/><path d="M697.934,356.273s-7.566,3.846-6.459,1.337a6.242,6.242,0,0,0,.368-3.515,7.505,7.505,0,0,0-.476-1.7s5.143-4.069,4.842-.747a6.356,6.356,0,0,0,.146,2.135A4.283,4.283,0,0,0,697.934,356.273Z" transform="translate(-602.992 -308.059)" fill="#db8b8b"/><path d="M696.334,353.8a3.954,3.954,0,0,1-3.515.732,4,4,0,0,1-1-.423,7.508,7.508,0,0,0-.476-1.7s5.144-4.069,4.842-.747a6.355,6.355,0,0,0,.152,2.14Z" transform="translate(-602.972 -308.068)" opacity="0.1"/><circle cx="3.96" cy="3.96" r="3.96" transform="translate(86.084 45.234) rotate(-74.93)" fill="#db8b8b"/><path d="M687.211,316.082a.945.945,0,0,1-1.318-.347.568.568,0,0,1-.067-.325c.034-.255.286-.413.439-.624.239-.341.193-.808.366-1.188a1.67,1.67,0,0,1,.5-.586,3.443,3.443,0,0,1,3.068-.6,5.847,5.847,0,0,1,1.221.561,6.813,6.813,0,0,1,2.783,2.515,1.716,1.716,0,0,1,.226.669,1.9,1.9,0,0,1-.132.747,7.787,7.787,0,0,1-.912,1.856,1.43,1.43,0,0,0-.475-.382.489.489,0,0,0-.562.1c-.127.163-.205.473-.4.4-.126-.047-.124-.221-.119-.356a2.034,2.034,0,0,0-.722-1.533,6.047,6.047,0,0,0-1.485-.912,6.25,6.25,0,0,0-1.292-.682C687.821,315.3,687.579,315.855,687.211,316.082Z" transform="translate(-598.263 -275.574)" opacity="0.1"/><path d="M687.581,314.712a.945.945,0,0,1-1.318-.347.567.567,0,0,1-.067-.325c.034-.255.286-.413.439-.624.239-.341.193-.808.366-1.188a1.67,1.67,0,0,1,.5-.586,3.443,3.443,0,0,1,3.068-.6,5.845,5.845,0,0,1,1.221.561,6.813,6.813,0,0,1,2.783,2.515,1.718,1.718,0,0,1,.226.669,1.9,1.9,0,0,1-.132.747,7.786,7.786,0,0,1-.912,1.856,1.43,1.43,0,0,0-.475-.382.489.489,0,0,0-.562.1c-.127.163-.205.473-.4.4-.126-.047-.124-.221-.119-.356a2.034,2.034,0,0,0-.722-1.533,6.047,6.047,0,0,0-1.485-.912,6.25,6.25,0,0,0-1.292-.682C688.191,313.933,687.949,314.485,687.581,314.712Z" transform="translate(-598.579 -274.404)" fill="#472727"/><path d="M640.2,386.055s3.133-.614,3.269-1.116l3.582,2.529a6.621,6.621,0,0,1,1.053,6.112s-.9,7.746-2.643,10.621-2.749,6.6-5.141,7.469c0,0-2.3-1.482-3.058-1.465,0,0,3.894-5.643,4.061-7.865s1.946-5.628,1.557-7.784l-5.272,16.388s-8.494-1.318-9.356-4.137a3.779,3.779,0,0,0,.6-2.214c-.136-1.115,3.2-9.5,3.2-9.5l1.6-8.743s3.163-2.21,4.423-1.636C638.067,384.706,637.839,385.8,640.2,386.055Z" transform="translate(-549.122 -337.318)" fill="#dde0e4"/><g transform="translate(86.951 40.997)" opacity="0.1"><path d="M686.926,342.51h0c-.773-1.054-2.248-.189-2.49-.038l-.379-.038c-.331-.36-1.346-1.318-2.3-.614l-.041.031-.057,1.352.041.032a2.824,2.824,0,0,0,.921.472,1.39,1.39,0,0,0,.65.032,1.122,1.122,0,0,0,.748-.586l.2.013.146-.028a1.115,1.115,0,0,0,.527.753,2.284,2.284,0,0,0,1.651-.007l.05-.019.352-1.308Zm-.5,1.189a1.958,1.958,0,0,1-1.424,0,.946.946,0,0,1-.439-.712l-.018-.107-.321.066-.322-.012-.031.062a.951.951,0,0,1-.643.539,1.979,1.979,0,0,1-1.358-.431l.048-1.142c.829-.558,1.743.347,2.006.643l.028.031.535.053.032-.022c.015-.009,1.343-.9,2.1-.183a.977.977,0,0,1,.1.113Z" transform="translate(-681.66 -341.569)"/><path d="M718.226,348.534l-2.49-.206-.205-.04.092-.346a.983.983,0,0,0-.1-.113l.3.029,2.037.2Z" transform="translate(-710.561 -346.913)"/></g><path d="M687.106,341.87h0c-.773-1.054-2.248-.189-2.49-.038l-.379-.038c-.331-.36-1.346-1.318-2.3-.614l-.041.031-.057,1.352.041.032a2.824,2.824,0,0,0,.921.472,1.39,1.39,0,0,0,.65.032,1.122,1.122,0,0,0,.748-.586l.2.013.146-.028a1.115,1.115,0,0,0,.527.753,2.284,2.284,0,0,0,1.651-.007l.05-.019.351-1.308Zm-.5,1.189a1.958,1.958,0,0,1-1.424,0,.946.946,0,0,1-.439-.712l-.018-.107-.321.066-.318-.021-.031.062a.951.951,0,0,1-.64.545,1.978,1.978,0,0,1-1.358-.431l.048-1.142c.829-.558,1.743.347,2.006.643l.028.031.535.053.032-.022c.015-.009,1.343-.9,2.1-.183a.977.977,0,0,1,.1.113Z" transform="translate(-594.863 -300.025)" fill="#472727"/><path d="M718.438,347.894l-2.481-.206-.205-.04.092-.346a.969.969,0,0,0-.1-.113l.3.029,2.037.2Z" transform="translate(-623.798 -305.37)" fill="#472727"/><rect width="43.483" height="17.541" transform="translate(34.143 57.948)" fill="#6f7d95"/><ellipse cx="12.134" cy="13.279" rx="12.134" ry="13.279" transform="translate(41.91 60.419)" fill="#4b5c7a"/><ellipse cx="12.134" cy="13.279" rx="12.134" ry="13.279" transform="translate(41.91 60.419)" opacity="0.05"/><ellipse cx="12.134" cy="13.279" rx="12.134" ry="13.279" transform="translate(44.606 60.419)" fill="#4b5c7a"/><circle cx="5.393" cy="5.393" r="5.393" transform="translate(51.078 68.373)" opacity="0.05"/><circle cx="1.618" cy="1.618" r="1.618" transform="translate(54.852 72.147)" fill="none" stroke="#6f7d95" stroke-miterlimit="10" stroke-width="2"/><circle cx="0.404" cy="0.404" r="0.404" transform="translate(56.066 70.53)" fill="#6f7d95"/><circle cx="0.404" cy="0.404" r="0.404" transform="matrix(0.766, -0.643, 0.643, 0.766, 58.113, 71.665)" fill="#6f7d95"/><circle cx="0.404" cy="0.404" r="0.404" transform="translate(59.041 74.24) rotate(-80)" fill="#6f7d95"/><circle cx="0.404" cy="0.404" r="0.404" transform="translate(57.802 75.81) rotate(-30)" fill="#6f7d95"/><circle cx="0.404" cy="0.404" r="0.404" transform="matrix(0.342, -0.94, 0.94, 0.342, 55.529, 76.629)" fill="#6f7d95"/><circle cx="0.404" cy="0.404" r="0.404" transform="matrix(0.94, -0.342, 0.342, 0.94, 53.716, 74.656)" fill="#6f7d95"/><circle cx="0.404" cy="0.404" r="0.404" transform="translate(53.659 72.698) rotate(-60)" fill="#6f7d95"/><path d="M1006.085,424.636a34.92,34.92,0,0,1-1.567,5.994q.012-.293.015-.578v-.732a19.907,19.907,0,0,0-7.217-15.085A15.584,15.584,0,0,0,995,412.6h7.535s2.964,6.053,3.582,9.017A9.038,9.038,0,0,1,1006.085,424.636Z" transform="translate(-862.159 -361.2)" fill="#ff4d52"/><path d="M1006.085,424.636a34.92,34.92,0,0,1-1.567,5.994q.012-.293.015-.578v-.732a19.907,19.907,0,0,0-7.217-15.085A15.584,15.584,0,0,0,995,412.6h7.535s2.964,6.053,3.582,9.017A9.038,9.038,0,0,1,1006.085,424.636Z" transform="translate(-862.159 -361.2)" opacity="0.05"/><ellipse cx="9.228" cy="10.1" rx="9.228" ry="10.1" transform="translate(121.851 53.593)" fill="#4b5c7a"/><ellipse cx="9.228" cy="10.1" rx="9.228" ry="10.1" transform="translate(121.851 53.593)" opacity="0.05"/><ellipse cx="9.228" cy="10.1" rx="9.228" ry="10.1" transform="translate(123.902 53.593)" fill="#4b5c7a"/><circle cx="4.101" cy="4.101" r="4.101" transform="translate(128.824 59.643)" opacity="0.05"/><circle cx="1.23" cy="1.23" r="1.23" transform="translate(131.695 62.513)" fill="none" stroke="#6f7d95" stroke-miterlimit="10" stroke-width="2"/><circle cx="0.308" cy="0.308" r="0.308" transform="translate(132.617 61.283)" fill="#6f7d95"/><circle cx="0.308" cy="0.308" r="0.308" transform="matrix(0.766, -0.643, 0.643, 0.766, 134.174, 62.145)" fill="#6f7d95"/><circle cx="0.308" cy="0.308" r="0.308" transform="translate(134.88 64.105) rotate(-80)" fill="#6f7d95"/><circle cx="0.308" cy="0.308" r="0.308" transform="translate(133.939 65.299) rotate(-30)" fill="#6f7d95"/><circle cx="0.308" cy="0.308" r="0.308" transform="matrix(0.342, -0.94, 0.94, 0.342, 132.209, 65.922)" fill="#6f7d95"/><circle cx="0.308" cy="0.308" r="0.308" transform="matrix(0.94, -0.342, 0.342, 0.94, 130.83, 64.42)" fill="#6f7d95"/><circle cx="0.308" cy="0.308" r="0.308" transform="translate(130.789 62.931) rotate(-60)" fill="#6f7d95"/><path d="M115.116,523.011,114,514.24h13.218l6.794,6.053-3.335,7.783S117.222,525.852,115.116,523.011Z" transform="translate(-110.187 -447.954)" fill="#ff4d52"/><path d="M134.059,520.3l-3.335,7.783s-13.459-2.223-15.565-5.065l-.048-.382-1.025-8.111-.01-.081-.025-.2h13.218Z" transform="translate(-110.229 -447.962)" opacity="0.05"/><path d="M469.557,330.364v2.841s-6.831,5.565-8.456,10.816a6.617,6.617,0,0,0-.315,2.649c.618,5.806-17.786-4.7-17.786-4.7l.819-.4C448.05,339.537,467.359,330.253,469.557,330.364Z" transform="translate(-391.003 -291.007)" fill="#7597ce"/><path d="M729.884,348.995s6.4-3.143,7.424-5.469c.138-.312.268-.627.42-.933.634-1.276,1.967-4.268,1.3-5.7-.864-1.853,2.1.248,2.1.248L739.4,345.9l-4.2,2.343-5.435.747" transform="translate(-635.765 -295.925)" fill="#ff4d52"/><path d="M729.884,348.995s6.4-3.143,7.424-5.469c.138-.312.268-.627.42-.933.634-1.276,1.967-4.268,1.3-5.7-.864-1.853,2.1.248,2.1.248L739.4,345.9l-4.2,2.343-5.435.747" transform="translate(-635.765 -295.925)" opacity="0.05"/><path d="M134.033,520.31l-3.335,7.783s-13.459-2.223-15.565-5.064l-.048-.382c.054-.037.111-.075.171-.111,0,0,4.076,3.212,13.342,3.954,0,0,5.565-4.448-3.459-9.388,0,0-7.85.246-11.084-2.564l-.035-.029.025-.051q.032-.063.1-.2h13.089Z" transform="translate(-110.204 -447.971)" opacity="0.05"/><path d="M460.786,412.022c.618,5.807-17.786-4.694-17.786-4.694l.819-.4c.542.577,2.705,2.523,7.03,2.313,2.783-.136,7.008-.012,10.259.13A6.617,6.617,0,0,0,460.786,412.022Z" transform="translate(-391.003 -356.36)" opacity="0.05"/><path d="M364.583,457.31v17.541H356.5c.533-4.08.226-10.028-4.956-13.437a12.534,12.534,0,0,0-13.079-.39c-3.4,1.939-7.194,5.882-9.608,13.827H321.1V457.31Z" transform="translate(-286.956 -399.362)" opacity="0.05"/><path d="M1006.085,424.636a20.178,20.178,0,0,1-1.551,5.419q-.146.324-.319.631c.019-.072.158-.573.319-1.361.785-3.837,2.128-14.455-6.87-15.062-.117-.007-.233-.015-.349-.019A15.583,15.583,0,0,0,995,412.6h7.535s2.964,6.053,3.582,9.017A9.038,9.038,0,0,1,1006.085,424.636Z" transform="translate(-862.159 -361.2)" opacity="0.05"/><path d="M252.293,376.929c.117-.423,4.291-15.69-6.551-16.421-10.994-.741-12.354,7.535-13.588,18.777,0,0-34.71,2.594-53.366,8.03,0,0,4.479-12.273-3.954-17.824a12.534,12.534,0,0,0-13.079-.39c-4.159,2.376-8.924,7.762-11.008,19.818H129.992s-3.954.248-5.312-1.611c0,0-5.565.123-9.017-2.841,0,0-3.705-.741-.741-2.594,0,0,4.2,3.212,13.465,3.954,0,0,5.565-4.448-3.459-9.388,0,0-7.909.247-11.117-2.594a24.232,24.232,0,0,1,3.7-5.149,29.511,29.511,0,0,1,12.98-8.3,33.617,33.617,0,0,1,10.376-1.5l21.8-.68s2.106,2.718,7.165,2.471,14.947.371,14.947.371h.1l20.346-.921a12.945,12.945,0,0,0,1.73-.366c2.95-.8,8.544-3.231,7.535-10.016l31.995,1.977a19.175,19.175,0,0,1,3.578.505c1.643.422,3.146,1.192,2.723,2.583-.864,2.841,1.482,3.212,1.482,3.212s.05.379.111,1.038C254.668,362.184,255.244,371.528,252.293,376.929Z" transform="translate(-109.992 -307.563)" fill="#ff4d52"/><path d="M262.645,442.55s-13.342.123-22.115,7.909h4.941s13.836-3.582,17.171-6.424Z" transform="translate(-218.185 -386.763)" opacity="0.05"/><path d="M261.795,441.7s-13.342.123-22.115,7.909h4.941s13.836-3.582,17.171-6.424Z" transform="translate(-217.46 -386.038)" fill="#ffec9f"/><path d="M153.1,423.25v3.32l-11.239,5.189-1.74-.209a29.511,29.511,0,0,1,12.979-8.3Z" transform="translate(-132.481 -370.29)" opacity="0.05"/><path d="M152.24,422.41v3.32L141,430.918l-1.74-.209A29.511,29.511,0,0,1,152.24,422.41Z" transform="translate(-131.747 -369.573)" fill="#ffec9f"/><path d="M297.821,525.21a15.764,15.764,0,0,0-6.671,11.863h3.459s1.359-8.894,5.312-11.863Z" transform="translate(-261.392 -457.317)" fill="none"/><path d="M297.821,525.21a15.764,15.764,0,0,0-6.671,11.863h3.459s1.359-8.894,5.312-11.863Z" transform="translate(-261.392 -457.317)" opacity="0.05"/><path d="M632.074,419.627,600.7,423.332s-2.075-13.21-1.692-18.35l20.346-.921a12.939,12.939,0,0,0,1.728-.362v1.226L636.4,401.22S638.991,405.048,632.074,419.627Z" transform="translate(-524.118 -351.486)" fill="none"/><path d="M632.074,419.627,600.7,423.332s-2.075-13.21-1.692-18.35l20.346-.921a12.939,12.939,0,0,0,1.728-.362v1.226L636.4,401.22S638.991,405.048,632.074,419.627Z" transform="translate(-524.118 -351.486)" opacity="0.05"/><path d="M801.46,325.026s6.671-.864,9.635,4.818l-9.54-.368Z" transform="translate(-696.964 -286.412)" fill="#ff4d52"/><path d="M863.522,362.329c-.262.822-.064,1.725,1.454,2.351a2.376,2.376,0,0,0,3.178-1.378c.252-.756.079-1.611-1.283-2.307A2.306,2.306,0,0,0,863.522,362.329Z" transform="translate(-749.853 -316.905)" fill="none"/><path d="M863.522,362.329c-.262.822-.064,1.725,1.454,2.351a2.376,2.376,0,0,0,3.178-1.378c.252-.756.079-1.611-1.283-2.307A2.306,2.306,0,0,0,863.522,362.329Z" transform="translate(-749.853 -316.905)" opacity="0.05"/><path d="M115.63,526.88s7.917,4.1,13.6,2.548" transform="translate(-111.578 -458.743)" fill="none" stroke="#ff4d52" stroke-miterlimit="10" stroke-width="1"/><path d="M117.54,542s5.116,3.945,15.456,3.029" transform="translate(-113.208 -471.648)" fill="none" stroke="#ff4d52" stroke-miterlimit="10" stroke-width="1"/><path d="M119.15,554.69s5.075,4.4,15.5,3.008" transform="translate(-114.582 -482.48)" fill="none" stroke="#ff4d52" stroke-miterlimit="10" stroke-width="1"/><path d="M818.634,353.67a37.3,37.3,0,0,1-7.894,5.174A7.189,7.189,0,0,0,818.634,353.67Z" transform="translate(-704.885 -310.9)" opacity="0.05"/><path d="M566.1,421.345s19.584,1.85,26.995.12c0,0,.4.262-1.964-.8Z" transform="translate(-496.074 -368.088)" opacity="0.1"/><path d="M1048.666,373.535c-1.22-.8-3.155-2.463-2.891-4.313a2.974,2.974,0,0,0-1.425-2.522c1.643.422,3.146,1.192,2.723,2.583-.864,2.841,1.482,3.212,1.482,3.212S1048.6,372.876,1048.666,373.535Z" transform="translate(-904.281 -322.022)" opacity="0.05"/><path d="M261.074,258.089c.012-.489,0-1-.037-1.465a2.5,2.5,0,0,0-.023-.261,5.264,5.264,0,0,1,.439.366l-.242-12.718-1.333-6.662c0-4.725-2.544-6.056-2.544-6.056a3.862,3.862,0,0,1-1.7-1.453c-.363-.847-3.582-2.636-3.584-2.636a9.107,9.107,0,0,1-.029-.927c0-.081,0-.164.007-.247a4,4,0,0,0,1.387-5.079c.179,0,.324-.075.391-.34a3.81,3.81,0,0,0-.479-2.774,2.725,2.725,0,0,0-.35-.388,6.009,6.009,0,0,0-.476-.429,2.175,2.175,0,0,0-1.394-.68,2.087,2.087,0,0,0-.825.293q-1.932,1.016-3.853,2.05a3.594,3.594,0,0,0-1.292.986,3.779,3.779,0,0,0-.557,1.627,3.989,3.989,0,0,0-.054,1.191,1.539,1.539,0,0,0,.467.949,1.045,1.045,0,0,0,.18.171,7.928,7.928,0,0,0,.868.391,4,4,0,0,0,1.006,1.577c0,.075-.01.146-.016.228-.016.209-.041.439-.073.672h0s-.895-.023-2.228,1.793-4.24,2.059-4.24,2.059-1.09-.485-2.3,4.966-1.574,9.08-.97,9.69a3.3,3.3,0,0,0,.858.536,10.517,10.517,0,0,0,3.27,1.025.293.293,0,0,0,.072.116l.086,1.056h0c.073,2.229.158,6.7-.293,7.692a2.061,2.061,0,0,0,.122,2.181l.146-.01a1.112,1.112,0,0,0,.091.132l.586-.04a38.545,38.545,0,0,1-.458,6.7c-.485,1.211,0,7.873,0,7.873l-.848,11.992s-.464,6.26-.029,6.984a27.729,27.729,0,0,0-.576,4.4c.122.848,2.907,2.059,2.907,2.059a18.585,18.585,0,0,0,4.845.485A1.216,1.216,0,0,0,249.158,297a12.648,12.648,0,0,0,3.329.2c1.574-.242,1.333-2.059.485-1.938s-1.818-1.583-2.538-2.431a5.832,5.832,0,0,1-.879-1.847.677.677,0,0,0,.4-.212c.363-.606.97-6.178.97-6.178l1.574-9.69s.848-4.725,1.574-5.814c.549-.823,1.236-6.965,1.539-9.924h.035l.032-.1.455-1.47a2.044,2.044,0,0,0,1.569.732c-.076.311-.139.564-.176.709-.182.732,2.466,1.938,3.1,1.333a4.171,4.171,0,0,0,.439-2.176h.022ZM245.16,291.121c-.041.236-.082.482-.123.732-.092-.293-.165-.557-.215-.751C244.941,291.106,245.054,291.112,245.16,291.121Z" transform="translate(-215.12 -193.682)" fill="url(#c)"/><path d="M295.606,707.661a8.934,8.934,0,0,0,1.172,2.916c.7.816,1.633,2.449,2.449,2.333s1.05,1.633-.467,1.866a18.144,18.144,0,0,1-4.666-.467s-2.683-1.172-2.8-1.983a37.243,37.243,0,0,1,.7-5.016Z" transform="translate(-261.506 -612.748)" fill="#53526b"/><path d="M295.606,707.661a8.934,8.934,0,0,0,1.172,2.916c.7.816,1.633,2.449,2.449,2.333s1.05,1.633-.467,1.866a18.144,18.144,0,0,1-4.666-.467s-2.683-1.172-2.8-1.983a37.243,37.243,0,0,1,.7-5.016Z" transform="translate(-261.506 -612.748)" opacity="0.05"/><path d="M266.136,714.04a8.934,8.934,0,0,0,1.172,2.916c.7.816,1.633,2.449,2.449,2.333s1.05,1.633-.467,1.866a18.164,18.164,0,0,1-4.666-.466s-2.683-1.172-2.8-1.983a37.248,37.248,0,0,1,.7-5.016Z" transform="translate(-236.352 -618.193)" fill="#53526b"/><path d="M303.934,497.86S303,507.891,302.3,508.941s-1.516,5.6-1.516,5.6l-1.516,9.331a47.6,47.6,0,0,1-.933,5.949c-.347.583-4.676.332-4.676.332l2.686-30.892Z" transform="translate(-263.534 -433.973)" fill="#5f5d7e"/><path d="M303.934,497.86S303,507.891,302.3,508.941s-1.516,5.6-1.516,5.6l-1.516,9.331a47.6,47.6,0,0,1-.933,5.949c-.347.583-4.676.332-4.676.332l2.686-30.892Z" transform="translate(-263.534 -433.973)" opacity="0.05"/><path d="M280.818,465.21l-.3.968-1.648,5.23-.032.1h-.009c-.221.05-4.89,1.123-5.9,1.453a1.417,1.417,0,0,0-.16.06c-.467.233-1.05,8.631-1.05,8.631s-.35,7.932-.586,8.515-1.172,12.6-1.75,12.247-4.782,0-4.782,0c-.467-.467,0-6.765,0-6.765l.816-11.548s-.467-6.415,0-7.582.467-8.981.467-8.981l9.553-1.479.923-.146Z" transform="translate(-238.553 -406.105)" fill="#5f5d7e"/><path d="M329.676,469.959l-1.648,5.23-.04.1c-.221.05-4.89,1.123-5.9,1.453h-.1l2.608-6.905.075-.2.848.054Z" transform="translate(-287.715 -409.886)" opacity="0.02"/><path d="M292.613,305.93s4.316,4.666,7,.816l2.566,1.75-.467,2.683,1.516,20.3a23.665,23.665,0,0,0-6.765.816,4.341,4.341,0,0,1-4.549-1.05l.467-17.846-1.05-5.482Z" transform="translate(-261.546 -270.152)" opacity="0.1"/><path d="M292.621,303.54s4.316,4.666,7,.816l2.566,1.75-.467,2.683,1.517,20.3a23.665,23.665,0,0,0-6.765.816,4.341,4.341,0,0,1-4.549-1.05l.467-17.846-1.05-5.482Z" transform="translate(-261.554 -268.112)" fill="#53526b"/><g transform="translate(31.709 55.725)"><g transform="translate(7.939 0.001)"><path d="M270.96,383.91v.734h.236v-.489h.857v.489h.236v-.732H270.96" transform="translate(-270.926 -383.43)" fill="#e82127"/><path d="M358.925,442.383h.905a.334.334,0,0,0,.246-.243h-1.4a.335.335,0,0,0,.246.243" transform="translate(-358.68 -442.14)" fill="#e82127"/></g><g transform="translate(6.175 0.001)"><path d="M347.717,443.354a.337.337,0,0,0,.207-.239h-1.056v-.975h-.237v1.214h1.085" transform="translate(-346.63 -442.14)" fill="#e82127"/></g><g transform="translate(4.11 0.001)"><path d="M332.838,442.379h.836a.366.366,0,0,0,.258-.239H332.6v.712h1.087v.252h-.852a.476.476,0,0,0-.3.246h1.387v-.732h-1.085v-.24" transform="translate(-332.53 -442.14)" fill="#e82127"/></g><g transform="translate(2.109)"><path d="M319.115,442.373h.905a.334.334,0,0,0,.246-.243h-1.4a.335.335,0,0,0,.246.243" transform="translate(-318.87 -442.13)" fill="#e82127"/><path d="M319.115,445.643h.905a.332.332,0,0,0,.246-.243h-1.4a.335.335,0,0,0,.246.243" transform="translate(-318.87 -444.921)" fill="#e82127"/><path d="M319.115,449.013h.905a.334.334,0,0,0,.246-.243h-1.4a.335.335,0,0,0,.246.243" transform="translate(-318.87 -447.797)" fill="#e82127"/></g><g transform="translate(0 0.003)"><path d="M304.47,442.15a.338.338,0,0,0,.245.242h.381l.019.007v.961h.237V442.4l.022-.007h.381a.343.343,0,0,0,.245-.242H304.47" transform="translate(-304.47 -442.15)" fill="#e82127"/></g></g><g transform="translate(32.129 44.867)"><path d="M313.721,381.255l1.188-6.683c1.132,0,1.489.124,1.542.631a2.661,2.661,0,0,0,1.142-.858,8.4,8.4,0,0,0-3-.725l-.879,1.068h0l-.879-1.068a8.4,8.4,0,0,0-3,.725,2.661,2.661,0,0,0,1.142.858c.051-.507.409-.631,1.533-.633l1.2,6.684" transform="translate(-309.474 -372.795)" fill="#e82127"/><path d="M311.587,368.5a9.791,9.791,0,0,1,4.009.8,3.257,3.257,0,0,0,.239-.492,11.312,11.312,0,0,0-8.494,0,4.108,4.108,0,0,0,.243.492,9.791,9.791,0,0,1,4.008-.8h0" transform="translate(-307.34 -367.989)" fill="#e82127"/></g><path d="M361.42,468.39s0,3.033.7,4.316,4.782.586,4.782.586l-.816-4.316Z" transform="translate(-321.37 -408.819)" fill="#d39999"/><path d="M378.349,484.379c-.615.586-3.165-.586-2.989-1.283.123-.494.554-2.26.8-3.262l.17-.7s1.494-.467,2.021,0a3.326,3.326,0,0,1,.39,1.648C378.847,482.182,378.74,484.008,378.349,484.379Z" transform="translate(-333.261 -417.809)" fill="#fdc2cc"/><path d="M305.713,271.727l-4.082,3.149s-6.065-.35-4.549-3.266a10.873,10.873,0,0,0,1.172-4.121,8.615,8.615,0,0,0,0-1.595s5.6-5.126,4.9.7a13.219,13.219,0,0,0-.1,1.347C302.979,272.314,305.713,271.727,305.713,271.727Z" transform="translate(-266.248 -234.201)" fill="#fdc2cc"/><path d="M311.367,266.585a13.227,13.227,0,0,0-.1,1.347,3.823,3.823,0,0,1-2.119.636c-1.044,0-1.813-1.016-2.507-1.692.078-.968-.174-.991-.174-.991S312.068,260.752,311.367,266.585Z" transform="translate(-274.468 -234.19)" opacity="0.1"/><circle cx="3.849" cy="3.849" r="3.849" transform="translate(30.835 26.446)" fill="#fdc2cc"/><path d="M251.05,293.58s-.641.059-1.924,1.807-4.091,1.983-4.091,1.983-1.05-.467-2.216,4.782-1.516,8.748-.933,9.331a8.489,8.489,0,0,0,4.082,1.4s.35,7.348-.233,8.631a1.988,1.988,0,0,0,.117,2.1l5.126-.35a12.2,12.2,0,0,0,2.1-6.065c.35-3.849,1.516-14.814.933-16.1s-3.149-4.549-3.033-4.9A21.436,21.436,0,0,0,251.05,293.58Z" transform="translate(-219.107 -259.611)" opacity="0.1"/><path d="M249.748,293.34s-.863-.023-2.146,1.727-4.082,1.983-4.082,1.983-1.05-.467-2.216,4.782-1.516,8.748-.93,9.326a8.546,8.546,0,0,0,4.082,1.4s.35,7.348-.233,8.631a1.988,1.988,0,0,0,.117,2.1l5.126-.35a12.2,12.2,0,0,0,2.1-6.065c.35-3.849,1.516-14.814.933-16.1s-3.149-4.549-3.033-4.9S249.748,293.34,249.748,293.34Z" transform="translate(-217.815 -259.406)" fill="#d39999"/><path d="M285,374.3s5.836-6.693,5.016-2.1a7.035,7.035,0,0,1-3.849,5.366C285.117,377.913,285,374.3,285,374.3Z" transform="translate(-256.143 -325.339)" fill="#fdc2cc"/><path d="M383.441,480.778a3.823,3.823,0,0,0-2.581-.943l.17-.7s1.494-.467,2.021,0A3.309,3.309,0,0,1,383.441,480.778Z" transform="translate(-337.963 -417.809)" opacity="0.1"/><path d="M336.311,298.36s2.975,1.924,3.325,2.742a3.711,3.711,0,0,0,1.633,1.4s2.449,1.283,2.449,5.832L345,314.748l-5.835,8.163s-.7-8.165-1.05-10.148-.816-5.712-.816-5.712-1.75-2.216-1.516-2.8S336.311,298.36,336.311,298.36Z" transform="translate(-299.471 -263.691)" opacity="0.1"/><path d="M337,298.12s3.1,1.727,3.451,2.542a3.686,3.686,0,0,0,1.634,1.394s2.449,1.283,2.449,5.832l1.283,6.415.233,12.247s-2.1-1.983-3.616-1.05-2.449-3.033-2.449-3.033-.7-8.165-1.05-10.148-.816-5.712-.816-5.712-1.75-2.207-1.516-2.793A55.954,55.954,0,0,0,337,298.12Z" transform="translate(-300.171 -263.486)" fill="#d39999"/><path d="M299.018,228.8a3.807,3.807,0,0,0-.68-.671A2.082,2.082,0,0,0,297,227.48a2.009,2.009,0,0,0-.794.284q-1.86.98-3.71,1.98a3.45,3.45,0,0,0-1.243.949,3.659,3.659,0,0,0-.536,1.567,3.841,3.841,0,0,0-.053,1.145,1.437,1.437,0,0,0,.507.962c.332.242.788.243,1.066.559a3.115,3.115,0,0,1,.346.662c.114.223.312.439.538.4a.564.564,0,0,0,.394-.52,3.156,3.156,0,0,0-.042-.732,1.734,1.734,0,0,1,.267-1.232c.176-.223.428-.357.6-.586.407-.551.221-1.465.668-1.982a1.059,1.059,0,0,1,1.025-.293,4.383,4.383,0,0,1,1.025.439,7.615,7.615,0,0,0,1.4.542c.407.111.879.378,1.018-.164A3.646,3.646,0,0,0,299.018,228.8Z" transform="translate(-260.956 -203.19)" opacity="0.1"/><path d="M298.218,228a3.808,3.808,0,0,0-.68-.671,2.082,2.082,0,0,0-1.343-.653,2.009,2.009,0,0,0-.794.284c-1.239.653-2.269.035-3.71,1.98-.308.416-.926.507-1.243.949a3.658,3.658,0,0,0-.536,1.567,3.84,3.84,0,0,0-.053,1.145,1.437,1.437,0,0,0,.507.962c.332.242.788.243,1.066.559a3.118,3.118,0,0,1,.346.662c.114.223.312.439.538.4a.564.564,0,0,0,.394-.52,3.157,3.157,0,0,0-.042-.732,1.734,1.734,0,0,1,.267-1.232c.176-.223.428-.357.6-.586.407-.551.221-1.465.668-1.982a1.059,1.059,0,0,1,1.025-.293,4.382,4.382,0,0,1,1.025.439,7.617,7.617,0,0,0,1.4.542c.407.111.879.378,1.018-.164A3.6,3.6,0,0,0,298.218,228Z" transform="translate(-260.273 -202.507)" fill="#865a61"/><path d="M255.666,353.71s-.117,4.316-.7,4.9.35,1.283.35,1.283l2.333-.586s-.586,3.849,1.866,3.383a7.434,7.434,0,0,1-3.266,1.75c-1.633.234-1.52-.349-1.52-.349l-2.449-2.916Z" transform="translate(-228.215 -310.935)" fill="#d39999"/><path d="M270.477,357.29s-1.555,3.966-.388,5.6l2.566-.586s-2.333.7-1.983-.7A14.27,14.27,0,0,0,270.477,357.29Z" transform="translate(-243.045 -313.99)" opacity="0.1"/><path d="M269.43,421.467s3.383.233,4.316-.467a8.934,8.934,0,0,1-4.211,1.757Z" transform="translate(-242.853 -368.37)" opacity="0.1"/><path d="M369,373.22s1.75,5.366,1.633,6.182-.35,9.8-.35,9.8l-.35-.117.117-9.8Z" transform="translate(-327.84 -327.587)" opacity="0.1"/><path d="M869.749,476.83s2.563,5.031.474,7.783.19,10.252.19,10.252" transform="translate(-754.905 -416.023)" fill="none" stroke="#e43f6f" stroke-miterlimit="10" stroke-width="1"/><path d="M869,455.9a1.023,1.023,0,1,1-.712-1.757A2.964,2.964,0,0,1,869,455.9Z" transform="translate(-753.4 -396.656)" fill="#e43f6f"/><path d="M873.649,476.83s-2.563,5.031-.474,7.783-.19,10.252-.19,10.252" transform="translate(-757.476 -416.023)" fill="none" stroke="#e43f6f" stroke-miterlimit="10" stroke-width="1"/><path d="M876,455.9a1.023,1.023,0,1,0,.712-1.757A2.964,2.964,0,0,0,876,455.9Z" transform="translate(-760.587 -396.656)" fill="#e43f6f"/><path d="M876,455.9a1.023,1.023,0,1,0,.712-1.757A2.964,2.964,0,0,0,876,455.9Z" transform="translate(-760.587 -396.656)" opacity="0.1"/><path d="M885.949,476.83s2.563,5.031.475,7.783.19,10.252.19,10.252" transform="translate(-768.732 -416.023)" fill="none" stroke="#e43f6f" stroke-miterlimit="10" stroke-width="1"/><path d="M885.2,455.9a1.023,1.023,0,1,1-.712-1.757A2.964,2.964,0,0,1,885.2,455.9Z" transform="translate(-767.228 -396.656)" fill="#e43f6f"/><path d="M880.691,483.417a1.022,1.022,0,1,1,.7-1.757A2.959,2.959,0,0,1,880.691,483.417Z" transform="translate(-763.114 -420.146)" fill="#e43f6f"/><path d="M881.141,507.109a1.021,1.021,0,1,1,.7-1.759A2.959,2.959,0,0,1,881.141,507.109Z" transform="translate(-763.497 -440.366)" fill="#e43f6f"/><path d="M856.5,525.38a1.022,1.022,0,1,1-1.689-.86A2.958,2.958,0,0,1,856.5,525.38Z" transform="translate(-742.5 -456.728)" fill="#e43f6f"/><path d="M859.547,477.554a1.023,1.023,0,1,1-1.857-.372A2.958,2.958,0,0,1,859.547,477.554Z" transform="translate(-744.959 -416.303)" fill="#e43f6f"/><path d="M859.547,477.554a1.023,1.023,0,1,1-1.857-.372A2.958,2.958,0,0,1,859.547,477.554Z" transform="translate(-744.959 -416.303)" opacity="0.1"/><path d="M889.849,476.83s-2.563,5.031-.474,7.783-.19,10.252-.19,10.252" transform="translate(-771.304 -416.023)" fill="none" stroke="#e43f6f" stroke-miterlimit="10" stroke-width="1"/><path d="M892.21,455.9a1.023,1.023,0,1,0,.712-1.757A2.964,2.964,0,0,0,892.21,455.9Z" transform="translate(-774.423 -396.656)" fill="#e43f6f"/><path d="M892.21,455.9a1.023,1.023,0,1,0,.712-1.757A2.964,2.964,0,0,0,892.21,455.9Z" transform="translate(-774.423 -396.656)" opacity="0.1"/><path d="M889.342,489.791a3,3,0,0,0-.732,1.757,2.955,2.955,0,0,0,1.74-.751,3,3,0,0,0,.732-1.757A2.952,2.952,0,0,0,889.342,489.791Z" transform="translate(-771.35 -426.445)" fill="#e43f6f"/><path d="M889.342,489.791a3,3,0,0,0-.732,1.757,2.955,2.955,0,0,0,1.74-.751,3,3,0,0,0,.732-1.757A2.952,2.952,0,0,0,889.342,489.791Z" transform="translate(-771.35 -426.445)" opacity="0.1"/><path d="M898.452,522.621a3,3,0,0,0-.732,1.758,2.955,2.955,0,0,0,1.74-.751,3,3,0,0,0,.732-1.758A2.934,2.934,0,0,0,898.452,522.621Z" transform="translate(-779.126 -454.466)" fill="#e43f6f"/><path d="M889.31,505.26s1.542-2.431,3.708-2.49" transform="translate(-771.948 -438.164)" fill="none" stroke="#e43f6f" stroke-miterlimit="10" stroke-width="1"/><path d="M859.5,495.23s-1.542-2.431-3.708-2.49" transform="translate(-743.337 -429.603)" fill="none" stroke="#e43f6f" stroke-miterlimit="10" stroke-width="1"/><path d="M879.74,518.93s1.542-2.431,3.708-2.49" transform="translate(-763.779 -449.832)" fill="none" stroke="#e43f6f" stroke-miterlimit="10" stroke-width="1"/><circle cx="0.4" cy="0.4" r="0.4" transform="translate(120.599 64.193)" fill="#e43f6f"/><circle cx="0.4" cy="0.4" r="0.4" transform="translate(112.09 62.758)" fill="#e43f6f"/><path d="M865.878,524.4s-1.542-2.431-3.708-2.49" transform="translate(-748.782 -454.501)" fill="none" stroke="#e43f6f" stroke-miterlimit="10" stroke-width="1"/><circle cx="0.4" cy="0.4" r="0.4" transform="translate(113.024 67.03)" fill="#e43f6f"/><circle cx="0.4" cy="0.4" r="0.4" transform="translate(119.299 66.229)" fill="#e43f6f"/><path d="M860.644,558.727s-3.717-.744-4.709-1.735-5.453-2.721-5.948-1.487-6.691,5.457-2.482,6.2,9.914.991,11.153.5S860.644,558.727,860.644,558.727Z" transform="translate(-735.022 -482.81)" fill="#a8a8a8"/><path d="M847.5,582.39c4.214.744,9.914.992,11.153.5.943-.378,1.6-2.2,1.859-3.035l.124.026s-.744,2.975-1.983,3.47-6.939.247-11.153-.5c-1.216-.215-1.564-.719-1.432-1.356C846.174,581.909,846.6,582.23,847.5,582.39Z" transform="translate(-735.016 -503.955)" opacity="0.2"/><path d="M181.592,664.66s1.227,1.611-.567,4.028-3.273,4.468-2.674,5.981c0,0,2.707-4.5,4.909-4.564S184.015,667.366,181.592,664.66Z" transform="translate(-164.998 -576.344)" fill="#e43f6f"/><path d="M182,664.66a1.987,1.987,0,0,1,.25.5c2.15,2.525,3.294,4.881,1.229,4.941-1.924.056-4.233,3.5-4.786,4.366a1.866,1.866,0,0,0,.066.2s2.706-4.5,4.909-4.564S184.419,667.366,182,664.66Z" transform="translate(-165.402 -576.344)" opacity="0.1"/><path d="M215.143,676.527c0,.565-.063,1.025-.146,1.025s-.146-.458-.146-1.025.079-.293.157-.293S215.143,675.964,215.143,676.527Z" transform="translate(-196.266 -586.167)" fill="#ffd037"/><path d="M216.551,680.976c-.5.271-.929.439-.965.365s.334-.344.83-.614.3-.073.338,0S217.047,680.705,216.551,680.976Z" transform="translate(-196.892 -589.94)" fill="#ffd037"/><path d="M140.949,664.66s-1.227,1.611.567,4.028,3.273,4.468,2.674,5.98c0,0-2.707-4.5-4.909-4.564S138.527,667.366,140.949,664.66Z" transform="translate(-130.838 -576.344)" fill="#e43f6f"/><path d="M140.949,664.66a1.987,1.987,0,0,0-.25.5c-2.15,2.525-3.294,4.881-1.229,4.941,1.924.056,4.233,3.5,4.786,4.366a1.866,1.866,0,0,1-.066.2s-2.707-4.5-4.909-4.564S138.527,667.366,140.949,664.66Z" transform="translate(-130.838 -576.344)" opacity="0.1"/><path d="M141.42,676.527c0,.565.063,1.025.146,1.025s.146-.458.146-1.025-.079-.293-.157-.293S141.42,675.964,141.42,676.527Z" transform="translate(-133.591 -586.167)" fill="#ffd037"/><path d="M134.316,680.976c.5.271.929.439.965.365s-.334-.344-.83-.614-.3-.073-.338,0S133.819,680.705,134.316,680.976Z" transform="translate(-127.269 -589.94)" fill="#ffd037"/><path d="M144.09,720.748s3.431-.105,4.465-.842,5.272-1.611,5.535-.439,5.157,5.874,1.283,5.905-9-.6-10.034-1.232S144.09,720.748,144.09,720.748Z" transform="translate(-135.87 -622.636)" fill="#a8a8a8"/><path d="M155.452,735.751c-3.874.031-9-.6-10.034-1.232-.786-.479-1.1-2.2-1.2-2.989H144.1s.217,2.768,1.249,3.4,6.16,1.264,10.034,1.232c1.119-.009,1.5-.407,1.484-1C156.71,735.522,156.284,735.744,155.452,735.751Z" transform="translate(-135.878 -633.42)" opacity="0.2"/></g></svg>