<?xml version="1.0" encoding="utf-8"?>
<!-- Generator: Adobe Illustrator 23.0.1, SVG Export Plug-In . SVG Version: 6.00 Build 0)  -->
<svg version="1.1" id="Layer_1" xmlns="http://www.w3.org/2000/svg" xmlns:xlink="http://www.w3.org/1999/xlink" x="0px" y="0px"
	 viewBox="0 0 90 90" style="enable-background:new 0 0 90 90;" xml:space="preserve">
<style type="text/css">
	.st0{fill:url(#SVGID_1_);}
	.st1{fill:#FFFFFF;}
	.st2{fill:#D8B4A0;}
	.st3{opacity:0.7;}
	.st4{opacity:0.6;}
	.st5{opacity:0.5;}
	.st6{opacity:0.4;}
	.st7{opacity:0.3;}
	.st8{fill:#E43F6F;}
	.st9{fill:url(#SVGID_2_);}
	.st10{fill:none;stroke:#D1CDC7;stroke-width:4;stroke-linecap:round;stroke-linejoin:round;}
	.st11{fill:none;stroke:#D1CDC7;stroke-width:4;stroke-linecap:round;stroke-linejoin:round;stroke-dasharray:12.52,33.38;}
	.st12{fill:none;stroke:#D1CDC7;stroke-width:4;stroke-linecap:round;stroke-linejoin:round;stroke-dasharray:11.93,31.8;}
	.st13{fill:none;stroke:#D1CDC7;stroke-width:4;stroke-linecap:round;stroke-linejoin:round;stroke-dasharray:11.55,30.79;}
	.st14{fill:#E0E0E0;}
	.st15{fill:url(#SVGID_3_);}
	.st16{fill:#F5F5F5;}
	.st17{fill:url(#SVGID_4_);}
	.st18{opacity:0.2;fill:#FFFFFF;enable-background:new    ;}
</style>
<linearGradient id="SVGID_1_" gradientUnits="userSpaceOnUse" x1="-245.3413" y1="456.9321" x2="-245.3413" y2="457.9321" gradientTransform="matrix(40.918 0 0 -45.669 10059.3359 20920.7266)">
	<stop  offset="0" style="stop-color:#808080;stop-opacity:0.251"/>
	<stop  offset="0.54" style="stop-color:#808080;stop-opacity:0.122"/>
	<stop  offset="1" style="stop-color:#808080;stop-opacity:0.102"/>
</linearGradient>
<rect y="7.4" class="st0" width="40.9" height="45.7"/>
<rect x="0.7" y="37.9" class="st1" width="39.6" height="14.2"/>
<rect x="3.9" y="41.3" class="st2" width="1.5" height="7.3"/>
<g transform="translate(6.95 33.856)" class="st3">
	<rect x="0" y="7.4" class="st2" width="1.5" height="7.3"/>
</g>
<g transform="translate(9.978 33.856)" class="st4">
	<rect x="0" y="7.4" class="st2" width="1.5" height="7.3"/>
</g>
<g transform="translate(13.004 33.856)" class="st5">
	<rect x="0" y="7.4" class="st2" width="1.5" height="7.3"/>
</g>
<g transform="translate(16.031 33.856)" class="st5">
	<rect x="0" y="7.4" class="st2" width="1.5" height="7.3"/>
</g>
<g transform="translate(19.057 33.856)" class="st6">
	<rect x="0" y="7.4" class="st2" width="1.5" height="7.3"/>
</g>
<g transform="translate(22.085 33.856)" class="st7">
	<rect x="0" y="7.4" class="st2" width="1.5" height="7.3"/>
</g>
<circle class="st8" cx="34.6" cy="44.9" r="3.7"/>
<rect x="0.7" y="23.2" class="st1" width="39.6" height="14.2"/>
<rect x="3.9" y="26.5" class="st2" width="1.5" height="7.3"/>
<g transform="translate(6.95 19.12)" class="st3">
	<rect x="0" y="7.4" class="st2" width="1.5" height="7.3"/>
</g>
<g transform="translate(9.978 19.12)" class="st4">
	<rect x="0" y="7.4" class="st2" width="1.5" height="7.3"/>
</g>
<g transform="translate(13.004 19.12)" class="st5">
	<rect x="0" y="7.4" class="st2" width="1.5" height="7.3"/>
</g>
<g transform="translate(16.031 19.12)" class="st5">
	<rect x="0" y="7.4" class="st2" width="1.5" height="7.3"/>
</g>
<g transform="translate(19.057 19.12)" class="st6">
	<rect x="0" y="7.4" class="st2" width="1.5" height="7.3"/>
</g>
<g transform="translate(22.085 19.12)" class="st7">
	<rect x="0" y="7.4" class="st2" width="1.5" height="7.3"/>
</g>
<circle class="st8" cx="34.6" cy="30.1" r="3.7"/>
<rect x="0.7" y="8.4" class="st1" width="39.6" height="14.2"/>
<rect x="3.9" y="11.8" class="st2" width="1.5" height="7.3"/>
<g transform="translate(6.95 4.386)" class="st3">
	<rect x="0" y="7.4" class="st2" width="1.5" height="7.3"/>
</g>
<g transform="translate(9.978 4.386)" class="st4">
	<rect x="0" y="7.4" class="st2" width="1.5" height="7.3"/>
</g>
<g transform="translate(13.004 4.386)" class="st5">
	<rect x="0" y="7.4" class="st2" width="1.5" height="7.3"/>
</g>
<g transform="translate(16.031 4.386)" class="st5">
	<rect x="0" y="7.4" class="st2" width="1.5" height="7.3"/>
</g>
<g transform="translate(19.057 4.386)" class="st6">
	<rect x="0" y="7.4" class="st2" width="1.5" height="7.3"/>
</g>
<g transform="translate(22.085 4.386)" class="st7">
	<rect x="0" y="7.4" class="st2" width="1.5" height="7.3"/>
</g>
<linearGradient id="SVGID_2_" gradientUnits="userSpaceOnUse" x1="-219.9052" y1="417.2994" x2="-219.9052" y2="418.2994" gradientTransform="matrix(7.976 0 0 -7.976 1788.604 3347.7688)">
	<stop  offset="0" style="stop-color:#808080;stop-opacity:0.251"/>
	<stop  offset="0.54" style="stop-color:#808080;stop-opacity:0.122"/>
	<stop  offset="1" style="stop-color:#808080;stop-opacity:0.102"/>
</linearGradient>
<circle class="st9" cx="34.6" cy="15.4" r="4"/>
<circle class="st2" cx="34.6" cy="30.2" r="4"/>
<circle class="st2" cx="34.6" cy="45" r="4"/>
<circle class="st2" cx="34.6" cy="15.4" r="3.7"/>
<g transform="translate(45.896 15.797)" class="st3">
	<line class="st10" x1="0" y1="7.4" x2="0.6" y2="7.4"/>
	<line class="st11" x1="3.9" y1="7.4" x2="20.5" y2="7.4"/>
	<path class="st10" d="M22.2,7.4h0.6V8"/>
	<line class="st12" x1="22.8" y1="11.2" x2="22.8" y2="22.7"/>
	<line class="st10" x1="22.8" y1="24.3" x2="22.8" y2="24.9"/>
</g>
<g transform="translate(13.797 48.098)" class="st3">
	<line class="st10" x1="22.8" y1="20.2" x2="22.2" y2="20.2"/>
	<line class="st11" x1="18.9" y1="20.2" x2="2.3" y2="20.1"/>
	<path class="st10" d="M0.6,20.1H0v-0.6"/>
	<line class="st13" x1="0" y1="16.5" x2="0.1" y2="9.6"/>
	<line class="st10" x1="0.1" y1="8" x2="0.1" y2="7.4"/>
</g>
<path class="st14" d="M71.8,70.2c0,0,1.2,8,8.2,10.7H51.6c7-2.7,8.2-10.7,8.2-10.7H71.8z"/>
<linearGradient id="SVGID_3_" gradientUnits="userSpaceOnUse" x1="-242.7005" y1="238.9592" x2="-242.7005" y2="239.9592" gradientTransform="matrix(28.638 0 0 -1.692 7016.2563 486.8904)">
	<stop  offset="0" style="stop-color:#808080;stop-opacity:0.251"/>
	<stop  offset="0.54" style="stop-color:#808080;stop-opacity:0.122"/>
	<stop  offset="1" style="stop-color:#808080;stop-opacity:0.102"/>
</linearGradient>
<rect x="51.5" y="80.9" class="st15" width="28.6" height="1.7"/>
<rect x="51.6" y="80.9" class="st16" width="28.4" height="1.3"/>
<linearGradient id="SVGID_4_" gradientUnits="userSpaceOnUse" x1="-246.2702" y1="453.1055" x2="-246.2702" y2="454.1055" gradientTransform="matrix(48.1851 0 0 -31.36 11932.4492 14282.4697)">
	<stop  offset="0" style="stop-color:#808080;stop-opacity:0.251"/>
	<stop  offset="0.54" style="stop-color:#808080;stop-opacity:0.122"/>
	<stop  offset="1" style="stop-color:#808080;stop-opacity:0.102"/>
</linearGradient>
<path class="st17" d="M88.9,41.7h-46c-0.6,0-1.1,0.5-1.1,1.1l0,0v29c0,0.7,0.6,1.3,1.3,1.3l0,0h45.6c0.7,0,1.3-0.6,1.3-1.3v0v-29
	C90,42.2,89.5,41.7,88.9,41.7z"/>
<path class="st1" d="M43.5,42.2h44.7c0.6,0,1.1,0.5,1.1,1.1l0,0v24.8H42.4V43.2C42.4,42.6,42.9,42.2,43.5,42.2
	C43.5,42.2,43.5,42.2,43.5,42.2z"/>
<path class="st16" d="M87.9,72.3H43.7c-0.7,0-1.3-0.6-1.3-1.3v0v-3h46.8v3C89.2,71.8,88.6,72.3,87.9,72.3z"/>
<rect x="44.7" y="44.3" class="st2" width="42.4" height="20.9"/>
<path class="st18" d="M46.4,45.6h40.7v-1.4H44.7v20.9h1.6V45.6z"/>
</svg>
