<?xml version="1.0" encoding="utf-8"?>
<!-- Generator: Adobe Illustrator 23.0.1, SVG Export Plug-In . SVG Version: 6.00 Build 0)  -->
<svg version="1.1" id="Layer_1" xmlns="http://www.w3.org/2000/svg" xmlns:xlink="http://www.w3.org/1999/xlink" x="0px" y="0px"
	 viewBox="0 0 90 90" style="enable-background:new 0 0 90 90;" xml:space="preserve">
<style type="text/css">
	.st0{fill:url(#SVGID_1_);}
	.st1{fill:#FFFFFF;stroke:#F5F5F5;}
	.st2{fill:#D8B4A0;}
	.st3{fill:#BDBDBD;}
	.st4{fill:#E0E0E0;}
	.st5{fill:url(#SVGID_2_);}
	.st6{fill:#FFFFFF;stroke:#F5F7F9;}
	.st7{opacity:0.1;fill:#E43F6F;enable-background:new    ;}
</style>
<g transform="translate(6.981 7.463)">
	
		<linearGradient id="SVGID_1_" gradientUnits="userSpaceOnUse" x1="-256.7336" y1="447.3448" x2="-256.7336" y2="448.7108" gradientTransform="matrix(67.8759 -21.0903 -12.8808 -41.4549 23229.6387 13193.6816)">
		<stop  offset="0" style="stop-color:#808080;stop-opacity:0.251"/>
		<stop  offset="0.535" style="stop-color:#808080;stop-opacity:0.122"/>
		<stop  offset="1" style="stop-color:#808080;stop-opacity:0.102"/>
	</linearGradient>
	<path class="st0" d="M12.8,18.1l26.4-8.2c11.4-3.6,23.6,2.8,27.2,14.3l0,0c3.6,11.4-2.8,23.6-14.3,27.2l-26.4,8.2
		C14.2,63.1,2.1,56.7-1.5,45.2l0,0C-5,33.8,1.4,21.6,12.8,18.1z"/>
	<g transform="matrix(1, 0, 0, 1, -6.98, -7.46)">
		<path class="st1" d="M4.9,30.6l56.9-17.7c2.6-0.8,5.4,0.7,6.3,3.3l9.5,30.4c0.8,2.6-0.7,5.4-3.3,6.3L17.3,70.6
			c-2.6,0.8-5.4-0.7-6.3-3.3L1.6,36.9C0.8,34.3,2.3,31.4,4.9,30.6z"/>
	</g>
	<rect x="-5.9" y="19.5" transform="matrix(0.955 -0.2967 0.2967 0.955 -5.3606 9.5884)" class="st2" width="69.6" height="6"/>
	<rect x="8.5" y="52.9" transform="matrix(0.955 -0.2967 0.2967 0.955 -15.293 7.587)" class="st3" width="17.7" height="2.6"/>
	<rect x="6.9" y="46.8" transform="matrix(0.955 -0.2967 0.2967 0.955 -13.259 8.7656)" class="st4" width="30.7" height="2.6"/>
	
		<linearGradient id="SVGID_2_" gradientUnits="userSpaceOnUse" x1="-254.9829" y1="448.8669" x2="-254.9829" y2="449.8669" gradientTransform="matrix(71.478 0 0 -43.453 18272.002 19574.9609)">
		<stop  offset="0" style="stop-color:#808080;stop-opacity:0.251"/>
		<stop  offset="0.535" style="stop-color:#808080;stop-opacity:0.122"/>
		<stop  offset="1" style="stop-color:#808080;stop-opacity:0.102"/>
	</linearGradient>
	<path class="st5" d="M32.3,26.9h28c12,0,21.7,9.7,21.7,21.7v0c0,12-9.7,21.7-21.7,21.7h-28c-12,0-21.7-9.7-21.7-21.7v0
		C10.6,36.6,20.3,26.9,32.3,26.9z"/>
	<g transform="matrix(1, 0, 0, 1, -6.98, -7.46)">
		<path class="st6" d="M23.4,34.8H83c2.8,0,5,2.2,5,5v31.9c0,2.8-2.2,5-5,5H23.4c-2.8,0-5-2.2-5-5V39.8C18.4,37,20.6,34.8,23.4,34.8
			z"/>
	</g>
	<rect x="28" y="47.7" class="st4" width="2" height="5.8"/>
	<rect x="30.6" y="47.7" class="st4" width="2" height="5.8"/>
	<rect x="33.2" y="47.7" class="st4" width="2" height="5.8"/>
	<rect x="37.7" y="47.7" class="st4" width="2" height="5.8"/>
	<rect x="40.3" y="47.7" class="st4" width="2" height="5.8"/>
	<rect x="42.9" y="47.7" class="st4" width="2" height="5.8"/>
	<rect x="47.4" y="47.7" class="st4" width="2" height="5.8"/>
	<rect x="50" y="47.7" class="st4" width="2" height="5.8"/>
	<rect x="52.6" y="47.7" class="st4" width="2" height="5.8"/>
	<rect x="57.2" y="47.7" class="st4" width="2" height="5.8"/>
	<rect x="59.8" y="47.7" class="st4" width="2" height="5.8"/>
	<rect x="62.4" y="47.7" class="st4" width="2" height="5.8"/>
	<rect x="15.8" y="38.3" class="st2" width="12.1" height="6.6"/>
	<rect x="62.9" y="60.1" class="st7" width="7.4" height="7.4"/>
	<rect x="66.6" y="60.1" class="st7" width="7.4" height="7.4"/>
</g>
</svg>
