<svg xmlns="http://www.w3.org/2000/svg" width="147.82" height="106.739" viewBox="0 0 147.82 106.739"><g transform="translate(0 0)"><rect width="1.316" height="51.976" transform="translate(128.358 51.992)" fill="#3f3d56"/><path d="M940.995,276.61c.084,18.175-12.7,32.967-12.7,32.967s-12.923-14.674-13.006-32.849,12.7-32.967,12.7-32.967S940.91,258.435,940.995,276.61Z" transform="translate(-799.177 -217.994)" fill="#3f3d56"/><rect width="0.677" height="26.732" transform="translate(102.687 76.447)" fill="#3f3d56"/><path d="M781.157,538.544c.043,9.348-6.534,16.956-6.534,16.956s-6.646-7.547-6.69-16.895,6.534-16.956,6.534-16.956S781.114,529.2,781.157,538.544Z" transform="translate(-671.547 -458.69)" fill="#3f3d56"/><ellipse cx="18.336" cy="2.811" rx="18.336" ry="2.811" transform="translate(98.367 101.117)" fill="#3f3d56"/><path d="M853.457,320.481a6.035,6.035,0,0,0-4.627-2.747s-2.995-.383-4.916,3.615c-1.791,3.726-4.262,7.324-.4,8.2l.7-2.172.432,2.334a15.108,15.108,0,0,0,1.653.028c4.138-.134,8.079.039,7.952-1.446C854.084,326.315,854.952,323.007,853.457,320.481Z" transform="translate(-735.242 -282.058)" fill="#2f2e41"/><path d="M889.234,368.329s2.007,2.811.8,5.086,2.811,4.684,2.811,4.684l2.944-6.424s-3.48-2.275-2.543-4.417Z" transform="translate(-776.613 -324.963)" fill="#fbbebe"/><circle cx="3.48" cy="3.48" r="3.48" transform="translate(110.48 37.611)" fill="#fbbebe"/><path d="M809.255,339.822l2.908-3.752s1.024-3.933,2.507-3.733-.586,4.716-.586,4.716l-2.89,4.153Z" transform="translate(-707.338 -294.709)" fill="#fbbebe"/><path d="M871.469,707.417l.937,4.952,2.008.535-.535-5.889Z" transform="translate(-754.833 -612.389)" fill="#fbbebe"/><path d="M1022.47,663.086l3.614,4.952,1.472.669,1.2-2.008-3.614-4.684Z" transform="translate(-885.624 -573.411)" fill="#fbbebe"/><path d="M867.745,397.612l-2.233-2.939s-4.326.8-4.727,1.2,1.071,7.763,1.071,7.763a5.7,5.7,0,0,0,1.472,3.078l1.2.8,9.9-2.008.372-4.407a11.565,11.565,0,0,0-3.049-8.843h0l-1.723.236Z" transform="translate(-751.911 -346.617)" fill="#575a89"/><path d="M802,383.147l-.669-.268-3.078-.268s-1.071-.268-.8-.8.535-.669,0-.8-.669-.268-.535-.669a5.327,5.327,0,0,1,.937-1.2l-2.275-1.874s-.123.087-.322.248c-1.13.915-4.7,4.215-2.087,7.514,3.078,3.881,6.692,6.157,9.636,5.354Z" transform="translate(-692.591 -333.624)" fill="#575a89"/><path d="M881.507,492.6v1.874a7.817,7.817,0,0,0-.8,4.417c.4,2.141.535,3.212.535,3.212a18.274,18.274,0,0,0,.937,5.354c.937,2.677-2.141,20.21,1.74,20.477s6.023.535,7.227-.8-2.007-24.359-2.007-24.359,10.975,22.886,13.25,21.95,8.03-3.078,7.361-4.283-17.533-27.972-17.533-27.972l-.535-1.2Z" transform="translate(-769.153 -432.367)" fill="#2f2e41"/><path d="M913.492,791.187s-2.141-.134-2.141.535a14.028,14.028,0,0,1-1.071,2.944s-.8,2.677,1.339,2.409,3.48-2.677,3.48-2.677l-.535-2.543Z" transform="translate(-794.714 -692.144)" fill="#2f2e41"/><path d="M1090.926,747.554s-1.874-1.2-1.74-.4.268,2.945,1.2,3.078a14.851,14.851,0,0,1,3.882,1.2c.134.268,3.346,1.338,3.346-.4s-2.008-3.078-2.008-3.078l-2.275-1.74s-1.472-.134-1.74.8S1090.926,747.554,1090.926,747.554Z" transform="translate(-949.797 -653.195)" fill="#2f2e41"/><circle cx="2.222" cy="2.222" r="2.222" transform="translate(111.743 33.467)" fill="#2f2e41"/><path d="M877.894,299.146a2.222,2.222,0,0,1,1.988-2.21,2.222,2.222,0,1,0,0,4.419A2.222,2.222,0,0,1,877.894,299.146Z" transform="translate(-766.386 -264.042)" fill="#2f2e41"/><path d="M825.735,274.9l-3.036-1.591-4.193.651-.868,3.831,2.16-.083.6-1.408v1.384l1-.038.578-2.241.362,2.386,3.542-.072Z" transform="translate(-708.206 -236.728)" fill="#2f2e41"/><path d="M869.773,487.989l-4.683.127s-4,.777-3.771-.835,4.122-1.049,4.122-1.049l4.267-.651Z" transform="translate(-752.426 -427.449)" fill="#fbbebe"/><path d="M920.058,390.489a1,1,0,0,1,1.1.686c.917,2.889,3.741,12.556.935,13.882a13.827,13.827,0,0,1-5.717,1.493l-1.291-3.178,1.175-1.1,1.255-8.067.6-3.42Z" transform="translate(-799.007 -345.074)" fill="#575a89"/><path d="M864.189,379.515l-.535,5.354-4.684,2.008,5.22-1.2Z" transform="translate(-744.006 -328.721)" opacity="0.4"/><path d="M744.1,298.7h0a6.269,6.269,0,0,1,3.661,2.659l.438.678.022.028,7.68,2.247a.56.56,0,0,1,.383.685l-.6,2.186a.56.56,0,0,1-.691.392l-7.682-2.147h0l-.771.292a6.9,6.9,0,0,1-4.433.151h0Z" transform="translate(-649.18 -265.585)" fill="#3f3d56"/><ellipse cx="0.469" cy="0.879" rx="0.469" ry="0.879" transform="translate(101.189 39.416) rotate(-73.69)" fill="#575a89"/><circle cx="0.322" cy="0.322" r="0.322" transform="translate(102.294 39.045)" fill="#3f3d56"/><ellipse cx="3.76" cy="1.7" rx="3.76" ry="1.7" transform="matrix(0.308, -0.951, 0.951, 0.308, 91.168, 39.789)" fill="#e43f6f"/><path d="M742.955,302.832c.617-1.9.449-3.677-.363-4.063a.791.791,0,0,1,.144.032c.893.29,1.1,2.126.458,4.1s-1.884,3.341-2.777,3.052a.8.8,0,0,1-.095-.038C741.2,306.027,742.348,304.7,742.955,302.832Z" transform="translate(-647.631 -265.64)" opacity="0.4"/><path d="M142.787,84.37,125.356,70.848a115.361,115.361,0,0,1-8.862-7.68A44.39,44.39,0,0,0,96.926,52.629c-19.08-4.9-34.2,3.787-41.071,16.54C45.35,88.656,37.3,120.279,83.881,103.446c10.187-3.681,20.5-4.073,28.318-6.012L140.512,91.6Z" transform="translate(-47.766 -51.242)" fill="#e43f6f"/><circle cx="0.937" cy="0.937" r="0.937" transform="translate(41.753 8.501)" fill="#f2f2f2"/><path d="M451.484,85.117h-.244v-.244h-.048v.244h-.244v.048h.244v.244h.048v-.244h.244Z" transform="translate(-390.595 -73.514)" fill="#f2f2f2"/><path d="M634.484,237.117h-.244v-.244h-.048v.244h-.244v.048h.244v.244h.048v-.244h.244Z" transform="translate(-549.102 -205.17)" fill="#f2f2f2"/><path d="M621.484,284.117h-.244v-.244h-.048v.244h-.244v.048h.244v.244h.048v-.244h.244Z" transform="translate(-537.842 -245.88)" fill="#f2f2f2"/><path d="M62.484,324.117h-.244v-.244h-.048v.244h-.244v.048h.244v.244h.048v-.244h.244Z" transform="translate(-53.658 -280.526)" fill="#f2f2f2"/><path d="M142.484,106.117h-.244v-.244h-.048v.244h-.244v.048h.244v.244h.048v-.244h.244Z" transform="translate(-122.951 -91.703)" fill="#f2f2f2"/><path d="M453.484,292.117h-.244v-.244h-.048v.244h-.244v.048h.244v.244h.048v-.244h.244Z" transform="translate(-392.327 -252.809)" fill="#f2f2f2"/><path d="M262.484,42.117h-.244v-.244h-.048v.244h-.244v.048h.244v.244h.048v-.244h.244Z" transform="translate(-226.89 -36.269)" fill="#f2f2f2"/><path d="M312.449,238.915l-.3.047c.1.608.17,1.229.225,1.843l.307-.027C312.621,240.156,312.545,239.529,312.449,238.915Z" transform="translate(-276.761 -213.797)" fill="#e6e6e6"/><path d="M306.3,211.575l-.294.09c.178.589.337,1.193.472,1.793l.3-.068C306.641,212.782,306.479,212.172,306.3,211.575Z" transform="translate(-271.443 -190.116)" fill="#e6e6e6"/><path d="M296.485,185.355l-.28.128c.257.561.5,1.136.716,1.712l.288-.108C296.988,186.5,296.746,185.921,296.485,185.355Z" transform="translate(-262.954 -167.405)" fill="#e6e6e6"/><path d="M283.215,160.775l-.26.165c.331.519.648,1.057.942,1.6l.27-.147C283.87,161.843,283.549,161.3,283.215,160.775Z" transform="translate(-251.478 -146.115)" fill="#e6e6e6"/><path d="M266.719,138.245l-.234.2c.4.468.787.958,1.154,1.453l.246-.183C267.516,139.214,267.123,138.719,266.719,138.245Z" transform="translate(-237.212 -126.601)" fill="#e6e6e6"/><path d="M247.33,118.185l-.2.229c.46.411.911.843,1.341,1.284l.221-.215C248.252,119.036,247.8,118.6,247.33,118.185Z" transform="translate(-220.443 -109.225)" fill="#e6e6e6"/><path d="M225.418,100.965l-.173.254c.511.344,1.017.711,1.5,1.089l.19-.242C226.446,101.684,225.934,101.313,225.418,100.965Z" transform="translate(-201.492 -94.31)" fill="#e6e6e6"/><path d="M206.4,89.006v.348c.32.167.637.343.948.522l.154-.266Q206.964,89.3,206.4,89.006Z" transform="translate(-185.173 -83.951)" fill="#e6e6e6"/><path d="M314.57,267.185l.308-.006c.006.311.006.623,0,.928l-.308,0C314.576,267.8,314.576,267.492,314.57,267.185Z" transform="translate(-278.861 -238.278)" fill="#e6e6e6"/><path d="M177.449,435.915l-.3.047c.1.608.17,1.229.225,1.843l.307-.027C177.621,437.156,177.545,436.529,177.449,435.915Z" transform="translate(-159.829 -384.431)" fill="#e6e6e6"/><path d="M171.3,408.575l-.294.09c.178.589.337,1.193.472,1.793l.3-.068C171.641,409.782,171.479,409.172,171.3,408.575Z" transform="translate(-154.511 -360.75)" fill="#e6e6e6"/><path d="M161.485,382.355l-.28.129c.257.561.5,1.136.716,1.712l.288-.108C161.988,383.5,161.746,382.921,161.485,382.355Z" transform="translate(-146.023 -338.039)" fill="#e6e6e6"/><path d="M148.215,357.775l-.26.165c.331.519.648,1.057.942,1.6l.27-.147C148.87,358.843,148.549,358.3,148.215,357.775Z" transform="translate(-134.546 -316.749)" fill="#e6e6e6"/><path d="M131.719,335.245l-.234.2c.4.468.787.958,1.154,1.453l.246-.183C132.516,336.214,132.123,335.719,131.719,335.245Z" transform="translate(-120.28 -297.234)" fill="#e6e6e6"/><path d="M112.33,315.185l-.2.229c.46.411.911.843,1.341,1.284l.221-.215C113.252,316.036,112.8,315.6,112.33,315.185Z" transform="translate(-103.511 -279.859)" fill="#e6e6e6"/><path d="M90.418,297.965l-.173.254c.511.344,1.017.711,1.5,1.089l.19-.242C91.445,298.684,90.934,298.313,90.418,297.965Z" transform="translate(-84.56 -264.944)" fill="#e6e6e6"/><path d="M71.4,286.005v.348c.32.167.637.343.948.522l.154-.266Q71.964,286.3,71.4,286.005Z" transform="translate(-68.241 -254.585)" fill="#e6e6e6"/><path d="M179.57,464.185l.308-.006c.006.311.006.623,0,.928l-.308,0C179.576,464.8,179.575,464.492,179.57,464.185Z" transform="translate(-161.93 -408.912)" fill="#e6e6e6"/><path d="M639.449,336.915l-.3.047c.1.608.17,1.229.225,1.843l.307-.027C639.621,338.156,639.545,337.529,639.449,336.915Z" transform="translate(-559.995 -298.681)" fill="#e6e6e6"/><path d="M633.3,309.575l-.294.09c.178.589.337,1.193.472,1.793l.3-.068C633.641,310.782,633.479,310.172,633.3,309.575Z" transform="translate(-554.677 -275)" fill="#e6e6e6"/><path d="M623.485,283.355l-.28.128c.257.561.5,1.136.716,1.712l.288-.108C623.988,284.5,623.746,283.921,623.485,283.355Z" transform="translate(-546.189 -252.289)" fill="#e6e6e6"/><path d="M610.215,258.775l-.26.165c.331.519.648,1.057.942,1.6l.27-.147C610.87,259.843,610.549,259.3,610.215,258.775Z" transform="translate(-534.712 -230.999)" fill="#e6e6e6"/><path d="M593.719,236.245l-.234.2c.4.468.787.958,1.154,1.454l.246-.183C594.516,237.214,594.123,236.719,593.719,236.245Z" transform="translate(-520.447 -211.484)" fill="#e6e6e6"/><path d="M574.33,216.185l-.2.229c.46.411.911.843,1.341,1.284l.221-.215C575.252,217.036,574.8,216.6,574.33,216.185Z" transform="translate(-503.678 -194.109)" fill="#e6e6e6"/><path d="M552.418,198.965l-.173.254c.511.344,1.017.711,1.5,1.089l.19-.242C553.445,199.684,552.934,199.313,552.418,198.965Z" transform="translate(-484.726 -179.194)" fill="#e6e6e6"/><path d="M533.405,187.005v.348c.32.167.637.343.948.522l.154-.266Q533.964,187.3,533.405,187.005Z" transform="translate(-468.408 -168.835)" fill="#e6e6e6"/><path d="M641.57,365.185l.308-.006c.006.311.006.623,0,.928l-.308,0C641.576,365.8,641.576,365.492,641.57,365.185Z" transform="translate(-562.096 -323.162)" fill="#e6e6e6"/><path d="M146.071,198.426h-.227V198.2H145.8v.227h-.227v.044h.227v.227h.044v-.227h.227Z" transform="translate(-126.09 -171.672)" fill="#f2f2f2"/><path d="M126.53,300.783H126.3v-.227h-.044v.227h-.227v.044h.227v.227h.044v-.227h.227Z" transform="translate(-109.164 -260.33)" fill="#f2f2f2"/><path d="M69.193,390.491h-.227v-.227h-.044v.227h-.227v.044h.227v.227h.044v-.227h.227Z" transform="translate(-59.501 -338.031)" fill="#f2f2f2"/><path d="M261.494,163.674a16.437,16.437,0,1,1,7.626,6.123,5.317,5.317,0,1,1-7.626-6.123Z" transform="translate(-230.454 -126.443)" fill="#3f3d56"/><path d="M341.6,190.679c3.768,0,6.361,2.09,6.361,5.094a4.915,4.915,0,0,1-2.824,4.461c-1.748,1.015-2.341,1.758-2.341,3.045h0a.794.794,0,0,1-.794.794H340.08a.794.794,0,0,1-.793-.766l0-.1a4.183,4.183,0,0,1,2.371-4.421c1.7-1.015,2.412-1.658,2.412-2.9s-1.206-2.16-2.7-2.16a2.575,2.575,0,0,0-2.452,1.458,1.774,1.774,0,0,1-1.621,1.014h0a1.744,1.744,0,0,1-1.557-2.542C336.7,191.829,338.737,190.679,341.6,190.679ZM338.962,207.9a2.157,2.157,0,1,1,2.15,2.07A2.1,2.1,0,0,1,338.962,207.9Z" transform="translate(-297.019 -172.017)" fill="#e43f6f"/></g></svg>