<svg xmlns="http://www.w3.org/2000/svg" width="150" height="90.599" viewBox="0 0 150 90.599"><g transform="translate(0 0.355)"><path d="M175.492,245.2a24.547,24.547,0,0,1-2.13,4.091,17.7,17.7,0,0,1-1.29,1.773l-.014.017H27.8l.026-.018c.13-.1.892-.718,2.077-1.773.85-.758,1.917-1.742,3.115-2.926,9.8-9.638,28.622-32.451,12.945-53.35-14.573-19.428,1.118-22.955,11.468-23.365A29.628,29.628,0,0,1,69.1,171.557,103.538,103.538,0,0,0,94,177.438q.561.064,1.132.122a109.06,109.06,0,0,0,18.144.328h0c.178-.009.357-.022.537-.035a107.966,107.966,0,0,0,17.747-2.747c.378-.092.75-.179,1.121-.26,19.423-4.494,37.328,10.822,32.852,28.131-1.656,6.4-1.236,13.226,4.284,18.745C178.849,230.736,177.75,239.61,175.492,245.2Z" transform="translate(-27.073 -161.054)" fill="#e43f6f" opacity="0.1"/><ellipse cx="1.824" cy="1.393" rx="1.824" ry="1.393" transform="matrix(0.488, -0.873, 0.873, 0.488, 114.415, 35.882)" fill="#3f3d56"/><ellipse cx="1.824" cy="1.393" rx="1.824" ry="1.393" transform="matrix(0.488, -0.873, 0.873, 0.488, 115.502, 33.936)" fill="#3f3d56"/><ellipse cx="1.824" cy="1.393" rx="1.824" ry="1.393" transform="matrix(0.488, -0.873, 0.873, 0.488, 116.59, 31.991)" fill="#3f3d56"/><ellipse cx="1.824" cy="1.393" rx="1.824" ry="1.393" transform="matrix(0.488, -0.873, 0.873, 0.488, 117.677, 30.044)" fill="#3f3d56"/><ellipse cx="1.824" cy="1.393" rx="1.824" ry="1.393" transform="matrix(0.488, -0.873, 0.873, 0.488, 118.764, 28.099)" fill="#3f3d56"/><ellipse cx="1.824" cy="1.393" rx="1.824" ry="1.393" transform="matrix(0.488, -0.873, 0.873, 0.488, 119.852, 26.154)" fill="#3f3d56"/><ellipse cx="1.824" cy="1.393" rx="1.824" ry="1.393" transform="matrix(0.488, -0.873, 0.873, 0.488, 120.941, 24.208)" fill="#3f3d56"/><path d="M946.641,113.715a6.8,6.8,0,0,0,.826-.413l-2.9-2.312L948,112.947a6.686,6.686,0,0,0,2.691-4.552l-5.98-.187,6.032-.752a6.673,6.673,0,1,0-13.257,1.14,6.706,6.706,0,0,0-1.258.691l2.945,4.473-3.592-3.956a6.674,6.674,0,0,0-2.12,5.994,6.672,6.672,0,1,0,9.156,5.118,6.671,6.671,0,0,0,4.024-7.2Z" transform="translate(-811.606 -101.19)" fill="#e43f6f"/><path d="M934.227,182.787a6.655,6.655,0,0,0-.761,4.3,6.672,6.672,0,1,0,9.156,5.118C943.95,191.649,934.593,182.138,934.227,182.787Z" transform="translate(-811.606 -172.477)" opacity="0.1"/><path d="M989.635,631.77h1.572a3.245,3.245,0,0,1,3.245,3.245v4.817H986.39v-4.817A3.245,3.245,0,0,1,989.635,631.77Z" transform="translate(-858.353 -550.073)" fill="#3f3d56"/><path d="M989.635,631.77h1.572a3.245,3.245,0,0,1,3.245,3.245v4.817H986.39v-4.817A3.245,3.245,0,0,1,989.635,631.77Z" transform="translate(-858.353 -550.073)" opacity="0.1"/><circle cx="0.645" cy="0.645" r="0.645" transform="translate(131.102 82.181)" fill="#3f3d56"/><circle cx="0.645" cy="0.645" r="0.645" transform="translate(131.102 81.375)" fill="#3f3d56"/><circle cx="0.645" cy="0.645" r="0.645" transform="translate(131.102 80.568)" fill="#3f3d56"/><circle cx="0.645" cy="0.645" r="0.645" transform="translate(131.102 79.762)" fill="#3f3d56"/><circle cx="0.645" cy="0.645" r="0.645" transform="translate(131.102 78.956)" fill="#3f3d56"/><circle cx="0.645" cy="0.645" r="0.645" transform="translate(131.102 78.15)" fill="#3f3d56"/><circle cx="0.645" cy="0.645" r="0.645" transform="translate(131.102 77.344)" fill="#3f3d56"/><circle cx="0.645" cy="0.645" r="0.645" transform="translate(132.069 77.665)" fill="#3f3d56"/><circle cx="0.645" cy="0.645" r="0.645" transform="translate(132.714 77.344)" fill="#3f3d56"/><circle cx="0.645" cy="0.645" r="0.645" transform="translate(133.359 77.02)" fill="#3f3d56"/><circle cx="0.645" cy="0.645" r="0.645" transform="translate(131.102 76.537)" fill="#3f3d56"/><circle cx="0.645" cy="0.645" r="0.645" transform="translate(131.102 75.731)" fill="#3f3d56"/><circle cx="0.645" cy="0.645" r="0.645" transform="translate(131.102 74.924)" fill="#3f3d56"/><circle cx="0.645" cy="0.645" r="0.645" transform="translate(131.102 74.118)" fill="#3f3d56"/><path d="M1021.438,648.269q-.24.035-.483.051a3.708,3.708,0,0,0,.415-.426,2.727,2.727,0,0,0-.389-.757,1.343,1.343,0,0,1-.519.165c-.16.023-.321.04-.482.051a8.612,8.612,0,0,0,.617-.649,2.739,2.739,0,1,0,.9,2.026,2.692,2.692,0,0,0-.042-.471Z" transform="translate(-887.017 -575.585)" fill="#e43f6f"/><path d="M1057.093,686.078a1.269,1.269,0,0,1-.543.182c-.16.023-.321.04-.482.051a4.736,4.736,0,0,0,.478-.5,1.668,1.668,0,0,0-.413-.055,1.615,1.615,0,1,0,.959.318Z" transform="translate(-920.517 -610.19)" fill="#e43f6f"/><circle cx="0.645" cy="0.645" r="0.645" transform="translate(130.134 77.665)" fill="#3f3d56"/><circle cx="0.645" cy="0.645" r="0.645" transform="translate(129.489 77.344)" fill="#3f3d56"/><circle cx="0.645" cy="0.645" r="0.645" transform="translate(128.845 77.02)" fill="#3f3d56"/><path d="M995.625,686.078a1.269,1.269,0,0,0,.543.182c.16.023.321.04.482.051a4.717,4.717,0,0,1-.478-.5,1.668,1.668,0,0,1,.413-.055,1.615,1.615,0,1,1-.959.318Z" transform="translate(-868.702 -610.19)" fill="#e43f6f"/><path d="M989.635,635.5h1.572a3.245,3.245,0,0,1,3.245,3.245v4.267a.55.55,0,0,1-.55.55H986.94a.55.55,0,0,1-.55-.55v-4.267A3.245,3.245,0,0,1,989.635,635.5Z" transform="translate(-858.353 -553.319)" fill="#3f3d56"/><g transform="translate(129.043 70.445)" opacity="0.1"><path d="M1056.749,664.88a2.087,2.087,0,0,1-.209.2,2.075,2.075,0,0,0,.221-.019C1056.758,665,1056.756,664.938,1056.749,664.88Z" transform="translate(-1051.322 -662.465)"/><path d="M1049.09,655.337c.161-.01.322-.027.482-.051a1.509,1.509,0,0,0,.419-.114,2.921,2.921,0,0,0-.226-.373.976.976,0,0,1-.26.11A3.839,3.839,0,0,1,1049.09,655.337Z" transform="translate(-1044.839 -653.693)"/><path d="M1016.624,649.3a2.736,2.736,0,0,1,4.219-2.305l.042-.044a2.739,2.739,0,1,0-3.611,4.119A2.726,2.726,0,0,1,1016.624,649.3Z" transform="translate(-1016.34 -646.275)"/></g><g transform="translate(134.007 75.57)" opacity="0.1"><path d="M1066.48,688.739c.161-.012.322-.029.481-.052a1.269,1.269,0,0,0,.543-.18,1.608,1.608,0,0,1,.649,1.142,1.487,1.487,0,0,0,.009-.171,1.608,1.608,0,0,0-.649-1.3,1.269,1.269,0,0,1-.543.182l-.13.016A3.2,3.2,0,0,1,1066.48,688.739Z" transform="translate(-1064.935 -687.866)"/><path d="M1056.192,686.082a.738.738,0,0,1,.161.012c.084-.09.167-.186.252-.279a1.668,1.668,0,0,0-.413-.055,1.612,1.612,0,0,0-1.612,1.612,1.094,1.094,0,0,0,.008.161A1.614,1.614,0,0,1,1056.192,686.082Z" transform="translate(-1054.58 -685.76)"/></g><g transform="translate(126.259 75.57)" opacity="0.1"><path d="M996.572,688.739c-.161-.012-.322-.029-.482-.052a1.269,1.269,0,0,1-.543-.18,1.608,1.608,0,0,0-.649,1.142,1.5,1.5,0,0,1-.009-.171,1.608,1.608,0,0,1,.649-1.3,1.269,1.269,0,0,0,.543.182l.13.016A3.309,3.309,0,0,0,996.572,688.739Z" transform="translate(-994.89 -687.866)"/><path d="M1004.583,686.082a.739.739,0,0,0-.161.012c-.084-.09-.167-.186-.252-.279a1.668,1.668,0,0,1,.413-.055,1.612,1.612,0,0,1,1.612,1.612,1.094,1.094,0,0,1-.008.161A1.614,1.614,0,0,0,1004.583,686.082Z" transform="translate(-1002.965 -685.76)"/></g><path d="M35.245,539h12.4a3.245,3.245,0,0,1,3.245,3.245v15.64H32v-15.64A3.245,3.245,0,0,1,35.245,539Z" transform="translate(-27.846 -469.345)" fill="#3f3d56"/><path d="M35.245,539h12.4a3.245,3.245,0,0,1,3.245,3.245v15.64H32v-15.64A3.245,3.245,0,0,1,35.245,539Z" transform="translate(-27.846 -469.345)" opacity="0.1"/><circle cx="1.511" cy="1.511" r="1.511" transform="translate(11.336 70.783)" fill="#3f3d56"/><circle cx="1.511" cy="1.511" r="1.511" transform="translate(11.336 68.895)" fill="#3f3d56"/><circle cx="1.511" cy="1.511" r="1.511" transform="translate(11.336 67.005)" fill="#3f3d56"/><circle cx="1.511" cy="1.511" r="1.511" transform="translate(11.336 65.116)" fill="#3f3d56"/><circle cx="1.511" cy="1.511" r="1.511" transform="translate(11.336 63.226)" fill="#3f3d56"/><circle cx="1.511" cy="1.511" r="1.511" transform="translate(11.336 61.337)" fill="#3f3d56"/><circle cx="1.511" cy="1.511" r="1.511" transform="translate(11.336 59.449)" fill="#3f3d56"/><circle cx="1.511" cy="1.511" r="1.511" transform="translate(13.602 60.204)" fill="#3f3d56"/><circle cx="1.511" cy="1.511" r="1.511" transform="translate(15.113 59.449)" fill="#3f3d56"/><circle cx="1.511" cy="1.511" r="1.511" transform="translate(16.625 58.692)" fill="#3f3d56"/><circle cx="1.511" cy="1.511" r="1.511" transform="translate(11.336 57.559)" fill="#3f3d56"/><circle cx="1.511" cy="1.511" r="1.511" transform="translate(11.336 55.67)" fill="#3f3d56"/><circle cx="1.511" cy="1.511" r="1.511" transform="translate(11.336 53.78)" fill="#3f3d56"/><circle cx="1.511" cy="1.511" r="1.511" transform="translate(11.336 51.892)" fill="#3f3d56"/><path d="M84.184,441.769q-.562.082-1.129.119a8.8,8.8,0,0,0,.972-1,6.406,6.406,0,0,0-.9-1.773,3.081,3.081,0,0,1-1.21.389c-.374.055-.752.095-1.129.121a20.361,20.361,0,0,0,1.445-1.506,6.437,6.437,0,1,0,2.011,3.642Z" transform="translate(-65.072 -393.241)" fill="#e43f6f"/><path d="M167.9,530.3a2.976,2.976,0,0,1-1.271.423c-.375.056-.752.095-1.129.121a10.626,10.626,0,0,0,1.119-1.16,3.781,3.781,0,1,0,1.281.617Z" transform="translate(-143.734 -474.265)" fill="#e43f6f"/><circle cx="1.511" cy="1.511" r="1.511" transform="translate(9.068 60.204)" fill="#3f3d56"/><circle cx="1.511" cy="1.511" r="1.511" transform="translate(7.557 59.449)" fill="#3f3d56"/><circle cx="1.511" cy="1.511" r="1.511" transform="translate(6.046 58.692)" fill="#3f3d56"/><path d="M23.74,530.3a2.976,2.976,0,0,0,1.272.423c.374.056.75.095,1.128.121a10.625,10.625,0,0,1-1.119-1.16,3.781,3.781,0,1,1-1.281.617Z" transform="translate(-22.208 -474.265)" fill="#e43f6f"/><path d="M35.245,547.69h12.4a3.245,3.245,0,0,1,3.245,3.245v15.1a.55.55,0,0,1-.55.55H32.553a.55.55,0,0,1-.553-.55v-15.1A3.245,3.245,0,0,1,35.245,547.69Z" transform="translate(-27.846 -476.907)" fill="#3f3d56"/><g transform="translate(6.513 43.284)" opacity="0.1"><path d="M167.048,480.61a4.885,4.885,0,0,1-.488.462c.173-.012.347-.027.519-.044C167.073,480.888,167.064,480.748,167.048,480.61Z" transform="translate(-154.334 -474.952)"/><path d="M149.1,458.3c.378-.026.754-.065,1.128-.121a3.6,3.6,0,0,0,.984-.26,6.564,6.564,0,0,0-.53-.875,2.23,2.23,0,0,1-.6.26A8.986,8.986,0,0,1,149.1,458.3Z" transform="translate(-139.141 -454.442)"/><path d="M73.04,444.122a6.411,6.411,0,0,1,9.885-5.4c.032-.034.065-.071.1-.1a6.417,6.417,0,1,0-8.46,9.651,6.388,6.388,0,0,1-1.522-4.146Z" transform="translate(-72.374 -437.025)"/></g><g transform="translate(18.134 55.295)" opacity="0.1"><path d="M189.85,536.589q.566-.036,1.129-.121a2.968,2.968,0,0,0,1.271-.423,3.772,3.772,0,0,1,1.514,2.675,3.956,3.956,0,0,0,.021-.4,3.764,3.764,0,0,0-1.53-3.032,2.975,2.975,0,0,1-1.271.423c-.1.014-.2.026-.3.038A7.479,7.479,0,0,1,189.85,536.589Z" transform="translate(-186.222 -534.546)"/><path d="M165.677,530.313a3.643,3.643,0,0,1,.379.026c.2-.21.389-.434.588-.649a3.764,3.764,0,0,0-4.744,3.649c0,.13.006.26.018.378A3.779,3.779,0,0,1,165.677,530.313Z" transform="translate(-161.9 -529.56)"/></g><g transform="translate(0 55.295)" opacity="0.1"><path d="M26.13,536.589q-.566-.036-1.128-.121a2.939,2.939,0,0,1-1.272-.423,3.772,3.772,0,0,0-1.51,2.675,3.953,3.953,0,0,1-.021-.4,3.764,3.764,0,0,1,1.532-3.032,2.975,2.975,0,0,0,1.272.423c.1.014.2.026.3.038a7.6,7.6,0,0,0,.831.839Z" transform="translate(-22.2 -534.546)"/><path d="M44.827,530.313a3.643,3.643,0,0,0-.379.026c-.2-.21-.389-.434-.588-.649a3.764,3.764,0,0,1,4.744,3.649,2.55,2.55,0,0,1-.018.378A3.779,3.779,0,0,0,44.827,530.313Z" transform="translate(-41.048 -529.56)"/></g><path d="M510.292,617.822,484.98,617.5l.074-.649,1.224-10.709h22.229l1.636,10.709.125.811Z" transform="translate(-422.028 -527.77)" fill="#d0d2d5"/><path d="M510.267,689.451H497.636l-12.656-.162.074-.649h25.089Z" transform="translate(-422.028 -599.561)" opacity="0.1"/><rect width="33.587" height="0.811" transform="translate(58.734 89.241)" fill="#d0d2d5"/><path d="M323.3,197.574a2.113,2.113,0,0,0-2.1-2.124H227.4a2.113,2.113,0,0,0-2.1,2.124v56.854h98Z" transform="translate(-198.937 -183.524)" fill="#444053"/><path d="M225.3,645.45v6.66a2.1,2.1,0,0,0,2.1,2.108h93.8a2.1,2.1,0,0,0,2.1-2.1V645.45Z" transform="translate(-198.937 -575.112)" fill="#d0d2d5"/><rect width="90.376" height="51.11" transform="translate(30.42 15.496)" fill="#e43f6f" opacity="0.1"/><path d="M591.76,663.949a2.192,2.192,0,0,0,1.724-.836h0a2.343,2.343,0,0,0,.17-.25l-1.2-.2,1.3.009a2.184,2.184,0,0,0,.042-1.735l-1.743.909,1.608-1.181a2.19,2.19,0,1,0-3.618,2.44h0A2.19,2.19,0,0,0,591.76,663.949Z" transform="translate(-515.909 -587.375)" fill="#e43f6f"/><path d="M601.23,611.76l10.1,10.142-1.549-10.142Z" transform="translate(-523.188 -532.66)" opacity="0.1"/><rect width="85.69" height="45.501" transform="translate(32.936 18.232)" fill="#fff"/><rect width="23.901" height="1.239" transform="translate(37.715 30.093)" fill="#e43f6f" opacity="0.1"/><rect width="2.302" height="6.551" transform="translate(39.84 23.543)" fill="#e43f6f" opacity="0.1"/><rect width="2.302" height="6.551" transform="translate(43.204 23.543)" fill="#e43f6f" opacity="0.1"/><rect width="2.302" height="6.551" transform="translate(46.568 23.543)" fill="#e43f6f" opacity="0.1"/><rect width="2.302" height="6.551" transform="translate(49.932 23.543)" fill="#e43f6f" opacity="0.1"/><rect width="2.302" height="6.551" transform="translate(53.295 23.543)" fill="#e43f6f" opacity="0.1"/><rect width="2.302" height="6.551" transform="translate(56.659 23.543)" fill="#e43f6f" opacity="0.1"/><rect width="2.302" height="0.708" transform="translate(39.84 24.783)" fill="#e43f6f" opacity="0.1"/><rect width="2.302" height="0.708" transform="translate(43.204 24.783)" fill="#e43f6f" opacity="0.1"/><rect width="2.302" height="0.708" transform="translate(46.568 24.783)" fill="#e43f6f" opacity="0.1"/><rect width="2.302" height="0.708" transform="translate(49.932 24.783)" fill="#e43f6f" opacity="0.1"/><rect width="2.302" height="0.708" transform="translate(53.295 24.783)" fill="#e43f6f" opacity="0.1"/><rect width="2.302" height="0.708" transform="translate(56.659 24.783)" fill="#e43f6f" opacity="0.1"/><rect width="2.302" height="0.708" transform="translate(39.84 27.97)" fill="#e43f6f" opacity="0.1"/><rect width="2.302" height="0.708" transform="translate(43.204 27.97)" fill="#e43f6f" opacity="0.1"/><rect width="2.302" height="0.708" transform="translate(46.568 27.97)" fill="#e43f6f" opacity="0.1"/><rect width="2.302" height="0.708" transform="translate(49.932 27.97)" fill="#e43f6f" opacity="0.1"/><rect width="2.302" height="0.708" transform="translate(53.295 27.97)" fill="#e43f6f" opacity="0.1"/><rect width="2.302" height="0.708" transform="translate(56.659 27.97)" fill="#e43f6f" opacity="0.1"/><rect width="23.901" height="1.239" transform="translate(90.12 33.28)" fill="#e43f6f" opacity="0.1"/><rect width="2.302" height="6.551" transform="translate(92.246 26.729)" fill="#e43f6f" opacity="0.1"/><rect width="2.302" height="6.551" transform="translate(95.61 26.729)" fill="#e43f6f" opacity="0.1"/><rect width="2.302" height="6.551" transform="translate(98.973 26.729)" fill="#e43f6f" opacity="0.1"/><rect width="2.302" height="6.551" transform="translate(102.338 26.729)" fill="#e43f6f" opacity="0.1"/><rect width="2.302" height="6.551" transform="translate(105.701 26.729)" fill="#e43f6f" opacity="0.1"/><rect width="2.302" height="6.551" transform="translate(109.064 26.729)" fill="#e43f6f" opacity="0.1"/><rect width="2.302" height="0.708" transform="translate(92.246 27.97)" fill="#e43f6f" opacity="0.1"/><rect width="2.302" height="0.708" transform="translate(95.61 27.97)" fill="#e43f6f" opacity="0.1"/><rect width="2.302" height="0.708" transform="translate(98.973 27.97)" fill="#e43f6f" opacity="0.1"/><rect width="2.302" height="0.708" transform="translate(102.338 27.97)" fill="#e43f6f" opacity="0.1"/><rect width="2.302" height="0.708" transform="translate(105.701 27.97)" fill="#e43f6f" opacity="0.1"/><rect width="2.302" height="0.708" transform="translate(109.064 27.97)" fill="#e43f6f" opacity="0.1"/><rect width="2.302" height="0.708" transform="translate(92.246 31.157)" fill="#e43f6f" opacity="0.1"/><rect width="2.302" height="0.708" transform="translate(95.61 31.157)" fill="#e43f6f" opacity="0.1"/><rect width="2.302" height="0.708" transform="translate(98.973 31.157)" fill="#e43f6f" opacity="0.1"/><rect width="2.302" height="0.708" transform="translate(102.338 31.157)" fill="#e43f6f" opacity="0.1"/><rect width="2.302" height="0.708" transform="translate(105.701 31.157)" fill="#e43f6f" opacity="0.1"/><rect width="2.302" height="0.708" transform="translate(109.064 31.157)" fill="#e43f6f" opacity="0.1"/><rect width="23.901" height="1.239" transform="translate(90.12 42.31)" fill="#e43f6f" opacity="0.1"/><rect width="2.302" height="6.551" transform="translate(92.246 35.759)" fill="#e43f6f" opacity="0.1"/><rect width="2.302" height="6.551" transform="translate(95.61 35.759)" fill="#e43f6f" opacity="0.1"/><rect width="2.302" height="6.551" transform="translate(98.973 35.759)" fill="#e43f6f" opacity="0.1"/><rect width="2.302" height="6.551" transform="translate(102.338 35.759)" fill="#e43f6f" opacity="0.1"/><rect width="2.302" height="6.551" transform="translate(105.701 35.759)" fill="#e43f6f" opacity="0.1"/><rect width="2.302" height="6.551" transform="translate(109.064 35.759)" fill="#e43f6f" opacity="0.1"/><rect width="2.302" height="0.708" transform="translate(92.246 36.997)" fill="#e43f6f" opacity="0.1"/><rect width="2.302" height="0.708" transform="translate(95.61 36.997)" fill="#e43f6f" opacity="0.1"/><rect width="2.302" height="0.708" transform="translate(98.973 36.997)" fill="#e43f6f" opacity="0.1"/><rect width="2.302" height="0.708" transform="translate(102.338 36.997)" fill="#e43f6f" opacity="0.1"/><rect width="2.302" height="0.708" transform="translate(105.701 36.997)" fill="#e43f6f" opacity="0.1"/><rect width="2.302" height="0.708" transform="translate(109.064 36.997)" fill="#e43f6f" opacity="0.1"/><rect width="2.302" height="0.708" transform="translate(92.246 40.185)" fill="#e43f6f" opacity="0.1"/><rect width="2.302" height="0.708" transform="translate(95.61 40.185)" fill="#e43f6f" opacity="0.1"/><rect width="2.302" height="0.708" transform="translate(98.973 40.185)" fill="#e43f6f" opacity="0.1"/><rect width="2.302" height="0.708" transform="translate(102.338 40.185)" fill="#e43f6f" opacity="0.1"/><rect width="2.302" height="0.708" transform="translate(105.701 40.185)" fill="#e43f6f" opacity="0.1"/><rect width="2.302" height="0.708" transform="translate(109.064 40.185)" fill="#e43f6f" opacity="0.1"/><path d="M390.748,385.282a6.316,6.316,0,0,1-.488-.717L393.7,384l-3.729.03a6.286,6.286,0,0,1-.12-4.971l4.993,2.591-4.6-3.385a6.273,6.273,0,1,1,10.363,7.015,6.272,6.272,0,0,1,.719,1.141l-4.464,2.32,4.762-1.594a6.27,6.27,0,0,1-1.011,5.889,6.273,6.273,0,1,1-9.86,0,6.273,6.273,0,0,1,0-7.756Z" transform="translate(-338.375 -341.179)" fill="#e43f6f" opacity="0.1"/><path d="M401.98,462.692a6.246,6.246,0,0,1-1.342,3.877,6.273,6.273,0,1,1-9.86,0C389.937,465.5,401.98,461.987,401.98,462.692Z" transform="translate(-338.404 -414.71)" fill="#e43f6f" opacity="0.1"/><path d="M422.743,552.227c.011.018.019.035.03.053h-2.13c.011-.018.019-.035.03-.053a2.073,2.073,0,0,1-.274-1.049,2.158,2.158,0,0,1,.129-.738h0c.118.019.265.04.434.057a7.47,7.47,0,0,0,1.486,0c.14-.014.289-.035.438-.057a.1.1,0,0,1,0,.011,2.127,2.127,0,0,1,.126.727A2.073,2.073,0,0,1,422.743,552.227Z" transform="translate(-364.432 -488.547)" fill="#3f3d56" opacity="0.2"/><path d="M298.638,439.829H286.793c-.027-.069-.051-.14-.072-.21a6.235,6.235,0,0,1,.139-4.1,6.272,6.272,0,0,1-2.289-7.412,6.486,6.486,0,0,1-.679-.542l3.121-1.556-3.547,1.126a6.28,6.28,0,0,1-1.581-4.716l5.535,1-5.4-1.875a6.273,6.273,0,1,1,11.97,3.649,6.392,6.392,0,0,1,1.022.882l-3.584,3.536,4.08-2.933a6.275,6.275,0,0,1,.772,5.927A6.275,6.275,0,0,1,298.638,439.829Z" transform="translate(-247.982 -376.092)" fill="#e43f6f" opacity="0.1"/><path d="M322.775,502.044H310.929c-.027-.069-.051-.14-.072-.21a6.235,6.235,0,0,1,.139-4.1c-1.116-.773,9.352-7.686,9.565-7.015a6.261,6.261,0,0,1-.139,4.1A6.275,6.275,0,0,1,322.775,502.044Z" transform="translate(-272.118 -438.308)" fill="#e43f6f" opacity="0.1"/><path d="M620.965,458.666a6.243,6.243,0,0,1-3.141,2.64,6.469,6.469,0,0,1,.027,1.35l-5.025-.3,4.907,1.073a6.288,6.288,0,0,1-2.422,3.737h-6.839v.177H601.51c.014-.061.029-.12.045-.177a6.3,6.3,0,0,1,3.826-4.258,6.278,6.278,0,0,1,3.986-6.658,6.276,6.276,0,0,1-.053-.866l3.244,1.275-3.208-1.884a6.288,6.288,0,0,1,2.441-4.327l2.956,4.783-2.214-5.261a6.272,6.272,0,0,1,8.43,8.7Z" transform="translate(-516.67 -403.429)" fill="#e43f6f" opacity="0.1"/><path d="M616.984,535.959a6.185,6.185,0,0,1-1.672,1.841h-6.839v.177H601.51c.014-.061.029-.12.045-.177a6.3,6.3,0,0,1,3.826-4.258c-.059-.458,1.293-.4,3.093-.092C611.992,534.039,617.223,535.559,616.984,535.959Z" transform="translate(-516.67 -474.064)" fill="#e43f6f" opacity="0.1"/><path d="M504.3,443.6s.853,4.65-1.06,6.167,1.617,10.614,7.48,9.554,8.239-8.695,8.239-8.695-5.864-1.212-3.691-7.378Z" transform="translate(-433.631 -398.446)" fill="#efb7b9"/><path d="M504.3,443.6s.853,4.65-1.06,6.167,1.617,10.614,7.48,9.554,8.239-8.695,8.239-8.695-5.864-1.212-3.691-7.378Z" transform="translate(-433.631 -398.446)" opacity="0.1"/><ellipse cx="9.704" cy="9.704" rx="9.704" ry="9.704" transform="translate(66.151 29.161)" fill="#efb7b9"/><path d="M476.224,485.129v6.6H444.18v-6.3a4.067,4.067,0,0,1,2.481-3.743l.92-.391c2.324-.99,5.148-2.219,6.071-2.731a1.515,1.515,0,0,0,.284-.183c.505-.505.4.151.4.151s-.014.124-.024.341c-.054,1.484.159,7.322,7,6.836,6.673-.478,6.967-4.98,6.906-6.305a3.308,3.308,0,0,0-.032-.367,9.159,9.159,0,0,1,1.352.44,28.138,28.138,0,0,1,4.006,1.735c.172.12.381.247.607.373a4.043,4.043,0,0,1,2.073,3.542Z" transform="translate(-384.422 -427.816)" fill="#e43f6f"/><path d="M519.448,479.5c-.564,2.618-2.337,7.522-8.732,7.652-6.809.134-7.2-6.638-7.16-8.559a1.47,1.47,0,0,0,.285-.185c.505-.505.4.151.4.151s-.859,7.734,6.975,7.174,6.874-6.672,6.874-6.672A7.988,7.988,0,0,1,519.448,479.5Z" transform="translate(-434.331 -427.842)" opacity="0.1"/><path d="M469.715,325.318a1.678,1.678,0,0,1,1.754.638,3.136,3.136,0,0,1,.448,1.664c.422.089.66-.389.7-.748a19.443,19.443,0,0,1,.66-4.379,5.24,5.24,0,0,1,3.224-3.332,3.724,3.724,0,0,1,1.754-.167c.349.059.679.18,1.028.237,1.207.2,2.522-.373,3.656.026a2.881,2.881,0,0,1,1.492,1.409,3.075,3.075,0,0,0,.58.843,4.054,4.054,0,0,0,1.926.679,2.488,2.488,0,0,1,1.739.9,2.348,2.348,0,0,1-.019,1.559,3.807,3.807,0,0,0,.394,2.407c.128.242.386.517.69.438a.609.609,0,0,0,.33-.268c.8-1.116.772-2.564,1.765-3.56.333-.333.762-.595,1.086-.934a2.1,2.1,0,0,0,.563-1.913,6.31,6.31,0,0,0-1.287-2.073,8.131,8.131,0,0,1-1.379-2.862.51.51,0,0,1,0-.373,1,1,0,0,1,.352-.289,1.333,1.333,0,0,0,.458-1.7,2.809,2.809,0,0,0-1.585-1.266,10.552,10.552,0,0,0-2.178-.478,1.183,1.183,0,0,1-1.212-.6c-.067-.174-.067-.362-.136-.536a1.228,1.228,0,0,0-.923-.65,2.711,2.711,0,0,0-1.247.088,1.947,1.947,0,0,1-1.392.1c-.21-.12-.328-.336-.555-.434-.459-.2-.944.2-1.275.526a3.14,3.14,0,0,1-1.153.773,1.711,1.711,0,0,1-1.425-.094,4.49,4.49,0,0,1-.732-.786,2.753,2.753,0,0,0-1.731-.709,6.117,6.117,0,0,0-1.955.214,11.834,11.834,0,0,0-3.436,1.435,3.689,3.689,0,0,0-1.317,1.224,2.779,2.779,0,0,0-.3,1.263,4.562,4.562,0,0,0,1.594,3.782,2.246,2.246,0,0,0-1.138,1.7,9.339,9.339,0,0,0-.442,3.188,7,7,0,0,1,.121,1.656,3.574,3.574,0,0,0-.108.8A.762.762,0,0,0,469.715,325.318Z" transform="translate(-405.345 -285.974)" fill="#454b69"/><g transform="translate(63.728 27.002)" opacity="0.1"><path d="M596.335,378.18a2.285,2.285,0,0,1-.419.617c-.319.34-.753.6-1.086.936-.993.995-.972,2.447-1.765,3.56a.605.605,0,0,1-.33.266c-.3.078-.563-.2-.69-.438a3.872,3.872,0,0,1-.346-.933q-.026.121-.048.244a3.807,3.807,0,0,0,.394,2.407c.128.242.386.517.69.438a.609.609,0,0,0,.33-.268c.8-1.116.772-2.564,1.765-3.56.333-.333.762-.595,1.086-.934a2.1,2.1,0,0,0,.563-1.913A2.308,2.308,0,0,0,596.335,378.18Z" transform="translate(-572.067 -370.751)"/><path d="M605.666,333.571a.979.979,0,0,0-.352.287.511.511,0,0,0,0,.373,7.809,7.809,0,0,0,.352,1.06h0a1.333,1.333,0,0,0,.451-1.72,1.744,1.744,0,0,0-.159-.271A1.329,1.329,0,0,1,605.666,333.571Z" transform="translate(-583.565 -333.026)"/><path d="M470.68,334.274a4.328,4.328,0,0,1-1.522-2.694,3.829,3.829,0,0,0-.07.638,4.851,4.851,0,0,0,.765,2.87A1.631,1.631,0,0,1,470.68,334.274Z" transform="translate(-469.081 -331.58)"/><path d="M488.83,364.04a2.348,2.348,0,0,0,.019-1.559,2.478,2.478,0,0,0-1.739-.9,4.042,4.042,0,0,1-1.926-.679,3.075,3.075,0,0,1-.58-.843,2.858,2.858,0,0,0-1.492-1.409c-1.133-.4-2.449.174-3.656-.026-.349-.057-.679-.179-1.028-.238a3.724,3.724,0,0,0-1.754.159,5.233,5.233,0,0,0-3.224,3.332,19.293,19.293,0,0,0-.66,4.379c-.038.359-.276.837-.7.748a3.164,3.164,0,0,0-.448-1.664,1.666,1.666,0,0,0-1.754-.638.845.845,0,0,1-.491-.319,2.684,2.684,0,0,1-.01.638,3.58,3.58,0,0,0-.108.8.762.762,0,0,0,.606.6,1.677,1.677,0,0,1,1.754.638,3.135,3.135,0,0,1,.448,1.664c.422.089.66-.389.7-.748a19.447,19.447,0,0,1,.66-4.379,5.24,5.24,0,0,1,3.224-3.332,3.724,3.724,0,0,1,1.754-.167c.349.059.679.18,1.028.238,1.207.2,2.522-.373,3.656.026a2.881,2.881,0,0,1,1.492,1.409,3.075,3.075,0,0,0,.58.843,4.053,4.053,0,0,0,1.926.679,2.558,2.558,0,0,1,1.7.847C488.819,364.11,488.824,364.075,488.83,364.04Z" transform="translate(-469.247 -354.078)"/><path d="M469.251,382.7a4.485,4.485,0,0,0-.077-1.295,5.772,5.772,0,0,0-.045,1.357c.01.116.026.231.041.348C469.191,382.977,469.226,382.842,469.251,382.7Z" transform="translate(-469.105 -373.466)"/></g></g></svg>